  0
SECTION
  2
HEADER
  9
$ACADVER
  1
AC1006
  9
$EXTMIN
 10
0.000000
 20
0.000000
 30
0.000000
  9
$EXTMAX
 10
6244.000000
 20
6667.000000
 30
0.000000
  0
ENDSEC
  0
SECTION
  2
ENTITIES
  0
POLYLINE
  8
0
 66
1
 70
1
  0
VERTEX
  8
0
 10
0.000000
 20
3333.500000
 42
0.000000
  0
VERTEX
  8
0
 10
0.000000
 20
0.000000
 42
0.000000
  0
VERTEX
  8
0
 10
3122.000000
 20
0.000000
 42
0.000000
  0
VERTEX
  8
0
 10
6244.000000
 20
0.000000
 42
0.000000
  0
VERTEX
  8
0
 10
6244.000000
 20
3333.500000
 42
0.000000
  0
VERTEX
  8
0
 10
6244.000000
 20
6667.000000
 42
0.000000
  0
VERTEX
  8
0
 10
3122.000000
 20
6667.000000
 42
0.000000
  0
VERTEX
  8
0
 10
0.000000
 20
6667.000000
 42
0.000000
  0
SEQEND
  0
POLYLINE
  8
0
 66
1
 70
1
  0
VERTEX
  8
0
 10
2220.913425
 20
6035.252152
 42
-0.041805
  0
VERTEX
  8
0
 10
2222.030483
 20
6034.280918
 42
-0.022033
  0
VERTEX
  8
0
 10
2223.253800
 20
6032.907043
 42
-0.021766
  0
VERTEX
  8
0
 10
2224.390267
 20
6031.380364
 42
-0.031220
  0
VERTEX
  8
0
 10
2225.248446
 20
6029.928915
 42
-0.117592
  0
VERTEX
  8
0
 10
2226.465753
 20
6024.898781
 42
-0.000181
  0
VERTEX
  8
0
 10
2226.745176
 20
5930.775502
 42
-0.000606
  0
VERTEX
  8
0
 10
2226.959582
 20
5777.123578
 42
-0.000045
  0
VERTEX
  8
0
 10
2226.998446
 20
5358.750000
 42
0.000000
  0
VERTEX
  8
0
 10
2227.000000
 20
4691.000000
 42
0.000000
  0
VERTEX
  8
0
 10
2119.000000
 20
4691.000000
 42
0.000000
  0
VERTEX
  8
0
 10
2011.000000
 20
4691.000000
 42
0.000000
  0
VERTEX
  8
0
 10
2011.000000
 20
5308.780517
 42
0.000000
  0
VERTEX
  8
0
 10
2011.000000
 20
5926.561034
 42
0.000000
  0
VERTEX
  8
0
 10
2103.651073
 20
5978.530517
 42
-0.000123
  0
VERTEX
  8
0
 10
2183.576794
 20
6023.336237
 42
-0.005104
  0
VERTEX
  8
0
 10
2200.938110
 20
6032.831671
 42
-0.021568
  0
VERTEX
  8
0
 10
2209.583248
 20
6036.977351
 42
-0.133718
  0
VERTEX
  8
0
 10
2214.413425
 20
6037.648955
 42
-0.032914
  0
VERTEX
  8
0
 10
2216.101025
 20
6037.318259
 42
-0.023495
  0
VERTEX
  8
0
 10
2217.937088
 20
6036.737620
 42
-0.023843
  0
VERTEX
  8
0
 10
2219.642200
 20
6036.014805
 42
-0.045906
  0
SEQEND
  0
POLYLINE
  8
0
 66
1
 70
1
  0
VERTEX
  8
0
 10
2572.315741
 20
6036.896359
 42
-0.079096
  0
VERTEX
  8
0
 10
2573.919987
 20
6035.737167
 42
-0.000008
  0
VERTEX
  8
0
 10
2671.237547
 20
5938.769232
 42
-0.000253
  0
VERTEX
  8
0
 10
2778.737262
 20
5831.543857
 42
-0.000153
  0
VERTEX
  8
0
 10
2906.003567
 20
5704.396359
 42
0.000145
  0
VERTEX
  8
0
 10
3078.113305
 20
5532.441867
 42
0.000792
  0
VERTEX
  8
0
 10
3171.297936
 20
5439.689587
 42
0.000087
  0
VERTEX
  8
0
 10
3237.493386
 20
5374.032646
 42
0.197806
  0
VERTEX
  8
0
 10
3240.001506
 20
5373.000000
 42
0.197829
  0
VERTEX
  8
0
 10
3242.509683
 20
5374.032800
 42
0.000087
  0
VERTEX
  8
0
 10
3308.698844
 20
5439.695212
 42
0.000792
  0
VERTEX
  8
0
 10
3401.878884
 20
5532.459482
 42
0.000145
  0
VERTEX
  8
0
 10
3573.997939
 20
5704.453990
 42
-0.000232
  0
VERTEX
  8
0
 10
3705.384615
 20
5835.699848
 42
-0.000431
  0
VERTEX
  8
0
 10
3812.046976
 20
5941.965633
 42
-0.000019
  0
VERTEX
  8
0
 10
3906.203023
 20
6035.602662
 42
-0.107116
  0
VERTEX
  8
0
 10
3908.315100
 20
6036.953990
 42
-0.085448
  0
VERTEX
  8
0
 10
3913.044417
 20
6037.840397
 42
-0.092815
  0
VERTEX
  8
0
 10
3917.654074
 20
6037.047675
 42
-0.090522
  0
VERTEX
  8
0
 10
3921.753482
 20
6034.612850
 42
-0.076841
  0
VERTEX
  8
0
 10
3925.005402
 20
6030.759140
 42
-0.136694
  0
VERTEX
  8
0
 10
3926.448901
 20
6025.659105
 42
-0.000289
  0
VERTEX
  8
0
 10
3926.741031
 20
5943.179380
 42
-0.000702
  0
VERTEX
  8
0
 10
3926.960144
 20
5802.812904
 42
-0.000038
  0
VERTEX
  8
0
 10
3926.996262
 20
5359.250000
 42
0.000000
  0
VERTEX
  8
0
 10
3927.000000
 20
4691.000000
 42
0.000000
  0
VERTEX
  8
0
 10
3818.500000
 20
4691.000000
 42
0.000000
  0
VERTEX
  8
0
 10
3710.000000
 20
4691.000000
 42
0.000000
  0
VERTEX
  8
0
 10
3710.000000
 20
5115.598871
 42
0.000080
  0
VERTEX
  8
0
 10
3709.959029
 20
5371.071009
 42
0.000866
  0
VERTEX
  8
0
 10
3709.747038
 20
5474.392375
 42
0.000318
  0
VERTEX
  8
0
 10
3709.462100
 20
5538.865329
 42
0.109942
  0
VERTEX
  8
0
 10
3708.380917
 20
5543.609707
 42
0.080206
  0
VERTEX
  8
0
 10
3706.680011
 20
5546.079265
 42
0.114516
  0
VERTEX
  8
0
 10
3704.461537
 20
5547.531327
 42
0.123232
  0
VERTEX
  8
0
 10
3701.955540
 20
5547.798692
 42
0.102448
  0
VERTEX
  8
0
 10
3699.424491
 20
5546.894460
 42
0.061613
  0
VERTEX
  8
0
 10
3697.725305
 20
5545.547229
 42
0.000016
  0
VERTEX
  8
0
 10
3631.096754
 20
5477.833060
 42
0.000313
  0
VERTEX
  8
0
 10
3557.273652
 20
5402.708217
 42
0.000190
  0
VERTEX
  8
0
 10
3470.032680
 20
5313.750000
 42
-0.000197
  0
VERTEX
  8
0
 10
3348.561506
 20
5189.891045
 42
-0.001221
  0
VERTEX
  8
0
 10
3286.068143
 20
5126.529618
 42
-0.000229
  0
VERTEX
  8
0
 10
3242.986698
 20
5083.102440
 42
-0.199832
  0
VERTEX
  8
0
 10
3240.338434
 20
5082.000000
 42
-0.118482
  0
VERTEX
  8
0
 10
3238.732791
 20
5082.385896
 42
-0.040682
  0
VERTEX
  8
0
 10
3236.684304
 20
5083.650439
 42
-0.027944
  0
VERTEX
  8
0
 10
3234.050719
 20
5085.825090
 42
-0.009611
  0
VERTEX
  8
0
 10
3230.485534
 20
5089.250000
 42
-0.002700
  0
VERTEX
  8
0
 10
3224.799441
 20
5094.988144
 42
-0.000011
  0
VERTEX
  8
0
 10
3160.550218
 20
5160.532327
 42
-0.000054
  0
VERTEX
  8
0
 10
3087.700535
 20
5234.869543
 42
-0.000034
  0
VERTEX
  8
0
 10
3002.605902
 20
5321.732390
 42
0.000313
  0
VERTEX
  8
0
 10
2909.141756
 20
5417.032184
 42
0.000748
  0
VERTEX
  8
0
 10
2839.605746
 20
5487.633498
 42
0.000055
  0
VERTEX
  8
0
 10
2781.492119
 20
5546.448292
 42
0.137196
  0
VERTEX
  8
0
 10
2779.486970
 20
5547.592626
 42
0.117478
  0
VERTEX
  8
0
 10
2776.658920
 20
5547.626624
 42
0.129251
  0
VERTEX
  8
0
 10
2774.231659
 20
5546.366233
 42
0.102380
  0
VERTEX
  8
0
 10
2772.343355
 20
5543.780334
 42
0.053907
  0
VERTEX
  8
0
 10
2771.090660
 20
5539.987128
 42
0.052143
  0
VERTEX
  8
0
 10
2770.516274
 20
5534.643051
 42
0.000081
  0
VERTEX
  8
0
 10
2770.253659
 20
5437.949453
 42
0.000498
  0
VERTEX
  8
0
 10
2770.055676
 20
5310.896364
 42
0.000141
  0
VERTEX
  8
0
 10
2770.000000
 20
5112.950779
 42
0.000000
  0
VERTEX
  8
0
 10
2770.000000
 20
4691.000000
 42
0.000000
  0
VERTEX
  8
0
 10
2662.000000
 20
4691.000000
 42
0.000000
  0
VERTEX
  8
0
 10
2554.000000
 20
4691.000000
 42
0.000000
  0
VERTEX
  8
0
 10
2554.003738
 20
5359.750000
 42
0.000000
  0
VERTEX
  8
0
 10
2554.007476
 20
6028.500000
 42
0.000000
  0
VERTEX
  8
0
 10
2556.023433
 20
6031.806555
 42
-0.099616
  0
VERTEX
  8
0
 10
2559.088864
 20
6035.122994
 42
-0.081010
  0
VERTEX
  8
0
 10
2563.423391
 20
6037.294691
 42
-0.082569
  0
VERTEX
  8
0
 10
2568.141693
 20
6037.950142
 42
-0.110730
  0
SEQEND
  0
POLYLINE
  8
0
 66
1
 70
1
  0
VERTEX
  8
0
 10
4265.282119
 20
6036.598165
 42
-0.093236
  0
VERTEX
  8
0
 10
4267.794806
 20
6034.890984
 42
-0.000026
  0
VERTEX
  8
0
 10
4359.341145
 20
5943.824524
 42
-0.000456
  0
VERTEX
  8
0
 10
4465.134365
 20
5838.382546
 42
-0.000225
  0
VERTEX
  8
0
 10
4599.499434
 20
5704.098165
 42
0.000144
  0
VERTEX
  8
0
 10
4771.685505
 20
5531.960132
 42
0.000797
  0
VERTEX
  8
0
 10
4864.590721
 20
5439.429769
 42
0.000089
  0
VERTEX
  8
0
 10
4930.480672
 20
5374.037686
 42
0.197881
  0
VERTEX
  8
0
 10
4933.000000
 20
5373.000000
 42
0.197867
  0
VERTEX
  8
0
 10
4935.519295
 20
5374.037596
 42
0.000089
  0
VERTEX
  8
0
 10
5001.412729
 20
5439.426317
 42
0.000797
  0
VERTEX
  8
0
 10
5094.320384
 20
5531.949453
 42
0.000144
  0
VERTEX
  8
0
 10
5266.500566
 20
5704.063634
 42
-0.000179
  0
VERTEX
  8
0
 10
5393.609149
 20
5831.105933
 42
-0.000296
  0
VERTEX
  8
0
 10
5501.062141
 20
5938.299258
 42
-0.000012
  0
VERTEX
  8
0
 10
5598.211131
 20
6035.094288
 42
-0.073807
  0
VERTEX
  8
0
 10
5600.200340
 20
6036.563634
 42
-0.104030
  0
VERTEX
  8
0
 10
5604.594239
 20
6037.834462
 42
-0.087818
  0
VERTEX
  8
0
 10
5609.418143
 20
6037.345796
 42
-0.087151
  0
VERTEX
  8
0
 10
5613.812716
 20
6035.222951
 42
-0.100188
  0
VERTEX
  8
0
 10
5616.974365
 20
6031.810176
 42
0.000000
  0
VERTEX
  8
0
 10
5618.992524
 20
6028.500000
 42
0.000000
  0
VERTEX
  8
0
 10
5618.996262
 20
5359.750000
 42
0.000000
  0
VERTEX
  8
0
 10
5619.000000
 20
4691.000000
 42
0.000000
  0
VERTEX
  8
0
 10
5511.005780
 20
4691.000000
 42
0.000000
  0
VERTEX
  8
0
 10
5403.011560
 20
4691.000000
 42
0.000000
  0
VERTEX
  8
0
 10
5402.755780
 20
5116.294012
 42
0.000069
  0
VERTEX
  8
0
 10
5402.556251
 20
5386.442211
 42
0.000987
  0
VERTEX
  8
0
 10
5402.282729
 20
5482.454163
 42
0.000425
  0
VERTEX
  8
0
 10
5401.955425
 20
5540.163232
 42
0.144372
  0
VERTEX
  8
0
 10
5400.691733
 20
5544.347756
 42
0.041453
  0
VERTEX
  8
0
 10
5399.094019
 20
5546.394094
 42
0.099286
  0
VERTEX
  8
0
 10
5397.541952
 20
5547.518877
 42
0.110362
  0
VERTEX
  8
0
 10
5395.784207
 20
5547.892338
 42
0.058924
  0
VERTEX
  8
0
 10
5393.570012
 20
5547.606928
 42
0.137190
  0
VERTEX
  8
0
 10
5391.692135
 20
5546.535259
 42
0.000047
  0
VERTEX
  8
0
 10
5332.879326
 20
5487.017787
 42
0.000717
  0
VERTEX
  8
0
 10
5264.045257
 20
5417.145893
 42
0.000333
  0
VERTEX
  8
0
 10
5174.873820
 20
5326.249081
 42
-0.000012
  0
VERTEX
  8
0
 10
5091.147170
 20
5240.792785
 42
-0.000019
  0
VERTEX
  8
0
 10
5018.734735
 20
5166.893480
 42
-0.000006
  0
VERTEX
  8
0
 10
4955.859323
 20
5102.733240
 42
-0.000568
  0
VERTEX
  8
0
 10
4947.035759
 20
5093.750000
 42
-0.005014
  0
VERTEX
  8
0
 10
4941.111881
 20
5087.852098
 42
-0.020515
  0
VERTEX
  8
0
 10
4937.338754
 20
5084.460840
 42
-0.032197
  0
VERTEX
  8
0
 10
4934.676269
 20
5082.532801
 42
-0.141528
  0
VERTEX
  8
0
 10
4932.831663
 20
5082.000000
 42
-0.199672
  0
VERTEX
  8
0
 10
4930.114956
 20
5083.129951
 42
-0.000281
  0
VERTEX
  8
0
 10
4890.210045
 20
5123.313985
 42
-0.001325
  0
VERTEX
  8
0
 10
4831.732556
 20
5182.580011
 42
-0.000203
  0
VERTEX
  8
0
 10
4715.847476
 20
5300.747920
 42
0.000005
  0
VERTEX
  8
0
 10
4632.688342
 20
5385.612459
 42
0.000008
  0
VERTEX
  8
0
 10
4560.352071
 20
5459.428223
 42
0.000003
  0
VERTEX
  8
0
 10
4498.004501
 20
5523.048186
 42
0.000203
  0
VERTEX
  8
0
 10
4487.500000
 20
5533.758256
 42
0.006432
  0
VERTEX
  8
0
 10
4477.365132
 20
5543.820832
 42
0.068470
  0
VERTEX
  8
0
 10
4472.688048
 20
5547.246958
 42
0.203818
  0
VERTEX
  8
0
 10
4469.321795
 20
5547.562199
 42
0.127650
  0
VERTEX
  8
0
 10
4465.924314
 20
5545.419449
 42
0.000000
  0
VERTEX
  8
0
 10
4463.500000
 20
5542.838897
 42
0.000000
  0
VERTEX
  8
0
 10
4463.246524
 20
5116.919449
 42
0.000000
  0
VERTEX
  8
0
 10
4462.993048
 20
4691.000000
 42
0.000000
  0
VERTEX
  8
0
 10
4354.496524
 20
4691.000000
 42
0.000000
  0
VERTEX
  8
0
 10
4246.000000
 20
4691.000000
 42
0.000000
  0
VERTEX
  8
0
 10
4246.001554
 20
5358.750000
 42
-0.000045
  0
VERTEX
  8
0
 10
4246.040425
 20
5777.106603
 42
-0.000606
  0
VERTEX
  8
0
 10
4246.254843
 20
5930.775591
 42
-0.000183
  0
VERTEX
  8
0
 10
4246.534591
 20
6024.885006
 42
-0.116078
  0
VERTEX
  8
0
 10
4247.751554
 20
6029.980067
 42
-0.069755
  0
VERTEX
  8
0
 10
4249.815710
 20
6032.965968
 42
-0.053739
  0
VERTEX
  8
0
 10
4252.798467
 20
6035.578223
 42
-0.055610
  0
VERTEX
  8
0
 10
4256.119695
 20
6037.396051
 42
-0.097732
  0
VERTEX
  8
0
 10
4259.180002
 20
6038.000000
 42
-0.037241
  0
VERTEX
  8
0
 10
4260.515558
 20
6037.900386
 42
-0.019231
  0
VERTEX
  8
0
 10
4262.162246
 20
6037.588211
 42
-0.019008
  0
VERTEX
  8
0
 10
4263.839465
 20
6037.135164
 42
-0.027261
  0
SEQEND
  0
POLYLINE
  8
0
 66
1
 70
1
  0
VERTEX
  8
0
 10
839.278795
 20
5597.750000
 42
0.000086
  0
VERTEX
  8
0
 10
839.514509
 20
5349.040249
 42
0.000911
  0
VERTEX
  8
0
 10
839.812126
 20
5247.873365
 42
0.001354
  0
VERTEX
  8
0
 10
840.246482
 20
5189.751450
 42
0.022626
  0
VERTEX
  8
0
 10
841.314586
 20
5170.500000
 42
0.020188
  0
VERTEX
  8
0
 10
850.538632
 20
5105.533587
 42
0.036479
  0
VERTEX
  8
0
 10
864.052727
 20
5053.549110
 42
0.042651
  0
VERTEX
  8
0
 10
883.101331
 20
5010.021096
 42
0.044464
  0
VERTEX
  8
0
 10
909.037929
 20
4971.000000
 42
0.017235
  0
VERTEX
  8
0
 10
918.352549
 20
4960.162261
 42
0.009537
  0
VERTEX
  8
0
 10
930.419486
 20
4947.554956
 42
0.009535
  0
VERTEX
  8
0
 10
942.821136
 20
4935.549899
 42
0.019171
  0
VERTEX
  8
0
 10
953.133460
 20
4926.654857
 42
0.026582
  0
VERTEX
  8
0
 10
977.470001
 20
4909.271439
 42
0.025886
  0
VERTEX
  8
0
 10
1003.724965
 20
4894.400828
 42
0.025985
  0
VERTEX
  8
0
 10
1031.271300
 20
4882.375179
 42
0.027310
  0
VERTEX
  8
0
 10
1059.468134
 20
4873.496401
 42
0.012570
  0
VERTEX
  8
0
 10
1072.341042
 20
4870.545870
 42
0.008214
  0
VERTEX
  8
0
 10
1087.318438
 20
4867.762417
 42
0.008215
  0
VERTEX
  8
0
 10
1102.377506
 20
4865.472739
 42
0.012581
  0
VERTEX
  8
0
 10
1115.500000
 20
4864.032700
 42
0.015306
  0
VERTEX
  8
0
 10
1129.572559
 20
4863.278672
 42
0.005620
  0
VERTEX
  8
0
 10
1149.480365
 20
4863.046126
 42
0.005534
  0
VERTEX
  8
0
 10
1169.229863
 20
4863.256016
 42
0.017277
  0
VERTEX
  8
0
 10
1182.500000
 20
4864.003198
 42
0.037111
  0
VERTEX
  8
0
 10
1237.010399
 20
4873.079139
 42
0.045604
  0
VERTEX
  8
0
 10
1285.789208
 20
4889.804462
 42
0.047140
  0
VERTEX
  8
0
 10
1329.403087
 20
4914.526209
 42
0.044511
  0
VERTEX
  8
0
 10
1368.530774
 20
4947.406124
 42
0.024064
  0
VERTEX
  8
0
 10
1390.702811
 20
4971.940479
 42
0.030728
  0
VERTEX
  8
0
 10
1408.538050
 20
4996.644653
 42
0.031317
  0
VERTEX
  8
0
 10
1422.950658
 20
5022.947982
 42
0.026680
  0
VERTEX
  8
0
 10
1434.844033
 20
5052.273022
 42
0.018351
  0
VERTEX
  8
0
 10
1442.442172
 20
5077.255008
 42
0.016111
  0
VERTEX
  8
0
 10
1448.562158
 20
5103.830920
 42
0.014309
  0
VERTEX
  8
0
 10
1453.542021
 20
5133.645310
 42
0.009169
  0
VERTEX
  8
0
 10
1457.693404
 20
5168.500000
 42
0.022545
  0
VERTEX
  8
0
 10
1458.755525
 20
5187.747470
 42
0.001327
  0
VERTEX
  8
0
 10
1459.188205
 20
5246.299589
 42
0.000904
  0
VERTEX
  8
0
 10
1459.485831
 20
5347.999442
 42
0.000086
  0
VERTEX
  8
0
 10
1459.721207
 20
5596.750000
 42
0.000000
  0
VERTEX
  8
0
 10
1460.039733
 20
6008.000000
 42
0.000000
  0
VERTEX
  8
0
 10
1567.034483
 20
6008.000000
 42
0.000000
  0
VERTEX
  8
0
 10
1674.029234
 20
6008.000000
 42
0.000000
  0
VERTEX
  8
0
 10
1673.730405
 20
5576.750000
 42
-0.000089
  0
VERTEX
  8
0
 10
1673.451313
 20
5256.297329
 42
-0.002777
  0
VERTEX
  8
0
 10
1672.927892
 20
5177.018414
 42
-0.011690
  0
VERTEX
  8
0
 10
1671.429233
 20
5134.861783
 42
-0.021129
  0
VERTEX
  8
0
 10
1667.941099
 20
5100.500000
 42
-0.025873
  0
VERTEX
  8
0
 10
1657.046938
 20
5045.386432
 42
-0.026890
  0
VERTEX
  8
0
 10
1640.622447
 20
4992.413296
 42
-0.027347
  0
VERTEX
  8
0
 10
1618.924032
 20
4942.366705
 42
-0.029008
  0
VERTEX
  8
0
 10
1592.266400
 20
4896.000000
 42
-0.031807
  0
VERTEX
  8
0
 10
1556.657481
 20
4848.508808
 42
-0.027863
  0
VERTEX
  8
0
 10
1513.792408
 20
4803.650267
 42
-0.027655
  0
VERTEX
  8
0
 10
1465.832864
 20
4763.490852
 42
-0.030024
  0
VERTEX
  8
0
 10
1414.987191
 20
4730.048618
 42
-0.021574
  0
VERTEX
  8
0
 10
1379.895458
 20
4711.841338
 42
-0.019419
  0
VERTEX
  8
0
 10
1342.126509
 20
4696.022344
 42
-0.019302
  0
VERTEX
  8
0
 10
1302.991917
 20
4683.088003
 42
-0.020593
  0
VERTEX
  8
0
 10
1263.807446
 20
4673.522663
 42
-0.026074
  0
VERTEX
  8
0
 10
1207.703528
 20
4665.266445
 42
-0.023553
  0
VERTEX
  8
0
 10
1149.099858
 20
4662.517327
 42
-0.023517
  0
VERTEX
  8
0
 10
1090.398117
 20
4665.292839
 42
-0.025763
  0
VERTEX
  8
0
 10
1034.000000
 20
4673.573649
 42
-0.029031
  0
VERTEX
  8
0
 10
979.525572
 20
4687.793911
 42
-0.027898
  0
VERTEX
  8
0
 10
926.315971
 20
4708.381407
 42
-0.027886
  0
VERTEX
  8
0
 10
875.706466
 20
4734.775263
 42
-0.028943
  0
VERTEX
  8
0
 10
829.000000
 20
4766.342444
 42
-0.016743
  0
VERTEX
  8
0
 10
801.959853
 20
4788.464664
 42
-0.014819
  0
VERTEX
  8
0
 10
775.304575
 20
4813.237708
 42
-0.014915
  0
VERTEX
  8
0
 10
750.358669
 20
4839.352163
 42
-0.017697
  0
VERTEX
  8
0
 10
728.455151
 20
4865.500000
 42
-0.034990
  0
VERTEX
  8
0
 10
693.640202
 20
4917.277657
 42
-0.032490
  0
VERTEX
  8
0
 10
665.413900
 20
4974.673962
 42
-0.031870
  0
VERTEX
  8
0
 10
644.391542
 20
5036.375466
 42
-0.030731
  0
VERTEX
  8
0
 10
631.075066
 20
5101.000000
 42
-0.020709
  0
VERTEX
  8
0
 10
627.580339
 20
5135.704878
 42
-0.011690
  0
VERTEX
  8
0
 10
626.075875
 20
5177.984235
 42
-0.002783
  0
VERTEX
  8
0
 10
625.550586
 20
5257.292736
 42
-0.000090
  0
VERTEX
  8
0
 10
625.269627
 20
5577.250000
 42
0.000000
  0
VERTEX
  8
0
 10
624.968537
 20
6008.000000
 42
0.000000
  0
VERTEX
  8
0
 10
731.964356
 20
6008.000000
 42
0.000000
  0
VERTEX
  8
0
 10
838.960174
 20
6008.000000
 42
0.000000
  0
SEQEND
  0
POLYLINE
  8
0
 66
1
 70
1
  0
VERTEX
  8
0
 10
1550.413996
 20
3853.750000
 42
0.000000
  0
VERTEX
  8
0
 10
1578.949908
 20
3821.500000
 42
0.000000
  0
VERTEX
  8
0
 10
1563.416427
 20
3821.224310
 42
0.000000
  0
VERTEX
  8
0
 10
1547.882946
 20
3820.948620
 42
0.000000
  0
VERTEX
  8
0
 10
1533.164429
 20
3836.224310
 42
-0.000344
  0
VERTEX
  8
0
 10
1527.149102
 20
3842.475952
 42
-0.000362
  0
VERTEX
  8
0
 10
1521.245950
 20
3848.628391
 42
-0.000346
  0
VERTEX
  8
0
 10
1516.162218
 20
3853.941861
 42
-0.001636
  0
VERTEX
  8
0
 10
1513.259442
 20
3857.000000
 42
0.000000
  0
VERTEX
  8
0
 10
1508.072973
 20
3862.500000
 42
0.000000
  0
VERTEX
  8
0
 10
1487.277762
 20
3841.750000
 42
0.000000
  0
VERTEX
  8
0
 10
1466.482551
 20
3821.000000
 42
0.000000
  0
VERTEX
  8
0
 10
1451.157942
 20
3821.000000
 42
-0.005038
  0
VERTEX
  8
0
 10
1445.304470
 20
3821.058985
 42
-0.008672
  0
VERTEX
  8
0
 10
1440.432854
 20
3821.241740
 42
-0.003239
  0
VERTEX
  8
0
 10
1436.374407
 20
3821.490909
 42
-0.510438
  0
VERTEX
  8
0
 10
1436.166667
 20
3821.822943
 42
-0.083165
  0
VERTEX
  8
0
 10
1436.533564
 20
3822.420295
 42
-0.000136
  0
VERTEX
  8
0
 10
1444.627083
 20
3831.703895
 42
-0.001060
  0
VERTEX
  8
0
 10
1453.741364
 20
3842.108022
 42
-0.000654
  0
VERTEX
  8
0
 10
1464.500000
 20
3854.304604
 42
0.000000
  0
VERTEX
  8
0
 10
1492.500000
 20
3885.963321
 42
0.000000
  0
VERTEX
  8
0
 10
1507.189042
 20
3885.981661
 42
0.000000
  0
VERTEX
  8
0
 10
1521.878084
 20
3886.000000
 42
0.000000
  0
SEQEND
  0
POLYLINE
  8
0
 66
1
 70
1
  0
VERTEX
  8
0
 10
1537.144045
 20
3787.987832
 42
-0.037470
  0
VERTEX
  8
0
 10
1564.125098
 20
3783.291492
 42
-0.050947
  0
VERTEX
  8
0
 10
1587.331546
 20
3774.845546
 42
-0.055402
  0
VERTEX
  8
0
 10
1606.809794
 20
3762.591748
 42
-0.058722
  0
VERTEX
  8
0
 10
1622.699510
 20
3746.569784
 42
-0.044234
  0
VERTEX
  8
0
 10
1630.284433
 20
3734.879200
 42
-0.022998
  0
VERTEX
  8
0
 10
1637.714583
 20
3719.143040
 42
-0.021965
  0
VERTEX
  8
0
 10
1644.189713
 20
3701.471622
 42
-0.023691
  0
VERTEX
  8
0
 10
1648.906127
 20
3683.737185
 42
-0.032996
  0
VERTEX
  8
0
 10
1654.590002
 20
3645.241081
 42
-0.017294
  0
VERTEX
  8
0
 10
1656.819181
 20
3596.852231
 42
-0.017259
  0
VERTEX
  8
0
 10
1655.687376
 20
3547.788370
 42
-0.029276
  0
VERTEX
  8
0
 10
1650.929913
 20
3507.000000
 42
-0.014101
  0
VERTEX
  8
0
 10
1647.348299
 20
3489.586297
 42
-0.019112
  0
VERTEX
  8
0
 10
1643.076480
 20
3474.107071
 42
-0.019787
  0
VERTEX
  8
0
 10
1637.768904
 20
3459.432974
 42
-0.017039
  0
VERTEX
  8
0
 10
1631.069616
 20
3444.459575
 42
-0.069282
  0
VERTEX
  8
0
 10
1611.277925
 20
3415.098514
 42
-0.080347
  0
VERTEX
  8
0
 10
1585.075854
 20
3393.953757
 42
-0.072194
  0
VERTEX
  8
0
 10
1551.190495
 20
3380.635107
 42
-0.043869
  0
VERTEX
  8
0
 10
1508.500000
 20
3374.502285
 42
-0.023549
  0
VERTEX
  8
0
 10
1491.539810
 20
3374.368113
 42
-0.019649
  0
VERTEX
  8
0
 10
1473.576285
 20
3375.780618
 42
-0.020184
  0
VERTEX
  8
0
 10
1456.548916
 20
3378.495755
 42
-0.033346
  0
VERTEX
  8
0
 10
1442.500000
 20
3382.310739
 42
-0.043006
  0
VERTEX
  8
0
 10
1420.992172
 20
3391.858350
 42
-0.051627
  0
VERTEX
  8
0
 10
1402.814449
 20
3404.479415
 42
-0.052762
  0
VERTEX
  8
0
 10
1387.918847
 20
3420.299539
 42
-0.048302
  0
VERTEX
  8
0
 10
1376.154963
 20
3439.343326
 42
-0.037557
  0
VERTEX
  8
0
 10
1365.205770
 20
3466.618220
 42
-0.033695
  0
VERTEX
  8
0
 10
1357.981635
 20
3496.228010
 42
-0.028115
  0
VERTEX
  8
0
 10
1353.919340
 20
3531.174492
 42
-0.014682
  0
VERTEX
  8
0
 10
1352.597731
 20
3575.000000
 42
-0.012747
  0
VERTEX
  8
0
 10
1353.595180
 20
3615.362356
 42
-0.023181
  0
VERTEX
  8
0
 10
1356.775138
 20
3648.194438
 42
-0.027380
  0
VERTEX
  8
0
 10
1362.428984
 20
3676.425648
 42
-0.031363
  0
VERTEX
  8
0
 10
1370.955711
 20
3702.583945
 42
-0.031656
  0
VERTEX
  8
0
 10
1382.204258
 20
3726.409128
 42
-0.050077
  0
VERTEX
  8
0
 10
1395.029455
 20
3744.977239
 42
-0.053776
  0
VERTEX
  8
0
 10
1410.548578
 20
3759.692377
 42
-0.044240
  0
VERTEX
  8
0
 10
1429.862713
 20
3771.880652
 42
-0.024714
  0
VERTEX
  8
0
 10
1442.433918
 20
3777.571700
 42
-0.023328
  0
VERTEX
  8
0
 10
1455.747237
 20
3782.117487
 42
-0.022488
  0
VERTEX
  8
0
 10
1469.903402
 20
3785.543036
 42
-0.019496
  0
VERTEX
  8
0
 10
1485.000000
 20
3787.878182
 42
-0.021501
  0
VERTEX
  8
0
 10
1495.161472
 20
3788.605783
 42
-0.006596
  0
VERTEX
  8
0
 10
1510.546163
 20
3788.841107
 42
-0.006746
  0
VERTEX
  8
0
 10
1526.101982
 20
3788.663942
 42
-0.018139
  0
SEQEND
  0
POLYLINE
  8
0
 66
1
 70
1
  0
VERTEX
  8
0
 10
2841.020280
 20
3786.159037
 42
-0.028573
  0
VERTEX
  8
0
 10
2859.511060
 20
3781.772132
 42
-0.039753
  0
VERTEX
  8
0
 10
2875.371437
 20
3775.628927
 42
-0.041387
  0
VERTEX
  8
0
 10
2889.567735
 20
3767.278096
 42
-0.035118
  0
VERTEX
  8
0
 10
2903.048603
 20
3756.272334
 42
-0.035970
  0
VERTEX
  8
0
 10
2911.824133
 20
3746.738782
 42
-0.036241
  0
VERTEX
  8
0
 10
2919.118585
 20
3736.068761
 42
-0.031440
  0
VERTEX
  8
0
 10
2925.585363
 20
3723.157942
 42
-0.017552
  0
VERTEX
  8
0
 10
2931.885147
 20
3706.740138
 42
-0.022168
  0
VERTEX
  8
0
 10
2936.569689
 20
3690.866008
 42
-0.017890
  0
VERTEX
  8
0
 10
2940.221604
 20
3673.464056
 42
-0.015621
  0
VERTEX
  8
0
 10
2943.016848
 20
3653.605570
 42
-0.009793
  0
VERTEX
  8
0
 10
2945.102655
 20
3630.235561
 42
-0.016023
  0
VERTEX
  8
0
 10
2945.897784
 20
3608.978313
 42
-0.005090
  0
VERTEX
  8
0
 10
2945.744449
 20
3577.271984
 42
-0.004749
  0
VERTEX
  8
0
 10
2944.977471
 20
3545.991256
 42
-0.022107
  0
VERTEX
  8
0
 10
2943.567334
 20
3528.000000
 42
-0.020734
  0
VERTEX
  8
0
 10
2938.820650
 20
3499.296767
 42
-0.025024
  0
VERTEX
  8
0
 10
2931.919070
 20
3472.862974
 42
-0.027272
  0
VERTEX
  8
0
 10
2923.149877
 20
3449.562557
 42
-0.040158
  0
VERTEX
  8
0
 10
2912.771671
 20
3430.326519
 42
-0.064480
  0
VERTEX
  8
0
 10
2893.871957
 20
3408.060954
 42
-0.065994
  0
VERTEX
  8
0
 10
2870.061438
 20
3391.546509
 42
-0.059594
  0
VERTEX
  8
0
 10
2840.633251
 20
3380.618659
 42
-0.039481
  0
VERTEX
  8
0
 10
2805.000000
 20
3374.956314
 42
-0.021158
  0
VERTEX
  8
0
 10
2787.429022
 20
3374.317174
 42
-0.019226
  0
VERTEX
  8
0
 10
2769.293196
 20
3375.122884
 42
-0.019881
  0
VERTEX
  8
0
 10
2752.081637
 20
3377.243672
 42
-0.029935
  0
VERTEX
  8
0
 10
2737.339912
 20
3380.574430
 42
-0.024719
  0
VERTEX
  8
0
 10
2728.417826
 20
3383.645334
 42
-0.015567
  0
VERTEX
  8
0
 10
2718.316692
 20
3388.060243
 42
-0.015571
  0
VERTEX
  8
0
 10
2708.516250
 20
3393.091917
 42
-0.024856
  0
VERTEX
  8
0
 10
2700.517185
 20
3398.053170
 42
-0.031751
  0
VERTEX
  8
0
 10
2693.308232
 20
3403.745078
 42
-0.017698
  0
VERTEX
  8
0
 10
2685.251749
 20
3411.513786
 42
-0.017685
  0
VERTEX
  8
0
 10
2677.737717
 20
3419.862588
 42
-0.030736
  0
VERTEX
  8
0
 10
2672.201782
 20
3427.360313
 42
-0.021914
  0
VERTEX
  8
0
 10
2667.538947
 20
3435.305246
 42
-0.016162
  0
VERTEX
  8
0
 10
2663.059775
 20
3444.470311
 42
-0.015129
  0
VERTEX
  8
0
 10
2658.873877
 20
3454.595717
 42
-0.013147
  0
VERTEX
  8
0
 10
2655.093821
 20
3465.438009
 42
-0.022630
  0
VERTEX
  8
0
 10
2649.348950
 20
3486.697772
 42
-0.022892
  0
VERTEX
  8
0
 10
2645.574923
 20
3508.308569
 42
-0.019022
  0
VERTEX
  8
0
 10
2643.332254
 20
3533.418479
 42
-0.009118
  0
VERTEX
  8
0
 10
2642.270609
 20
3565.770799
 42
-0.005223
  0
VERTEX
  8
0
 10
2642.166567
 20
3591.005020
 42
-0.010165
  0
VERTEX
  8
0
 10
2642.703274
 20
3611.137153
 42
-0.011960
  0
VERTEX
  8
0
 10
2643.961736
 20
3628.856621
 42
-0.011951
  0
VERTEX
  8
0
 10
2646.066314
 20
3646.500000
 42
-0.023964
  0
VERTEX
  8
0
 10
2651.415649
 20
3674.233505
 42
-0.029172
  0
VERTEX
  8
0
 10
2659.149826
 20
3699.523406
 42
-0.031612
  0
VERTEX
  8
0
 10
2669.055066
 20
3721.804556
 42
-0.042109
  0
VERTEX
  8
0
 10
2680.924878
 20
3740.500000
 42
-0.061091
  0
VERTEX
  8
0
 10
2698.105201
 20
3758.150940
 42
-0.051912
  0
VERTEX
  8
0
 10
2719.968752
 20
3772.262078
 42
-0.048568
  0
VERTEX
  8
0
 10
2745.737702
 20
3782.326836
 42
-0.040896
  0
VERTEX
  8
0
 10
2774.500000
 20
3787.964340
 42
-0.026589
  0
VERTEX
  8
0
 10
2787.888442
 20
3788.750292
 42
-0.008151
  0
VERTEX
  8
0
 10
2808.151390
 20
3788.530813
 42
-0.008017
  0
VERTEX
  8
0
 10
2828.301619
 20
3787.660462
 42
-0.029161
  0
SEQEND
  0
POLYLINE
  8
0
 66
1
 70
1
  0
VERTEX
  8
0
 10
4696.576322
 20
3787.937757
 42
-0.021694
  0
VERTEX
  8
0
 10
4712.791525
 20
3785.647419
 42
-0.027358
  0
VERTEX
  8
0
 10
4727.515824
 20
3782.069077
 42
-0.028996
  0
VERTEX
  8
0
 10
4741.013401
 20
3777.125562
 42
-0.030938
  0
VERTEX
  8
0
 10
4753.548564
 20
3770.743764
 42
-0.038002
  0
VERTEX
  8
0
 10
4763.051551
 20
3764.119851
 42
-0.023767
  0
VERTEX
  8
0
 10
4773.142651
 20
3755.048619
 42
-0.023896
  0
VERTEX
  8
0
 10
4782.133128
 20
3745.266682
 42
-0.045814
  0
VERTEX
  8
0
 10
4788.181276
 20
3736.500000
 42
-0.046404
  0
VERTEX
  8
0
 10
4800.676458
 20
3708.490557
 42
-0.036562
  0
VERTEX
  8
0
 10
4809.018521
 20
3676.327573
 42
-0.029758
  0
VERTEX
  8
0
 10
4813.772513
 20
3637.290876
 42
-0.015267
  0
VERTEX
  8
0
 10
4815.308707
 20
3588.000000
 42
-0.005452
  0
VERTEX
  8
0
 10
4815.053688
 20
3563.193027
 42
-0.011709
  0
VERTEX
  8
0
 10
4814.200935
 20
3544.085496
 42
-0.013702
  0
VERTEX
  8
0
 10
4812.571337
 20
3527.058978
 42
-0.011282
  0
VERTEX
  8
0
 10
4809.927178
 20
3509.000000
 42
-0.020722
  0
VERTEX
  8
0
 10
4804.977772
 20
3485.708720
 42
-0.024491
  0
VERTEX
  8
0
 10
4798.327671
 20
3464.195166
 42
-0.026156
  0
VERTEX
  8
0
 10
4790.100350
 20
3444.793458
 42
-0.032867
  0
VERTEX
  8
0
 10
4780.415862
 20
3427.842868
 42
-0.031339
  0
VERTEX
  8
0
 10
4774.898799
 20
3420.546882
 42
-0.016550
  0
VERTEX
  8
0
 10
4767.214678
 20
3412.185193
 42
-0.016537
  0
VERTEX
  8
0
 10
4759.069667
 20
3404.421502
 42
-0.034309
  0
VERTEX
  8
0
 10
4752.134101
 20
3399.041301
 42
-0.060399
  0
VERTEX
  8
0
 10
4726.295329
 20
3385.898833
 42
-0.043582
  0
VERTEX
  8
0
 10
4695.040718
 20
3377.491686
 42
-0.041028
  0
VERTEX
  8
0
 10
4660.679532
 20
3374.264344
 42
-0.038673
  0
VERTEX
  8
0
 10
4625.552290
 20
3376.574405
 42
-0.015005
  0
VERTEX
  8
0
 10
4616.020058
 20
3378.239957
 42
-0.019913
  0
VERTEX
  8
0
 10
4607.476026
 20
3380.356283
 42
-0.019711
  0
VERTEX
  8
0
 10
4599.059379
 20
3383.164607
 42
-0.014242
  0
VERTEX
  8
0
 10
4589.908902
 20
3386.925386
 42
-0.038458
  0
VERTEX
  8
0
 10
4572.302875
 20
3396.436601
 42
-0.046803
  0
VERTEX
  8
0
 10
4557.569297
 20
3408.007127
 42
-0.047110
  0
VERTEX
  8
0
 10
4545.319498
 20
3422.047773
 42
-0.039804
  0
VERTEX
  8
0
 10
4535.119778
 20
3438.922756
 42
-0.025692
  0
VERTEX
  8
0
 10
4527.733012
 20
3455.792085
 42
-0.023856
  0
VERTEX
  8
0
 10
4521.908594
 20
3473.748647
 42
-0.021609
  0
VERTEX
  8
0
 10
4517.367922
 20
3493.795917
 42
-0.014546
  0
VERTEX
  8
0
 10
4513.849658
 20
3517.005789
 42
-0.008633
  0
VERTEX
  8
0
 10
4512.632643
 20
3528.656051
 42
-0.011926
  0
VERTEX
  8
0
 10
4511.971099
 20
3539.147957
 42
-0.007855
  0
VERTEX
  8
0
 10
4511.658626
 20
3552.493593
 42
-0.001712
  0
VERTEX
  8
0
 10
4511.560257
 20
3575.500000
 42
-0.002234
  0
VERTEX
  8
0
 10
4511.625130
 20
3593.433182
 42
-0.003991
  0
VERTEX
  8
0
 10
4511.862060
 20
3608.176486
 42
-0.004536
  0
VERTEX
  8
0
 10
4512.245600
 20
3619.751385
 42
-0.017013
  0
VERTEX
  8
0
 10
4512.799151
 20
3627.000000
 42
-0.012451
  0
VERTEX
  8
0
 10
4516.573379
 20
3654.757398
 42
-0.023346
  0
VERTEX
  8
0
 10
4521.221478
 20
3676.920366
 42
-0.026475
  0
VERTEX
  8
0
 10
4527.440631
 20
3696.582198
 42
-0.022825
  0
VERTEX
  8
0
 10
4535.977702
 20
3716.500000
 42
-0.017108
  0
VERTEX
  8
0
 10
4541.873268
 20
3727.693254
 42
-0.023886
  0
VERTEX
  8
0
 10
4547.946782
 20
3737.236701
 42
-0.025466
  0
VERTEX
  8
0
 10
4554.563631
 20
3745.667269
 42
-0.024469
  0
VERTEX
  8
0
 10
4562.087571
 20
3753.500000
 42
-0.048290
  0
VERTEX
  8
0
 10
4578.418954
 20
3766.176658
 42
-0.041573
  0
VERTEX
  8
0
 10
4597.698127
 20
3776.225010
 42
-0.038883
  0
VERTEX
  8
0
 10
4619.661428
 20
3783.494666
 42
-0.031870
  0
VERTEX
  8
0
 10
4644.000000
 20
3787.878182
 42
-0.021531
  0
VERTEX
  8
0
 10
4654.270468
 20
3788.612973
 42
-0.006809
  0
VERTEX
  8
0
 10
4669.644077
 20
3788.839756
 42
-0.006973
  0
VERTEX
  8
0
 10
4685.237479
 20
3788.639943
 42
-0.017546
  0
SEQEND
  0
POLYLINE
  8
0
 66
1
 70
1
  0
VERTEX
  8
0
 10
1224.557581
 20
3780.715064
 42
-0.038614
  0
VERTEX
  8
0
 10
1244.908548
 20
3775.332098
 42
-0.068817
  0
VERTEX
  8
0
 10
1260.299888
 20
3767.451946
 42
-0.074135
  0
VERTEX
  8
0
 10
1272.218333
 20
3756.155605
 42
-0.052405
  0
VERTEX
  8
0
 10
1282.022178
 20
3740.500000
 42
-0.033788
  0
VERTEX
  8
0
 10
1287.863233
 20
3726.176617
 42
-0.034995
  0
VERTEX
  8
0
 10
1291.641082
 20
3711.362791
 42
-0.029720
  0
VERTEX
  8
0
 10
1293.717076
 20
3694.191549
 42
-0.015224
  0
VERTEX
  8
0
 10
1294.377712
 20
3672.500000
 42
-0.004784
  0
VERTEX
  8
0
 10
1294.279347
 20
3662.220529
 42
-0.008573
  0
VERTEX
  8
0
 10
1293.973065
 20
3653.782948
 42
-0.010258
  0
VERTEX
  8
0
 10
1293.441651
 20
3646.609418
 42
-0.014386
  0
VERTEX
  8
0
 10
1292.652164
 20
3640.235253
 42
-0.051017
  0
VERTEX
  8
0
 10
1284.040000
 20
3607.053929
 42
-0.071623
  0
VERTEX
  8
0
 10
1269.419726
 20
3580.221044
 42
-0.078500
  0
VERTEX
  8
0
 10
1249.045097
 20
3560.376281
 42
-0.077972
  0
VERTEX
  8
0
 10
1223.500000
 20
3547.722676
 42
-0.031097
  0
VERTEX
  8
0
 10
1208.581919
 20
3544.038558
 42
-0.022047
  0
VERTEX
  8
0
 10
1191.494794
 20
3541.702871
 42
-0.016369
  0
VERTEX
  8
0
 10
1169.743899
 20
3540.417440
 42
-0.006453
  0
VERTEX
  8
0
 10
1139.750000
 20
3540.015828
 42
0.000000
  0
VERTEX
  8
0
 10
1107.000000
 20
3540.000000
 42
0.000000
  0
VERTEX
  8
0
 10
1107.000000
 20
3460.500000
 42
0.000000
  0
VERTEX
  8
0
 10
1107.000000
 20
3381.000000
 42
0.000000
  0
VERTEX
  8
0
 10
1085.500000
 20
3381.000000
 42
0.000000
  0
VERTEX
  8
0
 10
1064.000000
 20
3381.000000
 42
0.000000
  0
VERTEX
  8
0
 10
1064.000000
 20
3582.057195
 42
0.000000
  0
VERTEX
  8
0
 10
1064.000000
 20
3783.114391
 42
0.000000
  0
VERTEX
  8
0
 10
1139.750000
 20
3782.745362
 42
-0.000641
  0
VERTEX
  8
0
 10
1182.215966
 20
3782.484034
 42
-0.004125
  0
VERTEX
  8
0
 10
1203.680623
 20
3782.147319
 42
-0.007535
  0
VERTEX
  8
0
 10
1216.766365
 20
3781.636635
 42
-0.031841
  0
SEQEND
  0
POLYLINE
  8
0
 66
1
 70
1
  0
VERTEX
  8
0
 10
1785.000000
 20
3601.500000
 42
0.000000
  0
VERTEX
  8
0
 10
1785.000000
 20
3420.000000
 42
0.000000
  0
VERTEX
  8
0
 10
1868.000000
 20
3420.000000
 42
-0.000939
  0
VERTEX
  8
0
 10
1900.639997
 20
3419.938727
 42
-0.001720
  0
VERTEX
  8
0
 10
1927.241779
 20
3419.747341
 42
-0.000126
  0
VERTEX
  8
0
 10
1950.628754
 20
3419.492734
 42
-0.410955
  0
VERTEX
  8
0
 10
1951.000000
 20
3419.117330
 42
-0.057970
  0
VERTEX
  8
0
 10
1950.851748
 20
3417.842943
 42
-0.000177
  0
VERTEX
  8
0
 10
1947.061286
 20
3401.797226
 42
-0.000602
  0
VERTEX
  8
0
 10
1943.506096
 20
3386.851611
 42
-0.014858
  0
VERTEX
  8
0
 10
1942.395398
 20
3382.750000
 42
-0.321636
  0
VERTEX
  8
0
 10
1940.882368
 20
3381.589591
 42
-0.003617
  0
VERTEX
  8
0
 10
1927.340865
 20
3381.255704
 42
-0.004041
  0
VERTEX
  8
0
 10
1904.122919
 20
3381.038954
 42
-0.000313
  0
VERTEX
  8
0
 10
1841.932612
 20
3381.000000
 42
0.000000
  0
VERTEX
  8
0
 10
1742.000000
 20
3381.000000
 42
0.000000
  0
VERTEX
  8
0
 10
1742.000000
 20
3582.000000
 42
0.000000
  0
VERTEX
  8
0
 10
1742.000000
 20
3783.000000
 42
0.000000
  0
VERTEX
  8
0
 10
1763.500000
 20
3783.000000
 42
0.000000
  0
VERTEX
  8
0
 10
1785.000000
 20
3783.000000
 42
0.000000
  0
SEQEND
  0
POLYLINE
  8
0
 66
1
 70
1
  0
VERTEX
  8
0
 10
2216.055694
 20
3764.250000
 42
0.000000
  0
VERTEX
  8
0
 10
2212.454460
 20
3745.500000
 42
0.000000
  0
VERTEX
  8
0
 10
2130.727230
 20
3745.244155
 42
0.000000
  0
VERTEX
  8
0
 10
2049.000000
 20
3744.988309
 42
0.000000
  0
VERTEX
  8
0
 10
2049.000000
 20
3675.494155
 42
0.000000
  0
VERTEX
  8
0
 10
2049.000000
 20
3606.000000
 42
0.000000
  0
VERTEX
  8
0
 10
2120.500000
 20
3606.000000
 42
-0.000634
  0
VERTEX
  8
0
 10
2158.825206
 20
3605.951422
 42
-0.004018
  0
VERTEX
  8
0
 10
2178.317075
 20
3605.745347
 42
-0.001788
  0
VERTEX
  8
0
 10
2191.230568
 20
3605.458826
 42
-0.406689
  0
VERTEX
  8
0
 10
2192.000000
 20
3604.669314
 42
-0.049857
  0
VERTEX
  8
0
 10
2191.717174
 20
3601.840013
 42
-0.000782
  0
VERTEX
  8
0
 10
2188.473870
 20
3585.908107
 42
-0.000469
  0
VERTEX
  8
0
 10
2185.098074
 20
3569.535045
 42
-0.087549
  0
VERTEX
  8
0
 10
2184.463113
 20
3567.940316
 42
-0.255914
  0
VERTEX
  8
0
 10
2183.715141
 20
3567.515873
 42
-0.000313
  0
VERTEX
  8
0
 10
2165.705043
 20
3567.255640
 42
-0.002363
  0
VERTEX
  8
0
 10
2144.289960
 20
3567.060841
 42
-0.001092
  0
VERTEX
  8
0
 10
2116.440983
 20
3567.000000
 42
0.000000
  0
VERTEX
  8
0
 10
2049.000000
 20
3567.000000
 42
0.000000
  0
VERTEX
  8
0
 10
2049.000000
 20
3493.500000
 42
0.000000
  0
VERTEX
  8
0
 10
2049.000000
 20
3420.000000
 42
0.000000
  0
VERTEX
  8
0
 10
2138.116631
 20
3420.000000
 42
-0.000342
  0
VERTEX
  8
0
 10
2193.824568
 20
3419.961898
 42
-0.004592
  0
VERTEX
  8
0
 10
2214.251374
 20
3419.746360
 42
-0.004789
  0
VERTEX
  8
0
 10
2225.922532
 20
3419.404144
 42
-0.478396
  0
VERTEX
  8
0
 10
2226.780900
 20
3418.250000
 42
0.002372
  0
VERTEX
  8
0
 10
2226.462959
 20
3416.995486
 42
0.000072
  0
VERTEX
  8
0
 10
2225.173228
 20
3411.800000
 42
0.000143
  0
VERTEX
  8
0
 10
2223.656277
 20
3405.677919
 42
0.000099
  0
VERTEX
  8
0
 10
2221.943206
 20
3398.750000
 42
0.000000
  0
VERTEX
  8
0
 10
2217.557873
 20
3381.000000
 42
0.000000
  0
VERTEX
  8
0
 10
2111.778937
 20
3381.000000
 42
0.000000
  0
VERTEX
  8
0
 10
2006.000000
 20
3381.000000
 42
0.000000
  0
VERTEX
  8
0
 10
2006.000000
 20
3582.000000
 42
0.000000
  0
VERTEX
  8
0
 10
2006.000000
 20
3783.000000
 42
0.000000
  0
VERTEX
  8
0
 10
2112.828464
 20
3783.000000
 42
0.000000
  0
VERTEX
  8
0
 10
2219.656929
 20
3783.000000
 42
0.000000
  0
SEQEND
  0
POLYLINE
  8
0
 66
1
 70
1
  0
VERTEX
  8
0
 10
2612.000000
 20
3781.673251
 42
-0.046369
  0
VERTEX
  8
0
 10
2611.805375
 20
3779.579115
 42
-0.000451
  0
VERTEX
  8
0
 10
2608.989397
 20
3764.634591
 42
-0.000778
  0
VERTEX
  8
0
 10
2606.238958
 20
3750.232505
 42
-0.024861
  0
VERTEX
  8
0
 10
2605.386840
 20
3746.750000
 42
-0.319735
  0
VERTEX
  8
0
 10
2603.921162
 20
3745.607330
 42
-0.005412
  0
VERTEX
  8
0
 10
2593.126956
 20
3745.257061
 42
-0.005009
  0
VERTEX
  8
0
 10
2574.355304
 20
3745.039380
 42
-0.000394
  0
VERTEX
  8
0
 10
2524.432612
 20
3745.000000
 42
0.000000
  0
VERTEX
  8
0
 10
2444.000000
 20
3745.000000
 42
0.000000
  0
VERTEX
  8
0
 10
2444.000000
 20
3669.500000
 42
0.000000
  0
VERTEX
  8
0
 10
2444.000000
 20
3594.000000
 42
0.000000
  0
VERTEX
  8
0
 10
2514.500000
 20
3594.000000
 42
-0.000699
  0
VERTEX
  8
0
 10
2550.828700
 20
3593.949225
 42
-0.003736
  0
VERTEX
  8
0
 10
2570.649860
 20
3593.745712
 42
-0.001332
  0
VERTEX
  8
0
 10
2584.280516
 20
3593.467576
 42
-0.417017
  0
VERTEX
  8
0
 10
2584.959201
 20
3592.750000
 42
-0.039348
  0
VERTEX
  8
0
 10
2584.855695
 20
3591.823734
 42
-0.000614
  0
VERTEX
  8
0
 10
2583.840809
 20
3586.579688
 42
-0.001629
  0
VERTEX
  8
0
 10
2582.633634
 20
3580.488653
 42
-0.001078
  0
VERTEX
  8
0
 10
2581.209201
 20
3573.500000
 42
0.000000
  0
VERTEX
  8
0
 10
2577.500000
 20
3555.500000
 42
0.000000
  0
VERTEX
  8
0
 10
2510.750000
 20
3555.242912
 42
0.000000
  0
VERTEX
  8
0
 10
2444.000000
 20
3554.985825
 42
0.000000
  0
VERTEX
  8
0
 10
2444.000000
 20
3467.992912
 42
0.000000
  0
VERTEX
  8
0
 10
2444.000000
 20
3381.000000
 42
0.000000
  0
VERTEX
  8
0
 10
2422.500000
 20
3381.000000
 42
0.000000
  0
VERTEX
  8
0
 10
2401.000000
 20
3381.000000
 42
0.000000
  0
VERTEX
  8
0
 10
2401.000000
 20
3582.000000
 42
0.000000
  0
VERTEX
  8
0
 10
2401.000000
 20
3783.000000
 42
0.000000
  0
VERTEX
  8
0
 10
2506.500000
 20
3783.000000
 42
-0.000425
  0
VERTEX
  8
0
 10
2563.155790
 20
3782.951823
 42
-0.002719
  0
VERTEX
  8
0
 10
2591.870578
 20
3782.746856
 42
-0.000828
  0
VERTEX
  8
0
 10
2611.214266
 20
3782.471567
 42
-0.409568
  0
SEQEND
  0
POLYLINE
  8
0
 66
1
 70
1
  0
VERTEX
  8
0
 10
3174.000000
 20
3781.943904
 42
-0.024604
  0
VERTEX
  8
0
 10
3190.711012
 20
3779.585797
 42
-0.030026
  0
VERTEX
  8
0
 10
3206.010870
 20
3775.688618
 42
-0.033288
  0
VERTEX
  8
0
 10
3218.982862
 20
3770.567484
 42
-0.061056
  0
VERTEX
  8
0
 10
3228.568800
 20
3764.497136
 42
-0.070714
  0
VERTEX
  8
0
 10
3237.980286
 20
3754.254410
 42
-0.042602
  0
VERTEX
  8
0
 10
3246.145055
 20
3739.887415
 42
-0.039605
  0
VERTEX
  8
0
 10
3252.367126
 20
3722.971446
 42
-0.037839
  0
VERTEX
  8
0
 10
3255.960956
 20
3705.026234
 42
-0.022005
  0
VERTEX
  8
0
 10
3256.730278
 20
3695.184098
 42
-0.008507
  0
VERTEX
  8
0
 10
3256.962855
 20
3681.497301
 42
-0.008506
  0
VERTEX
  8
0
 10
3256.729690
 20
3667.811498
 42
-0.022025
  0
VERTEX
  8
0
 10
3255.959883
 20
3657.973766
 42
-0.017664
  0
VERTEX
  8
0
 10
3254.031409
 20
3645.827647
 42
-0.024321
  0
VERTEX
  8
0
 10
3251.389973
 20
3635.099558
 42
-0.024619
  0
VERTEX
  8
0
 10
3247.748100
 20
3624.780388
 42
-0.018803
  0
VERTEX
  8
0
 10
3242.798001
 20
3613.875105
 42
-0.018398
  0
VERTEX
  8
0
 10
3236.143835
 20
3601.709186
 42
-0.061181
  0
VERTEX
  8
0
 10
3230.569555
 20
3594.519381
 42
-0.063671
  0
VERTEX
  8
0
 10
3223.541613
 20
3589.043342
 42
-0.021089
  0
VERTEX
  8
0
 10
3212.000000
 20
3582.848973
 42
-0.003597
  0
VERTEX
  8
0
 10
3206.299752
 20
3580.143028
 42
-0.003201
  0
VERTEX
  8
0
 10
3200.335938
 20
3577.410683
 42
-0.003213
  0
VERTEX
  8
0
 10
3194.940543
 20
3575.022009
 42
-0.009896
  0
VERTEX
  8
0
 10
3191.250000
 20
3573.502532
 42
0.007403
  0
VERTEX
  8
0
 10
3188.470914
 20
3572.374492
 42
0.011744
  0
VERTEX
  8
0
 10
3186.129687
 20
3571.318055
 42
0.005744
  0
VERTEX
  8
0
 10
3184.213022
 20
3570.371185
 42
0.282272
  0
VERTEX
  8
0
 10
3184.000000
 20
3570.023915
 42
0.237499
  0
VERTEX
  8
0
 10
3184.203960
 20
3569.618744
 42
0.001653
  0
VERTEX
  8
0
 10
3187.408201
 20
3567.258964
 42
0.005861
  0
VERTEX
  8
0
 10
3191.154587
 20
3564.585807
 42
0.003659
  0
VERTEX
  8
0
 10
3195.602386
 20
3561.538281
 42
-0.014107
  0
VERTEX
  8
0
 10
3206.011665
 20
3554.081804
 42
-0.038136
  0
VERTEX
  8
0
 10
3212.803902
 20
3548.051457
 42
-0.045528
  0
VERTEX
  8
0
 10
3217.900702
 20
3541.716599
 42
-0.028526
  0
VERTEX
  8
0
 10
3222.709310
 20
3533.500000
 42
-0.018413
  0
VERTEX
  8
0
 10
3228.762583
 20
3520.494902
 42
-0.003960
  0
VERTEX
  8
0
 10
3238.233772
 20
3497.511762
 42
-0.004343
  0
VERTEX
  8
0
 10
3248.158109
 20
3472.245908
 42
-0.006087
  0
VERTEX
  8
0
 10
3256.549310
 20
3449.500000
 42
0.000105
  0
VERTEX
  8
0
 10
3260.132783
 20
3439.416404
 42
0.000059
  0
VERTEX
  8
0
 10
3264.476495
 20
3427.206250
 42
0.000059
  0
VERTEX
  8
0
 10
3268.857255
 20
3414.901190
 42
0.000098
  0
VERTEX
  8
0
 10
3272.563888
 20
3404.500000
 42
0.000000
  0
VERTEX
  8
0
 10
3280.765370
 20
3381.500000
 42
0.000000
  0
VERTEX
  8
0
 10
3257.701560
 20
3381.231125
 42
-0.003151
  0
VERTEX
  8
0
 10
3248.811202
 20
3381.183505
 42
-0.005028
  0
VERTEX
  8
0
 10
3241.213271
 20
3381.267088
 42
-0.001333
  0
VERTEX
  8
0
 10
3234.617277
 20
3381.423591
 42
-0.208171
  0
VERTEX
  8
0
 10
3233.958691
 20
3381.731125
 42
-0.096217
  0
VERTEX
  8
0
 10
3233.553646
 20
3382.419892
 42
-0.000256
  0
VERTEX
  8
0
 10
3229.885961
 20
3392.813196
 42
-0.001565
  0
VERTEX
  8
0
 10
3225.785869
 20
3404.568105
 42
-0.000974
  0
VERTEX
  8
0
 10
3221.047652
 20
3418.377628
 42
0.007301
  0
VERTEX
  8
0
 10
3203.531301
 20
3467.399439
 42
0.016936
  0
VERTEX
  8
0
 10
3188.626186
 20
3503.490727
 42
0.020841
  0
VERTEX
  8
0
 10
3175.675987
 20
3529.163098
 42
0.088727
  0
VERTEX
  8
0
 10
3164.836110
 20
3542.408288
 42
0.089002
  0
VERTEX
  8
0
 10
3156.741146
 20
3547.155718
 42
0.049657
  0
VERTEX
  8
0
 10
3145.646406
 20
3550.031748
 42
0.030415
  0
VERTEX
  8
0
 10
3129.324326
 20
3551.563963
 42
0.008147
  0
VERTEX
  8
0
 10
3103.250000
 20
3551.994105
 42
0.000000
  0
VERTEX
  8
0
 10
3074.000000
 20
3552.000000
 42
0.000000
  0
VERTEX
  8
0
 10
3074.000000
 20
3466.500000
 42
0.000000
  0
VERTEX
  8
0
 10
3074.000000
 20
3381.000000
 42
0.000000
  0
VERTEX
  8
0
 10
3052.500000
 20
3381.000000
 42
0.000000
  0
VERTEX
  8
0
 10
3031.000000
 20
3381.000000
 42
0.000000
  0
VERTEX
  8
0
 10
3031.000000
 20
3582.000000
 42
0.000000
  0
VERTEX
  8
0
 10
3031.000000
 20
3783.000000
 42
0.000000
  0
VERTEX
  8
0
 10
3096.750000
 20
3782.996583
 42
-0.001371
  0
VERTEX
  8
0
 10
3123.564990
 20
3782.921689
 42
-0.002023
  0
VERTEX
  8
0
 10
3147.097753
 20
3782.696237
 42
-0.001621
  0
VERTEX
  8
0
 10
3166.293494
 20
3782.372428
 42
-0.017722
  0
SEQEND
  0
POLYLINE
  8
0
 66
1
 70
1
  0
VERTEX
  8
0
 10
3466.500000
 20
3630.959291
 42
0.000000
  0
VERTEX
  8
0
 10
3516.500000
 20
3478.920535
 42
0.000000
  0
VERTEX
  8
0
 10
3519.456604
 20
3479.210267
 42
0.000000
  0
VERTEX
  8
0
 10
3522.413207
 20
3479.500000
 42
0.000000
  0
VERTEX
  8
0
 10
3574.456604
 20
3631.238004
 42
0.000000
  0
VERTEX
  8
0
 10
3626.500000
 20
3782.976007
 42
0.000000
  0
VERTEX
  8
0
 10
3662.250000
 20
3782.988004
 42
0.000000
  0
VERTEX
  8
0
 10
3698.000000
 20
3783.000000
 42
0.000000
  0
VERTEX
  8
0
 10
3698.000000
 20
3582.000000
 42
0.000000
  0
VERTEX
  8
0
 10
3698.000000
 20
3381.000000
 42
0.000000
  0
VERTEX
  8
0
 10
3678.000000
 20
3381.000000
 42
0.000000
  0
VERTEX
  8
0
 10
3658.000000
 20
3381.000000
 42
0.000000
  0
VERTEX
  8
0
 10
3658.000000
 20
3561.500000
 42
0.000000
  0
VERTEX
  8
0
 10
3658.000000
 20
3742.000000
 42
0.000000
  0
VERTEX
  8
0
 10
3654.750000
 20
3741.980013
 42
0.000000
  0
VERTEX
  8
0
 10
3651.500000
 20
3741.960026
 42
0.000000
  0
VERTEX
  8
0
 10
3599.100254
 20
3589.730013
 42
-0.000157
  0
VERTEX
  8
0
 10
3578.945526
 20
3531.236973
 42
-0.000258
  0
VERTEX
  8
0
 10
3561.830361
 20
3481.698880
 42
-0.000020
  0
VERTEX
  8
0
 10
3546.431402
 20
3437.208114
 42
-0.033854
  0
VERTEX
  8
0
 10
3545.806645
 20
3435.734258
 42
-0.233973
  0
VERTEX
  8
0
 10
3544.435506
 20
3434.708040
 42
-0.032618
  0
VERTEX
  8
0
 10
3540.808501
 20
3434.279482
 42
-0.014195
  0
VERTEX
  8
0
 10
3534.032371
 20
3434.116747
 42
-0.001304
  0
VERTEX
  8
0
 10
3517.206391
 20
3434.234258
 42
0.000000
  0
VERTEX
  8
0
 10
3489.500000
 20
3434.500000
 42
0.000000
  0
VERTEX
  8
0
 10
3482.299993
 20
3456.000000
 42
-0.000641
  0
VERTEX
  8
0
 10
3477.566559
 20
3470.194965
 42
-0.000045
  0
VERTEX
  8
0
 10
3464.391773
 20
3509.885937
 42
-0.000064
  0
VERTEX
  8
0
 10
3448.691430
 20
3557.220081
 42
-0.000048
  0
VERTEX
  8
0
 10
3431.446488
 20
3609.250000
 42
0.000000
  0
VERTEX
  8
0
 10
3387.792991
 20
3741.000000
 42
0.000000
  0
VERTEX
  8
0
 10
3384.896495
 20
3741.000000
 42
0.000000
  0
VERTEX
  8
0
 10
3382.000000
 20
3741.000000
 42
0.000000
  0
VERTEX
  8
0
 10
3382.000000
 20
3561.000000
 42
0.000000
  0
VERTEX
  8
0
 10
3382.000000
 20
3381.000000
 42
0.000000
  0
VERTEX
  8
0
 10
3362.000000
 20
3381.000000
 42
0.000000
  0
VERTEX
  8
0
 10
3342.000000
 20
3381.000000
 42
0.000000
  0
VERTEX
  8
0
 10
3342.000000
 20
3582.000000
 42
0.000000
  0
VERTEX
  8
0
 10
3342.000000
 20
3783.000000
 42
0.000000
  0
VERTEX
  8
0
 10
3379.250000
 20
3782.999023
 42
0.000000
  0
VERTEX
  8
0
 10
3416.500000
 20
3782.998047
 42
0.000000
  0
SEQEND
  0
POLYLINE
  8
0
 66
1
 70
1
  0
VERTEX
  8
0
 10
4016.502406
 20
3581.750000
 42
0.000000
  0
VERTEX
  8
0
 10
4075.652151
 20
3381.000000
 42
0.000000
  0
VERTEX
  8
0
 10
4052.364816
 20
3381.000000
 42
0.000000
  0
VERTEX
  8
0
 10
4029.077481
 20
3381.000000
 42
0.000000
  0
VERTEX
  8
0
 10
4027.676800
 20
3385.750000
 42
-0.001895
  0
VERTEX
  8
0
 10
4026.655471
 20
3389.262553
 42
-0.000037
  0
VERTEX
  8
0
 10
4021.460332
 20
3407.390625
 42
-0.000088
  0
VERTEX
  8
0
 10
4015.401841
 20
3428.551293
 42
-0.000059
  0
VERTEX
  8
0
 10
4008.481270
 20
3452.750000
 42
0.000000
  0
VERTEX
  8
0
 10
3990.686422
 20
3515.000000
 42
0.000000
  0
VERTEX
  8
0
 10
3918.390457
 20
3515.000000
 42
0.000000
  0
VERTEX
  8
0
 10
3846.094492
 20
3515.000000
 42
0.000000
  0
VERTEX
  8
0
 10
3844.211124
 20
3508.750000
 42
-0.000230
  0
VERTEX
  8
0
 10
3842.867869
 20
3504.299780
 42
-0.000008
  0
VERTEX
  8
0
 10
3837.483128
 20
3486.490625
 42
-0.000014
  0
VERTEX
  8
0
 10
3831.129248
 20
3465.479524
 42
-0.000010
  0
VERTEX
  8
0
 10
3823.952036
 20
3441.750000
 42
0.000000
  0
VERTEX
  8
0
 10
3805.576316
 20
3381.000000
 42
0.000000
  0
VERTEX
  8
0
 10
3783.288158
 20
3381.000000
 42
-0.002911
  0
VERTEX
  8
0
 10
3774.741821
 20
3381.049761
 42
-0.004853
  0
VERTEX
  8
0
 10
3767.547146
 20
3381.203394
 42
-0.000946
  0
VERTEX
  8
0
 10
3761.272530
 20
3381.410211
 42
-0.404045
  0
VERTEX
  8
0
 10
3761.000000
 20
3381.692406
 42
-0.076699
  0
VERTEX
  8
0
 10
3761.085679
 20
3382.247660
 42
-0.000003
  0
VERTEX
  8
0
 10
3778.900768
 20
3438.598336
 42
-0.000162
  0
VERTEX
  8
0
 10
3798.572494
 20
3500.750310
 42
-0.000097
  0
VERTEX
  8
0
 10
3821.938783
 20
3574.442406
 42
0.000006
  0
VERTEX
  8
0
 10
3845.485219
 20
3648.655434
 42
0.000009
  0
VERTEX
  8
0
 10
3865.743134
 20
3712.510310
 42
0.000002
  0
VERTEX
  8
0
 10
3883.459424
 20
3768.358094
 42
0.000340
  0
VERTEX
  8
0
 10
3885.486366
 20
3774.762904
 42
0.000000
  0
VERTEX
  8
0
 10
3888.095165
 20
3783.025807
 42
0.000000
  0
VERTEX
  8
0
 10
3922.723913
 20
3782.762904
 42
0.000000
  0
VERTEX
  8
0
 10
3957.352662
 20
3782.500000
 42
0.000000
  0
SEQEND
  0
POLYLINE
  8
0
 66
1
 70
1
  0
VERTEX
  8
0
 10
4328.000000
 20
3781.443673
 42
-0.044010
  0
VERTEX
  8
0
 10
4327.735836
 20
3778.448327
 42
-0.000791
  0
VERTEX
  8
0
 10
4324.895989
 20
3762.618534
 42
-0.000399
  0
VERTEX
  8
0
 10
4321.910880
 20
3746.203887
 42
-0.093493
  0
VERTEX
  8
0
 10
4321.362097
 20
3744.776869
 42
-0.255956
  0
VERTEX
  8
0
 10
4320.800940
 20
3744.458493
 42
-0.000225
  0
VERTEX
  8
0
 10
4304.884091
 20
3744.228205
 42
-0.002180
  0
VERTEX
  8
0
 10
4287.040889
 20
3744.055888
 42
-0.001324
  0
VERTEX
  8
0
 10
4265.940983
 20
3744.000000
 42
0.000000
  0
VERTEX
  8
0
 10
4211.000000
 20
3744.000000
 42
0.000000
  0
VERTEX
  8
0
 10
4211.000000
 20
3562.500000
 42
0.000000
  0
VERTEX
  8
0
 10
4211.000000
 20
3381.000000
 42
0.000000
  0
VERTEX
  8
0
 10
4190.000000
 20
3381.000000
 42
0.000000
  0
VERTEX
  8
0
 10
4169.000000
 20
3381.000000
 42
0.000000
  0
VERTEX
  8
0
 10
4169.000000
 20
3562.500000
 42
0.000000
  0
VERTEX
  8
0
 10
4169.000000
 20
3744.000000
 42
0.000000
  0
VERTEX
  8
0
 10
4112.666667
 20
3744.000000
 42
-0.000835
  0
VERTEX
  8
0
 10
4091.031328
 20
3744.036133
 42
-0.001374
  0
VERTEX
  8
0
 10
4072.733709
 20
3744.147541
 42
-0.000108
  0
VERTEX
  8
0
 10
4056.322323
 20
3744.296110
 42
-0.196505
  0
VERTEX
  8
0
 10
4055.831066
 20
3744.502267
 42
-0.246891
  0
VERTEX
  8
0
 10
4055.639967
 20
3745.117210
 42
-0.000184
  0
VERTEX
  8
0
 10
4058.773761
 20
3762.033918
 42
-0.001492
  0
VERTEX
  8
0
 10
4061.640158
 20
3777.222681
 42
-0.019961
  0
VERTEX
  8
0
 10
4062.930988
 20
3782.750000
 42
-0.336824
  0
VERTEX
  8
0
 10
4063.066064
 20
3782.853044
 42
-0.000004
  0
VERTEX
  8
0
 10
4101.901603
 20
3782.926562
 42
-0.000295
  0
VERTEX
  8
0
 10
4144.688054
 20
3782.982034
 42
-0.000177
  0
VERTEX
  8
0
 10
4195.500000
 20
3783.000000
 42
-0.000270
  0
VERTEX
  8
0
 10
4273.604622
 20
3782.957803
 42
-0.002666
  0
VERTEX
  8
0
 10
4306.465912
 20
3782.747064
 42
-0.001184
  0
VERTEX
  8
0
 10
4327.003036
 20
3782.457204
 42
-0.409395
  0
SEQEND
  0
POLYLINE
  8
0
 66
1
 70
1
  0
VERTEX
  8
0
 10
4426.000000
 20
3582.000000
 42
0.000000
  0
VERTEX
  8
0
 10
4426.000000
 20
3381.000000
 42
0.000000
  0
VERTEX
  8
0
 10
4404.500000
 20
3381.000000
 42
0.000000
  0
VERTEX
  8
0
 10
4383.000000
 20
3381.000000
 42
0.000000
  0
VERTEX
  8
0
 10
4383.000000
 20
3582.000000
 42
0.000000
  0
VERTEX
  8
0
 10
4383.000000
 20
3783.000000
 42
0.000000
  0
VERTEX
  8
0
 10
4404.500000
 20
3783.000000
 42
0.000000
  0
VERTEX
  8
0
 10
4426.000000
 20
3783.000000
 42
0.000000
  0
SEQEND
  0
POLYLINE
  8
0
 66
1
 70
1
  0
VERTEX
  8
0
 10
5052.873249
 20
3604.750000
 42
0.000000
  0
VERTEX
  8
0
 10
5134.388986
 20
3427.000000
 42
0.000000
  0
VERTEX
  8
0
 10
5137.694493
 20
3427.000000
 42
0.000000
  0
VERTEX
  8
0
 10
5141.000000
 20
3427.000000
 42
0.000000
  0
VERTEX
  8
0
 10
5141.000000
 20
3605.000000
 42
0.000000
  0
VERTEX
  8
0
 10
5141.000000
 20
3783.000000
 42
0.000000
  0
VERTEX
  8
0
 10
5160.500000
 20
3783.000000
 42
0.000000
  0
VERTEX
  8
0
 10
5180.000000
 20
3783.000000
 42
0.000000
  0
VERTEX
  8
0
 10
5180.000000
 20
3582.000000
 42
0.000000
  0
VERTEX
  8
0
 10
5180.000000
 20
3381.000000
 42
0.000000
  0
VERTEX
  8
0
 10
5145.750000
 20
3381.013511
 42
0.000000
  0
VERTEX
  8
0
 10
5111.500000
 20
3381.027022
 42
0.000000
  0
VERTEX
  8
0
 10
5028.907733
 20
3560.763511
 42
0.000000
  0
VERTEX
  8
0
 10
4946.315465
 20
3740.500000
 42
0.000000
  0
VERTEX
  8
0
 10
4943.157733
 20
3740.813358
 42
0.000000
  0
VERTEX
  8
0
 10
4940.000000
 20
3741.126717
 42
0.000000
  0
VERTEX
  8
0
 10
4940.000000
 20
3561.063358
 42
0.000000
  0
VERTEX
  8
0
 10
4940.000000
 20
3381.000000
 42
0.000000
  0
VERTEX
  8
0
 10
4920.000000
 20
3381.000000
 42
0.000000
  0
VERTEX
  8
0
 10
4900.000000
 20
3381.000000
 42
0.000000
  0
VERTEX
  8
0
 10
4900.000000
 20
3582.012631
 42
0.000000
  0
VERTEX
  8
0
 10
4900.000000
 20
3783.025263
 42
0.000000
  0
VERTEX
  8
0
 10
4935.678756
 20
3782.762631
 42
0.000000
  0
VERTEX
  8
0
 10
4971.357512
 20
3782.500000
 42
0.000000
  0
SEQEND
  0
POLYLINE
  8
0
 66
1
 70
1
  0
VERTEX
  8
0
 10
4027.004157
 20
3070.555459
 42
-0.028441
  0
VERTEX
  8
0
 10
4041.178103
 20
3067.586363
 42
-0.043892
  0
VERTEX
  8
0
 10
4052.926220
 20
3063.283527
 42
-0.048108
  0
VERTEX
  8
0
 10
4062.935799
 20
3057.351963
 42
-0.045127
  0
VERTEX
  8
0
 10
4071.862938
 20
3049.501921
 42
-0.051828
  0
VERTEX
  8
0
 10
4079.624388
 20
3039.413280
 42
-0.049859
  0
VERTEX
  8
0
 10
4085.263172
 20
3027.815914
 42
-0.045200
  0
VERTEX
  8
0
 10
4088.893262
 20
3014.310493
 42
-0.030830
  0
VERTEX
  8
0
 10
4090.649099
 20
2998.500000
 42
-0.034588
  0
VERTEX
  8
0
 10
4090.343881
 20
2983.382487
 42
-0.044476
  0
VERTEX
  8
0
 10
4087.880259
 20
2969.706419
 42
-0.044854
  0
VERTEX
  8
0
 10
4083.059772
 20
2956.773175
 42
-0.036114
  0
VERTEX
  8
0
 10
4075.701882
 20
2943.881004
 42
0.000000
  0
VERTEX
  8
0
 10
4069.500000
 20
2934.634597
 42
0.000000
  0
VERTEX
  8
0
 10
4056.774283
 20
2927.567298
 42
0.006150
  0
VERTEX
  8
0
 10
4051.894714
 20
2924.778326
 42
0.009660
  0
VERTEX
  8
0
 10
4047.779613
 20
2922.250429
 42
0.004222
  0
VERTEX
  8
0
 10
4044.372573
 20
2920.024906
 42
0.245198
  0
VERTEX
  8
0
 10
4044.024283
 20
2919.391608
 42
0.294631
  0
VERTEX
  8
0
 10
4044.386748
 20
2918.801926
 42
0.003930
  0
VERTEX
  8
0
 10
4048.442630
 20
2916.898710
 42
0.009692
  0
VERTEX
  8
0
 10
4053.312836
 20
2914.773261
 42
0.006034
  0
VERTEX
  8
0
 10
4059.099562
 20
2912.461614
 42
-0.004482
  0
VERTEX
  8
0
 10
4068.134429
 20
2908.884890
 42
-0.029691
  0
VERTEX
  8
0
 10
4072.511982
 20
2906.795726
 42
-0.052968
  0
VERTEX
  8
0
 10
4075.454606
 20
2904.736971
 42
-0.035682
  0
VERTEX
  8
0
 10
4078.349562
 20
2901.828951
 42
-0.024158
  0
VERTEX
  8
0
 10
4082.332508
 20
2896.733974
 42
-0.018080
  0
VERTEX
  8
0
 10
4086.232042
 20
2890.769583
 42
-0.018270
  0
VERTEX
  8
0
 10
4089.626958
 20
2884.647961
 42
-0.027849
  0
VERTEX
  8
0
 10
4092.071647
 20
2879.086193
 42
-0.016045
  0
VERTEX
  8
0
 10
4095.097489
 20
2870.146262
 42
-0.037760
  0
VERTEX
  8
0
 10
4096.625412
 20
2863.274520
 42
-0.029855
  0
VERTEX
  8
0
 10
4097.289693
 20
2855.348325
 42
-0.006968
  0
VERTEX
  8
0
 10
4097.422989
 20
2842.000000
 42
-0.011970
  0
VERTEX
  8
0
 10
4097.002113
 20
2826.912041
 42
-0.036753
  0
VERTEX
  8
0
 10
4095.725458
 20
2816.776498
 42
-0.043040
  0
VERTEX
  8
0
 10
4093.106490
 20
2807.830621
 42
-0.021674
  0
VERTEX
  8
0
 10
4088.369756
 20
2797.055368
 42
-0.042084
  0
VERTEX
  8
0
 10
4082.833441
 20
2787.853332
 42
-0.036308
  0
VERTEX
  8
0
 10
4075.578505
 20
2779.210661
 42
-0.036698
  0
VERTEX
  8
0
 10
4067.247456
 20
2771.807073
 42
-0.045977
  0
VERTEX
  8
0
 10
4058.500000
 20
2766.307378
 42
-0.027795
  0
VERTEX
  8
0
 10
4046.298102
 20
2760.948777
 42
-0.035505
  0
VERTEX
  8
0
 10
4034.524327
 20
2757.470590
 42
-0.031040
  0
VERTEX
  8
0
 10
4021.186174
 20
2755.397272
 42
-0.015168
  0
VERTEX
  8
0
 10
4004.000000
 20
2754.333526
 42
-0.028123
  0
VERTEX
  8
0
 10
3978.093851
 20
2754.974791
 42
-0.050516
  0
VERTEX
  8
0
 10
3957.198403
 20
2758.818726
 42
-0.060225
  0
VERTEX
  8
0
 10
3940.163529
 20
2766.084844
 42
-0.066405
  0
VERTEX
  8
0
 10
3925.965394
 20
2777.015597
 42
-0.043460
  0
VERTEX
  8
0
 10
3917.968471
 20
2786.602586
 42
-0.045871
  0
VERTEX
  8
0
 10
3911.912024
 20
2797.262480
 42
-0.043237
  0
VERTEX
  8
0
 10
3907.635937
 20
2809.405841
 42
-0.031746
  0
VERTEX
  8
0
 10
3904.957001
 20
2823.435039
 42
-0.047193
  0
VERTEX
  8
0
 10
3904.324132
 20
2843.912325
 42
-0.050219
  0
VERTEX
  8
0
 10
3907.595365
 20
2863.707501
 42
-0.052168
  0
VERTEX
  8
0
 10
3914.564332
 20
2881.762394
 42
-0.059863
  0
VERTEX
  8
0
 10
3924.877361
 20
2897.092393
 42
-0.033648
  0
VERTEX
  8
0
 10
3927.801217
 20
2900.053640
 42
-0.039169
  0
VERTEX
  8
0
 10
3930.958779
 20
2902.435073
 42
-0.025414
  0
VERTEX
  8
0
 10
3935.422239
 20
2904.973337
 42
-0.006005
  0
VERTEX
  8
0
 10
3943.127361
 20
2908.735725
 42
0.006090
  0
VERTEX
  8
0
 10
3948.444047
 20
2911.332971
 42
0.009690
  0
VERTEX
  8
0
 10
3952.920254
 20
2913.697416
 42
0.004050
  0
VERTEX
  8
0
 10
3956.637813
 20
2915.793738
 42
0.272374
  0
VERTEX
  8
0
 10
3956.984142
 20
2916.402276
 42
0.253143
  0
VERTEX
  8
0
 10
3956.638457
 20
2917.019824
 42
0.004530
  0
VERTEX
  8
0
 10
3953.308580
 20
2919.086919
 42
0.010109
  0
VERTEX
  8
0
 10
3949.276537
 20
2921.429234
 42
0.006425
  0
VERTEX
  8
0
 10
3944.493860
 20
2924.000000
 42
-0.006479
  0
VERTEX
  8
0
 10
3937.367853
 20
2927.831329
 42
-0.030341
  0
VERTEX
  8
0
 10
3933.441898
 20
2930.330805
 42
-0.046037
  0
VERTEX
  8
0
 10
3930.669903
 20
2932.760109
 42
-0.030620
  0
VERTEX
  8
0
 10
3927.952265
 20
2936.000000
 42
-0.028897
  0
VERTEX
  8
0
 10
3923.162885
 20
2943.326761
 42
-0.022704
  0
VERTEX
  8
0
 10
3918.816408
 20
2951.762231
 42
-0.023217
  0
VERTEX
  8
0
 10
3915.406565
 20
2960.202253
 42
-0.040447
  0
VERTEX
  8
0
 10
3913.491111
 20
2967.500000
 42
-0.042249
  0
VERTEX
  8
0
 10
3911.952767
 20
2984.287038
 42
-0.036634
  0
VERTEX
  8
0
 10
3913.124297
 20
3001.931295
 42
-0.037472
  0
VERTEX
  8
0
 10
3916.784585
 20
3018.737617
 42
-0.051665
  0
VERTEX
  8
0
 10
3922.690433
 20
3033.000000
 42
-0.059002
  0
VERTEX
  8
0
 10
3932.701157
 20
3047.211052
 42
-0.065708
  0
VERTEX
  8
0
 10
3945.434672
 20
3058.111831
 42
-0.061785
  0
VERTEX
  8
0
 10
3961.246241
 20
3065.815439
 42
-0.043989
  0
VERTEX
  8
0
 10
3980.398770
 20
3070.543649
 42
-0.026956
  0
VERTEX
  8
0
 10
3990.291193
 20
3071.538316
 42
-0.011515
  0
VERTEX
  8
0
 10
4003.588179
 20
3071.847960
 42
-0.011538
  0
VERTEX
  8
0
 10
4016.930636
 20
3071.543402
 42
-0.025937
  0
SEQEND
  0
POLYLINE
  8
0
 66
1
 70
1
  0
VERTEX
  8
0
 10
4413.031735
 20
3070.551319
 42
-0.028075
  0
VERTEX
  8
0
 10
4426.635855
 20
3067.711997
 42
-0.039434
  0
VERTEX
  8
0
 10
4438.321179
 20
3063.569008
 42
-0.043535
  0
VERTEX
  8
0
 10
4448.266176
 20
3058.051010
 42
-0.049456
  0
VERTEX
  8
0
 10
4456.653201
 20
3051.094906
 42
-0.062124
  0
VERTEX
  8
0
 10
4466.081725
 20
3038.832099
 42
-0.055494
  0
VERTEX
  8
0
 10
4472.641389
 20
3024.163153
 42
-0.051186
  0
VERTEX
  8
0
 10
4476.190424
 20
3007.293027
 42
-0.039566
  0
VERTEX
  8
0
 10
4476.678718
 20
2988.500000
 42
-0.017660
  0
VERTEX
  8
0
 10
4475.837181
 20
2979.008386
 42
-0.029929
  0
VERTEX
  8
0
 10
4474.381199
 20
2971.166897
 42
-0.030896
  0
VERTEX
  8
0
 10
4472.038222
 20
2963.729861
 42
-0.020400
  0
VERTEX
  8
0
 10
4468.483112
 20
2955.500000
 42
-0.019862
  0
VERTEX
  8
0
 10
4463.326941
 20
2945.792995
 42
-0.044673
  0
VERTEX
  8
0
 10
4458.505502
 20
2939.000499
 42
-0.052505
  0
VERTEX
  8
0
 10
4453.089726
 20
2933.860165
 42
-0.039315
  0
VERTEX
  8
0
 10
4446.186119
 20
2929.378387
 42
0.003933
  0
VERTEX
  8
0
 10
4438.717383
 20
2925.248740
 42
0.012612
  0
VERTEX
  8
0
 10
4433.834788
 20
2922.334066
 42
0.010766
  0
VERTEX
  8
0
 10
4430.513283
 20
2920.134442
 42
0.245866
  0
VERTEX
  8
0
 10
4430.000000
 20
2919.153713
 42
0.294724
  0
VERTEX
  8
0
 10
4430.285966
 20
2918.710713
 42
0.002213
  0
VERTEX
  8
0
 10
4434.421379
 20
2916.864290
 42
0.007200
  0
VERTEX
  8
0
 10
4439.281103
 20
2914.803292
 42
0.004444
  0
VERTEX
  8
0
 10
4445.051503
 20
2912.513102
 42
-0.004454
  0
VERTEX
  8
0
 10
4454.364931
 20
2908.816533
 42
-0.032753
  0
VERTEX
  8
0
 10
4458.669375
 20
2906.725414
 42
-0.055090
  0
VERTEX
  8
0
 10
4461.697980
 20
2904.527500
 42
-0.026114
  0
VERTEX
  8
0
 10
4465.096760
 20
2901.096845
 42
-0.044789
  0
VERTEX
  8
0
 10
4469.646402
 20
2894.973360
 42
-0.019803
  0
VERTEX
  8
0
 10
4474.569332
 20
2886.169756
 42
-0.019820
  0
VERTEX
  8
0
 10
4478.905184
 20
2876.731582
 42
-0.033707
  0
VERTEX
  8
0
 10
4481.666109
 20
2868.500000
 42
-0.026558
  0
VERTEX
  8
0
 10
4482.591595
 20
2864.006533
 42
-0.020857
  0
VERTEX
  8
0
 10
4483.129303
 20
2859.061462
 42
-0.013697
  0
VERTEX
  8
0
 10
4483.389823
 20
2852.420812
 42
-0.003805
  0
VERTEX
  8
0
 10
4483.433689
 20
2842.000000
 42
-0.011965
  0
VERTEX
  8
0
 10
4483.021927
 20
2826.937507
 42
-0.036866
  0
VERTEX
  8
0
 10
4481.752527
 20
2816.831766
 42
-0.042917
  0
VERTEX
  8
0
 10
4479.134373
 20
2807.876661
 42
-0.021141
  0
VERTEX
  8
0
 10
4474.374733
 20
2797.000000
 42
-0.014906
  0
VERTEX
  8
0
 10
4471.520959
 20
2791.579194
 42
-0.031289
  0
VERTEX
  8
0
 10
4468.924751
 20
2787.590040
 42
-0.028131
  0
VERTEX
  8
0
 10
4465.678478
 20
2783.702546
 42
-0.009935
  0
VERTEX
  8
0
 10
4460.614835
 20
2778.500000
 42
-0.010263
  0
VERTEX
  8
0
 10
4455.785274
 20
2773.923197
 42
-0.021925
  0
VERTEX
  8
0
 10
4451.835781
 20
2770.635788
 42
-0.026102
  0
VERTEX
  8
0
 10
4448.093035
 20
2768.085504
 42
-0.023266
  0
VERTEX
  8
0
 10
4443.961350
 20
2765.831495
 42
-0.026894
  0
VERTEX
  8
0
 10
4431.828070
 20
2760.714249
 42
-0.033864
  0
VERTEX
  8
0
 10
4420.105051
 20
2757.373173
 42
-0.029745
  0
VERTEX
  8
0
 10
4406.885036
 20
2755.368851
 42
-0.014879
  0
VERTEX
  8
0
 10
4390.000000
 20
2754.333526
 42
-0.039456
  0
VERTEX
  8
0
 10
4357.172708
 20
2755.890309
 42
-0.075225
  0
VERTEX
  8
0
 10
4331.814534
 20
2763.084144
 42
-0.089678
  0
VERTEX
  8
0
 10
4312.675844
 20
2776.331899
 42
-0.080414
  0
VERTEX
  8
0
 10
4298.521037
 20
2795.911042
 42
-0.038975
  0
VERTEX
  8
0
 10
4295.717344
 20
2802.779142
 42
-0.020157
  0
VERTEX
  8
0
 10
4293.248110
 20
2811.723653
 42
-0.019478
  0
VERTEX
  8
0
 10
4291.374082
 20
2821.463119
 42
-0.022624
  0
VERTEX
  8
0
 10
4290.376856
 20
2830.844433
 42
-0.042155
  0
VERTEX
  8
0
 10
4290.800399
 20
2848.788701
 42
-0.045051
  0
VERTEX
  8
0
 10
4294.251615
 20
2865.999687
 42
-0.046784
  0
VERTEX
  8
0
 10
4300.553017
 20
2881.710663
 42
-0.053744
  0
VERTEX
  8
0
 10
4309.438235
 20
2895.203885
 42
-0.022253
  0
VERTEX
  8
0
 10
4312.968362
 20
2899.115286
 42
-0.047989
  0
VERTEX
  8
0
 10
4316.077737
 20
2901.714068
 42
-0.031725
  0
VERTEX
  8
0
 10
4320.347384
 20
2904.255190
 42
-0.005312
  0
VERTEX
  8
0
 10
4328.878653
 20
2908.511806
 42
0.005735
  0
VERTEX
  8
0
 10
4334.291102
 20
2911.218037
 42
0.009137
  0
VERTEX
  8
0
 10
4338.848712
 20
2913.668904
 42
0.003635
  0
VERTEX
  8
0
 10
4342.650663
 20
2915.840379
 42
0.269945
  0
VERTEX
  8
0
 10
4342.989301
 20
2916.435585
 42
0.255390
  0
VERTEX
  8
0
 10
4342.653680
 20
2917.035396
 42
0.004284
  0
VERTEX
  8
0
 10
4339.306624
 20
2919.096703
 42
0.009834
  0
VERTEX
  8
0
 10
4335.263969
 20
2921.431616
 42
0.006235
  0
VERTEX
  8
0
 10
4330.467550
 20
2924.000000
 42
-0.005766
  0
VERTEX
  8
0
 10
4322.648132
 20
2928.177708
 42
-0.039697
  0
VERTEX
  8
0
 10
4319.011000
 20
2930.568825
 42
-0.057016
  0
VERTEX
  8
0
 10
4316.364744
 20
2933.159750
 42
-0.019029
  0
VERTEX
  8
0
 10
4313.106162
 20
2937.500000
 42
-0.024450
  0
VERTEX
  8
0
 10
4306.374443
 20
2948.307765
 42
-0.043739
  0
VERTEX
  8
0
 10
4302.103586
 20
2957.852246
 42
-0.044401
  0
VERTEX
  8
0
 10
4299.597210
 20
2967.894736
 42
-0.026060
  0
VERTEX
  8
0
 10
4298.313925
 20
2980.221966
 42
-0.030882
  0
VERTEX
  8
0
 10
4298.464749
 20
2995.119284
 42
-0.033376
  0
VERTEX
  8
0
 10
4300.470139
 20
3009.496043
 42
-0.034725
  0
VERTEX
  8
0
 10
4304.255880
 20
3022.926801
 42
-0.040499
  0
VERTEX
  8
0
 10
4309.721744
 20
3035.000000
 42
-0.045515
  0
VERTEX
  8
0
 10
4314.900301
 20
3042.617756
 42
-0.030799
  0
VERTEX
  8
0
 10
4322.058537
 20
3050.307981
 42
-0.030788
  0
VERTEX
  8
0
 10
4330.111803
 20
3057.064694
 42
-0.045306
  0
VERTEX
  8
0
 10
4338.000000
 20
3061.857325
 42
-0.023155
  0
VERTEX
  8
0
 10
4344.797971
 20
3064.804782
 42
-0.018767
  0
VERTEX
  8
0
 10
4352.329866
 20
3067.345016
 42
-0.018136
  0
VERTEX
  8
0
 10
4360.321244
 20
3069.398199
 42
-0.017736
  0
VERTEX
  8
0
 10
4368.500000
 20
3070.884366
 42
-0.028211
  0
VERTEX
  8
0
 10
4377.485361
 20
3071.675992
 42
-0.009737
  0
VERTEX
  8
0
 10
4390.524344
 20
3071.832396
 42
-0.009835
  0
VERTEX
  8
0
 10
4403.646819
 20
3071.476069
 42
-0.025707
  0
SEQEND
  0
POLYLINE
  8
0
 66
1
 70
1
  0
VERTEX
  8
0
 10
4643.500000
 20
3070.527037
 42
-0.032176
  0
VERTEX
  8
0
 10
4657.066023
 20
3067.412336
 42
-0.042421
  0
VERTEX
  8
0
 10
4668.870608
 20
3062.768393
 42
-0.044085
  0
VERTEX
  8
0
 10
4679.363003
 20
3056.368481
 42
-0.039432
  0
VERTEX
  8
0
 10
4689.000000
 20
3048.007041
 42
-0.023604
  0
VERTEX
  8
0
 10
4694.728236
 20
3041.607814
 42
-0.028611
  0
VERTEX
  8
0
 10
4699.444901
 20
3035.080291
 42
-0.028190
  0
VERTEX
  8
0
 10
4703.439693
 20
3027.974473
 42
-0.021799
  0
VERTEX
  8
0
 10
4706.999011
 20
3019.834107
 42
-0.024698
  0
VERTEX
  8
0
 10
4712.904550
 20
3001.966694
 42
-0.029615
  0
VERTEX
  8
0
 10
4716.606847
 20
2984.649045
 42
-0.024015
  0
VERTEX
  8
0
 10
4718.716739
 20
2964.313123
 42
-0.009772
  0
VERTEX
  8
0
 10
4719.713379
 20
2936.500000
 42
-0.006429
  0
VERTEX
  8
0
 10
4719.789701
 20
2914.162310
 42
-0.014873
  0
VERTEX
  8
0
 10
4719.132608
 20
2897.402604
 42
-0.018206
  0
VERTEX
  8
0
 10
4717.605818
 20
2882.962324
 42
-0.016464
  0
VERTEX
  8
0
 10
4714.996123
 20
2868.174157
 42
-0.024729
  0
VERTEX
  8
0
 10
4711.016092
 20
2853.033014
 42
-0.019606
  0
VERTEX
  8
0
 10
4705.282643
 20
2837.114085
 42
-0.019925
  0
VERTEX
  8
0
 10
4698.484937
 20
2822.084438
 42
-0.030169
  0
VERTEX
  8
0
 10
4691.294251
 20
2809.667700
 42
-0.046617
  0
VERTEX
  8
0
 10
4679.496595
 20
2795.030960
 42
-0.038802
  0
VERTEX
  8
0
 10
4664.486674
 20
2781.822168
 42
-0.038242
  0
VERTEX
  8
0
 10
4647.360831
 20
2770.901863
 42
-0.041755
  0
VERTEX
  8
0
 10
4629.255927
 20
2763.081612
 42
-0.014223
  0
VERTEX
  8
0
 10
4621.443174
 20
2760.700508
 42
-0.008545
  0
VERTEX
  8
0
 10
4612.049587
 20
2758.298981
 42
-0.008441
  0
VERTEX
  8
0
 10
4602.333015
 20
2756.163644
 42
-0.011493
  0
VERTEX
  8
0
 10
4593.500000
 20
2754.588614
 42
-0.015143
  0
VERTEX
  8
0
 10
4582.849645
 20
2753.269936
 42
-0.006438
  0
VERTEX
  8
0
 10
4568.517866
 20
2752.120530
 42
-0.001475
  0
VERTEX
  8
0
 10
4553.418448
 20
2751.149768
 42
-0.237479
  0
VERTEX
  8
0
 10
4551.920122
 20
2751.792219
 42
-0.095942
  0
VERTEX
  8
0
 10
4551.590148
 20
2752.384760
 42
-0.001485
  0
VERTEX
  8
0
 10
4550.380779
 20
2756.110839
 42
-0.003902
  0
VERTEX
  8
0
 10
4549.018715
 20
2760.466631
 42
-0.002566
  0
VERTEX
  8
0
 10
4547.515958
 20
2765.500000
 42
0.000622
  0
VERTEX
  8
0
 10
4546.023209
 20
2770.571685
 42
0.000900
  0
VERTEX
  8
0
 10
4544.690744
 20
2775.048438
 42
0.000455
  0
VERTEX
  8
0
 10
4543.549436
 20
2778.845285
 42
0.015035
  0
VERTEX
  8
0
 10
4543.246628
 20
2779.750000
 42
-0.365378
  0
VERTEX
  8
0
 10
4543.459098
 20
2780.336484
 42
-0.085672
  0
VERTEX
  8
0
 10
4544.518602
 20
2780.725255
 42
-0.036743
  0
VERTEX
  8
0
 10
4546.582244
 20
2780.947545
 42
-0.008113
  0
VERTEX
  8
0
 10
4550.143011
 20
2781.010317
 42
0.021489
  0
VERTEX
  8
0
 10
4565.651429
 20
2781.698951
 42
0.015359
  0
VERTEX
  8
0
 10
4582.903263
 20
2783.745273
 42
0.015460
  0
VERTEX
  8
0
 10
4599.788516
 20
2786.812590
 42
0.023729
  0
VERTEX
  8
0
 10
4614.157227
 20
2790.605203
 42
0.063153
  0
VERTEX
  8
0
 10
4637.948214
 20
2801.563824
 42
0.073618
  0
VERTEX
  8
0
 10
4656.891321
 20
2817.674123
 42
0.070137
  0
VERTEX
  8
0
 10
4671.012373
 20
2839.273516
 42
0.050669
  0
VERTEX
  8
0
 10
4680.558287
 20
2866.455915
 42
0.018752
  0
VERTEX
  8
0
 10
4683.375690
 20
2880.428132
 42
0.011497
  0
VERTEX
  8
0
 10
4685.695276
 20
2897.071005
 42
0.003784
  0
VERTEX
  8
0
 10
4687.482798
 20
2913.570086
 42
0.443921
  0
VERTEX
  8
0
 10
4686.189631
 20
2915.000000
 42
0.197710
  0
VERTEX
  8
0
 10
4685.542644
 20
2914.733761
 42
0.004700
  0
VERTEX
  8
0
 10
4683.198306
 20
2912.366936
 42
0.009623
  0
VERTEX
  8
0
 10
4680.490324
 20
2909.471636
 42
0.006300
  0
VERTEX
  8
0
 10
4677.476545
 20
2906.036376
 42
-0.016261
  0
VERTEX
  8
0
 10
4671.945388
 20
2899.979420
 42
-0.063603
  0
VERTEX
  8
0
 10
4667.985698
 20
2896.834688
 42
-0.052655
  0
VERTEX
  8
0
 10
4663.015169
 20
2894.501105
 42
-0.008835
  0
VERTEX
  8
0
 10
4653.000000
 20
2891.225966
 42
-0.015046
  0
VERTEX
  8
0
 10
4642.259038
 20
2888.273008
 42
-0.027102
  0
VERTEX
  8
0
 10
4633.282775
 20
2886.602332
 42
-0.023714
  0
VERTEX
  8
0
 10
4623.409089
 20
2885.786838
 42
-0.008858
  0
VERTEX
  8
0
 10
4609.500000
 20
2885.546607
 42
-0.003595
  0
VERTEX
  8
0
 10
4598.124523
 20
2885.633480
 42
-0.015784
  0
VERTEX
  8
0
 10
4591.415640
 20
2885.944942
 42
-0.023888
  0
VERTEX
  8
0
 10
4586.185327
 20
2886.605997
 42
-0.018225
  0
VERTEX
  8
0
 10
4580.540444
 20
2887.808779
 42
-0.024416
  0
VERTEX
  8
0
 10
4570.786200
 20
2890.774939
 42
-0.037757
  0
VERTEX
  8
0
 10
4562.746139
 20
2894.360637
 42
-0.040016
  0
VERTEX
  8
0
 10
4555.679506
 20
2898.939868
 42
-0.032423
  0
VERTEX
  8
0
 10
4548.884739
 20
2904.896760
 42
-0.060981
  0
VERTEX
  8
0
 10
4538.993455
 20
2917.527011
 42
-0.057462
  0
VERTEX
  8
0
 10
4532.203633
 20
2932.419529
 42
-0.049400
  0
VERTEX
  8
0
 10
4528.284205
 20
2950.432464
 42
-0.028891
  0
VERTEX
  8
0
 10
4527.008043
 20
2972.500000
 42
-0.021670
  0
VERTEX
  8
0
 10
4527.735049
 20
2989.266999
 42
-0.030482
  0
VERTEX
  8
0
 10
4529.936350
 20
3004.071554
 42
-0.032847
  0
VERTEX
  8
0
 10
4533.740859
 20
3017.595734
 42
-0.032883
  0
VERTEX
  8
0
 10
4539.282662
 20
3030.500000
 42
-0.047895
  0
VERTEX
  8
0
 10
4544.472602
 20
3038.649001
 42
-0.028627
  0
VERTEX
  8
0
 10
4552.054449
 20
3047.292639
 42
-0.028667
  0
VERTEX
  8
0
 10
4560.540774
 20
3054.982306
 42
-0.049561
  0
VERTEX
  8
0
 10
4568.500000
 20
3060.195004
 42
-0.021449
  0
VERTEX
  8
0
 10
4575.614181
 20
3063.525961
 42
-0.018478
  0
VERTEX
  8
0
 10
4583.347073
 20
3066.419459
 42
-0.018363
  0
VERTEX
  8
0
 10
4591.328631
 20
3068.752470
 42
-0.020374
  0
VERTEX
  8
0
 10
4599.189274
 20
3070.402568
 42
-0.027618
  0
VERTEX
  8
0
 10
4608.863698
 20
3071.480383
 42
-0.013231
  0
VERTEX
  8
0
 10
4621.361526
 20
3071.846291
 42
-0.013228
  0
VERTEX
  8
0
 10
4633.852430
 20
3071.550872
 42
-0.027820
  0
SEQEND
  0
POLYLINE
  8
0
 66
1
 70
1
  0
VERTEX
  8
0
 10
1656.144045
 20
3066.945951
 42
-0.014226
  0
VERTEX
  8
0
 10
1664.801677
 20
3065.815101
 42
-0.027205
  0
VERTEX
  8
0
 10
1671.653075
 20
3064.335207
 42
-0.030197
  0
VERTEX
  8
0
 10
1677.813220
 20
3062.242381
 42
-0.022947
  0
VERTEX
  8
0
 10
1684.285445
 20
3059.244556
 42
-0.039810
  0
VERTEX
  8
0
 10
1689.547846
 20
3055.950970
 42
-0.034112
  0
VERTEX
  8
0
 10
1694.518725
 20
3051.704213
 42
-0.033253
  0
VERTEX
  8
0
 10
1698.990744
 20
3046.698180
 42
-0.033148
  0
VERTEX
  8
0
 10
1702.764804
 20
3041.138358
 42
-0.079027
  0
VERTEX
  8
0
 10
1708.250187
 20
3027.094384
 42
-0.034349
  0
VERTEX
  8
0
 10
1711.173019
 20
3007.213042
 42
-0.033845
  0
VERTEX
  8
0
 10
1711.377394
 20
2985.999102
 42
-0.049015
  0
VERTEX
  8
0
 10
1708.468230
 20
2967.500000
 42
-0.031440
  0
VERTEX
  8
0
 10
1706.577064
 20
2961.731343
 42
-0.013181
  0
VERTEX
  8
0
 10
1703.347571
 20
2954.219153
 42
-0.012563
  0
VERTEX
  8
0
 10
1699.826111
 20
2947.066622
 42
-0.046067
  0
VERTEX
  8
0
 10
1697.084619
 20
2942.833365
 42
-0.065339
  0
VERTEX
  8
0
 10
1695.626660
 20
2941.409573
 42
-0.008398
  0
VERTEX
  8
0
 10
1692.079519
 20
2938.843596
 42
-0.009696
  0
VERTEX
  8
0
 10
1687.738783
 20
2935.936810
 42
-0.007946
  0
VERTEX
  8
0
 10
1682.992994
 20
2932.995811
 42
0.003853
  0
VERTEX
  8
0
 10
1678.396285
 20
2930.199010
 42
0.006197
  0
VERTEX
  8
0
 10
1674.526767
 20
2927.736757
 42
0.001764
  0
VERTEX
  8
0
 10
1671.220207
 20
2925.557999
 42
0.256487
  0
VERTEX
  8
0
 10
1671.013020
 20
2925.162447
 42
0.317183
  0
VERTEX
  8
0
 10
1671.250683
 20
2924.839170
 42
0.004246
  0
VERTEX
  8
0
 10
1673.735578
 20
2924.032018
 42
0.010211
  0
VERTEX
  8
0
 10
1676.720892
 20
2923.156879
 42
0.006309
  0
VERTEX
  8
0
 10
1680.263020
 20
2922.244423
 42
-0.026704
  0
VERTEX
  8
0
 10
1689.451931
 20
2919.473301
 42
-0.030422
  0
VERTEX
  8
0
 10
1697.889211
 20
2915.835053
 42
-0.033084
  0
VERTEX
  8
0
 10
1705.054257
 20
2911.597485
 42
-0.054689
  0
VERTEX
  8
0
 10
1710.381799
 20
2907.022913
 42
-0.046599
  0
VERTEX
  8
0
 10
1714.374958
 20
2901.866014
 42
-0.022916
  0
VERTEX
  8
0
 10
1718.501397
 20
2894.658024
 42
-0.022633
  0
VERTEX
  8
0
 10
1722.101146
 20
2886.785194
 42
-0.032435
  0
VERTEX
  8
0
 10
1724.505271
 20
2879.500000
 42
-0.032506
  0
VERTEX
  8
0
 10
1726.290675
 20
2870.161728
 42
-0.015974
  0
VERTEX
  8
0
 10
1727.402448
 20
2858.108468
 42
-0.015774
  0
VERTEX
  8
0
 10
1727.762759
 20
2845.463826
 42
-0.022056
  0
VERTEX
  8
0
 10
1727.229754
 20
2834.170819
 42
-0.015437
  0
VERTEX
  8
0
 10
1725.857194
 20
2822.989037
 42
-0.024785
  0
VERTEX
  8
0
 10
1723.924507
 20
2813.579055
 42
-0.027065
  0
VERTEX
  8
0
 10
1721.222153
 20
2805.032586
 42
-0.024247
  0
VERTEX
  8
0
 10
1717.525280
 20
2796.500000
 42
-0.034268
  0
VERTEX
  8
0
 10
1711.169465
 20
2785.548305
 42
-0.053331
  0
VERTEX
  8
0
 10
1704.136612
 20
2777.214122
 42
-0.054574
  0
VERTEX
  8
0
 10
1695.626862
 20
2770.687329
 42
-0.037987
  0
VERTEX
  8
0
 10
1684.818488
 20
2765.206528
 42
-0.033697
  0
VERTEX
  8
0
 10
1673.359906
 20
2761.332862
 42
-0.043976
  0
VERTEX
  8
0
 10
1662.459780
 20
2759.453562
 42
-0.017795
  0
VERTEX
  8
0
 10
1645.691734
 20
2758.660682
 42
-0.001415
  0
VERTEX
  8
0
 10
1601.250000
 20
2758.268137
 42
0.000000
  0
VERTEX
  8
0
 10
1540.000000
 20
2757.900536
 42
0.000000
  0
VERTEX
  8
0
 10
1540.000000
 20
2912.950268
 42
0.000000
  0
VERTEX
  8
0
 10
1540.000000
 20
3068.000000
 42
0.000000
  0
VERTEX
  8
0
 10
1592.894045
 20
3068.000000
 42
-0.001765
  0
VERTEX
  8
0
 10
1614.254662
 20
3067.924614
 42
-0.002401
  0
VERTEX
  8
0
 10
1633.522497
 20
3067.696071
 42
-0.001958
  0
VERTEX
  8
0
 10
1649.444217
 20
3067.368360
 42
-0.019236
  0
SEQEND
  0
POLYLINE
  8
0
 66
1
 70
1
  0
VERTEX
  8
0
 10
3843.000000
 20
3053.000000
 42
0.000000
  0
VERTEX
  8
0
 10
3843.000000
 20
3038.000000
 42
0.000000
  0
VERTEX
  8
0
 10
3778.500000
 20
3038.000000
 42
0.000000
  0
VERTEX
  8
0
 10
3714.000000
 20
3038.000000
 42
0.000000
  0
VERTEX
  8
0
 10
3714.000000
 20
2985.980948
 42
0.000000
  0
VERTEX
  8
0
 10
3714.000000
 20
2933.961896
 42
0.000000
  0
VERTEX
  8
0
 10
3716.250000
 20
2934.469695
 42
-0.012906
  0
VERTEX
  8
0
 10
3728.440867
 20
2936.892198
 42
-0.017844
  0
VERTEX
  8
0
 10
3739.491256
 20
2938.389363
 42
-0.016136
  0
VERTEX
  8
0
 10
3751.432144
 20
2939.187152
 42
-0.008174
  0
VERTEX
  8
0
 10
3766.500000
 20
2939.459830
 42
-0.009156
  0
VERTEX
  8
0
 10
3784.823784
 20
2939.156275
 42
-0.030541
  0
VERTEX
  8
0
 10
3796.794529
 20
2938.004272
 42
-0.041599
  0
VERTEX
  8
0
 10
3806.433162
 20
2935.643969
 42
-0.031716
  0
VERTEX
  8
0
 10
3816.500000
 20
2931.544542
 42
-0.060559
  0
VERTEX
  8
0
 10
3827.831438
 20
2924.263878
 42
-0.063843
  0
VERTEX
  8
0
 10
3836.861792
 20
2914.594027
 42
-0.059511
  0
VERTEX
  8
0
 10
3843.629913
 20
2902.345711
 42
-0.042869
  0
VERTEX
  8
0
 10
3848.253296
 20
2887.412770
 42
-0.017337
  0
VERTEX
  8
0
 10
3849.401235
 20
2881.100469
 42
-0.020087
  0
VERTEX
  8
0
 10
3850.041711
 20
2875.026126
 42
-0.012871
  0
VERTEX
  8
0
 10
3850.353643
 20
2867.060824
 42
-0.002899
  0
VERTEX
  8
0
 10
3850.456730
 20
2853.500000
 42
-0.002738
  0
VERTEX
  8
0
 10
3850.405364
 20
2839.519099
 42
-0.014078
  0
VERTEX
  8
0
 10
3850.116328
 20
2831.774612
 42
-0.022491
  0
VERTEX
  8
0
 10
3849.458406
 20
2825.841101
 42
-0.016259
  0
VERTEX
  8
0
 10
3848.215066
 20
2819.302822
 42
-0.042074
  0
VERTEX
  8
0
 10
3842.287382
 20
2800.443447
 42
-0.064489
  0
VERTEX
  8
0
 10
3833.825468
 20
2785.575973
 42
-0.067881
  0
VERTEX
  8
0
 10
3822.219486
 20
2773.885823
 42
-0.052798
  0
VERTEX
  8
0
 10
3806.911246
 20
2764.543184
 42
-0.056411
  0
VERTEX
  8
0
 10
3788.994598
 20
2758.411087
 42
-0.031872
  0
VERTEX
  8
0
 10
3766.278829
 20
2754.900391
 42
-0.028550
  0
VERTEX
  8
0
 10
3740.198288
 20
2754.051719
 42
-0.022484
  0
VERTEX
  8
0
 10
3712.000000
 20
2756.015073
 42
-0.002641
  0
VERTEX
  8
0
 10
3700.503036
 20
2757.398530
 42
-0.005311
  0
VERTEX
  8
0
 10
3691.449414
 20
2758.634339
 42
-0.005932
  0
VERTEX
  8
0
 10
3684.576618
 20
2759.730388
 42
-0.029125
  0
VERTEX
  8
0
 10
3680.750000
 20
2760.619266
 42
-0.222743
  0
VERTEX
  8
0
 10
3679.798557
 20
2761.461866
 42
-0.071427
  0
VERTEX
  8
0
 10
3679.291324
 20
2763.330548
 42
-0.027421
  0
VERTEX
  8
0
 10
3679.050882
 20
2766.881269
 42
-0.003196
  0
VERTEX
  8
0
 10
3679.000000
 20
2774.840393
 42
0.000000
  0
VERTEX
  8
0
 10
3679.000000
 20
2788.546011
 42
0.000000
  0
VERTEX
  8
0
 10
3694.250000
 20
2786.347568
 42
0.012118
  0
VERTEX
  8
0
 10
3711.562112
 20
2784.278713
 42
0.010839
  0
VERTEX
  8
0
 10
3729.610113
 20
2782.958366
 42
0.011241
  0
VERTEX
  8
0
 10
3746.350654
 20
2782.474938
 42
0.023077
  0
VERTEX
  8
0
 10
3759.456576
 20
2782.996261
 42
0.023380
  0
VERTEX
  8
0
 10
3774.815823
 20
2785.045763
 42
0.044757
  0
VERTEX
  8
0
 10
3786.798130
 20
2788.347251
 42
0.054696
  0
VERTEX
  8
0
 10
3796.278559
 20
2793.134340
 42
0.063448
  0
VERTEX
  8
0
 10
3803.981116
 20
2799.669716
 42
0.053050
  0
VERTEX
  8
0
 10
3810.010105
 20
2807.861533
 42
0.056426
  0
VERTEX
  8
0
 10
3814.033405
 20
2816.975059
 42
0.045610
  0
VERTEX
  8
0
 10
3816.471779
 20
2828.312644
 42
0.020533
  0
VERTEX
  8
0
 10
3817.683641
 20
2843.500000
 42
0.028090
  0
VERTEX
  8
0
 10
3817.295442
 20
2865.555221
 42
0.060808
  0
VERTEX
  8
0
 10
3814.010629
 20
2882.166167
 42
0.080488
  0
VERTEX
  8
0
 10
3807.691182
 20
2894.384297
 42
0.097558
  0
VERTEX
  8
0
 10
3798.166730
 20
2903.052010
 42
0.043353
  0
VERTEX
  8
0
 10
3791.043721
 20
2906.556174
 42
0.043187
  0
VERTEX
  8
0
 10
3783.414074
 20
2908.784970
 42
0.031845
  0
VERTEX
  8
0
 10
3773.700377
 20
2910.096692
 42
0.011260
  0
VERTEX
  8
0
 10
3759.670759
 20
2910.771188
 42
0.011110
  0
VERTEX
  8
0
 10
3745.701096
 20
2910.817318
 42
0.013033
  0
VERTEX
  8
0
 10
3732.469730
 20
2910.221749
 42
0.011817
  0
VERTEX
  8
0
 10
3718.261847
 20
2908.872530
 42
0.006815
  0
VERTEX
  8
0
 10
3701.229925
 20
2906.612191
 42
-0.003301
  0
VERTEX
  8
0
 10
3695.341487
 20
2905.788577
 42
-0.005289
  0
VERTEX
  8
0
 10
3690.304456
 20
2905.172082
 42
-0.001393
  0
VERTEX
  8
0
 10
3685.926388
 20
2904.695537
 42
-0.226517
  0
VERTEX
  8
0
 10
3685.479925
 20
2904.853408
 42
-0.197339
  0
VERTEX
  8
0
 10
3685.282612
 20
2905.325714
 42
-0.000048
  0
VERTEX
  8
0
 10
3685.140978
 20
2929.084022
 42
-0.000914
  0
VERTEX
  8
0
 10
3685.034513
 20
2955.446598
 42
-0.000553
  0
VERTEX
  8
0
 10
3685.000000
 20
2986.666667
 42
0.000000
  0
VERTEX
  8
0
 10
3685.000000
 20
3068.000000
 42
0.000000
  0
VERTEX
  8
0
 10
3764.000000
 20
3068.000000
 42
0.000000
  0
VERTEX
  8
0
 10
3843.000000
 20
3068.000000
 42
0.000000
  0
SEQEND
  0
POLYLINE
  8
0
 66
1
 70
1
  0
VERTEX
  8
0
 10
1886.868940
 20
2994.965509
 42
-0.028714
  0
VERTEX
  8
0
 10
1902.743078
 20
2992.409076
 42
-0.044084
  0
VERTEX
  8
0
 10
1916.015576
 20
2988.227743
 42
-0.049468
  0
VERTEX
  8
0
 10
1927.171554
 20
2982.246290
 42
-0.052694
  0
VERTEX
  8
0
 10
1936.679077
 20
2974.298088
 42
-0.077625
  0
VERTEX
  8
0
 10
1949.057877
 20
2956.746498
 42
-0.053764
  0
VERTEX
  8
0
 10
1957.444705
 20
2933.905222
 42
-0.043758
  0
VERTEX
  8
0
 10
1961.982615
 20
2905.241241
 42
-0.024642
  0
VERTEX
  8
0
 10
1962.697309
 20
2870.000000
 42
-0.014703
  0
VERTEX
  8
0
 10
1961.346008
 20
2846.888127
 42
-0.026513
  0
VERTEX
  8
0
 10
1958.683623
 20
2828.106856
 42
-0.031091
  0
VERTEX
  8
0
 10
1954.459433
 20
2811.967853
 42
-0.034194
  0
VERTEX
  8
0
 10
1948.367634
 20
2797.000000
 42
-0.010124
  0
VERTEX
  8
0
 10
1944.937506
 20
2790.332239
 42
-0.030559
  0
VERTEX
  8
0
 10
1942.239287
 20
2785.994621
 42
-0.031541
  0
VERTEX
  8
0
 10
1939.079274
 20
2782.091998
 42
-0.011355
  0
VERTEX
  8
0
 10
1934.121554
 20
2776.942301
 42
-0.028064
  0
VERTEX
  8
0
 10
1926.657231
 20
2770.321699
 42
-0.035736
  0
VERTEX
  8
0
 10
1919.052942
 20
2765.141500
 42
-0.035197
  0
VERTEX
  8
0
 10
1910.692985
 20
2761.039031
 42
-0.025973
  0
VERTEX
  8
0
 10
1900.950655
 20
2757.659507
 42
-0.042277
  0
VERTEX
  8
0
 10
1882.843657
 20
2754.036836
 42
-0.032104
  0
VERTEX
  8
0
 10
1862.613780
 20
2753.049396
 42
-0.032399
  0
VERTEX
  8
0
 10
1842.690795
 20
2754.650441
 42
-0.046776
  0
VERTEX
  8
0
 10
1825.528164
 20
2758.822207
 42
-0.052091
  0
VERTEX
  8
0
 10
1808.885928
 20
2766.576291
 42
-0.073066
  0
VERTEX
  8
0
 10
1796.218961
 20
2776.945494
 42
-0.069161
  0
VERTEX
  8
0
 10
1786.599139
 20
2790.981405
 42
-0.041422
  0
VERTEX
  8
0
 10
1779.087456
 20
2809.791370
 42
-0.014819
  0
VERTEX
  8
0
 10
1775.414432
 20
2823.192733
 42
-0.031608
  0
VERTEX
  8
0
 10
1773.548765
 20
2833.764567
 42
-0.023095
  0
VERTEX
  8
0
 10
1772.724699
 20
2846.366478
 42
-0.004829
  0
VERTEX
  8
0
 10
1772.515319
 20
2868.500000
 42
-0.001949
  0
VERTEX
  8
0
 10
1772.590325
 20
2886.810912
 42
-0.011323
  0
VERTEX
  8
0
 10
1772.886135
 20
2896.462561
 42
-0.019259
  0
VERTEX
  8
0
 10
1773.548454
 20
2903.657245
 42
-0.014509
  0
VERTEX
  8
0
 10
1774.808706
 20
2911.500000
 42
-0.024166
  0
VERTEX
  8
0
 10
1779.207656
 20
2929.738753
 42
-0.033141
  0
VERTEX
  8
0
 10
1785.014075
 20
2945.584083
 42
-0.036797
  0
VERTEX
  8
0
 10
1792.236615
 20
2959.090214
 42
-0.046473
  0
VERTEX
  8
0
 10
1800.890944
 20
2970.298769
 42
-0.076095
  0
VERTEX
  8
0
 10
1816.731625
 20
2982.810325
 42
-0.059376
  0
VERTEX
  8
0
 10
1836.973459
 20
2991.320847
 42
-0.053598
  0
VERTEX
  8
0
 10
1860.703383
 20
2995.450394
 42
-0.041891
  0
SEQEND
  0
POLYLINE
  8
0
 66
1
 70
1
  0
VERTEX
  8
0
 10
2758.144045
 20
2994.947103
 42
-0.026502
  0
VERTEX
  8
0
 10
2774.189831
 20
2992.451174
 42
-0.046388
  0
VERTEX
  8
0
 10
2787.024931
 20
2988.480614
 42
-0.052226
  0
VERTEX
  8
0
 10
2797.829862
 20
2982.618760
 42
-0.046260
  0
VERTEX
  8
0
 10
2807.673349
 20
2974.429998
 42
-0.012276
  0
VERTEX
  8
0
 10
2812.208514
 20
2969.657465
 42
-0.029186
  0
VERTEX
  8
0
 10
2815.274323
 20
2965.842855
 42
-0.029242
  0
VERTEX
  8
0
 10
2817.871693
 20
2961.701565
 42
-0.012367
  0
VERTEX
  8
0
 10
2820.884961
 20
2955.870592
 42
-0.039297
  0
VERTEX
  8
0
 10
2827.385050
 20
2939.293440
 42
-0.035809
  0
VERTEX
  8
0
 10
2831.457286
 20
2921.381344
 42
-0.028969
  0
VERTEX
  8
0
 10
2833.485554
 20
2899.875867
 42
-0.013695
  0
VERTEX
  8
0
 10
2833.728804
 20
2872.000000
 42
-0.013157
  0
VERTEX
  8
0
 10
2832.597445
 20
2846.861356
 42
-0.028530
  0
VERTEX
  8
0
 10
2830.123686
 20
2827.691108
 42
-0.035034
  0
VERTEX
  8
0
 10
2825.930041
 20
2811.630847
 42
-0.035238
  0
VERTEX
  8
0
 10
2819.541338
 20
2796.345824
 42
-0.057689
  0
VERTEX
  8
0
 10
2808.897442
 20
2780.156332
 42
-0.070144
  0
VERTEX
  8
0
 10
2795.430915
 20
2768.010286
 42
-0.066467
  0
VERTEX
  8
0
 10
2778.519174
 20
2759.608410
 42
-0.045267
  0
VERTEX
  8
0
 10
2757.618108
 20
2754.540507
 42
-0.032316
  0
VERTEX
  8
0
 10
2738.260837
 20
2752.934052
 42
-0.034802
  0
VERTEX
  8
0
 10
2719.337885
 20
2753.907243
 42
-0.036559
  0
VERTEX
  8
0
 10
2701.664360
 20
2757.380400
 42
-0.045905
  0
VERTEX
  8
0
 10
2686.041522
 20
2763.240823
 42
-0.044851
  0
VERTEX
  8
0
 10
2677.613636
 20
2768.295741
 42
-0.036477
  0
VERTEX
  8
0
 10
2669.576282
 20
2775.104400
 42
-0.036811
  0
VERTEX
  8
0
 10
2662.697822
 20
2782.923874
 42
-0.048744
  0
VERTEX
  8
0
 10
2657.741170
 20
2791.000000
 42
-0.034754
  0
VERTEX
  8
0
 10
2651.072501
 20
2807.524594
 42
-0.031630
  0
VERTEX
  8
0
 10
2646.507544
 20
2825.339091
 42
-0.028312
  0
VERTEX
  8
0
 10
2643.867315
 20
2845.377628
 42
-0.018587
  0
VERTEX
  8
0
 10
2643.000836
 20
2868.644045
 42
-0.031281
  0
VERTEX
  8
0
 10
2645.253602
 20
2904.649656
 42
-0.050056
  0
VERTEX
  8
0
 10
2652.122052
 20
2934.651733
 42
-0.059288
  0
VERTEX
  8
0
 10
2663.556844
 20
2958.720616
 42
-0.078651
  0
VERTEX
  8
0
 10
2679.500000
 20
2976.937573
 42
-0.069301
  0
VERTEX
  8
0
 10
2694.495827
 20
2986.266323
 42
-0.048288
  0
VERTEX
  8
0
 10
2713.432228
 20
2992.575727
 42
-0.044166
  0
VERTEX
  8
0
 10
2735.072797
 20
2995.555761
 42
-0.037491
  0
SEQEND
  0
POLYLINE
  8
0
 66
1
 70
1
  0
VERTEX
  8
0
 10
3486.500000
 20
2992.534960
 42
-0.053116
  0
VERTEX
  8
0
 10
3500.305183
 20
2988.155780
 42
-0.057907
  0
VERTEX
  8
0
 10
3512.450251
 20
2981.056252
 42
-0.059169
  0
VERTEX
  8
0
 10
3522.428258
 20
2971.517912
 42
-0.059918
  0
VERTEX
  8
0
 10
3529.845958
 20
2959.946020
 42
-0.036883
  0
VERTEX
  8
0
 10
3534.888494
 20
2947.195635
 42
-0.037976
  0
VERTEX
  8
0
 10
3537.943697
 20
2933.965999
 42
-0.028036
  0
VERTEX
  8
0
 10
3539.526724
 20
2917.349907
 42
-0.009704
  0
VERTEX
  8
0
 10
3539.997183
 20
2893.250000
 42
0.000000
  0
VERTEX
  8
0
 10
3540.000000
 20
2868.000000
 42
0.000000
  0
VERTEX
  8
0
 10
3469.845678
 20
2868.000000
 42
0.000000
  0
VERTEX
  8
0
 10
3399.691355
 20
2868.000000
 42
0.000000
  0
VERTEX
  8
0
 10
3400.315093
 20
2855.693234
 42
0.015770
  0
VERTEX
  8
0
 10
3401.170281
 20
2845.310029
 42
0.014910
  0
VERTEX
  8
0
 10
3402.688685
 20
2834.803989
 42
0.015615
  0
VERTEX
  8
0
 10
3404.672012
 20
2825.244904
 42
0.031044
  0
VERTEX
  8
0
 10
3406.941020
 20
2817.854179
 42
0.031888
  0
VERTEX
  8
0
 10
3409.615242
 20
2811.924791
 42
0.026180
  0
VERTEX
  8
0
 10
3413.186477
 20
2805.964335
 42
0.026601
  0
VERTEX
  8
0
 10
3417.275076
 20
2800.533669
 42
0.037638
  0
VERTEX
  8
0
 10
3421.502756
 20
2796.206490
 42
0.098159
  0
VERTEX
  8
0
 10
3436.599466
 20
2787.440042
 42
0.058005
  0
VERTEX
  8
0
 10
3457.033574
 20
2782.987870
 42
0.045934
  0
VERTEX
  8
0
 10
3482.738117
 20
2782.811957
 42
0.025379
  0
VERTEX
  8
0
 10
3513.879108
 20
2787.064168
 42
-0.002457
  0
VERTEX
  8
0
 10
3520.481040
 20
2788.276037
 42
-0.004002
  0
VERTEX
  8
0
 10
3526.097003
 20
2789.232098
 42
-0.000747
  0
VERTEX
  8
0
 10
3531.037981
 20
2790.025033
 42
-0.257850
  0
VERTEX
  8
0
 10
3531.383339
 20
2789.900110
 42
-0.209715
  0
VERTEX
  8
0
 10
3531.623108
 20
2789.140035
 42
-0.000520
  0
VERTEX
  8
0
 10
3530.363094
 20
2777.616011
 42
-0.001519
  0
VERTEX
  8
0
 10
3529.128156
 20
2766.732407
 42
-0.058763
  0
VERTEX
  8
0
 10
3528.563769
 20
2764.358515
 42
-0.245080
  0
VERTEX
  8
0
 10
3527.395605
 20
2763.293365
 42
-0.002607
  0
VERTEX
  8
0
 10
3516.486007
 20
2760.468081
 42
-0.008336
  0
VERTEX
  8
0
 10
3504.742961
 20
2757.699695
 42
-0.008522
  0
VERTEX
  8
0
 10
3493.000000
 20
2755.346099
 42
-0.032786
  0
VERTEX
  8
0
 10
3480.487706
 20
2753.898089
 42
-0.012187
  0
VERTEX
  8
0
 10
3462.771742
 20
2753.449904
 42
-0.011790
  0
VERTEX
  8
0
 10
3445.314561
 20
2753.845532
 42
-0.041577
  0
VERTEX
  8
0
 10
3434.193451
 20
2755.292041
 42
-0.054320
  0
VERTEX
  8
0
 10
3411.780687
 20
2762.743807
 42
-0.077125
  0
VERTEX
  8
0
 10
3394.281549
 20
2774.295408
 42
-0.078884
  0
VERTEX
  8
0
 10
3381.378120
 20
2790.384777
 42
-0.059790
  0
VERTEX
  8
0
 10
3372.573294
 20
2811.264230
 42
-0.043004
  0
VERTEX
  8
0
 10
3367.261470
 20
2838.346590
 42
-0.027024
  0
VERTEX
  8
0
 10
3365.529292
 20
2870.580045
 42
-0.027034
  0
VERTEX
  8
0
 10
3367.283148
 20
2902.786457
 42
-0.043291
  0
VERTEX
  8
0
 10
3372.614589
 20
2929.781706
 42
-0.022016
  0
VERTEX
  8
0
 10
3377.021326
 20
2942.836784
 42
-0.032945
  0
VERTEX
  8
0
 10
3382.096839
 20
2953.746878
 42
-0.036146
  0
VERTEX
  8
0
 10
3388.143612
 20
2963.107194
 42
-0.036362
  0
VERTEX
  8
0
 10
3395.464412
 20
2971.479225
 42
-0.042801
  0
VERTEX
  8
0
 10
3405.594351
 20
2979.908956
 42
-0.044821
  0
VERTEX
  8
0
 10
3416.862376
 20
2986.344343
 42
-0.042236
  0
VERTEX
  8
0
 10
3429.692340
 20
2990.953751
 42
-0.031136
  0
VERTEX
  8
0
 10
3444.500000
 20
2993.928222
 42
-0.030625
  0
VERTEX
  8
0
 10
3453.262850
 20
2994.584500
 42
-0.011671
  0
VERTEX
  8
0
 10
3465.513124
 20
2994.464211
 42
-0.011683
  0
VERTEX
  8
0
 10
3477.754579
 20
2993.771524
 42
-0.030297
  0
SEQEND
  0
POLYLINE
  8
0
 66
1
 70
1
  0
VERTEX
  8
0
 10
2376.250000
 20
2992.358152
 42
0.000000
  0
VERTEX
  8
0
 10
2380.000000
 20
2991.738315
 42
0.000000
  0
VERTEX
  8
0
 10
2380.000000
 20
2975.801770
 42
-0.002164
  0
VERTEX
  8
0
 10
2379.958077
 20
2966.114114
 42
-0.026161
  0
VERTEX
  8
0
 10
2379.731231
 20
2962.397811
 42
-0.102416
  0
VERTEX
  8
0
 10
2379.203078
 20
2960.790048
 42
-0.352511
  0
VERTEX
  8
0
 10
2378.250000
 20
2960.418784
 42
0.060547
  0
VERTEX
  8
0
 10
2372.968105
 20
2961.409503
 42
0.006550
  0
VERTEX
  8
0
 10
2360.549939
 20
2962.047970
 42
0.008659
  0
VERTEX
  8
0
 10
2347.831206
 20
2962.314484
 42
0.022795
  0
VERTEX
  8
0
 10
2338.723138
 20
2961.932194
 42
0.028115
  0
VERTEX
  8
0
 10
2329.541912
 20
2960.603268
 42
0.018726
  0
VERTEX
  8
0
 10
2319.206086
 20
2958.102292
 42
0.018830
  0
VERTEX
  8
0
 10
2309.518072
 20
2954.972105
 42
0.042051
  0
VERTEX
  8
0
 10
2302.500000
 20
2951.717552
 42
0.000000
  0
VERTEX
  8
0
 10
2298.500000
 20
2949.436470
 42
0.000000
  0
VERTEX
  8
0
 10
2298.244976
 20
2853.718235
 42
0.000000
  0
VERTEX
  8
0
 10
2297.989953
 20
2758.000000
 42
0.000000
  0
VERTEX
  8
0
 10
2281.494976
 20
2758.000000
 42
0.000000
  0
VERTEX
  8
0
 10
2265.000000
 20
2758.000000
 42
0.000000
  0
VERTEX
  8
0
 10
2265.000000
 20
2874.000000
 42
0.000000
  0
VERTEX
  8
0
 10
2265.000000
 20
2990.000000
 42
0.000000
  0
VERTEX
  8
0
 10
2276.957655
 20
2990.000000
 42
0.000000
  0
VERTEX
  8
0
 10
2288.915310
 20
2990.000000
 42
0.000000
  0
VERTEX
  8
0
 10
2290.896618
 20
2983.250000
 42
-0.002273
  0
VERTEX
  8
0
 10
2291.783463
 20
2980.177037
 42
-0.001342
  0
VERTEX
  8
0
 10
2292.815902
 20
2976.500000
 42
-0.001342
  0
VERTEX
  8
0
 10
2293.827160
 20
2972.822651
 42
-0.002302
  0
VERTEX
  8
0
 10
2294.648088
 20
2969.750000
 42
0.015227
  0
VERTEX
  8
0
 10
2295.411346
 20
2967.163245
 42
0.023428
  0
VERTEX
  8
0
 10
2296.242594
 20
2964.982812
 42
0.019917
  0
VERTEX
  8
0
 10
2297.043999
 20
2963.327576
 42
0.276777
  0
VERTEX
  8
0
 10
2297.590435
 20
2963.000000
 42
0.166940
  0
VERTEX
  8
0
 10
2298.206029
 20
2963.211426
 42
0.023238
  0
VERTEX
  8
0
 10
2299.245578
 20
2964.101562
 42
0.024483
  0
VERTEX
  8
0
 10
2300.414731
 20
2965.313944
 42
0.018538
  0
VERTEX
  8
0
 10
2301.578913
 20
2966.750000
 42
-0.020953
  0
VERTEX
  8
0
 10
2309.155444
 20
2976.004214
 42
-0.050745
  0
VERTEX
  8
0
 10
2315.663442
 20
2981.963892
 42
-0.057137
  0
VERTEX
  8
0
 10
2322.746681
 20
2986.075113
 42
-0.033319
  0
VERTEX
  8
0
 10
2332.000000
 20
2989.401887
 42
-0.037583
  0
VERTEX
  8
0
 10
2341.384859
 20
2991.337420
 42
-0.015388
  0
VERTEX
  8
0
 10
2354.342762
 20
2992.604611
 42
-0.015228
  0
VERTEX
  8
0
 10
2367.231621
 20
2993.072115
 42
-0.042428
  0
SEQEND
  0
POLYLINE
  8
0
 66
1
 70
1
  0
VERTEX
  8
0
 10
2529.000000
 20
2990.977216
 42
-0.009719
  0
VERTEX
  8
0
 10
2532.437271
 20
2990.338797
 42
-0.002665
  0
VERTEX
  8
0
 10
2537.827202
 20
2989.198934
 42
-0.002693
  0
VERTEX
  8
0
 10
2543.923980
 20
2987.841177
 42
-0.002806
  0
VERTEX
  8
0
 10
2549.922389
 20
2986.435911
 42
0.000000
  0
VERTEX
  8
0
 10
2564.344778
 20
2982.971632
 42
0.000000
  0
VERTEX
  8
0
 10
2570.244060
 20
2986.485816
 42
-0.016406
  0
VERTEX
  8
0
 10
2572.680710
 20
2987.831047
 42
-0.018080
  0
VERTEX
  8
0
 10
2575.123749
 20
2988.967708
 42
-0.017763
  0
VERTEX
  8
0
 10
2577.267775
 20
2989.784037
 42
-0.082254
  0
VERTEX
  8
0
 10
2578.571671
 20
2990.000000
 42
0.000000
  0
VERTEX
  8
0
 10
2581.000000
 20
2990.000000
 42
0.000000
  0
VERTEX
  8
0
 10
2581.000000
 20
2862.551216
 42
-0.000579
  0
VERTEX
  8
0
 10
2580.894145
 20
2771.091287
 42
-0.008113
  0
VERTEX
  8
0
 10
2580.284446
 20
2738.210871
 42
-0.023261
  0
VERTEX
  8
0
 10
2578.737034
 20
2719.215056
 42
-0.038586
  0
VERTEX
  8
0
 10
2575.467535
 20
2703.484725
 42
-0.032710
  0
VERTEX
  8
0
 10
2571.060424
 20
2691.315510
 42
-0.034314
  0
VERTEX
  8
0
 10
2565.162278
 20
2680.026473
 42
-0.036513
  0
VERTEX
  8
0
 10
2558.240720
 20
2670.393527
 42
-0.054462
  0
VERTEX
  8
0
 10
2550.770901
 20
2663.208999
 42
-0.060304
  0
VERTEX
  8
0
 10
2537.904041
 20
2655.554615
 42
-0.039100
  0
VERTEX
  8
0
 10
2521.549966
 20
2649.805752
 42
-0.035545
  0
VERTEX
  8
0
 10
2502.694691
 20
2646.202732
 42
-0.029468
  0
VERTEX
  8
0
 10
2482.289414
 20
2645.000836
 42
-0.015991
  0
VERTEX
  8
0
 10
2468.952479
 20
2645.428632
 42
-0.013956
  0
VERTEX
  8
0
 10
2455.047298
 20
2646.710894
 42
-0.012711
  0
VERTEX
  8
0
 10
2440.011590
 20
2648.910870
 42
-0.008991
  0
VERTEX
  8
0
 10
2423.250000
 20
2652.111661
 42
0.000000
  0
VERTEX
  8
0
 10
2413.000000
 20
2654.260707
 42
0.000000
  0
VERTEX
  8
0
 10
2413.000000
 20
2667.501248
 42
0.000000
  0
VERTEX
  8
0
 10
2413.000000
 20
2680.741789
 42
0.000000
  0
VERTEX
  8
0
 10
2417.750000
 20
2679.845610
 42
0.012424
  0
VERTEX
  8
0
 10
2432.277662
 20
2677.476840
 42
0.012663
  0
VERTEX
  8
0
 10
2446.813131
 20
2675.850014
 42
0.011990
  0
VERTEX
  8
0
 10
2462.124620
 20
2674.897116
 42
0.009011
  0
VERTEX
  8
0
 10
2479.000000
 20
2674.556948
 42
0.006475
  0
VERTEX
  8
0
 10
2496.267683
 20
2674.743727
 42
0.027650
  0
VERTEX
  8
0
 10
2506.539593
 20
2675.557442
 42
0.041737
  0
VERTEX
  8
0
 10
2514.436585
 20
2677.304837
 42
0.031995
  0
VERTEX
  8
0
 10
2522.696498
 20
2680.462634
 42
0.075911
  0
VERTEX
  8
0
 10
2530.325579
 20
2685.468145
 42
0.063170
  0
VERTEX
  8
0
 10
2536.673656
 20
2692.817401
 42
0.055258
  0
VERTEX
  8
0
 10
2541.651533
 20
2702.476439
 42
0.037440
  0
VERTEX
  8
0
 10
2545.202364
 20
2714.348993
 42
0.022159
  0
VERTEX
  8
0
 10
2546.264118
 20
2720.480730
 42
0.016213
  0
VERTEX
  8
0
 10
2546.917616
 20
2727.359145
 42
0.009735
  0
VERTEX
  8
0
 10
2547.332610
 20
2737.042749
 42
0.002203
  0
VERTEX
  8
0
 10
2547.644586
 20
2753.500000
 42
0.000000
  0
VERTEX
  8
0
 10
2548.081099
 20
2783.500000
 42
0.000000
  0
VERTEX
  8
0
 10
2542.816887
 20
2777.500000
 42
-0.006311
  0
VERTEX
  8
0
 10
2535.071856
 20
2768.894022
 42
-0.034960
  0
VERTEX
  8
0
 10
2530.542146
 20
2764.627479
 42
-0.057764
  0
VERTEX
  8
0
 10
2526.549248
 20
2762.067043
 42
-0.038944
  0
VERTEX
  8
0
 10
2521.510732
 20
2760.072401
 42
-0.020638
  0
VERTEX
  8
0
 10
2511.741269
 20
2757.496220
 42
-0.025275
  0
VERTEX
  8
0
 10
2502.429744
 20
2755.935981
 42
-0.022946
  0
VERTEX
  8
0
 10
2492.307912
 20
2755.230428
 42
-0.012950
  0
VERTEX
  8
0
 10
2480.000000
 20
2755.257390
 42
-0.005057
  0
VERTEX
  8
0
 10
2470.683548
 20
2755.613490
 42
-0.018811
  0
VERTEX
  8
0
 10
2464.834260
 20
2756.117393
 42
-0.025550
  0
VERTEX
  8
0
 10
2460.003944
 20
2756.969652
 42
-0.016633
  0
VERTEX
  8
0
 10
2454.526886
 20
2758.420775
 42
-0.021130
  0
VERTEX
  8
0
 10
2445.877812
 20
2761.426976
 42
-0.034363
  0
VERTEX
  8
0
 10
2438.863856
 20
2764.775963
 42
-0.037194
  0
VERTEX
  8
0
 10
2432.778091
 20
2768.837677
 42
-0.031124
  0
VERTEX
  8
0
 10
2426.965196
 20
2773.988677
 42
-0.056394
  0
VERTEX
  8
0
 10
2419.720012
 20
2783.118724
 42
-0.039346
  0
VERTEX
  8
0
 10
2413.648674
 20
2794.795562
 42
-0.034784
  0
VERTEX
  8
0
 10
2408.826842
 20
2808.814004
 42
-0.025031
  0
VERTEX
  8
0
 10
2405.348220
 20
2825.000000
 42
-0.028121
  0
VERTEX
  8
0
 10
2403.869781
 20
2838.972625
 42
-0.008996
  0
VERTEX
  8
0
 10
2403.217990
 20
2859.856352
 42
-0.009206
  0
VERTEX
  8
0
 10
2403.328282
 20
2881.058578
 42
-0.022854
  0
VERTEX
  8
0
 10
2404.403140
 20
2896.541019
 42
-0.024436
  0
VERTEX
  8
0
 10
2407.892570
 20
2917.643379
 42
-0.033955
  0
VERTEX
  8
0
 10
2413.197048
 20
2936.047290
 42
-0.037977
  0
VERTEX
  8
0
 10
2420.304322
 20
2951.775354
 42
-0.049325
  0
VERTEX
  8
0
 10
2429.215130
 20
2964.830825
 42
-0.057561
  0
VERTEX
  8
0
 10
2439.560357
 20
2974.630493
 42
-0.046144
  0
VERTEX
  8
0
 10
2452.639229
 20
2982.669122
 42
-0.043663
  0
VERTEX
  8
0
 10
2467.745590
 20
2988.556347
 42
-0.039805
  0
VERTEX
  8
0
 10
2484.120184
 20
2991.957095
 42
-0.029021
  0
VERTEX
  8
0
 10
2492.728873
 20
2992.536302
 42
-0.007746
  0
VERTEX
  8
0
 10
2506.471639
 20
2992.449204
 42
-0.007813
  0
VERTEX
  8
0
 10
2520.232238
 20
2991.933542
 42
-0.027788
  0
SEQEND
  0
POLYLINE
  8
0
 66
1
 70
1
  0
VERTEX
  8
0
 10
3012.500000
 20
2990.597292
 42
-0.007550
  0
VERTEX
  8
0
 10
3016.437822
 20
2989.828362
 42
-0.002968
  0
VERTEX
  8
0
 10
3021.840812
 20
2988.654844
 42
-0.002936
  0
VERTEX
  8
0
 10
3027.667990
 20
2987.316953
 42
-0.003661
  0
VERTEX
  8
0
 10
3033.064467
 20
2986.002758
 42
0.000000
  0
VERTEX
  8
0
 10
3045.628934
 20
2982.845325
 42
0.000000
  0
VERTEX
  8
0
 10
3051.732731
 20
2986.422662
 42
-0.016952
  0
VERTEX
  8
0
 10
3054.262010
 20
2987.792034
 42
-0.018329
  0
VERTEX
  8
0
 10
3056.814179
 20
2988.949157
 42
-0.018153
  0
VERTEX
  8
0
 10
3059.063785
 20
2989.777251
 42
-0.079268
  0
VERTEX
  8
0
 10
3060.459988
 20
2990.000000
 42
0.000000
  0
VERTEX
  8
0
 10
3063.083447
 20
2990.000000
 42
0.000000
  0
VERTEX
  8
0
 10
3062.747128
 20
2859.250000
 42
-0.000296
  0
VERTEX
  8
0
 10
3062.500386
 20
2781.294194
 42
-0.002768
  0
VERTEX
  8
0
 10
3062.188027
 20
2747.689597
 42
-0.005321
  0
VERTEX
  8
0
 10
3061.697362
 20
2728.431365
 42
-0.036376
  0
VERTEX
  8
0
 10
3060.666836
 20
2719.000000
 42
-0.026988
  0
VERTEX
  8
0
 10
3056.555157
 20
2701.865904
 42
-0.040286
  0
VERTEX
  8
0
 10
3050.986838
 20
2687.509818
 42
-0.045201
  0
VERTEX
  8
0
 10
3043.797860
 20
2675.540571
 42
-0.051054
  0
VERTEX
  8
0
 10
3034.827935
 20
2665.582409
 42
-0.099840
  0
VERTEX
  8
0
 10
3013.558377
 20
2652.933168
 42
-0.056709
  0
VERTEX
  8
0
 10
2984.250561
 20
2646.249860
 42
-0.047363
  0
VERTEX
  8
0
 10
2948.519534
 20
2645.669050
 42
-0.031394
  0
VERTEX
  8
0
 10
2907.878576
 20
2651.444658
 42
-0.003007
  0
VERTEX
  8
0
 10
2903.238238
 20
2652.433459
 42
-0.004407
  0
VERTEX
  8
0
 10
2899.169339
 20
2653.363773
 42
-0.002173
  0
VERTEX
  8
0
 10
2895.729201
 20
2654.198115
 42
-0.077980
  0
VERTEX
  8
0
 10
2894.976543
 20
2654.514497
 42
-0.252899
  0
VERTEX
  8
0
 10
2894.269178
 20
2655.744762
 42
-0.002093
  0
VERTEX
  8
0
 10
2894.014278
 20
2667.216452
 42
-0.002422
  0
VERTEX
  8
0
 10
2893.864237
 20
2678.593729
 42
-0.201081
  0
VERTEX
  8
0
 10
2894.513706
 20
2680.180373
 42
-0.224101
  0
VERTEX
  8
0
 10
2894.973122
 20
2680.345205
 42
-0.003358
  0
VERTEX
  8
0
 10
2897.883422
 20
2680.043932
 42
-0.008342
  0
VERTEX
  8
0
 10
2901.303029
 20
2679.608855
 42
-0.005325
  0
VERTEX
  8
0
 10
2905.263706
 20
2678.994521
 42
0.008940
  0
VERTEX
  8
0
 10
2919.893582
 20
2676.833509
 42
0.012607
  0
VERTEX
  8
0
 10
2933.003714
 20
2675.470954
 42
0.012139
  0
VERTEX
  8
0
 10
2946.537143
 20
2674.738475
 42
0.007460
  0
VERTEX
  8
0
 10
2962.500000
 20
2674.501005
 42
0.006840
  0
VERTEX
  8
0
 10
2978.919562
 20
2674.726346
 42
0.030997
  0
VERTEX
  8
0
 10
2988.451366
 20
2675.580540
 42
0.045199
  0
VERTEX
  8
0
 10
2995.992728
 20
2677.439522
 42
0.027497
  0
VERTEX
  8
0
 10
3004.500000
 20
2680.906715
 42
0.072821
  0
VERTEX
  8
0
 10
3013.026211
 20
2686.583066
 42
0.074755
  0
VERTEX
  8
0
 10
3019.479135
 20
2694.420596
 42
0.061480
  0
VERTEX
  8
0
 10
3024.216355
 20
2705.121181
 42
0.031045
  0
VERTEX
  8
0
 10
3027.611826
 20
2719.500000
 42
0.031350
  0
VERTEX
  8
0
 10
3028.871402
 20
2731.210827
 42
0.004441
  0
VERTEX
  8
0
 10
3029.733639
 20
2755.432554
 42
0.000938
  0
VERTEX
  8
0
 10
3030.396172
 20
2782.115177
 42
0.535053
  0
VERTEX
  8
0
 10
3029.304526
 20
2782.880027
 42
0.106630
  0
VERTEX
  8
0
 10
3028.706428
 20
2782.484836
 42
0.004083
  0
VERTEX
  8
0
 10
3026.849373
 20
2780.555383
 42
0.007154
  0
VERTEX
  8
0
 10
3024.690995
 20
2778.209555
 42
0.004965
  0
VERTEX
  8
0
 10
3022.316606
 20
2775.500000
 42
-0.001841
  0
VERTEX
  8
0
 10
3019.797628
 20
2772.588946
 42
-0.001722
  0
VERTEX
  8
0
 10
3017.200770
 20
2769.630750
 42
-0.001713
  0
VERTEX
  8
0
 10
3014.877301
 20
2767.020376
 42
-0.005891
  0
VERTEX
  8
0
 10
3013.343771
 20
2765.349362
 42
-0.145007
  0
VERTEX
  8
0
 10
3003.459114
 20
2759.577857
 42
-0.030924
  0
VERTEX
  8
0
 10
2983.661671
 20
2756.002877
 42
-0.032670
  0
VERTEX
  8
0
 10
2961.494860
 20
2754.860066
 42
-0.047201
  0
VERTEX
  8
0
 10
2942.000000
 20
2756.976480
 42
-0.059264
  0
VERTEX
  8
0
 10
2924.223654
 20
2762.884360
 42
-0.079853
  0
VERTEX
  8
0
 10
2910.239862
 20
2772.422845
 42
-0.076834
  0
VERTEX
  8
0
 10
2899.577564
 20
2786.176857
 42
-0.050471
  0
VERTEX
  8
0
 10
2891.663401
 20
2804.626444
 42
-0.049260
  0
VERTEX
  8
0
 10
2886.100271
 20
2831.258968
 42
-0.026848
  0
VERTEX
  8
0
 10
2884.302716
 20
2864.639264
 42
-0.026711
  0
VERTEX
  8
0
 10
2886.112400
 20
2898.563009
 42
-0.042825
  0
VERTEX
  8
0
 10
2891.649335
 20
2927.000000
 42
-0.028646
  0
VERTEX
  8
0
 10
2894.825714
 20
2936.119139
 42
-0.016709
  0
VERTEX
  8
0
 10
2899.610651
 20
2946.667213
 42
-0.016658
  0
VERTEX
  8
0
 10
2904.924382
 20
2956.567398
 42
-0.038705
  0
VERTEX
  8
0
 10
2909.700722
 20
2963.500000
 42
-0.057362
  0
VERTEX
  8
0
 10
2920.306657
 20
2973.898904
 42
-0.048300
  0
VERTEX
  8
0
 10
2933.604536
 20
2982.318061
 42
-0.045659
  0
VERTEX
  8
0
 10
2949.041864
 20
2988.423793
 42
-0.040235
  0
VERTEX
  8
0
 10
2966.000000
 20
2991.948927
 42
-0.029184
  0
VERTEX
  8
0
 10
2975.274544
 20
2992.563581
 42
-0.009222
  0
VERTEX
  8
0
 10
2989.159845
 20
2992.416160
 42
-0.009281
  0
VERTEX
  8
0
 10
3003.068606
 20
2991.753307
 42
-0.027897
  0
SEQEND
  0
POLYLINE
  8
0
 66
1
 70
1
  0
VERTEX
  8
0
 10
3263.906932
 20
2990.493837
 42
-0.067990
  0
VERTEX
  8
0
 10
3276.744883
 20
2985.481552
 42
-0.071792
  0
VERTEX
  8
0
 10
3287.504875
 20
2977.279061
 42
-0.070312
  0
VERTEX
  8
0
 10
3295.677087
 20
2966.204509
 42
-0.061313
  0
VERTEX
  8
0
 10
3300.928689
 20
2952.778822
 42
-0.037096
  0
VERTEX
  8
0
 10
3303.158766
 20
2940.255895
 42
-0.016433
  0
VERTEX
  8
0
 10
3304.320755
 20
2923.493988
 42
-0.007956
  0
VERTEX
  8
0
 10
3304.874160
 20
2896.421453
 42
-0.001132
  0
VERTEX
  8
0
 10
3305.000000
 20
2840.826322
 42
0.000000
  0
VERTEX
  8
0
 10
3305.000000
 20
2758.000000
 42
0.000000
  0
VERTEX
  8
0
 10
3288.570330
 20
2758.000000
 42
0.000000
  0
VERTEX
  8
0
 10
3272.140660
 20
2758.000000
 42
0.000000
  0
VERTEX
  8
0
 10
3271.731484
 20
2842.250000
 42
0.000814
  0
VERTEX
  8
0
 10
3271.341408
 20
2902.399051
 42
0.012183
  0
VERTEX
  8
0
 10
3270.659662
 20
2923.382653
 42
0.036554
  0
VERTEX
  8
0
 10
3269.110474
 20
2935.239810
 42
0.062041
  0
VERTEX
  8
0
 10
3265.901488
 20
2944.703499
 42
0.076556
  0
VERTEX
  8
0
 10
3259.609890
 20
2953.828161
 42
0.103573
  0
VERTEX
  8
0
 10
3251.409507
 20
2959.534170
 42
0.076129
  0
VERTEX
  8
0
 10
3239.681983
 20
2962.522957
 42
0.025628
  0
VERTEX
  8
0
 10
3222.000000
 20
2963.342742
 42
0.014179
  0
VERTEX
  8
0
 10
3209.529991
 20
2962.927692
 42
0.021806
  0
VERTEX
  8
0
 10
3198.792554
 20
2961.793571
 42
0.022005
  0
VERTEX
  8
0
 10
3188.266076
 20
2959.738094
 42
0.014804
  0
VERTEX
  8
0
 10
3176.447044
 20
2956.512217
 42
0.000000
  0
VERTEX
  8
0
 10
3168.000000
 20
2953.935711
 42
0.000000
  0
VERTEX
  8
0
 10
3168.000000
 20
2855.967855
 42
0.000000
  0
VERTEX
  8
0
 10
3168.000000
 20
2758.000000
 42
0.000000
  0
VERTEX
  8
0
 10
3151.500000
 20
2758.000000
 42
0.000000
  0
VERTEX
  8
0
 10
3135.000000
 20
2758.000000
 42
0.000000
  0
VERTEX
  8
0
 10
3135.000000
 20
2874.000000
 42
0.000000
  0
VERTEX
  8
0
 10
3135.000000
 20
2990.000000
 42
0.000000
  0
VERTEX
  8
0
 10
3147.457057
 20
2990.000000
 42
0.000000
  0
VERTEX
  8
0
 10
3159.914115
 20
2990.000000
 42
0.000000
  0
VERTEX
  8
0
 10
3163.017535
 20
2979.750000
 42
0.000115
  0
VERTEX
  8
0
 10
3164.260899
 20
2975.646796
 42
0.000138
  0
VERTEX
  8
0
 10
3165.430231
 20
2971.794922
 42
0.000117
  0
VERTEX
  8
0
 10
3166.416477
 20
2968.552117
 42
0.000944
  0
VERTEX
  8
0
 10
3166.872977
 20
2967.062500
 42
0.032134
  0
VERTEX
  8
0
 10
3167.237578
 20
2966.104050
 42
0.036156
  0
VERTEX
  8
0
 10
3167.710200
 20
2965.238980
 42
0.038974
  0
VERTEX
  8
0
 10
3168.214991
 20
2964.575260
 42
0.130971
  0
VERTEX
  8
0
 10
3168.667065
 20
2964.277645
 42
0.271912
  0
VERTEX
  8
0
 10
3169.318619
 20
2964.415999
 42
0.008090
  0
VERTEX
  8
0
 10
3171.428558
 20
2966.407000
 42
0.014032
  0
VERTEX
  8
0
 10
3173.886329
 20
2968.940894
 42
0.008968
  0
VERTEX
  8
0
 10
3176.604565
 20
2972.014287
 42
-0.011834
  0
VERTEX
  8
0
 10
3180.371312
 20
2976.224309
 42
-0.029286
  0
VERTEX
  8
0
 10
3183.375189
 20
2979.071869
 42
-0.035634
  0
VERTEX
  8
0
 10
3186.309827
 20
2981.206607
 42
-0.027482
  0
VERTEX
  8
0
 10
3189.779154
 20
2983.114138
 42
-0.031891
  0
VERTEX
  8
0
 10
3196.265054
 20
2985.734820
 42
-0.014905
  0
VERTEX
  8
0
 10
3204.950236
 20
2988.330666
 42
-0.014680
  0
VERTEX
  8
0
 10
3214.271670
 20
2990.525645
 42
-0.019635
  0
VERTEX
  8
0
 10
3222.845198
 20
2991.932459
 42
-0.027891
  0
VERTEX
  8
0
 10
3231.958992
 20
2992.549535
 42
-0.011715
  0
VERTEX
  8
0
 10
3244.252710
 20
2992.407016
 42
-0.011252
  0
VERTEX
  8
0
 10
3256.246055
 20
2991.716336
 42
-0.039127
  0
SEQEND
  0
POLYLINE
  8
0
 66
1
 70
1
  0
VERTEX
  8
0
 10
2056.271322
 20
2906.250000
 42
0.000512
  0
VERTEX
  8
0
 10
2056.560561
 20
2857.652720
 42
0.004073
  0
VERTEX
  8
0
 10
2056.900166
 20
2835.196476
 42
0.007722
  0
VERTEX
  8
0
 10
2057.410218
 20
2822.027121
 42
0.042557
  0
VERTEX
  8
0
 10
2058.394881
 20
2815.000000
 42
0.040958
  0
VERTEX
  8
0
 10
2061.602652
 20
2804.851664
 42
0.065247
  0
VERTEX
  8
0
 10
2066.105579
 20
2796.956622
 42
0.073015
  0
VERTEX
  8
0
 10
2072.060348
 20
2791.108249
 42
0.068253
  0
VERTEX
  8
0
 10
2079.577537
 20
2787.056874
 42
0.067327
  0
VERTEX
  8
0
 10
2093.855326
 20
2783.810469
 42
0.035500
  0
VERTEX
  8
0
 10
2112.066364
 20
2783.479853
 42
0.033267
  0
VERTEX
  8
0
 10
2131.901309
 20
2785.858001
 42
0.033338
  0
VERTEX
  8
0
 10
2151.231221
 20
2790.844984
 42
0.000000
  0
VERTEX
  8
0
 10
2159.500000
 20
2793.577258
 42
0.000000
  0
VERTEX
  8
0
 10
2159.754900
 20
2891.788629
 42
0.000000
  0
VERTEX
  8
0
 10
2160.009801
 20
2990.000000
 42
0.000000
  0
VERTEX
  8
0
 10
2176.504900
 20
2990.000000
 42
0.000000
  0
VERTEX
  8
0
 10
2193.000000
 20
2990.000000
 42
0.000000
  0
VERTEX
  8
0
 10
2193.000000
 20
2874.000000
 42
0.000000
  0
VERTEX
  8
0
 10
2193.000000
 20
2758.000000
 42
0.000000
  0
VERTEX
  8
0
 10
2180.635185
 20
2758.000000
 42
0.000000
  0
VERTEX
  8
0
 10
2168.270370
 20
2758.000000
 42
0.000000
  0
VERTEX
  8
0
 10
2164.423771
 20
2771.000000
 42
0.007537
  0
VERTEX
  8
0
 10
2162.867129
 20
2775.983476
 42
0.012077
  0
VERTEX
  8
0
 10
2161.372843
 20
2780.181250
 42
0.005915
  0
VERTEX
  8
0
 10
2160.007940
 20
2783.618812
 42
0.304140
  0
VERTEX
  8
0
 10
2159.439241
 20
2784.000000
 42
0.199788
  0
VERTEX
  8
0
 10
2158.742048
 20
2783.709837
 42
0.005087
  0
VERTEX
  8
0
 10
2156.314759
 20
2781.215903
 42
0.010082
  0
VERTEX
  8
0
 10
2153.510861
 20
2778.154478
 42
0.006616
  0
VERTEX
  8
0
 10
2150.400655
 20
2774.522222
 42
-0.019179
  0
VERTEX
  8
0
 10
2144.450368
 20
2767.916553
 42
-0.063851
  0
VERTEX
  8
0
 10
2139.887212
 20
2764.288995
 42
-0.059181
  0
VERTEX
  8
0
 10
2134.375720
 20
2761.788540
 42
-0.014880
  0
VERTEX
  8
0
 10
2124.876004
 20
2759.078153
 42
-0.016349
  0
VERTEX
  8
0
 10
2115.178595
 20
2756.955649
 42
-0.021555
  0
VERTEX
  8
0
 10
2106.216892
 20
2755.695697
 42
-0.020065
  0
VERTEX
  8
0
 10
2096.692245
 20
2755.157467
 42
-0.011623
  0
VERTEX
  8
0
 10
2085.224162
 20
2755.236841
 42
-0.005259
  0
VERTEX
  8
0
 10
2076.420818
 20
2755.595201
 42
-0.019517
  0
VERTEX
  8
0
 10
2070.890325
 20
2756.095591
 42
-0.027140
  0
VERTEX
  8
0
 10
2066.409146
 20
2756.927380
 42
-0.019375
  0
VERTEX
  8
0
 10
2061.500000
 20
2758.320668
 42
-0.058534
  0
VERTEX
  8
0
 10
2049.047056
 20
2764.065393
 42
-0.073459
  0
VERTEX
  8
0
 10
2039.300650
 20
2772.205153
 42
-0.069978
  0
VERTEX
  8
0
 10
2031.992247
 20
2783.153532
 42
-0.047295
  0
VERTEX
  8
0
 10
2026.775930
 20
2797.252763
 42
-0.044084
  0
VERTEX
  8
0
 10
2025.444874
 20
2804.927551
 42
-0.014628
  0
VERTEX
  8
0
 10
2024.823733
 20
2816.343103
 42
-0.005048
  0
VERTEX
  8
0
 10
2024.509531
 20
2837.276947
 42
-0.000331
  0
VERTEX
  8
0
 10
2024.252533
 20
2897.750000
 42
0.000000
  0
VERTEX
  8
0
 10
2023.921627
 20
2990.000000
 42
0.000000
  0
VERTEX
  8
0
 10
2039.890135
 20
2990.000000
 42
0.000000
  0
VERTEX
  8
0
 10
2055.858643
 20
2990.000000
 42
0.000000
  0
SEQEND
  0
POLYLINE
  8
0
 66
1
 70
1
  0
VERTEX
  8
0
 10
4242.000000
 20
2887.000000
 42
0.000000
  0
VERTEX
  8
0
 10
4242.000000
 20
2871.000000
 42
0.000000
  0
VERTEX
  8
0
 10
4194.500000
 20
2871.000000
 42
0.000000
  0
VERTEX
  8
0
 10
4147.000000
 20
2871.000000
 42
0.000000
  0
VERTEX
  8
0
 10
4147.000000
 20
2886.333333
 42
-0.004064
  0
VERTEX
  8
0
 10
4147.048162
 20
2892.258694
 42
-0.006347
  0
VERTEX
  8
0
 10
4147.195833
 20
2897.358333
 42
-0.002250
  0
VERTEX
  8
0
 10
4147.397584
 20
2901.727565
 42
-0.185783
  0
VERTEX
  8
0
 10
4147.666667
 20
2902.333333
 42
-0.194987
  0
VERTEX
  8
0
 10
4148.311579
 20
2902.606192
 42
-0.000270
  0
VERTEX
  8
0
 10
4161.894792
 20
2902.804167
 42
-0.002176
  0
VERTEX
  8
0
 10
4177.162849
 20
2902.952008
 42
-0.001333
  0
VERTEX
  8
0
 10
4195.166667
 20
2903.000000
 42
0.000000
  0
VERTEX
  8
0
 10
4242.000000
 20
2903.000000
 42
0.000000
  0
SEQEND
  0
POLYLINE
  8
0
 66
1
 70
1
  0
VERTEX
  8
0
 10
3862.150160
 20
1894.521665
 42
-0.030000
  0
VERTEX
  8
0
 10
3892.470385
 20
1889.116077
 42
-0.034874
  0
VERTEX
  8
0
 10
3920.393401
 20
1880.290498
 42
-0.036706
  0
VERTEX
  8
0
 10
3945.521825
 20
1868.175901
 42
-0.041658
  0
VERTEX
  8
0
 10
3967.500000
 20
1852.949389
 42
-0.050995
  0
VERTEX
  8
0
 10
3988.640767
 20
1831.568391
 42
-0.050157
  0
VERTEX
  8
0
 10
4005.150347
 20
1806.237935
 42
-0.048761
  0
VERTEX
  8
0
 10
4016.649774
 20
1777.442191
 42
-0.043294
  0
VERTEX
  8
0
 10
4022.933139
 20
1745.789414
 42
-0.023986
  0
VERTEX
  8
0
 10
4023.419553
 20
1737.885705
 42
-0.001100
  0
VERTEX
  8
0
 10
4023.724933
 20
1710.869033
 42
-0.001583
  0
VERTEX
  8
0
 10
4023.934997
 20
1675.489747
 42
-0.000693
  0
VERTEX
  8
0
 10
4024.000000
 20
1628.590630
 42
-0.000712
  0
VERTEX
  8
0
 10
4023.891111
 20
1552.119036
 42
-0.008955
  0
VERTEX
  8
0
 10
4023.291669
 20
1523.243823
 42
-0.023531
  0
VERTEX
  8
0
 10
4021.758662
 20
1505.403370
 42
-0.026543
  0
VERTEX
  8
0
 10
4018.580589
 20
1488.500000
 42
-0.053230
  0
VERTEX
  8
0
 10
4006.862684
 20
1455.921836
 42
-0.057310
  0
VERTEX
  8
0
 10
3988.749013
 20
1427.419840
 42
-0.056734
  0
VERTEX
  8
0
 10
3964.457622
 20
1403.541393
 42
-0.050415
  0
VERTEX
  8
0
 10
3934.479111
 20
1384.631961
 42
-0.008873
  0
VERTEX
  8
0
 10
3929.583002
 20
1382.301532
 42
-0.006033
  0
VERTEX
  8
0
 10
3923.934489
 20
1379.816694
 42
-0.006081
  0
VERTEX
  8
0
 10
3918.422856
 20
1377.549797
 42
-0.012135
  0
VERTEX
  8
0
 10
3914.000000
 20
1375.916384
 42
0.001135
  0
VERTEX
  8
0
 10
3910.335254
 20
1374.653838
 42
0.001789
  0
VERTEX
  8
0
 10
3907.196128
 20
1373.551795
 42
0.000421
  0
VERTEX
  8
0
 10
3904.450483
 20
1372.574237
 42
0.074077
  0
VERTEX
  8
0
 10
3904.178309
 20
1372.428793
 42
0.421048
  0
VERTEX
  8
0
 10
3904.135166
 20
1372.111406
 42
0.000017
  0
VERTEX
  8
0
 10
3928.480081
 20
1340.870335
 42
0.000630
  0
VERTEX
  8
0
 10
3955.836179
 20
1305.858620
 42
0.000351
  0
VERTEX
  8
0
 10
3989.262842
 20
1263.250000
 42
-0.593132
  0
VERTEX
  8
0
 10
3988.974199
 20
1262.576302
 42
-0.012233
  0
VERTEX
  8
0
 10
3984.409412
 20
1262.252399
 42
-0.009886
  0
VERTEX
  8
0
 10
3976.779047
 20
1262.049366
 42
-0.001708
  0
VERTEX
  8
0
 10
3962.326929
 20
1262.000000
 42
0.000000
  0
VERTEX
  8
0
 10
3934.408968
 20
1262.000000
 42
0.000000
  0
VERTEX
  8
0
 10
3893.027636
 20
1312.250000
 42
0.000000
  0
VERTEX
  8
0
 10
3851.646305
 20
1362.500000
 42
0.000000
  0
VERTEX
  8
0
 10
3818.073152
 20
1362.512735
 42
-0.009306
  0
VERTEX
  8
0
 10
3787.578996
 20
1363.091893
 42
-0.022260
  0
VERTEX
  8
0
 10
3765.029801
 20
1364.947643
 42
-0.026800
  0
VERTEX
  8
0
 10
3745.412346
 20
1368.521711
 42
-0.021030
  0
VERTEX
  8
0
 10
3724.603977
 20
1374.411904
 42
-0.059635
  0
VERTEX
  8
0
 10
3683.145137
 20
1393.779891
 42
-0.071429
  0
VERTEX
  8
0
 10
3650.186661
 20
1421.471713
 42
-0.072268
  0
VERTEX
  8
0
 10
3626.631289
 20
1457.026833
 42
-0.063040
  0
VERTEX
  8
0
 10
3612.795419
 20
1499.500000
 42
0.000000
  0
VERTEX
  8
0
 10
3610.500000
 20
1511.500000
 42
0.000000
  0
VERTEX
  8
0
 10
3610.500000
 20
1629.000000
 42
-0.000474
  0
VERTEX
  8
0
 10
3610.580257
 20
1713.733370
 42
-0.009136
  0
VERTEX
  8
0
 10
3611.110646
 20
1740.031177
 42
-0.028310
  0
VERTEX
  8
0
 10
3612.646160
 20
1756.138719
 42
-0.024835
  0
VERTEX
  8
0
 10
3616.026245
 20
1772.702126
 42
-0.030404
  0
VERTEX
  8
0
 10
3622.511900
 20
1792.827570
 42
-0.035878
  0
VERTEX
  8
0
 10
3631.109645
 20
1810.889970
 42
-0.036110
  0
VERTEX
  8
0
 10
3642.147907
 20
1827.441047
 42
-0.031523
  0
VERTEX
  8
0
 10
3655.929382
 20
1843.047059
 42
-0.047379
  0
VERTEX
  8
0
 10
3679.087088
 20
1862.147996
 42
-0.043438
  0
VERTEX
  8
0
 10
3706.088066
 20
1877.186936
 42
-0.041134
  0
VERTEX
  8
0
 10
3736.713175
 20
1887.990594
 42
-0.034151
  0
VERTEX
  8
0
 10
3770.665320
 20
1894.472588
 42
-0.024997
  0
VERTEX
  8
0
 10
3786.987498
 20
1895.623345
 42
-0.004966
  0
VERTEX
  8
0
 10
3816.260620
 20
1895.929820
 42
-0.005013
  0
VERTEX
  8
0
 10
3845.550248
 20
1895.651882
 42
-0.024238
  0
SEQEND
  0
POLYLINE
  8
0
 66
1
 70
1
  0
VERTEX
  8
0
 10
1289.384765
 20
1771.759970
 42
0.000000
  0
VERTEX
  8
0
 10
1376.000000
 20
1676.019941
 42
0.000000
  0
VERTEX
  8
0
 10
1376.000000
 20
1524.509970
 42
0.000000
  0
VERTEX
  8
0
 10
1376.000000
 20
1373.000000
 42
0.000000
  0
VERTEX
  8
0
 10
1350.500000
 20
1373.000000
 42
0.000000
  0
VERTEX
  8
0
 10
1325.000000
 20
1373.000000
 42
0.000000
  0
VERTEX
  8
0
 10
1325.000000
 20
1515.271908
 42
0.000000
  0
VERTEX
  8
0
 10
1325.000000
 20
1657.543816
 42
0.000000
  0
VERTEX
  8
0
 10
1260.667658
 20
1727.925157
 42
0.000853
  0
VERTEX
  8
0
 10
1235.934430
 20
1754.891451
 42
0.001414
  0
VERTEX
  8
0
 10
1214.963380
 20
1777.548832
 42
0.000089
  0
VERTEX
  8
0
 10
1196.056942
 20
1797.852816
 42
0.287564
  0
VERTEX
  8
0
 10
1195.417658
 20
1798.023447
 42
0.132009
  0
VERTEX
  8
0
 10
1194.779315
 20
1797.621735
 42
0.000050
  0
VERTEX
  8
0
 10
1175.911023
 20
1777.225735
 42
0.000788
  0
VERTEX
  8
0
 10
1154.981941
 20
1754.525961
 42
0.000478
  0
VERTEX
  8
0
 10
1130.300717
 20
1727.620199
 42
0.000000
  0
VERTEX
  8
0
 10
1066.101434
 20
1657.500000
 42
0.000000
  0
VERTEX
  8
0
 10
1066.050717
 20
1515.250000
 42
0.000000
  0
VERTEX
  8
0
 10
1066.000000
 20
1373.000000
 42
0.000000
  0
VERTEX
  8
0
 10
1040.500000
 20
1373.000000
 42
0.000000
  0
VERTEX
  8
0
 10
1015.000000
 20
1373.000000
 42
0.000000
  0
VERTEX
  8
0
 10
1015.000000
 20
1524.298553
 42
0.000000
  0
VERTEX
  8
0
 10
1015.000000
 20
1675.597107
 42
0.000000
  0
VERTEX
  8
0
 10
1105.245029
 20
1775.288818
 42
0.000000
  0
VERTEX
  8
0
 10
1195.490059
 20
1874.980529
 42
0.000000
  0
VERTEX
  8
0
 10
1199.129794
 20
1871.240265
 42
-0.008690
  0
VERTEX
  8
0
 10
1201.910888
 20
1868.281169
 42
-0.000051
  0
VERTEX
  8
0
 10
1227.143583
 20
1840.475069
 42
-0.000216
  0
VERTEX
  8
0
 10
1255.921371
 20
1808.728259
 42
-0.000137
  0
SEQEND
  0
POLYLINE
  8
0
 66
1
 70
1
  0
VERTEX
  8
0
 10
2287.587890
 20
1775.000000
 42
0.000000
  0
VERTEX
  8
0
 10
2376.889266
 20
1676.500000
 42
0.000000
  0
VERTEX
  8
0
 10
2376.944633
 20
1524.750000
 42
0.000000
  0
VERTEX
  8
0
 10
2377.000000
 20
1373.000000
 42
0.000000
  0
VERTEX
  8
0
 10
2351.500000
 20
1373.000000
 42
0.000000
  0
VERTEX
  8
0
 10
2326.000000
 20
1373.000000
 42
0.000000
  0
VERTEX
  8
0
 10
2326.000000
 20
1515.361797
 42
0.000000
  0
VERTEX
  8
0
 10
2326.000000
 20
1657.723595
 42
0.000000
  0
VERTEX
  8
0
 10
2261.354246
 20
1728.416043
 42
0.001042
  0
VERTEX
  8
0
 10
2236.514666
 20
1755.465632
 42
0.001741
  0
VERTEX
  8
0
 10
2215.490317
 20
1778.106337
 42
0.000123
  0
VERTEX
  8
0
 10
2196.585256
 20
1798.313244
 42
0.442873
  0
VERTEX
  8
0
 10
2196.000866
 20
1798.304246
 42
-0.004623
  0
VERTEX
  8
0
 10
2195.420349
 20
1797.656639
 42
-0.000002
  0
VERTEX
  8
0
 10
2176.658036
 20
1777.111586
 42
-0.000032
  0
VERTEX
  8
0
 10
2155.791977
 20
1754.266074
 42
-0.000020
  0
VERTEX
  8
0
 10
2131.146620
 20
1727.288387
 42
0.000000
  0
VERTEX
  8
0
 10
2067.000000
 20
1657.076775
 42
0.000000
  0
VERTEX
  8
0
 10
2067.000000
 20
1515.038387
 42
0.000000
  0
VERTEX
  8
0
 10
2067.000000
 20
1373.000000
 42
0.000000
  0
VERTEX
  8
0
 10
2041.500000
 20
1373.000000
 42
0.000000
  0
VERTEX
  8
0
 10
2016.000000
 20
1373.000000
 42
0.000000
  0
VERTEX
  8
0
 10
2016.007536
 20
1524.250000
 42
0.000000
  0
VERTEX
  8
0
 10
2016.015072
 20
1675.500000
 42
0.000000
  0
VERTEX
  8
0
 10
2105.757536
 20
1774.724112
 42
-0.000829
  0
VERTEX
  8
0
 10
2140.267625
 20
1812.753436
 42
-0.001370
  0
VERTEX
  8
0
 10
2169.547421
 20
1844.735308
 42
-0.000090
  0
VERTEX
  8
0
 10
2195.938604
 20
1873.393442
 42
-0.251581
  0
VERTEX
  8
0
 10
2196.893257
 20
1873.724112
 42
-0.168571
  0
VERTEX
  8
0
 10
2197.847386
 20
1873.210905
 42
-0.000068
  0
VERTEX
  8
0
 10
2224.109524
 20
1844.631458
 42
-0.001023
  0
VERTEX
  8
0
 10
2253.247712
 20
1812.783016
 42
-0.000621
  0
SEQEND
  0
POLYLINE
  8
0
 66
1
 70
1
  0
VERTEX
  8
0
 10
655.000000
 20
1646.000000
 42
0.000000
  0
VERTEX
  8
0
 10
655.000000
 20
1420.000000
 42
0.000000
  0
VERTEX
  8
0
 10
779.500000
 20
1420.000000
 42
0.000000
  0
VERTEX
  8
0
 10
904.000000
 20
1420.000000
 42
0.000000
  0
VERTEX
  8
0
 10
904.000000
 20
1396.500000
 42
0.000000
  0
VERTEX
  8
0
 10
904.000000
 20
1373.000000
 42
0.000000
  0
VERTEX
  8
0
 10
754.500000
 20
1373.000000
 42
0.000000
  0
VERTEX
  8
0
 10
605.000000
 20
1373.000000
 42
0.000000
  0
VERTEX
  8
0
 10
605.000000
 20
1622.500000
 42
0.000000
  0
VERTEX
  8
0
 10
605.000000
 20
1872.000000
 42
0.000000
  0
VERTEX
  8
0
 10
630.000000
 20
1872.000000
 42
0.000000
  0
VERTEX
  8
0
 10
655.000000
 20
1872.000000
 42
0.000000
  0
SEQEND
  0
POLYLINE
  8
0
 66
1
 70
1
  0
VERTEX
  8
0
 10
1950.000000
 20
1848.500000
 42
0.000000
  0
VERTEX
  8
0
 10
1950.000000
 20
1825.000000
 42
0.000000
  0
VERTEX
  8
0
 10
1820.000000
 20
1825.000000
 42
0.000000
  0
VERTEX
  8
0
 10
1690.000000
 20
1825.000000
 42
0.000000
  0
VERTEX
  8
0
 10
1690.000000
 20
1730.500000
 42
0.000000
  0
VERTEX
  8
0
 10
1690.000000
 20
1636.000000
 42
0.000000
  0
VERTEX
  8
0
 10
1795.000000
 20
1636.000000
 42
0.000000
  0
VERTEX
  8
0
 10
1900.000000
 20
1636.000000
 42
0.000000
  0
VERTEX
  8
0
 10
1900.000000
 20
1612.500000
 42
0.000000
  0
VERTEX
  8
0
 10
1900.000000
 20
1589.000000
 42
0.000000
  0
VERTEX
  8
0
 10
1795.000000
 20
1589.000000
 42
0.000000
  0
VERTEX
  8
0
 10
1690.000000
 20
1589.000000
 42
0.000000
  0
VERTEX
  8
0
 10
1690.000000
 20
1481.000000
 42
0.000000
  0
VERTEX
  8
0
 10
1690.000000
 20
1373.000000
 42
0.000000
  0
VERTEX
  8
0
 10
1664.500000
 20
1373.000000
 42
0.000000
  0
VERTEX
  8
0
 10
1639.000000
 20
1373.000000
 42
0.000000
  0
VERTEX
  8
0
 10
1639.000000
 20
1622.500000
 42
0.000000
  0
VERTEX
  8
0
 10
1639.000000
 20
1872.000000
 42
0.000000
  0
VERTEX
  8
0
 10
1794.500000
 20
1872.000000
 42
0.000000
  0
VERTEX
  8
0
 10
1950.000000
 20
1872.000000
 42
0.000000
  0
SEQEND
  0
POLYLINE
  8
0
 66
1
 70
1
  0
VERTEX
  8
0
 10
2722.026234
 20
1870.963997
 42
-0.018742
  0
VERTEX
  8
0
 10
2730.971280
 20
1869.528389
 42
-0.022958
  0
VERTEX
  8
0
 10
2739.188824
 20
1867.495440
 42
-0.022929
  0
VERTEX
  8
0
 10
2747.193842
 20
1864.715175
 42
-0.018613
  0
VERTEX
  8
0
 10
2755.500000
 20
1861.032203
 42
-0.067800
  0
VERTEX
  8
0
 10
2776.542269
 20
1846.944178
 42
-0.065883
  0
VERTEX
  8
0
 10
2793.284215
 20
1827.617456
 42
-0.061312
  0
VERTEX
  8
0
 10
2805.325930
 20
1803.301240
 42
-0.046971
  0
VERTEX
  8
0
 10
2812.482595
 20
1774.489545
 42
-0.028963
  0
VERTEX
  8
0
 10
2813.695236
 20
1761.300177
 42
-0.008565
  0
VERTEX
  8
0
 10
2814.032867
 20
1741.015684
 42
-0.008607
  0
VERTEX
  8
0
 10
2813.673227
 20
1720.699423
 42
-0.028131
  0
VERTEX
  8
0
 10
2812.449910
 20
1707.317354
 42
-0.027922
  0
VERTEX
  8
0
 10
2808.877202
 20
1689.981053
 42
-0.032424
  0
VERTEX
  8
0
 10
2803.518716
 20
1674.019516
 42
-0.034019
  0
VERTEX
  8
0
 10
2796.424012
 20
1659.581127
 42
-0.038019
  0
VERTEX
  8
0
 10
2787.663001
 20
1646.795503
 42
0.013369
  0
VERTEX
  8
0
 10
2785.868993
 20
1644.435628
 42
0.021843
  0
VERTEX
  8
0
 10
2784.492739
 20
1642.333138
 42
0.017520
  0
VERTEX
  8
0
 10
2783.551221
 20
1640.613281
 42
0.345465
  0
VERTEX
  8
0
 10
2783.663001
 20
1640.060203
 42
0.019874
  0
VERTEX
  8
0
 10
2784.250282
 20
1639.598381
 42
0.001077
  0
VERTEX
  8
0
 10
2786.163507
 20
1638.219534
 42
0.001678
  0
VERTEX
  8
0
 10
2788.449166
 20
1636.591331
 42
0.001223
  0
VERTEX
  8
0
 10
2791.000000
 20
1634.796447
 42
-0.036049
  0
VERTEX
  8
0
 10
2800.009531
 20
1627.469129
 42
-0.024989
  0
VERTEX
  8
0
 10
2809.114904
 20
1618.002930
 42
-0.024176
  0
VERTEX
  8
0
 10
2817.599605
 20
1607.241748
 42
-0.026291
  0
VERTEX
  8
0
 10
2824.753764
 20
1596.000000
 42
-0.034170
  0
VERTEX
  8
0
 10
2830.302558
 20
1584.390848
 42
-0.022951
  0
VERTEX
  8
0
 10
2835.092000
 20
1570.483416
 42
-0.022114
  0
VERTEX
  8
0
 10
2838.785950
 20
1555.489004
 42
-0.023725
  0
VERTEX
  8
0
 10
2841.038368
 20
1540.573892
 42
-0.023265
  0
VERTEX
  8
0
 10
2841.800700
 20
1526.955705
 42
-0.007679
  0
VERTEX
  8
0
 10
2841.681279
 20
1506.911140
 42
-0.007254
  0
VERTEX
  8
0
 10
2840.973169
 20
1487.152004
 42
-0.031185
  0
VERTEX
  8
0
 10
2839.650302
 20
1475.461552
 42
-0.049990
  0
VERTEX
  8
0
 10
2830.106496
 20
1441.626517
 42
-0.066819
  0
VERTEX
  8
0
 10
2814.596743
 20
1413.785383
 42
-0.072752
  0
VERTEX
  8
0
 10
2793.531322
 20
1392.785294
 42
-0.075900
  0
VERTEX
  8
0
 10
2767.621176
 20
1379.061953
 42
-0.042504
  0
VERTEX
  8
0
 10
2753.242903
 20
1375.381095
 42
-0.031411
  0
VERTEX
  8
0
 10
2736.900483
 20
1373.694172
 42
-0.009516
  0
VERTEX
  8
0
 10
2708.245839
 20
1373.091604
 42
-0.000499
  0
VERTEX
  8
0
 10
2616.369010
 20
1373.000000
 42
0.000000
  0
VERTEX
  8
0
 10
2491.000000
 20
1373.000000
 42
0.000000
  0
VERTEX
  8
0
 10
2491.000000
 20
1622.500000
 42
0.000000
  0
VERTEX
  8
0
 10
2491.000000
 20
1872.000000
 42
0.000000
  0
VERTEX
  8
0
 10
2602.276234
 20
1872.000000
 42
-0.000673
  0
VERTEX
  8
0
 10
2650.129283
 20
1871.935610
 42
-0.001490
  0
VERTEX
  8
0
 10
2686.624917
 20
1871.728635
 42
-0.000876
  0
VERTEX
  8
0
 10
2715.024168
 20
1871.433177
 42
-0.027382
  0
SEQEND
  0
POLYLINE
  8
0
 66
1
 70
1
  0
VERTEX
  8
0
 10
3202.533125
 20
1870.932110
 42
-0.066306
  0
VERTEX
  8
0
 10
3234.495361
 20
1862.065025
 42
-0.075224
  0
VERTEX
  8
0
 10
3261.535079
 20
1845.367533
 42
-0.074553
  0
VERTEX
  8
0
 10
3282.606130
 20
1821.275164
 42
-0.063566
  0
VERTEX
  8
0
 10
3297.081904
 20
1790.749365
 42
-0.020148
  0
VERTEX
  8
0
 10
3300.894736
 20
1777.264464
 42
-0.029108
  0
VERTEX
  8
0
 10
3303.076349
 20
1765.072557
 42
-0.022537
  0
VERTEX
  8
0
 10
3304.146200
 20
1750.601938
 42
-0.007183
  0
VERTEX
  8
0
 10
3304.456545
 20
1729.000000
 42
-0.002152
  0
VERTEX
  8
0
 10
3304.382865
 20
1711.880490
 42
-0.011283
  0
VERTEX
  8
0
 10
3304.089439
 20
1702.470616
 42
-0.018626
  0
VERTEX
  8
0
 10
3303.445640
 20
1695.414312
 42
-0.015003
  0
VERTEX
  8
0
 10
3302.245394
 20
1687.892570
 42
-0.057694
  0
VERTEX
  8
0
 10
3291.237500
 20
1652.743235
 42
-0.073610
  0
VERTEX
  8
0
 10
3273.058935
 20
1624.112877
 42
-0.077828
  0
VERTEX
  8
0
 10
3248.300464
 20
1603.141069
 42
-0.074934
  0
VERTEX
  8
0
 10
3218.000000
 20
1590.406952
 42
0.002003
  0
VERTEX
  8
0
 10
3213.947862
 20
1589.362477
 42
0.003140
  0
VERTEX
  8
0
 10
3210.472817
 20
1588.428530
 42
0.000859
  0
VERTEX
  8
0
 10
3207.454718
 20
1587.591457
 42
0.113405
  0
VERTEX
  8
0
 10
3207.120228
 20
1587.409543
 42
0.347923
  0
VERTEX
  8
0
 10
3207.064236
 20
1587.096863
 42
0.000448
  0
VERTEX
  8
0
 10
3210.227905
 20
1581.213141
 42
0.003300
  0
VERTEX
  8
0
 10
3213.853601
 20
1574.589693
 42
0.001993
  0
VERTEX
  8
0
 10
3218.232854
 20
1566.786894
 42
-0.004709
  0
VERTEX
  8
0
 10
3240.760175
 20
1526.132560
 42
-0.001035
  0
VERTEX
  8
0
 10
3278.649256
 20
1455.863034
 42
-0.000079
  0
VERTEX
  8
0
 10
3321.219819
 20
1376.488083
 42
-0.123655
  0
VERTEX
  8
0
 10
3322.000000
 20
1373.381657
 42
-0.410420
  0
VERTEX
  8
0
 10
3321.845463
 20
1373.225104
 42
-0.000162
  0
VERTEX
  8
0
 10
3313.260938
 20
1373.116544
 42
-0.002005
  0
VERTEX
  8
0
 10
3303.657648
 20
1373.036728
 42
-0.001202
  0
VERTEX
  8
0
 10
3292.250000
 20
1373.015088
 42
0.000000
  0
VERTEX
  8
0
 10
3262.500000
 20
1373.030176
 42
0.000000
  0
VERTEX
  8
0
 10
3243.747597
 20
1410.265088
 42
0.001357
  0
VERTEX
  8
0
 10
3218.089854
 20
1460.868881
 42
0.001318
  0
VERTEX
  8
0
 10
3191.907678
 20
1511.829083
 42
0.001124
  0
VERTEX
  8
0
 10
3168.835131
 20
1556.202290
 42
0.007786
  0
VERTEX
  8
0
 10
3157.142264
 20
1577.743402
 42
0.000000
  0
VERTEX
  8
0
 10
3152.500000
 20
1585.986804
 42
0.000000
  0
VERTEX
  8
0
 10
3084.250000
 20
1585.993402
 42
0.000000
  0
VERTEX
  8
0
 10
3016.000000
 20
1586.000000
 42
0.000000
  0
VERTEX
  8
0
 10
3016.000000
 20
1479.500000
 42
0.000000
  0
VERTEX
  8
0
 10
3016.000000
 20
1373.000000
 42
0.000000
  0
VERTEX
  8
0
 10
2990.500000
 20
1373.000000
 42
0.000000
  0
VERTEX
  8
0
 10
2965.000000
 20
1373.000000
 42
0.000000
  0
VERTEX
  8
0
 10
2965.000000
 20
1622.500000
 42
0.000000
  0
VERTEX
  8
0
 10
2965.000000
 20
1872.000000
 42
0.000000
  0
VERTEX
  8
0
 10
3079.927641
 20
1872.000000
 42
-0.000614
  0
VERTEX
  8
0
 10
3130.868336
 20
1871.937400
 42
-0.001563
  0
VERTEX
  8
0
 10
3167.836749
 20
1871.730976
 42
-0.000932
  0
VERTEX
  8
0
 10
3195.875325
 20
1871.434515
 42
-0.031451
  0
SEQEND
  0
POLYLINE
  8
0
 66
1
 70
1
  0
VERTEX
  8
0
 10
3492.000000
 20
1622.500000
 42
0.000000
  0
VERTEX
  8
0
 10
3492.000000
 20
1373.000000
 42
0.000000
  0
VERTEX
  8
0
 10
3466.500000
 20
1373.000000
 42
0.000000
  0
VERTEX
  8
0
 10
3441.000000
 20
1373.000000
 42
0.000000
  0
VERTEX
  8
0
 10
3441.000000
 20
1622.500000
 42
0.000000
  0
VERTEX
  8
0
 10
3441.000000
 20
1872.000000
 42
0.000000
  0
VERTEX
  8
0
 10
3466.500000
 20
1872.000000
 42
0.000000
  0
VERTEX
  8
0
 10
3492.000000
 20
1872.000000
 42
0.000000
  0
SEQEND
  0
POLYLINE
  8
0
 66
1
 70
1
  0
VERTEX
  8
0
 10
4190.296863
 20
1691.750000
 42
0.000214
  0
VERTEX
  8
0
 10
4190.546924
 20
1585.999568
 42
0.001929
  0
VERTEX
  8
0
 10
4190.854821
 20
1539.703074
 42
0.002574
  0
VERTEX
  8
0
 10
4191.282132
 20
1512.412198
 42
0.046511
  0
VERTEX
  8
0
 10
4192.272551
 20
1503.743473
 42
0.029160
  0
VERTEX
  8
0
 10
4198.194387
 20
1481.923915
 42
0.045090
  0
VERTEX
  8
0
 10
4206.036394
 20
1464.049444
 42
0.049803
  0
VERTEX
  8
0
 10
4216.264079
 20
1449.198142
 42
0.048236
  0
VERTEX
  8
0
 10
4229.326800
 20
1436.486153
 42
0.045313
  0
VERTEX
  8
0
 10
4243.062082
 20
1427.392110
 42
0.037871
  0
VERTEX
  8
0
 10
4259.047259
 20
1420.281152
 42
0.034695
  0
VERTEX
  8
0
 10
4277.306463
 20
1415.159060
 42
0.026386
  0
VERTEX
  8
0
 10
4297.855955
 20
1412.024520
 42
0.019140
  0
VERTEX
  8
0
 10
4310.659148
 20
1411.251105
 42
0.005576
  0
VERTEX
  8
0
 10
4330.412124
 20
1411.035618
 42
0.005641
  0
VERTEX
  8
0
 10
4350.241183
 20
1411.264161
 42
0.017838
  0
VERTEX
  8
0
 10
4363.500000
 20
1412.040430
 42
0.039595
  0
VERTEX
  8
0
 10
4391.734938
 20
1416.983179
 42
0.054605
  0
VERTEX
  8
0
 10
4415.793186
 20
1426.081445
 42
0.059932
  0
VERTEX
  8
0
 10
4435.562083
 20
1439.328601
 42
0.064605
  0
VERTEX
  8
0
 10
4451.063078
 20
1456.591681
 42
0.030475
  0
VERTEX
  8
0
 10
4454.785292
 20
1462.777280
 42
0.013772
  0
VERTEX
  8
0
 10
4458.930488
 20
1471.288065
 42
0.013764
  0
VERTEX
  8
0
 10
4462.722507
 20
1480.303097
 42
0.022313
  0
VERTEX
  8
0
 10
4465.384845
 20
1488.177894
 42
0.037509
  0
VERTEX
  8
0
 10
4469.104881
 20
1505.943165
 42
0.025171
  0
VERTEX
  8
0
 10
4470.786442
 20
1526.631652
 42
0.006921
  0
VERTEX
  8
0
 10
4471.417773
 20
1563.923956
 42
0.000299
  0
VERTEX
  8
0
 10
4471.743115
 20
1694.750000
 42
0.000000
  0
VERTEX
  8
0
 10
4472.077859
 20
1872.000000
 42
0.000000
  0
VERTEX
  8
0
 10
4496.038930
 20
1872.000000
 42
0.000000
  0
VERTEX
  8
0
 10
4520.000000
 20
1872.000000
 42
0.000000
  0
VERTEX
  8
0
 10
4519.991795
 20
1695.250000
 42
-0.000417
  0
VERTEX
  8
0
 10
4519.925653
 20
1620.129064
 42
-0.000926
  0
VERTEX
  8
0
 10
4519.721497
 20
1562.896451
 42
-0.000380
  0
VERTEX
  8
0
 10
4519.439250
 20
1517.225999
 42
-0.025894
  0
VERTEX
  8
0
 10
4518.985079
 20
1509.500000
 42
-0.024636
  0
VERTEX
  8
0
 10
4515.300469
 20
1486.632639
 42
-0.029927
  0
VERTEX
  8
0
 10
4509.535668
 20
1465.709802
 42
-0.031495
  0
VERTEX
  8
0
 10
4501.631287
 20
1446.570825
 42
-0.033802
  0
VERTEX
  8
0
 10
4491.544131
 20
1429.043225
 42
-0.060087
  0
VERTEX
  8
0
 10
4470.232782
 20
1404.239925
 42
-0.059541
  0
VERTEX
  8
0
 10
4443.574076
 20
1385.127125
 42
-0.054968
  0
VERTEX
  8
0
 10
4411.223974
 20
1371.706743
 42
-0.039858
  0
VERTEX
  8
0
 10
4373.000000
 20
1363.809414
 42
-0.026635
  0
VERTEX
  8
0
 10
4358.460153
 20
1362.778147
 42
-0.004392
  0
VERTEX
  8
0
 10
4330.317642
 20
1362.531405
 42
-0.004318
  0
VERTEX
  8
0
 10
4302.172951
 20
1362.774946
 42
-0.027841
  0
VERTEX
  8
0
 10
4288.000000
 20
1363.810807
 42
-0.025150
  0
VERTEX
  8
0
 10
4262.858609
 20
1368.357594
 42
-0.030771
  0
VERTEX
  8
0
 10
4239.979412
 20
1375.203142
 42
-0.033015
  0
VERTEX
  8
0
 10
4219.584844
 20
1384.268145
 42
-0.039913
  0
VERTEX
  8
0
 10
4201.885880
 20
1395.464499
 42
-0.024856
  0
VERTEX
  8
0
 10
4193.402631
 20
1402.516524
 42
-0.016353
  0
VERTEX
  8
0
 10
4184.339500
 20
1411.409713
 42
-0.016427
  0
VERTEX
  8
0
 10
4175.973107
 20
1420.771514
 42
-0.027344
  0
VERTEX
  8
0
 10
4169.643057
 20
1429.241845
 42
-0.027017
  0
VERTEX
  8
0
 10
4162.435860
 20
1441.455921
 42
-0.020703
  0
VERTEX
  8
0
 10
4155.864864
 20
1455.498510
 42
-0.020497
  0
VERTEX
  8
0
 10
4150.401321
 20
1470.224166
 42
-0.024520
  0
VERTEX
  8
0
 10
4146.523098
 20
1484.500000
 42
-0.027494
  0
VERTEX
  8
0
 10
4143.508380
 20
1503.032638
 42
-0.020255
  0
VERTEX
  8
0
 10
4142.141085
 20
1523.788516
 42
-0.005580
  0
VERTEX
  8
0
 10
4141.620171
 20
1560.688868
 42
-0.000237
  0
VERTEX
  8
0
 10
4141.296137
 20
1691.250000
 42
0.000000
  0
VERTEX
  8
0
 10
4140.933151
 20
1872.000000
 42
0.000000
  0
VERTEX
  8
0
 10
4165.440468
 20
1872.000000
 42
0.000000
  0
VERTEX
  8
0
 10
4189.947784
 20
1872.000000
 42
0.000000
  0
SEQEND
  0
POLYLINE
  8
0
 66
1
 70
1
  0
VERTEX
  8
0
 10
4946.000000
 20
1848.500000
 42
0.000000
  0
VERTEX
  8
0
 10
4946.000000
 20
1825.000000
 42
0.000000
  0
VERTEX
  8
0
 10
4815.500000
 20
1825.000000
 42
0.000000
  0
VERTEX
  8
0
 10
4685.000000
 20
1825.000000
 42
0.000000
  0
VERTEX
  8
0
 10
4685.000000
 20
1738.000000
 42
0.000000
  0
VERTEX
  8
0
 10
4685.000000
 20
1651.000000
 42
0.000000
  0
VERTEX
  8
0
 10
4796.000000
 20
1651.000000
 42
0.000000
  0
VERTEX
  8
0
 10
4907.000000
 20
1651.000000
 42
0.000000
  0
VERTEX
  8
0
 10
4907.000000
 20
1627.500000
 42
0.000000
  0
VERTEX
  8
0
 10
4907.000000
 20
1604.000000
 42
0.000000
  0
VERTEX
  8
0
 10
4796.000000
 20
1604.000000
 42
0.000000
  0
VERTEX
  8
0
 10
4685.000000
 20
1604.000000
 42
0.000000
  0
VERTEX
  8
0
 10
4685.000000
 20
1512.000000
 42
0.000000
  0
VERTEX
  8
0
 10
4685.000000
 20
1420.000000
 42
0.000000
  0
VERTEX
  8
0
 10
4822.000000
 20
1420.000000
 42
0.000000
  0
VERTEX
  8
0
 10
4959.000000
 20
1420.000000
 42
0.000000
  0
VERTEX
  8
0
 10
4959.000000
 20
1396.500000
 42
0.000000
  0
VERTEX
  8
0
 10
4959.000000
 20
1373.000000
 42
0.000000
  0
VERTEX
  8
0
 10
4796.500000
 20
1373.000000
 42
0.000000
  0
VERTEX
  8
0
 10
4634.000000
 20
1373.000000
 42
0.000000
  0
VERTEX
  8
0
 10
4634.000000
 20
1622.500000
 42
0.000000
  0
VERTEX
  8
0
 10
4634.000000
 20
1872.000000
 42
0.000000
  0
VERTEX
  8
0
 10
4790.000000
 20
1872.000000
 42
0.000000
  0
VERTEX
  8
0
 10
4946.000000
 20
1872.000000
 42
0.000000
  0
SEQEND
  0
POLYLINE
  8
0
 66
1
 70
1
  0
VERTEX
  8
0
 10
1284.000000
 20
1536.500000
 42
0.000000
  0
VERTEX
  8
0
 10
1284.000000
 20
1514.000000
 42
0.000000
  0
VERTEX
  8
0
 10
1195.500000
 20
1514.000000
 42
0.000000
  0
VERTEX
  8
0
 10
1107.000000
 20
1514.000000
 42
0.000000
  0
VERTEX
  8
0
 10
1107.000000
 20
1536.500000
 42
0.000000
  0
VERTEX
  8
0
 10
1107.000000
 20
1559.000000
 42
0.000000
  0
VERTEX
  8
0
 10
1195.500000
 20
1559.000000
 42
0.000000
  0
VERTEX
  8
0
 10
1284.000000
 20
1559.000000
 42
0.000000
  0
SEQEND
  0
POLYLINE
  8
0
 66
1
 70
1
  0
VERTEX
  8
0
 10
2285.000000
 20
1536.500000
 42
0.000000
  0
VERTEX
  8
0
 10
2285.000000
 20
1514.000000
 42
0.000000
  0
VERTEX
  8
0
 10
2196.500000
 20
1514.000000
 42
0.000000
  0
VERTEX
  8
0
 10
2108.000000
 20
1514.000000
 42
0.000000
  0
VERTEX
  8
0
 10
2108.000000
 20
1536.500000
 42
0.000000
  0
VERTEX
  8
0
 10
2108.000000
 20
1559.000000
 42
0.000000
  0
VERTEX
  8
0
 10
2196.500000
 20
1559.000000
 42
0.000000
  0
VERTEX
  8
0
 10
2285.000000
 20
1559.000000
 42
0.000000
  0
SEQEND
  0
POLYLINE
  8
0
 66
1
 70
1
  0
VERTEX
  8
0
 10
5511.321707
 20
1240.975863
 42
-0.035301
  0
VERTEX
  8
0
 10
5531.761748
 20
1237.853238
 42
-0.042985
  0
VERTEX
  8
0
 10
5550.205607
 20
1231.984031
 42
-0.044748
  0
VERTEX
  8
0
 10
5566.752657
 20
1223.296954
 42
-0.044360
  0
VERTEX
  8
0
 10
5581.542174
 20
1211.782191
 42
-0.042163
  0
VERTEX
  8
0
 10
5594.113082
 20
1197.912526
 42
-0.039812
  0
VERTEX
  8
0
 10
5604.450014
 20
1181.872430
 42
-0.038404
  0
VERTEX
  8
0
 10
5612.424133
 20
1163.827744
 42
-0.033764
  0
VERTEX
  8
0
 10
5617.954527
 20
1143.986411
 42
-0.033273
  0
VERTEX
  8
0
 10
5620.769599
 20
1123.688160
 42
-0.017712
  0
VERTEX
  8
0
 10
5621.679341
 20
1098.332181
 42
-0.017713
  0
VERTEX
  8
0
 10
5620.792974
 20
1073.003501
 42
-0.033625
  0
VERTEX
  8
0
 10
5617.994875
 20
1052.801005
 42
-0.060299
  0
VERTEX
  8
0
 10
5606.749493
 20
1019.460099
 42
-0.073037
  0
VERTEX
  8
0
 10
5588.360876
 20
992.089256
 42
-0.075569
  0
VERTEX
  8
0
 10
5563.463488
 20
971.850071
 42
-0.070938
  0
VERTEX
  8
0
 10
5533.144039
 20
959.384630
 42
0.001672
  0
VERTEX
  8
0
 10
5529.484909
 20
958.443377
 42
0.002675
  0
VERTEX
  8
0
 10
5526.367213
 20
957.612430
 42
0.000532
  0
VERTEX
  8
0
 10
5523.629224
 20
956.863844
 42
0.138830
  0
VERTEX
  8
0
 10
5523.419341
 20
956.736934
 42
0.321750
  0
VERTEX
  8
0
 10
5523.392691
 20
956.530644
 42
0.000797
  0
VERTEX
  8
0
 10
5524.880602
 20
953.778974
 42
0.004354
  0
VERTEX
  8
0
 10
5526.609162
 20
950.659503
 42
0.002646
  0
VERTEX
  8
0
 10
5528.704460
 20
947.000000
 42
-0.006426
  0
VERTEX
  8
0
 10
5548.209496
 20
912.328593
 42
-0.001261
  0
VERTEX
  8
0
 10
5582.306472
 20
849.477058
 42
-0.001311
  0
VERTEX
  8
0
 10
5616.184041
 20
786.256060
 42
-0.005603
  0
VERTEX
  8
0
 10
5635.878427
 20
748.250000
 42
0.000000
  0
VERTEX
  8
0
 10
5639.028790
 20
742.000000
 42
0.000000
  0
VERTEX
  8
0
 10
5609.264395
 20
742.020126
 42
0.000000
  0
VERTEX
  8
0
 10
5579.500000
 20
742.040252
 42
0.000000
  0
VERTEX
  8
0
 10
5565.000000
 20
770.702969
 42
0.001071
  0
VERTEX
  8
0
 10
5536.575831
 20
826.592524
 42
0.001211
  0
VERTEX
  8
0
 10
5509.047995
 20
880.113554
 42
0.001155
  0
VERTEX
  8
0
 10
5485.403289
 20
925.554836
 42
0.005831
  0
VERTEX
  8
0
 10
5471.847193
 20
950.741751
 42
0.000000
  0
VERTEX
  8
0
 10
5469.500000
 20
954.983503
 42
0.000000
  0
VERTEX
  8
0
 10
5401.250000
 20
954.991751
 42
0.000000
  0
VERTEX
  8
0
 10
5333.000000
 20
955.000000
 42
0.000000
  0
VERTEX
  8
0
 10
5333.000000
 20
848.500000
 42
0.000000
  0
VERTEX
  8
0
 10
5333.000000
 20
742.000000
 42
0.000000
  0
VERTEX
  8
0
 10
5307.500000
 20
742.000000
 42
0.000000
  0
VERTEX
  8
0
 10
5282.000000
 20
742.000000
 42
0.000000
  0
VERTEX
  8
0
 10
5282.000000
 20
992.000000
 42
0.000000
  0
VERTEX
  8
0
 10
5282.000000
 20
1242.000000
 42
0.000000
  0
VERTEX
  8
0
 10
5390.354783
 20
1242.000000
 42
-0.000760
  0
VERTEX
  8
0
 10
5435.370287
 20
1241.931564
 42
-0.001356
  0
VERTEX
  8
0
 10
5472.396740
 20
1241.718538
 42
-0.000936
  0
VERTEX
  8
0
 10
5501.951093
 20
1241.413008
 42
-0.017206
  0
SEQEND
  0
POLYLINE
  8
0
 66
1
 70
1
  0
VERTEX
  8
0
 10
3469.940681
 20
1139.338350
 42
0.000000
  0
VERTEX
  8
0
 10
3560.000000
 20
1039.676700
 42
0.000000
  0
VERTEX
  8
0
 10
3560.000000
 20
888.338350
 42
0.000000
  0
VERTEX
  8
0
 10
3560.000000
 20
737.000000
 42
0.000000
  0
VERTEX
  8
0
 10
3534.500000
 20
737.000000
 42
0.000000
  0
VERTEX
  8
0
 10
3509.000000
 20
737.000000
 42
0.000000
  0
VERTEX
  8
0
 10
3508.964173
 20
879.250000
 42
0.000000
  0
VERTEX
  8
0
 10
3508.928346
 20
1021.500000
 42
0.000000
  0
VERTEX
  8
0
 10
3444.395613
 20
1092.000000
 42
0.000726
  0
VERTEX
  8
0
 10
3419.579946
 20
1119.031429
 42
0.001198
  0
VERTEX
  8
0
 10
3398.524348
 20
1141.790625
 42
0.000079
  0
VERTEX
  8
0
 10
3379.544656
 20
1162.201164
 42
0.208325
  0
VERTEX
  8
0
 10
3378.858549
 20
1162.500000
 42
0.208467
  0
VERTEX
  8
0
 10
3378.172614
 20
1162.201017
 42
0.000079
  0
VERTEX
  8
0
 10
3359.223776
 20
1141.801375
 42
0.001200
  0
VERTEX
  8
0
 10
3338.202276
 20
1119.053992
 42
0.000727
  0
VERTEX
  8
0
 10
3313.427109
 20
1092.036596
 42
0.000000
  0
VERTEX
  8
0
 10
3249.000000
 20
1021.573191
 42
0.000000
  0
VERTEX
  8
0
 10
3249.000000
 20
879.286596
 42
0.000000
  0
VERTEX
  8
0
 10
3249.000000
 20
737.000000
 42
0.000000
  0
VERTEX
  8
0
 10
3223.500000
 20
737.000000
 42
0.000000
  0
VERTEX
  8
0
 10
3198.000000
 20
737.000000
 42
0.000000
  0
VERTEX
  8
0
 10
3198.000000
 20
888.520313
 42
0.000000
  0
VERTEX
  8
0
 10
3198.000000
 20
1040.040627
 42
0.000000
  0
VERTEX
  8
0
 10
3288.093620
 20
1139.520313
 42
-0.000438
  0
VERTEX
  8
0
 10
3322.699578
 20
1177.664318
 42
-0.000726
  0
VERTEX
  8
0
 10
3351.971063
 20
1209.777842
 42
-0.000029
  0
VERTEX
  8
0
 10
3378.454311
 20
1238.744430
 42
-0.210555
  0
VERTEX
  8
0
 10
3379.034301
 20
1239.000000
 42
-0.210842
  0
VERTEX
  8
0
 10
3379.614014
 20
1238.744171
 42
-0.000029
  0
VERTEX
  8
0
 10
3406.087463
 20
1209.724390
 42
-0.000726
  0
VERTEX
  8
0
 10
3435.347872
 20
1177.552129
 42
-0.000438
  0
SEQEND
  0
POLYLINE
  8
0
 66
1
 70
1
  0
VERTEX
  8
0
 10
1862.000000
 20
1235.085211
 42
-0.013279
  0
VERTEX
  8
0
 10
1892.915554
 20
1231.630154
 42
-0.022935
  0
VERTEX
  8
0
 10
1918.352002
 20
1226.903837
 42
-0.026982
  0
VERTEX
  8
0
 10
1939.958826
 20
1220.608160
 42
-0.033823
  0
VERTEX
  8
0
 10
1959.134650
 20
1212.385332
 42
-0.019007
  0
VERTEX
  8
0
 10
1968.154013
 20
1207.331683
 42
-0.018229
  0
VERTEX
  8
0
 10
1976.893473
 20
1201.540830
 42
-0.019160
  0
VERTEX
  8
0
 10
1984.514770
 20
1195.626424
 42
-0.036841
  0
VERTEX
  8
0
 10
1990.052335
 20
1190.236147
 42
-0.072247
  0
VERTEX
  8
0
 10
2011.888744
 20
1156.978025
 42
-0.046318
  0
VERTEX
  8
0
 10
2027.500820
 20
1113.421692
 42
-0.038853
  0
VERTEX
  8
0
 10
2036.922914
 20
1059.797646
 42
-0.024196
  0
VERTEX
  8
0
 10
2039.979882
 20
996.000000
 42
-0.024232
  0
VERTEX
  8
0
 10
2037.209716
 20
939.463324
 42
-0.034666
  0
VERTEX
  8
0
 10
2028.880749
 20
889.968556
 42
-0.038925
  0
VERTEX
  8
0
 10
2014.930857
 20
846.987324
 42
-0.048910
  0
VERTEX
  8
0
 10
1995.258075
 20
810.049950
 42
-0.063416
  0
VERTEX
  8
0
 10
1973.415354
 20
784.831501
 42
-0.059620
  0
VERTEX
  8
0
 10
1945.518126
 20
765.281892
 42
-0.052948
  0
VERTEX
  8
0
 10
1910.781746
 20
751.151421
 42
-0.034721
  0
VERTEX
  8
0
 10
1868.500000
 20
742.089127
 42
-0.012804
  0
VERTEX
  8
0
 10
1847.542539
 20
739.644626
 42
-0.013702
  0
VERTEX
  8
0
 10
1826.955859
 20
738.343725
 42
-0.006854
  0
VERTEX
  8
0
 10
1797.046754
 20
737.685672
 42
-0.000908
  0
VERTEX
  8
0
 10
1733.750000
 20
737.275822
 42
0.000000
  0
VERTEX
  8
0
 10
1639.000000
 20
736.834420
 42
0.000000
  0
VERTEX
  8
0
 10
1639.000000
 20
987.015805
 42
0.000000
  0
VERTEX
  8
0
 10
1639.000000
 20
1237.197189
 42
0.000000
  0
VERTEX
  8
0
 10
1743.750000
 20
1236.714565
 42
-0.000762
  0
VERTEX
  8
0
 10
1788.841045
 20
1236.438112
 42
-0.001531
  0
VERTEX
  8
0
 10
1824.427470
 20
1236.056744
 42
-0.001250
  0
VERTEX
  8
0
 10
1851.870075
 20
1235.609993
 42
-0.016492
  0
SEQEND
  0
POLYLINE
  8
0
 66
1
 70
1
  0
VERTEX
  8
0
 10
2461.000000
 20
1213.000000
 42
0.000000
  0
VERTEX
  8
0
 10
2461.000000
 20
1189.000000
 42
0.000000
  0
VERTEX
  8
0
 10
2330.500000
 20
1189.000000
 42
0.000000
  0
VERTEX
  8
0
 10
2200.000000
 20
1189.000000
 42
0.000000
  0
VERTEX
  8
0
 10
2200.000000
 20
1102.000000
 42
0.000000
  0
VERTEX
  8
0
 10
2200.000000
 20
1015.000000
 42
0.000000
  0
VERTEX
  8
0
 10
2311.000000
 20
1015.000000
 42
0.000000
  0
VERTEX
  8
0
 10
2422.000000
 20
1015.000000
 42
0.000000
  0
VERTEX
  8
0
 10
2422.000000
 20
992.000000
 42
0.000000
  0
VERTEX
  8
0
 10
2422.000000
 20
969.000000
 42
0.000000
  0
VERTEX
  8
0
 10
2311.000000
 20
969.000000
 42
0.000000
  0
VERTEX
  8
0
 10
2200.000000
 20
969.000000
 42
0.000000
  0
VERTEX
  8
0
 10
2200.000000
 20
876.500000
 42
0.000000
  0
VERTEX
  8
0
 10
2200.000000
 20
784.000000
 42
0.000000
  0
VERTEX
  8
0
 10
2337.000000
 20
784.000000
 42
0.000000
  0
VERTEX
  8
0
 10
2474.000000
 20
784.000000
 42
0.000000
  0
VERTEX
  8
0
 10
2474.000000
 20
760.500000
 42
0.000000
  0
VERTEX
  8
0
 10
2474.000000
 20
737.000000
 42
0.000000
  0
VERTEX
  8
0
 10
2312.000000
 20
737.000000
 42
0.000000
  0
VERTEX
  8
0
 10
2150.000000
 20
737.000000
 42
0.000000
  0
VERTEX
  8
0
 10
2150.000000
 20
987.000000
 42
0.000000
  0
VERTEX
  8
0
 10
2150.000000
 20
1237.000000
 42
0.000000
  0
VERTEX
  8
0
 10
2305.500000
 20
1237.000000
 42
0.000000
  0
VERTEX
  8
0
 10
2461.000000
 20
1237.000000
 42
0.000000
  0
SEQEND
  0
POLYLINE
  8
0
 66
1
 70
1
  0
VERTEX
  8
0
 10
2786.247826
 20
1010.750000
 42
0.000000
  0
VERTEX
  8
0
 10
2786.500000
 20
784.500000
 42
0.000000
  0
VERTEX
  8
0
 10
2918.250000
 20
784.246311
 42
0.000000
  0
VERTEX
  8
0
 10
3050.000000
 20
783.992621
 42
0.000000
  0
VERTEX
  8
0
 10
3050.000000
 20
760.496311
 42
0.000000
  0
VERTEX
  8
0
 10
3050.000000
 20
737.000000
 42
0.000000
  0
VERTEX
  8
0
 10
2893.000000
 20
737.000000
 42
0.000000
  0
VERTEX
  8
0
 10
2736.000000
 20
737.000000
 42
0.000000
  0
VERTEX
  8
0
 10
2736.000000
 20
987.000000
 42
0.000000
  0
VERTEX
  8
0
 10
2736.000000
 20
1237.000000
 42
0.000000
  0
VERTEX
  8
0
 10
2760.997826
 20
1237.000000
 42
0.000000
  0
VERTEX
  8
0
 10
2785.995652
 20
1237.000000
 42
0.000000
  0
SEQEND
  0
POLYLINE
  8
0
 66
1
 70
1
  0
VERTEX
  8
0
 10
3139.000000
 20
1236.609116
 42
-0.118321
  0
VERTEX
  8
0
 10
3138.927223
 20
1236.305880
 42
-0.000007
  0
VERTEX
  8
0
 10
3125.645570
 20
1210.230688
 42
-0.000277
  0
VERTEX
  8
0
 10
3110.969923
 20
1181.459173
 42
-0.000167
  0
VERTEX
  8
0
 10
3093.538109
 20
1147.359116
 42
0.000000
  0
VERTEX
  8
0
 10
3048.076219
 20
1058.500000
 42
0.000000
  0
VERTEX
  8
0
 10
3023.993357
 20
1058.232120
 42
-0.001264
  0
VERTEX
  8
0
 10
3008.961810
 20
1058.102914
 42
-0.017658
  0
VERTEX
  8
0
 10
3003.551586
 20
1058.261178
 42
-0.068685
  0
VERTEX
  8
0
 10
3001.190856
 20
1058.743929
 42
-0.450694
  0
VERTEX
  8
0
 10
3000.790339
 20
1059.732120
 42
0.007464
  0
VERTEX
  8
0
 10
3001.473999
 20
1061.158808
 42
0.000012
  0
VERTEX
  8
0
 10
3013.273295
 20
1086.757248
 42
0.000094
  0
VERTEX
  8
0
 10
3026.505893
 20
1115.481271
 42
0.000058
  0
VERTEX
  8
0
 10
3042.049980
 20
1149.250000
 42
0.000000
  0
VERTEX
  8
0
 10
3082.429775
 20
1237.000000
 42
0.000000
  0
VERTEX
  8
0
 10
3110.714887
 20
1237.000000
 42
-0.001295
  0
VERTEX
  8
0
 10
3121.560820
 20
1236.971911
 42
-0.002160
  0
VERTEX
  8
0
 10
3130.691248
 20
1236.885178
 42
-0.000188
  0
VERTEX
  8
0
 10
3138.841963
 20
1236.769473
 42
-0.409952
  0
SEQEND
  0
POLYLINE
  8
0
 66
1
 70
1
  0
VERTEX
  8
0
 10
3744.938080
 20
1016.250000
 42
0.000038
  0
VERTEX
  8
0
 10
3775.476104
 20
931.346854
 42
0.000061
  0
VERTEX
  8
0
 10
3801.426375
 20
859.243750
 42
0.000006
  0
VERTEX
  8
0
 10
3824.636333
 20
794.782131
 42
0.005789
  0
VERTEX
  8
0
 10
3825.767948
 20
791.750000
 42
0.026529
  0
VERTEX
  8
0
 10
3826.799373
 20
789.451612
 42
0.148581
  0
VERTEX
  8
0
 10
3827.727369
 20
788.494344
 42
0.114135
  0
VERTEX
  8
0
 10
3829.151539
 20
788.086925
 42
0.012837
  0
VERTEX
  8
0
 10
3832.536731
 20
788.000000
 42
0.000000
  0
VERTEX
  8
0
 10
3837.856302
 20
788.000000
 42
0.000000
  0
VERTEX
  8
0
 10
3839.826254
 20
793.250000
 42
-0.001383
  0
VERTEX
  8
0
 10
3845.630503
 20
808.589465
 42
-0.000004
  0
VERTEX
  8
0
 10
3924.719984
 20
1015.868856
 42
-0.000001
  0
VERTEX
  8
0
 10
4005.598500
 20
1227.830488
 42
-0.004022
  0
VERTEX
  8
0
 10
4007.709774
 20
1233.232672
 42
0.000000
  0
VERTEX
  8
0
 10
4009.217159
 20
1237.000000
 42
0.000000
  0
VERTEX
  8
0
 10
4036.225157
 20
1237.000000
 42
0.000000
  0
VERTEX
  8
0
 10
4063.233154
 20
1237.000000
 42
0.000000
  0
VERTEX
  8
0
 10
4062.746189
 20
1234.750000
 42
-0.039165
  0
VERTEX
  8
0
 10
4062.000893
 20
1232.265461
 42
-0.000002
  0
VERTEX
  8
0
 10
3970.173580
 20
995.321851
 42
-0.000026
  0
VERTEX
  8
0
 10
3883.196005
 20
770.929763
 42
-0.002946
  0
VERTEX
  8
0
 10
3871.488325
 20
741.250000
 42
0.000000
  0
VERTEX
  8
0
 10
3869.782841
 20
737.000000
 42
0.000000
  0
VERTEX
  8
0
 10
3830.985422
 20
737.000000
 42
0.000000
  0
VERTEX
  8
0
 10
3792.188004
 20
737.000000
 42
0.000000
  0
VERTEX
  8
0
 10
3790.705084
 20
741.250000
 42
0.003310
  0
VERTEX
  8
0
 10
3789.488881
 20
744.662797
 42
0.000004
  0
VERTEX
  8
0
 10
3763.481391
 20
816.141034
 42
0.000035
  0
VERTEX
  8
0
 10
3734.382025
 20
896.097375
 42
0.000022
  0
VERTEX
  8
0
 10
3700.111081
 20
990.230116
 42
-0.000126
  0
VERTEX
  8
0
 10
3665.942575
 20
1084.142077
 42
-0.000208
  0
VERTEX
  8
0
 10
3637.176380
 20
1163.370351
 42
-0.000005
  0
VERTEX
  8
0
 10
3611.142615
 20
1235.168403
 42
-0.087181
  0
VERTEX
  8
0
 10
3611.000000
 20
1235.980116
 42
-0.400318
  0
VERTEX
  8
0
 10
3611.462475
 20
1236.465182
 42
-0.002576
  0
VERTEX
  8
0
 10
3617.936717
 20
1236.740653
 42
-0.006838
  0
VERTEX
  8
0
 10
3626.362055
 20
1236.940316
 42
-0.002504
  0
VERTEX
  8
0
 10
3638.278712
 20
1237.000000
 42
0.000000
  0
VERTEX
  8
0
 10
3665.557424
 20
1237.000000
 42
0.000000
  0
SEQEND
  0
POLYLINE
  8
0
 66
1
 70
1
  0
VERTEX
  8
0
 10
4428.000000
 20
1213.000000
 42
0.000000
  0
VERTEX
  8
0
 10
4428.000000
 20
1189.000000
 42
0.000000
  0
VERTEX
  8
0
 10
4296.994477
 20
1189.000000
 42
0.000000
  0
VERTEX
  8
0
 10
4165.988954
 20
1189.000000
 42
0.000000
  0
VERTEX
  8
0
 10
4166.244477
 20
1102.250000
 42
0.000000
  0
VERTEX
  8
0
 10
4166.500000
 20
1015.500000
 42
0.000000
  0
VERTEX
  8
0
 10
4277.750000
 20
1015.245653
 42
0.000000
  0
VERTEX
  8
0
 10
4389.000000
 20
1014.991306
 42
0.000000
  0
VERTEX
  8
0
 10
4389.000000
 20
992.000000
 42
0.000000
  0
VERTEX
  8
0
 10
4389.000000
 20
969.008694
 42
0.000000
  0
VERTEX
  8
0
 10
4277.750000
 20
968.754347
 42
0.000000
  0
VERTEX
  8
0
 10
4166.500000
 20
968.500000
 42
0.000000
  0
VERTEX
  8
0
 10
4166.500000
 20
876.500000
 42
0.000000
  0
VERTEX
  8
0
 10
4166.500000
 20
784.500000
 42
0.000000
  0
VERTEX
  8
0
 10
4303.750000
 20
784.246454
 42
0.000000
  0
VERTEX
  8
0
 10
4441.000000
 20
783.992909
 42
0.000000
  0
VERTEX
  8
0
 10
4441.000000
 20
760.496454
 42
0.000000
  0
VERTEX
  8
0
 10
4441.000000
 20
737.000000
 42
0.000000
  0
VERTEX
  8
0
 10
4278.500000
 20
737.000000
 42
0.000000
  0
VERTEX
  8
0
 10
4116.000000
 20
737.000000
 42
0.000000
  0
VERTEX
  8
0
 10
4116.000000
 20
987.000000
 42
0.000000
  0
VERTEX
  8
0
 10
4116.000000
 20
1237.000000
 42
0.000000
  0
VERTEX
  8
0
 10
4272.000000
 20
1237.000000
 42
0.000000
  0
VERTEX
  8
0
 10
4428.000000
 20
1237.000000
 42
0.000000
  0
SEQEND
  0
POLYLINE
  8
0
 66
1
 70
1
  0
VERTEX
  8
0
 10
4769.568208
 20
1013.507943
 42
0.000246
  0
VERTEX
  8
0
 10
4822.703545
 20
927.979577
 42
0.000408
  0
VERTEX
  8
0
 10
4867.602103
 20
855.919769
 42
0.000011
  0
VERTEX
  8
0
 10
4908.321102
 20
790.689649
 42
0.174483
  0
VERTEX
  8
0
 10
4908.973965
 20
790.175345
 42
0.510057
  0
VERTEX
  8
0
 10
4909.491642
 20
790.546149
 42
0.000048
  0
VERTEX
  8
0
 10
4909.806591
 20
844.777491
 42
0.000863
  0
VERTEX
  8
0
 10
4910.077829
 20
912.832677
 42
0.000282
  0
VERTEX
  8
0
 10
4910.247795
 20
1013.167402
 42
0.000000
  0
VERTEX
  8
0
 10
4910.500000
 20
1236.500000
 42
0.000000
  0
VERTEX
  8
0
 10
4934.750000
 20
1236.767779
 42
0.000000
  0
VERTEX
  8
0
 10
4959.000000
 20
1237.035557
 42
0.000000
  0
VERTEX
  8
0
 10
4959.000000
 20
987.017779
 42
0.000000
  0
VERTEX
  8
0
 10
4959.000000
 20
737.000000
 42
0.000000
  0
VERTEX
  8
0
 10
4921.230579
 20
737.000000
 42
0.000000
  0
VERTEX
  8
0
 10
4883.461157
 20
737.000000
 42
0.000000
  0
VERTEX
  8
0
 10
4743.938029
 20
961.680850
 42
0.000288
  0
VERTEX
  8
0
 10
4690.352875
 20
1047.860766
 42
0.000478
  0
VERTEX
  8
0
 10
4645.045131
 20
1120.479930
 42
0.000014
  0
VERTEX
  8
0
 10
4603.978621
 20
1186.157152
 42
0.174288
  0
VERTEX
  8
0
 10
4603.207450
 20
1186.764183
 42
0.510072
  0
VERTEX
  8
0
 10
4602.508918
 20
1186.263811
 42
0.000121
  0
VERTEX
  8
0
 10
4602.250894
 20
1140.313351
 42
0.001121
  0
VERTEX
  8
0
 10
4602.050841
 20
1076.431838
 42
0.000222
  0
VERTEX
  8
0
 10
4602.000000
 20
962.083333
 42
0.000000
  0
VERTEX
  8
0
 10
4602.000000
 20
737.000000
 42
0.000000
  0
VERTEX
  8
0
 10
4578.000000
 20
737.000000
 42
0.000000
  0
VERTEX
  8
0
 10
4554.000000
 20
737.000000
 42
0.000000
  0
VERTEX
  8
0
 10
4554.000000
 20
987.011743
 42
0.000000
  0
VERTEX
  8
0
 10
4554.000000
 20
1237.023487
 42
0.000000
  0
VERTEX
  8
0
 10
4592.592038
 20
1236.761743
 42
0.000000
  0
VERTEX
  8
0
 10
4631.184077
 20
1236.500000
 42
0.000000
  0
SEQEND
  0
POLYLINE
  8
0
 66
1
 70
1
  0
VERTEX
  8
0
 10
5146.000000
 20
987.000000
 42
0.000000
  0
VERTEX
  8
0
 10
5146.000000
 20
737.000000
 42
0.000000
  0
VERTEX
  8
0
 10
5120.500000
 20
737.000000
 42
0.000000
  0
VERTEX
  8
0
 10
5095.000000
 20
737.000000
 42
0.000000
  0
VERTEX
  8
0
 10
5095.000000
 20
987.000000
 42
0.000000
  0
VERTEX
  8
0
 10
5095.000000
 20
1237.000000
 42
0.000000
  0
VERTEX
  8
0
 10
5120.500000
 20
1237.000000
 42
0.000000
  0
VERTEX
  8
0
 10
5146.000000
 20
1237.000000
 42
0.000000
  0
SEQEND
  0
POLYLINE
  8
0
 66
1
 70
1
  0
VERTEX
  8
0
 10
3467.000000
 20
901.000000
 42
0.000000
  0
VERTEX
  8
0
 10
3467.000000
 20
878.000000
 42
0.000000
  0
VERTEX
  8
0
 10
3378.500000
 20
878.000000
 42
0.000000
  0
VERTEX
  8
0
 10
3290.000000
 20
878.000000
 42
0.000000
  0
VERTEX
  8
0
 10
3290.000000
 20
901.000000
 42
0.000000
  0
VERTEX
  8
0
 10
3290.000000
 20
924.000000
 42
0.000000
  0
VERTEX
  8
0
 10
3378.500000
 20
924.000000
 42
0.000000
  0
VERTEX
  8
0
 10
3467.000000
 20
924.000000
 42
0.000000
  0
SEQEND
  0
POLYLINE
  8
0
 66
1
 70
1
  0
VERTEX
  8
0
 10
1496.000000
 20
3748.879181
 42
0.026998
  0
VERTEX
  8
0
 10
1478.658898
 20
3746.887092
 42
0.037551
  0
VERTEX
  8
0
 10
1463.495006
 20
3743.121151
 42
0.040517
  0
VERTEX
  8
0
 10
1449.996883
 20
3737.422522
 42
0.041063
  0
VERTEX
  8
0
 10
1437.658565
 20
3729.643145
 42
0.053005
  0
VERTEX
  8
0
 10
1429.051469
 20
3721.616119
 42
0.042694
  0
VERTEX
  8
0
 10
1421.604329
 20
3711.380880
 42
0.036135
  0
VERTEX
  8
0
 10
1414.989386
 20
3698.404570
 42
0.021113
  0
VERTEX
  8
0
 10
1408.887045
 20
3682.042300
 42
0.022401
  0
VERTEX
  8
0
 10
1403.498409
 20
3662.568635
 42
0.022022
  0
VERTEX
  8
0
 10
1399.837827
 20
3642.580185
 42
0.018738
  0
VERTEX
  8
0
 10
1397.546328
 20
3619.653871
 42
0.009814
  0
VERTEX
  8
0
 10
1396.327203
 20
3591.000000
 42
0.020070
  0
VERTEX
  8
0
 10
1397.283720
 20
3535.528634
 42
0.040006
  0
VERTEX
  8
0
 10
1403.291956
 20
3492.058983
 42
0.052184
  0
VERTEX
  8
0
 10
1414.170662
 20
3459.405286
 42
0.103524
  0
VERTEX
  8
0
 10
1430.222820
 20
3437.489574
 42
0.045307
  0
VERTEX
  8
0
 10
1439.465782
 20
3430.582497
 42
0.031756
  0
VERTEX
  8
0
 10
1450.953938
 20
3424.488537
 42
0.030494
  0
VERTEX
  8
0
 10
1463.716809
 20
3419.637093
 42
0.031778
  0
VERTEX
  8
0
 10
1476.801685
 20
3416.452348
 42
0.030028
  0
VERTEX
  8
0
 10
1486.187134
 20
3415.366553
 42
0.011389
  0
VERTEX
  8
0
 10
1499.374750
 20
3414.939633
 42
0.011535
  0
VERTEX
  8
0
 10
1512.809542
 20
3415.120816
 42
0.024316
  0
VERTEX
  8
0
 10
1523.196829
 20
3416.007705
 42
0.029215
  0
VERTEX
  8
0
 10
1537.848790
 20
3418.859157
 42
0.032292
  0
VERTEX
  8
0
 10
1551.572777
 20
3423.333901
 42
0.034189
  0
VERTEX
  8
0
 10
1563.835544
 20
3429.228722
 42
0.044102
  0
VERTEX
  8
0
 10
1574.112338
 20
3436.328967
 42
0.082731
  0
VERTEX
  8
0
 10
1586.608578
 20
3450.780383
 42
0.045204
  0
VERTEX
  8
0
 10
1596.986816
 20
3471.857809
 42
0.037808
  0
VERTEX
  8
0
 10
1605.062135
 20
3498.760243
 42
0.024077
  0
VERTEX
  8
0
 10
1610.526300
 20
3531.000000
 42
0.019295
  0
VERTEX
  8
0
 10
1611.932338
 20
3548.286038
 42
0.006336
  0
VERTEX
  8
0
 10
1612.695827
 20
3573.809215
 42
0.006529
  0
VERTEX
  8
0
 10
1612.806341
 20
3600.279019
 42
0.012523
  0
VERTEX
  8
0
 10
1612.086080
 20
3621.500000
 42
0.023271
  0
VERTEX
  8
0
 10
1607.044749
 20
3669.105233
 42
0.059734
  0
VERTEX
  8
0
 10
1597.778307
 20
3702.410449
 42
0.084908
  0
VERTEX
  8
0
 10
1583.472199
 20
3725.223959
 42
0.103208
  0
VERTEX
  8
0
 10
1563.209262
 20
3740.172460
 42
0.048201
  0
VERTEX
  8
0
 10
1550.204112
 20
3744.679210
 42
0.027114
  0
VERTEX
  8
0
 10
1533.757135
 20
3747.723807
 42
0.025017
  0
VERTEX
  8
0
 10
1515.269597
 20
3749.183757
 42
0.022297
  0
SEQEND
  0
POLYLINE
  8
0
 66
1
 70
1
  0
VERTEX
  8
0
 10
2785.000000
 20
3748.860610
 42
0.035583
  0
VERTEX
  8
0
 10
2764.527190
 20
3746.101930
 42
0.045377
  0
VERTEX
  8
0
 10
2746.315851
 20
3740.552812
 42
0.049772
  0
VERTEX
  8
0
 10
2730.859554
 20
3732.389374
 42
0.062548
  0
VERTEX
  8
0
 10
2718.590760
 20
3721.837163
 42
0.057427
  0
VERTEX
  8
0
 10
2710.963935
 20
3711.172329
 42
0.026201
  0
VERTEX
  8
0
 10
2703.446066
 20
3695.754828
 42
0.024730
  0
VERTEX
  8
0
 10
2696.887656
 20
3677.890894
 42
0.024869
  0
VERTEX
  8
0
 10
2692.139210
 20
3659.500000
 42
0.033732
  0
VERTEX
  8
0
 10
2687.213577
 20
3623.373907
 42
0.016843
  0
VERTEX
  8
0
 10
2685.626432
 20
3577.238267
 42
0.016844
  0
VERTEX
  8
0
 10
2687.149140
 20
3531.082908
 42
0.033605
  0
VERTEX
  8
0
 10
2692.023112
 20
3494.886587
 42
0.033713
  0
VERTEX
  8
0
 10
2698.718725
 20
3470.545430
 42
0.059112
  0
VERTEX
  8
0
 10
2707.867378
 20
3451.794365
 42
0.067890
  0
VERTEX
  8
0
 10
2720.098802
 20
3437.494082
 42
0.063120
  0
VERTEX
  8
0
 10
2736.000000
 20
3426.578709
 42
0.030811
  0
VERTEX
  8
0
 10
2748.385649
 20
3421.137995
 42
0.035332
  0
VERTEX
  8
0
 10
2760.798278
 20
3417.546324
 42
0.032571
  0
VERTEX
  8
0
 10
2774.418720
 20
3415.544737
 42
0.020482
  0
VERTEX
  8
0
 10
2790.500000
 20
3414.903814
 42
0.039364
  0
VERTEX
  8
0
 10
2819.478490
 20
3417.221561
 42
0.060999
  0
VERTEX
  8
0
 10
2843.565875
 20
3424.157063
 42
0.070801
  0
VERTEX
  8
0
 10
2862.585979
 20
3435.650580
 42
0.082313
  0
VERTEX
  8
0
 10
2876.532987
 20
3451.500837
 42
0.062999
  0
VERTEX
  8
0
 10
2889.068107
 20
3478.723465
 42
0.035780
  0
VERTEX
  8
0
 10
2897.496021
 20
3514.054963
 42
0.030322
  0
VERTEX
  8
0
 10
2901.870704
 20
3556.791928
 42
0.019431
  0
VERTEX
  8
0
 10
2901.996722
 20
3606.689810
 42
0.016274
  0
VERTEX
  8
0
 10
2898.793411
 20
3653.123583
 42
0.040402
  0
VERTEX
  8
0
 10
2892.624016
 20
3686.611659
 42
0.056031
  0
VERTEX
  8
0
 10
2882.960513
 20
3711.169583
 42
0.084466
  0
VERTEX
  8
0
 10
2868.976437
 20
3729.361330
 42
0.079504
  0
VERTEX
  8
0
 10
2854.462926
 20
3739.041710
 42
0.050392
  0
VERTEX
  8
0
 10
2835.179000
 20
3745.622273
 42
0.043194
  0
VERTEX
  8
0
 10
2811.811416
 20
3748.958707
 42
0.029582
  0
SEQEND
  0
POLYLINE
  8
0
 66
1
 70
1
  0
VERTEX
  8
0
 10
4654.996594
 20
3748.876347
 42
0.038481
  0
VERTEX
  8
0
 10
4633.228476
 20
3745.990054
 42
0.048487
  0
VERTEX
  8
0
 10
4613.852730
 20
3739.876342
 42
0.053567
  0
VERTEX
  8
0
 10
4597.697832
 20
3730.848912
 42
0.071247
  0
VERTEX
  8
0
 10
4585.505881
 20
3719.287401
 42
0.057433
  0
VERTEX
  8
0
 10
4576.297468
 20
3704.433254
 42
0.030267
  0
VERTEX
  8
0
 10
4568.242419
 20
3684.247532
 42
0.027194
  0
VERTEX
  8
0
 10
4561.756642
 20
3660.329020
 42
0.021764
  0
VERTEX
  8
0
 10
4557.321134
 20
3634.000000
 42
0.025085
  0
VERTEX
  8
0
 10
4555.782733
 20
3613.026012
 42
0.005787
  0
VERTEX
  8
0
 10
4555.375629
 20
3577.577174
 42
0.005863
  0
VERTEX
  8
0
 10
4555.795241
 20
3542.067095
 42
0.023786
  0
VERTEX
  8
0
 10
4557.331345
 20
3520.500000
 42
0.025500
  0
VERTEX
  8
0
 10
4562.906673
 20
3487.953052
 42
0.050762
  0
VERTEX
  8
0
 10
4571.174746
 20
3463.176064
 42
0.063985
  0
VERTEX
  8
0
 10
4582.604822
 20
3444.587998
 42
0.078426
  0
VERTEX
  8
0
 10
4597.709582
 20
3430.929608
 42
0.048007
  0
VERTEX
  8
0
 10
4612.958030
 20
3422.939038
 42
0.043282
  0
VERTEX
  8
0
 10
4629.985497
 20
3417.667496
 42
0.039582
  0
VERTEX
  8
0
 10
4649.079961
 20
3415.081755
 42
0.028803
  0
VERTEX
  8
0
 10
4670.519909
 20
3415.127052
 42
0.026845
  0
VERTEX
  8
0
 10
4689.159455
 20
3417.249475
 42
0.038590
  0
VERTEX
  8
0
 10
4705.272383
 20
3421.264315
 42
0.042529
  0
VERTEX
  8
0
 10
4719.312115
 20
3427.305495
 42
0.046139
  0
VERTEX
  8
0
 10
4731.722915
 20
3435.500000
 42
0.030622
  0
VERTEX
  8
0
 10
4737.407483
 20
3440.659329
 42
0.033251
  0
VERTEX
  8
0
 10
4742.253298
 20
3446.341845
 42
0.030161
  0
VERTEX
  8
0
 10
4746.668240
 20
3453.090615
 42
0.018605
  0
VERTEX
  8
0
 10
4751.065528
 20
3461.500000
 42
0.046575
  0
VERTEX
  8
0
 10
4761.510723
 20
3489.980860
 42
0.030928
  0
VERTEX
  8
0
 10
4768.312964
 20
3524.134119
 42
0.026820
  0
VERTEX
  8
0
 10
4771.554399
 20
3563.998115
 42
0.017869
  0
VERTEX
  8
0
 10
4771.177304
 20
3609.836803
 42
0.013962
  0
VERTEX
  8
0
 10
4768.199349
 20
3651.193912
 42
0.032813
  0
VERTEX
  8
0
 10
4763.103980
 20
3681.717826
 42
0.044143
  0
VERTEX
  8
0
 10
4755.478116
 20
3704.788656
 42
0.069481
  0
VERTEX
  8
0
 10
4744.657248
 20
3722.589243
 42
0.085436
  0
VERTEX
  8
0
 10
4729.835053
 20
3735.469038
 42
0.065028
  0
VERTEX
  8
0
 10
4710.115404
 20
3744.158812
 42
0.053612
  0
VERTEX
  8
0
 10
4685.252663
 20
3748.633538
 42
0.031473
  0
SEQEND
  0
POLYLINE
  8
0
 66
1
 70
1
  0
VERTEX
  8
0
 10
1107.000000
 20
3662.998329
 42
0.000000
  0
VERTEX
  8
0
 10
1107.000000
 20
3577.795444
 42
0.000000
  0
VERTEX
  8
0
 10
1147.250000
 20
3578.295626
 42
0.004992
  0
VERTEX
  8
0
 10
1178.768357
 20
3579.002057
 42
0.025911
  0
VERTEX
  8
0
 10
1196.109422
 20
3580.465696
 42
0.044637
  0
VERTEX
  8
0
 10
1208.438652
 20
3583.290528
 42
0.042237
  0
VERTEX
  8
0
 10
1220.312590
 20
3588.294912
 42
0.125082
  0
VERTEX
  8
0
 10
1233.782809
 20
3600.402247
 42
0.065687
  0
VERTEX
  8
0
 10
1243.816001
 20
3620.725799
 42
0.054744
  0
VERTEX
  8
0
 10
1249.668614
 20
3647.144904
 42
0.038877
  0
VERTEX
  8
0
 10
1250.607336
 20
3677.500000
 42
0.042766
  0
VERTEX
  8
0
 10
1246.914455
 20
3705.253904
 42
0.091020
  0
VERTEX
  8
0
 10
1238.525191
 20
3725.135062
 42
0.111656
  0
VERTEX
  8
0
 10
1224.968297
 20
3738.216797
 42
0.088530
  0
VERTEX
  8
0
 10
1205.927481
 20
3745.570782
 42
0.028715
  0
VERTEX
  8
0
 10
1199.587767
 20
3746.429040
 42
0.009352
  0
VERTEX
  8
0
 10
1190.153850
 20
3746.981012
 42
0.005821
  0
VERTEX
  8
0
 10
1175.963132
 20
3747.379852
 42
0.001373
  0
VERTEX
  8
0
 10
1152.250000
 20
3747.705011
 42
0.000000
  0
VERTEX
  8
0
 10
1107.000000
 20
3748.201214
 42
0.000000
  0
SEQEND
  0
POLYLINE
  8
0
 66
1
 70
1
  0
VERTEX
  8
0
 10
3074.000000
 20
3668.587002
 42
0.000000
  0
VERTEX
  8
0
 10
3074.000000
 20
3589.000000
 42
0.000000
  0
VERTEX
  8
0
 10
3106.250000
 20
3589.000836
 42
0.009160
  0
VERTEX
  8
0
 10
3143.831560
 20
3589.690378
 42
0.039298
  0
VERTEX
  8
0
 10
3166.061770
 20
3592.263175
 42
0.068000
  0
VERTEX
  8
0
 10
3180.862265
 20
3597.325570
 42
0.091064
  0
VERTEX
  8
0
 10
3192.158678
 20
3605.859550
 42
0.041099
  0
VERTEX
  8
0
 10
3199.170043
 20
3614.893019
 42
0.040707
  0
VERTEX
  8
0
 10
3204.634806
 20
3624.979736
 42
0.037672
  0
VERTEX
  8
0
 10
3208.716519
 20
3636.524807
 42
0.026867
  0
VERTEX
  8
0
 10
3211.586843
 20
3649.938827
 42
0.031723
  0
VERTEX
  8
0
 10
3212.688517
 20
3661.667441
 42
0.012313
  0
VERTEX
  8
0
 10
3212.780000
 20
3677.982284
 42
0.011962
  0
VERTEX
  8
0
 10
3212.090354
 20
3694.032903
 42
0.039985
  0
VERTEX
  8
0
 10
3210.550073
 20
3704.450460
 42
0.048420
  0
VERTEX
  8
0
 10
3206.667323
 20
3716.031845
 42
0.049098
  0
VERTEX
  8
0
 10
3200.643561
 20
3726.592607
 42
0.051953
  0
VERTEX
  8
0
 10
3193.087147
 20
3735.203046
 42
0.072687
  0
VERTEX
  8
0
 10
3184.658678
 20
3740.988738
 42
0.043116
  0
VERTEX
  8
0
 10
3175.546890
 20
3744.525738
 42
0.045389
  0
VERTEX
  8
0
 10
3166.118801
 20
3746.372020
 42
0.020814
  0
VERTEX
  8
0
 10
3151.718632
 20
3747.252165
 42
0.002390
  0
VERTEX
  8
0
 10
3119.250000
 20
3747.727655
 42
0.000000
  0
VERTEX
  8
0
 10
3074.000000
 20
3748.174004
 42
0.000000
  0
SEQEND
  0
POLYLINE
  8
0
 66
1
 70
1
  0
VERTEX
  8
0
 10
3913.747523
 20
3740.250000
 42
-0.006015
  0
VERTEX
  8
0
 10
3912.280612
 20
3735.201561
 42
-0.000010
  0
VERTEX
  8
0
 10
3885.313989
 20
3646.402359
 42
-0.000004
  0
VERTEX
  8
0
 10
3857.881971
 20
3556.079206
 42
-0.016708
  0
VERTEX
  8
0
 10
3857.258941
 20
3554.250000
 42
0.515634
  0
VERTEX
  8
0
 10
3857.737647
 20
3553.535752
 42
0.001935
  0
VERTEX
  8
0
 10
3869.358613
 20
3553.253153
 42
0.004322
  0
VERTEX
  8
0
 10
3886.555464
 20
3553.050228
 42
0.000789
  0
VERTEX
  8
0
 10
3918.393011
 20
3553.000000
 42
0.000829
  0
VERTEX
  8
0
 10
3942.016250
 20
3553.039151
 42
0.001382
  0
VERTEX
  8
0
 10
3961.902947
 20
3553.160044
 42
0.000077
  0
VERTEX
  8
0
 10
3979.778091
 20
3553.320881
 42
0.411536
  0
VERTEX
  8
0
 10
3980.000000
 20
3553.544830
 42
0.070064
  0
VERTEX
  8
0
 10
3979.938424
 20
3553.982100
 42
0.000008
  0
VERTEX
  8
0
 10
3972.068750
 20
3581.368904
 42
0.000241
  0
VERTEX
  8
0
 10
3963.352636
 20
3611.644405
 42
0.000146
  0
VERTEX
  8
0
 10
3953.000000
 20
3647.500000
 42
-0.000146
  0
VERTEX
  8
0
 10
3942.647364
 20
3683.355595
 42
-0.000241
  0
VERTEX
  8
0
 10
3933.931250
 20
3713.631096
 42
-0.000008
  0
VERTEX
  8
0
 10
3926.061576
 20
3741.017900
 42
-0.070064
  0
VERTEX
  8
0
 10
3926.000000
 20
3741.455170
 42
0.378194
  0
VERTEX
  8
0
 10
3925.807980
 20
3741.672724
 42
0.008046
  0
VERTEX
  8
0
 10
3924.271760
 20
3741.839956
 42
0.014400
  0
VERTEX
  8
0
 10
3922.372433
 20
3741.960808
 42
0.008686
  0
VERTEX
  8
0
 10
3920.116631
 20
3742.000000
 42
0.011488
  0
VERTEX
  8
0
 10
3917.027840
 20
3741.929021
 42
0.055606
  0
VERTEX
  8
0
 10
3915.297375
 20
3741.654997
 42
0.112022
  0
VERTEX
  8
0
 10
3914.297291
 20
3741.119945
 42
0.147474
  0
SEQEND
  0
POLYLINE
  8
0
 66
1
 70
1
  0
VERTEX
  8
0
 10
3981.190600
 20
3041.975021
 42
0.027166
  0
VERTEX
  8
0
 10
3974.338564
 20
3039.776096
 42
0.038745
  0
VERTEX
  8
0
 10
3968.566301
 20
3037.042366
 42
0.041048
  0
VERTEX
  8
0
 10
3963.540588
 20
3033.590769
 42
0.036636
  0
VERTEX
  8
0
 10
3958.937055
 20
3029.240750
 42
0.072822
  0
VERTEX
  8
0
 10
3951.477672
 20
3018.221405
 42
0.057368
  0
VERTEX
  8
0
 10
3946.733547
 20
3004.597123
 42
0.053791
  0
VERTEX
  8
0
 10
3945.003918
 20
2989.354809
 42
0.048679
  0
VERTEX
  8
0
 10
3946.457675
 20
2973.557355
 42
0.101102
  0
VERTEX
  8
0
 10
3953.390452
 20
2956.718670
 42
0.105565
  0
VERTEX
  8
0
 10
3966.290393
 20
2944.251009
 42
0.069428
  0
VERTEX
  8
0
 10
3987.731647
 20
2934.691994
 42
0.021746
  0
VERTEX
  8
0
 10
4022.000000
 20
2926.405482
 42
0.000000
  0
VERTEX
  8
0
 10
4029.500000
 20
2924.933715
 42
0.000000
  0
VERTEX
  8
0
 10
4033.817530
 20
2929.716857
 42
0.024319
  0
VERTEX
  8
0
 10
4038.063720
 20
2934.907463
 42
0.010822
  0
VERTEX
  8
0
 10
4043.167349
 20
2942.126588
 42
0.010860
  0
VERTEX
  8
0
 10
4048.009153
 20
2949.647011
 42
0.021527
  0
VERTEX
  8
0
 10
4051.454212
 20
2955.845886
 42
0.032869
  0
VERTEX
  8
0
 10
4054.519784
 20
2963.127279
 42
0.032569
  0
VERTEX
  8
0
 10
4056.615655
 20
2970.769711
 42
0.029731
  0
VERTEX
  8
0
 10
4057.835047
 20
2979.232638
 42
0.019949
  0
VERTEX
  8
0
 10
4058.262780
 20
2989.000000
 42
0.052635
  0
VERTEX
  8
0
 10
4056.141566
 20
3009.867602
 42
0.096964
  0
VERTEX
  8
0
 10
4049.524361
 20
3025.527440
 42
0.110081
  0
VERTEX
  8
0
 10
4038.194199
 20
3036.261572
 42
0.082752
  0
VERTEX
  8
0
 10
4022.163082
 20
3042.553051
 42
0.038979
  0
VERTEX
  8
0
 10
4013.289118
 20
3043.721673
 42
0.016783
  0
VERTEX
  8
0
 10
4001.347034
 20
3043.954047
 42
0.016644
  0
VERTEX
  8
0
 10
3989.533333
 20
3043.393758
 42
0.043913
  0
SEQEND
  0
POLYLINE
  8
0
 66
1
 70
1
  0
VERTEX
  8
0
 10
3963.817455
 20
2903.250000
 42
0.035121
  0
VERTEX
  8
0
 10
3958.292300
 20
2897.190266
 42
0.016790
  0
VERTEX
  8
0
 10
3952.034177
 20
2888.705439
 42
0.016792
  0
VERTEX
  8
0
 10
3946.357204
 20
2879.816110
 42
0.034973
  0
VERTEX
  8
0
 10
3942.673924
 20
2872.471507
 42
0.048611
  0
VERTEX
  8
0
 10
3939.320975
 20
2861.546492
 42
0.029388
  0
VERTEX
  8
0
 10
3937.405389
 20
2848.135267
 42
0.029198
  0
VERTEX
  8
0
 10
3937.065827
 20
2834.410198
 42
0.043576
  0
VERTEX
  8
0
 10
3938.510922
 20
2822.500000
 42
0.052571
  0
VERTEX
  8
0
 10
3941.923214
 20
2811.952332
 42
0.051302
  0
VERTEX
  8
0
 10
3947.481344
 20
2802.254882
 42
0.053129
  0
VERTEX
  8
0
 10
3954.668475
 20
2794.209574
 42
0.066723
  0
VERTEX
  8
0
 10
3962.899548
 20
2788.550903
 42
0.033425
  0
VERTEX
  8
0
 10
3970.761750
 20
2785.206418
 42
0.038847
  0
VERTEX
  8
0
 10
3978.617734
 20
2783.135724
 42
0.031629
  0
VERTEX
  8
0
 10
3987.926643
 20
2782.043202
 42
0.013399
  0
VERTEX
  8
0
 10
4000.500000
 20
2781.706209
 42
0.004645
  0
VERTEX
  8
0
 10
4009.835436
 20
2781.792940
 42
0.016687
  0
VERTEX
  8
0
 10
4015.785480
 20
2782.102331
 42
0.023972
  0
VERTEX
  8
0
 10
4020.483323
 20
2782.732081
 42
0.021008
  0
VERTEX
  8
0
 10
4025.313952
 20
2783.828549
 42
0.027160
  0
VERTEX
  8
0
 10
4032.963108
 20
2786.359306
 42
0.035782
  0
VERTEX
  8
0
 10
4039.592060
 20
2789.523581
 42
0.038080
  0
VERTEX
  8
0
 10
4045.363910
 20
2793.413395
 42
0.038709
  0
VERTEX
  8
0
 10
4050.445172
 20
2798.114122
 42
0.049438
  0
VERTEX
  8
0
 10
4057.006736
 20
2806.779467
 42
0.058655
  0
VERTEX
  8
0
 10
4061.304084
 20
2816.097098
 42
0.051553
  0
VERTEX
  8
0
 10
4063.674330
 20
2827.112619
 42
0.027740
  0
VERTEX
  8
0
 10
4064.417476
 20
2841.000000
 42
0.024465
  0
VERTEX
  8
0
 10
4063.741161
 20
2854.269312
 42
0.048147
  0
VERTEX
  8
0
 10
4061.685261
 20
2864.620473
 42
0.058818
  0
VERTEX
  8
0
 10
4058.073698
 20
2872.934906
 42
0.063370
  0
VERTEX
  8
0
 10
4052.696993
 20
2879.951331
 42
0.063450
  0
VERTEX
  8
0
 10
4043.008183
 20
2887.527554
 42
0.043315
  0
VERTEX
  8
0
 10
4030.408870
 20
2893.618914
 42
0.027795
  0
VERTEX
  8
0
 10
4012.136412
 20
2899.435500
 42
0.007874
  0
VERTEX
  8
0
 10
3983.115611
 20
2906.440906
 42
0.001646
  0
VERTEX
  8
0
 10
3978.685012
 20
2907.421546
 42
0.002448
  0
VERTEX
  8
0
 10
3974.799305
 20
2908.248266
 42
0.001061
  0
VERTEX
  8
0
 10
3971.474549
 20
2908.931284
 42
0.050165
  0
VERTEX
  8
0
 10
3970.791373
 20
2909.000000
 42
0.167691
  0
VERTEX
  8
0
 10
3970.204562
 20
2908.797500
 42
0.006231
  0
VERTEX
  8
0
 10
3968.355098
 20
2907.310937
 42
0.010698
  0
VERTEX
  8
0
 10
3966.197734
 20
2905.453251
 42
0.007251
  0
SEQEND
  0
POLYLINE
  8
0
 66
1
 70
1
  0
VERTEX
  8
0
 10
4369.000000
 20
3042.433401
 42
0.051304
  0
VERTEX
  8
0
 10
4358.785034
 20
3039.096052
 42
0.060251
  0
VERTEX
  8
0
 10
4350.047000
 20
3033.874182
 42
0.060954
  0
VERTEX
  8
0
 10
4342.884618
 20
3026.777806
 42
0.054446
  0
VERTEX
  8
0
 10
4337.325617
 20
3017.900897
 42
0.026611
  0
VERTEX
  8
0
 10
4334.440176
 20
3011.028138
 42
0.038149
  0
VERTEX
  8
0
 10
4332.691264
 20
3004.659802
 42
0.033359
  0
VERTEX
  8
0
 10
4331.789791
 20
2997.489359
 42
0.015006
  0
VERTEX
  8
0
 10
4331.520574
 20
2988.000000
 42
0.082289
  0
VERTEX
  8
0
 10
4335.447728
 20
2964.539107
 42
0.137804
  0
VERTEX
  8
0
 10
4346.725497
 20
2948.193193
 42
0.096824
  0
VERTEX
  8
0
 10
4368.122473
 20
2936.506130
 42
0.027651
  0
VERTEX
  8
0
 10
4404.930189
 20
2927.045249
 42
0.000000
  0
VERTEX
  8
0
 10
4415.360377
 20
2924.971081
 42
0.000000
  0
VERTEX
  8
0
 10
4418.167320
 20
2927.660303
 42
0.040162
  0
VERTEX
  8
0
 10
4422.021481
 20
2931.997184
 42
0.010072
  0
VERTEX
  8
0
 10
4427.571358
 20
2939.671513
 42
0.010774
  0
VERTEX
  8
0
 10
4432.980483
 20
2947.848520
 42
0.023744
  0
VERTEX
  8
0
 10
4436.671448
 20
2954.364349
 42
0.027799
  0
VERTEX
  8
0
 10
4440.265661
 20
2962.581477
 42
0.035776
  0
VERTEX
  8
0
 10
4442.584615
 20
2970.490032
 42
0.033218
  0
VERTEX
  8
0
 10
4443.862389
 20
2979.102203
 42
0.019578
  0
VERTEX
  8
0
 10
4444.296550
 20
2989.500000
 42
0.052830
  0
VERTEX
  8
0
 10
4442.165007
 20
3010.124677
 42
0.096758
  0
VERTEX
  8
0
 10
4435.584519
 20
3025.625814
 42
0.109722
  0
VERTEX
  8
0
 10
4424.348796
 20
3036.258970
 42
0.082825
  0
VERTEX
  8
0
 10
4408.482555
 20
3042.486208
 42
0.038539
  0
VERTEX
  8
0
 10
4400.349000
 20
3043.563612
 42
0.014000
  0
VERTEX
  8
0
 10
4388.709588
 20
3043.873991
 42
0.013981
  0
VERTEX
  8
0
 10
4377.081446
 20
3043.533211
 42
0.039020
  0
SEQEND
  0
POLYLINE
  8
0
 66
1
 70
1
  0
VERTEX
  8
0
 10
4348.985116
 20
2902.250000
 42
0.019838
  0
VERTEX
  8
0
 10
4343.444439
 20
2896.106033
 42
0.021209
  0
VERTEX
  8
0
 10
4338.536854
 20
2889.673555
 42
0.021348
  0
VERTEX
  8
0
 10
4334.220376
 20
2882.889032
 42
0.020689
  0
VERTEX
  8
0
 10
4330.449504
 20
2875.691087
 42
0.022638
  0
VERTEX
  8
0
 10
4326.896107
 20
2867.190219
 42
0.039755
  0
VERTEX
  8
0
 10
4324.855921
 20
2859.852579
 42
0.034562
  0
VERTEX
  8
0
 10
4323.840485
 20
2851.613598
 42
0.013037
  0
VERTEX
  8
0
 10
4323.521497
 20
2840.000000
 42
0.004920
  0
VERTEX
  8
0
 10
4323.594865
 20
2831.321107
 42
0.019685
  0
VERTEX
  8
0
 10
4323.901063
 20
2826.016514
 42
0.028974
  0
VERTEX
  8
0
 10
4324.550890
 20
2821.856485
 42
0.022988
  0
VERTEX
  8
0
 10
4325.715461
 20
2817.458475
 42
0.061733
  0
VERTEX
  8
0
 10
4331.279689
 20
2805.265911
 42
0.071318
  0
VERTEX
  8
0
 10
4339.441575
 20
2795.453685
 42
0.069504
  0
VERTEX
  8
0
 10
4350.221384
 20
2788.145430
 42
0.054690
  0
VERTEX
  8
0
 10
4363.500000
 20
2783.332593
 42
0.045400
  0
VERTEX
  8
0
 10
4373.417119
 20
2781.856933
 42
0.016784
  0
VERTEX
  8
0
 10
4387.554792
 20
2781.525848
 42
0.016709
  0
VERTEX
  8
0
 10
4401.638333
 20
2782.139790
 42
0.047410
  0
VERTEX
  8
0
 10
4411.313952
 20
2783.817910
 42
0.056114
  0
VERTEX
  8
0
 10
4424.644909
 20
2789.120667
 42
0.070520
  0
VERTEX
  8
0
 10
4435.363007
 20
2796.960153
 42
0.071820
  0
VERTEX
  8
0
 10
4443.338313
 20
2807.341078
 42
0.061116
  0
VERTEX
  8
0
 10
4448.589909
 20
2820.130963
 42
0.052059
  0
VERTEX
  8
0
 10
4450.556527
 20
2832.050957
 42
0.030590
  0
VERTEX
  8
0
 10
4450.532342
 20
2846.515121
 42
0.030693
  0
VERTEX
  8
0
 10
4448.787817
 20
2860.488916
 42
0.066658
  0
VERTEX
  8
0
 10
4445.405848
 20
2870.739430
 42
0.066872
  0
VERTEX
  8
0
 10
4440.589817
 20
2878.005183
 42
0.052358
  0
VERTEX
  8
0
 10
4433.644282
 20
2884.440455
 42
0.044823
  0
VERTEX
  8
0
 10
4424.440970
 20
2890.122061
 42
0.028239
  0
VERTEX
  8
0
 10
4412.833449
 20
2895.126033
 42
0.024236
  0
VERTEX
  8
0
 10
4404.171238
 20
2897.825484
 42
0.002516
  0
VERTEX
  8
0
 10
4383.484427
 20
2903.076913
 42
0.001365
  0
VERTEX
  8
0
 10
4361.759688
 20
2908.412707
 42
0.058136
  0
VERTEX
  8
0
 10
4357.038082
 20
2908.991478
 42
0.166510
  0
VERTEX
  8
0
 10
4356.173946
 20
2908.701114
 42
0.010707
  0
VERTEX
  8
0
 10
4354.069483
 20
2907.014684
 42
0.014711
  0
VERTEX
  8
0
 10
4351.616449
 20
2904.835264
 42
0.010373
  0
SEQEND
  0
POLYLINE
  8
0
 66
1
 70
1
  0
VERTEX
  8
0
 10
4605.000000
 20
3042.551697
 42
0.014426
  0
VERTEX
  8
0
 10
4598.835051
 20
3041.040471
 42
0.023265
  0
VERTEX
  8
0
 10
4593.697647
 20
3039.362106
 42
0.025979
  0
VERTEX
  8
0
 10
4589.175737
 20
3037.373946
 42
0.026091
  0
VERTEX
  8
0
 10
4584.891080
 20
3034.930106
 42
0.058044
  0
VERTEX
  8
0
 10
4577.276112
 20
3028.690201
 42
0.048737
  0
VERTEX
  8
0
 10
4570.783852
 20
3020.511793
 42
0.046299
  0
VERTEX
  8
0
 10
4565.709050
 20
3010.788652
 42
0.041839
  0
VERTEX
  8
0
 10
4562.302927
 20
2999.964818
 42
0.040972
  0
VERTEX
  8
0
 10
4560.962774
 20
2990.409891
 42
0.014298
  0
VERTEX
  8
0
 10
4560.561804
 20
2976.518226
 42
0.014291
  0
VERTEX
  8
0
 10
4560.955195
 20
2962.630297
 42
0.041141
  0
VERTEX
  8
0
 10
4562.290650
 20
2953.094064
 42
0.054075
  0
VERTEX
  8
0
 10
4567.078965
 20
2939.087903
 42
0.080049
  0
VERTEX
  8
0
 10
4574.362936
 20
2928.377129
 42
0.081153
  0
VERTEX
  8
0
 10
4584.559762
 20
2920.595328
 42
0.057199
  0
VERTEX
  8
0
 10
4598.000000
 20
2915.294871
 42
0.051756
  0
VERTEX
  8
0
 10
4606.989784
 20
2913.862996
 42
0.013876
  0
VERTEX
  8
0
 10
4621.472893
 20
2913.475029
 42
0.014618
  0
VERTEX
  8
0
 10
4636.380742
 20
2913.925418
 42
0.033689
  0
VERTEX
  8
0
 10
4647.500000
 20
2915.342820
 42
0.011965
  0
VERTEX
  8
0
 10
4655.916426
 20
2917.207849
 42
0.007474
  0
VERTEX
  8
0
 10
4665.682694
 20
2919.773976
 42
0.007410
  0
VERTEX
  8
0
 10
4674.939940
 20
2922.503356
 42
0.018947
  0
VERTEX
  8
0
 10
4681.531154
 20
2924.830628
 42
0.000000
  0
VERTEX
  8
0
 10
4686.500000
 20
2926.799771
 42
0.000000
  0
VERTEX
  8
0
 10
4686.271077
 20
2939.149886
 42
0.029560
  0
VERTEX
  8
0
 10
4683.104671
 20
2979.852421
 42
0.066700
  0
VERTEX
  8
0
 10
4674.872440
 20
3009.604273
 42
0.093260
  0
VERTEX
  8
0
 10
4661.451703
 20
3029.686461
 42
0.122643
  0
VERTEX
  8
0
 10
4642.748138
 20
3041.195506
 42
0.049506
  0
VERTEX
  8
0
 10
4635.150654
 20
3042.803934
 42
0.018448
  0
VERTEX
  8
0
 10
4624.256000
 20
3043.598502
 42
0.018623
  0
VERTEX
  8
0
 10
4613.210184
 20
3043.583815
 42
0.043269
  0
SEQEND
  0
POLYLINE
  8
0
 66
1
 70
1
  0
VERTEX
  8
0
 10
1573.000000
 20
2986.413428
 42
0.000000
  0
VERTEX
  8
0
 10
1573.000000
 20
2932.826857
 42
0.000000
  0
VERTEX
  8
0
 10
1608.750000
 20
2933.229905
 42
0.001201
  0
VERTEX
  8
0
 10
1630.909376
 20
2933.532956
 42
0.011597
  0
VERTEX
  8
0
 10
1640.315402
 20
2933.902509
 42
0.027495
  0
VERTEX
  8
0
 10
1646.170596
 20
2934.593305
 42
0.036387
  0
VERTEX
  8
0
 10
1651.377037
 20
2935.895894
 42
0.081072
  0
VERTEX
  8
0
 10
1659.675859
 20
2940.213053
 42
0.070518
  0
VERTEX
  8
0
 10
1666.633405
 20
2947.127344
 42
0.062812
  0
VERTEX
  8
0
 10
1672.018316
 20
2956.483299
 42
0.045019
  0
VERTEX
  8
0
 10
1675.667089
 20
2968.000000
 42
0.038053
  0
VERTEX
  8
0
 10
1676.968157
 20
2977.181105
 42
0.016303
  0
VERTEX
  8
0
 10
1677.366031
 20
2989.570772
 42
0.016134
  0
VERTEX
  8
0
 10
1676.964519
 20
3001.820739
 42
0.043734
  0
VERTEX
  8
0
 10
1675.645875
 20
3010.403740
 42
0.038917
  0
VERTEX
  8
0
 10
1672.906878
 20
3018.734419
 42
0.051657
  0
VERTEX
  8
0
 10
1669.094156
 20
3025.735700
 42
0.056968
  0
VERTEX
  8
0
 10
1664.293017
 20
3031.257456
 42
0.067486
  0
VERTEX
  8
0
 10
1658.615596
 20
3035.196108
 42
0.063834
  0
VERTEX
  8
0
 10
1651.859531
 20
3037.618319
 42
0.031493
  0
VERTEX
  8
0
 10
1642.830717
 20
3039.017881
 42
0.018327
  0
VERTEX
  8
0
 10
1629.310252
 20
3039.751004
 42
0.004118
  0
VERTEX
  8
0
 10
1606.250000
 20
3039.965112
 42
0.000000
  0
VERTEX
  8
0
 10
1573.000000
 20
3040.000000
 42
0.000000
  0
SEQEND
  0
POLYLINE
  8
0
 66
1
 70
1
  0
VERTEX
  8
0
 10
1573.000000
 20
2845.420144
 42
0.000000
  0
VERTEX
  8
0
 10
1573.000000
 20
2786.840288
 42
0.000000
  0
VERTEX
  8
0
 10
1612.750000
 20
2787.240455
 42
0.001156
  0
VERTEX
  8
0
 10
1636.701571
 20
2787.536943
 42
0.009592
  0
VERTEX
  8
0
 10
1647.563051
 20
2787.904993
 42
0.021367
  0
VERTEX
  8
0
 10
1654.369260
 20
2788.558917
 42
0.032751
  0
VERTEX
  8
0
 10
1660.169075
 20
2789.758703
 42
0.009544
  0
VERTEX
  8
0
 10
1663.389455
 20
2790.714635
 42
0.008312
  0
VERTEX
  8
0
 10
1666.723897
 20
2791.835435
 42
0.008388
  0
VERTEX
  8
0
 10
1669.706428
 20
2792.950116
 42
0.024331
  0
VERTEX
  8
0
 10
1671.714023
 20
2793.854106
 42
0.080736
  0
VERTEX
  8
0
 10
1677.942575
 20
2798.422832
 42
0.050681
  0
VERTEX
  8
0
 10
1683.603220
 20
2805.487168
 42
0.045399
  0
VERTEX
  8
0
 10
1688.317717
 20
2814.465570
 42
0.037116
  0
VERTEX
  8
0
 10
1691.716324
 20
2824.770023
 42
0.046543
  0
VERTEX
  8
0
 10
1693.157213
 20
2834.216420
 42
0.017719
  0
VERTEX
  8
0
 10
1693.462743
 20
2847.547825
 42
0.017755
  0
VERTEX
  8
0
 10
1692.821312
 20
2860.893726
 42
0.045394
  0
VERTEX
  8
0
 10
1691.144830
 20
2870.416872
 42
0.053581
  0
VERTEX
  8
0
 10
1685.813620
 20
2884.079041
 42
0.098220
  0
VERTEX
  8
0
 10
1678.374418
 20
2893.374704
 42
0.094312
  0
VERTEX
  8
0
 10
1667.725191
 20
2899.359454
 42
0.046467
  0
VERTEX
  8
0
 10
1652.549466
 20
2902.929837
 42
0.025533
  0
VERTEX
  8
0
 10
1647.691209
 20
2903.354286
 42
0.002891
  0
VERTEX
  8
0
 10
1636.650722
 20
2903.689014
 42
0.003458
  0
VERTEX
  8
0
 10
1623.384993
 20
2903.922677
 42
0.002674
  0
VERTEX
  8
0
 10
1608.927641
 20
2904.000000
 42
0.000000
  0
VERTEX
  8
0
 10
1573.000000
 20
2904.000000
 42
0.000000
  0
SEQEND
  0
POLYLINE
  8
0
 66
1
 70
1
  0
VERTEX
  8
0
 10
1851.500000
 20
2965.571858
 42
0.018923
  0
VERTEX
  8
0
 10
1845.762079
 20
2964.000931
 42
0.030139
  0
VERTEX
  8
0
 10
1841.011447
 20
2962.183798
 42
0.029896
  0
VERTEX
  8
0
 10
1836.486758
 20
2959.797236
 42
0.018243
  0
VERTEX
  8
0
 10
1831.438433
 20
2956.477990
 42
0.069508
  0
VERTEX
  8
0
 10
1824.019750
 20
2949.470519
 42
0.051203
  0
VERTEX
  8
0
 10
1817.885981
 20
2939.959397
 42
0.042213
  0
VERTEX
  8
0
 10
1812.867706
 20
2927.614151
 42
0.024005
  0
VERTEX
  8
0
 10
1808.818910
 20
2912.000000
 42
0.036393
  0
VERTEX
  8
0
 10
1807.150437
 20
2899.525407
 42
0.008523
  0
VERTEX
  8
0
 10
1806.240074
 20
2878.446986
 42
0.009114
  0
VERTEX
  8
0
 10
1806.070214
 20
2856.916408
 42
0.024735
  0
VERTEX
  8
0
 10
1806.982074
 20
2841.685894
 42
0.016308
  0
VERTEX
  8
0
 10
1808.487629
 20
2831.145134
 42
0.018895
  0
VERTEX
  8
0
 10
1810.623254
 20
2821.235850
 42
0.020572
  0
VERTEX
  8
0
 10
1813.215766
 20
2812.585931
 42
0.039360
  0
VERTEX
  8
0
 10
1816.110722
 20
2805.943642
 42
0.046609
  0
VERTEX
  8
0
 10
1819.708819
 20
2800.485709
 42
0.035622
  0
VERTEX
  8
0
 10
1824.571598
 20
2795.236574
 42
0.034862
  0
VERTEX
  8
0
 10
1830.264901
 20
2790.607344
 42
0.038898
  0
VERTEX
  8
0
 10
1836.349117
 20
2786.999664
 42
0.076174
  0
VERTEX
  8
0
 10
1851.193158
 20
2782.319661
 42
0.050167
  0
VERTEX
  8
0
 10
1869.105944
 20
2781.367401
 42
0.050003
  0
VERTEX
  8
0
 10
1886.932317
 20
2784.008054
 42
0.073607
  0
VERTEX
  8
0
 10
1901.526495
 20
2790.074319
 42
0.053983
  0
VERTEX
  8
0
 10
1907.829743
 20
2794.853618
 42
0.050789
  0
VERTEX
  8
0
 10
1913.109330
 20
2800.962604
 42
0.043649
  0
VERTEX
  8
0
 10
1917.663309
 20
2808.843642
 42
0.025174
  0
VERTEX
  8
0
 10
1921.795286
 20
2819.000000
 42
0.024526
  0
VERTEX
  8
0
 10
1924.762866
 20
2829.054257
 42
0.024059
  0
VERTEX
  8
0
 10
1926.753967
 20
2839.415254
 42
0.019694
  0
VERTEX
  8
0
 10
1928.006927
 20
2851.612359
 42
0.009173
  0
VERTEX
  8
0
 10
1928.716586
 20
2867.500000
 42
0.026030
  0
VERTEX
  8
0
 10
1927.659738
 20
2908.521543
 42
0.073825
  0
VERTEX
  8
0
 10
1921.285647
 20
2936.346920
 42
0.111799
  0
VERTEX
  8
0
 10
1909.139468
 20
2954.283329
 42
0.120218
  0
VERTEX
  8
0
 10
1890.744071
 20
2964.659801
 42
0.049751
  0
VERTEX
  8
0
 10
1883.281785
 20
2965.978281
 42
0.013057
  0
VERTEX
  8
0
 10
1871.137609
 20
2966.578069
 42
0.013035
  0
VERTEX
  8
0
 10
1858.982979
 20
2966.543656
 42
0.050165
  0
SEQEND
  0
POLYLINE
  8
0
 66
1
 70
1
  0
VERTEX
  8
0
 10
2723.130856
 20
2965.459002
 42
0.064052
  0
VERTEX
  8
0
 10
2709.393019
 20
2960.574664
 42
0.081530
  0
VERTEX
  8
0
 10
2698.557277
 20
2952.637067
 42
0.074365
  0
VERTEX
  8
0
 10
2690.138961
 20
2941.028027
 42
0.043815
  0
VERTEX
  8
0
 10
2683.589112
 20
2925.155957
 42
0.021128
  0
VERTEX
  8
0
 10
2680.552474
 20
2913.811814
 42
0.026831
  0
VERTEX
  8
0
 10
2678.764856
 20
2903.119236
 42
0.020565
  0
VERTEX
  8
0
 10
2677.853347
 20
2890.280477
 42
0.006916
  0
VERTEX
  8
0
 10
2677.554311
 20
2871.500000
 42
0.011236
  0
VERTEX
  8
0
 10
2678.030683
 20
2848.131414
 42
0.027655
  0
VERTEX
  8
0
 10
2679.712216
 20
2831.053946
 42
0.036705
  0
VERTEX
  8
0
 10
2682.825824
 20
2817.563040
 42
0.045902
  0
VERTEX
  8
0
 10
2687.731983
 20
2805.692979
 42
0.061012
  0
VERTEX
  8
0
 10
2693.049899
 20
2798.011628
 42
0.053346
  0
VERTEX
  8
0
 10
2700.289832
 20
2791.443505
 42
0.051067
  0
VERTEX
  8
0
 10
2709.084237
 20
2786.312573
 42
0.046715
  0
VERTEX
  8
0
 10
2719.000000
 20
2782.885779
 42
0.046709
  0
VERTEX
  8
0
 10
2726.518142
 20
2781.780039
 42
0.016129
  0
VERTEX
  8
0
 10
2737.506809
 20
2781.555575
 42
0.016138
  0
VERTEX
  8
0
 10
2748.490970
 20
2782.040338
 42
0.046470
  0
VERTEX
  8
0
 10
2756.000000
 20
2783.323531
 42
0.035627
  0
VERTEX
  8
0
 10
2767.031724
 20
2787.143509
 42
0.057937
  0
VERTEX
  8
0
 10
2775.623521
 20
2792.066484
 42
0.062995
  0
VERTEX
  8
0
 10
2782.356792
 20
2798.490373
 42
0.052053
  0
VERTEX
  8
0
 10
2787.788255
 20
2806.797352
 42
0.030028
  0
VERTEX
  8
0
 10
2793.606741
 20
2820.002689
 42
0.042945
  0
VERTEX
  8
0
 10
2797.008853
 20
2832.336262
 42
0.031941
  0
VERTEX
  8
0
 10
2798.833886
 20
2847.542051
 42
0.009379
  0
VERTEX
  8
0
 10
2799.700097
 20
2871.049153
 42
0.006456
  0
VERTEX
  8
0
 10
2799.802304
 20
2890.848568
 42
0.016880
  0
VERTEX
  8
0
 10
2799.212022
 20
2905.061302
 42
0.021909
  0
VERTEX
  8
0
 10
2797.805210
 20
2916.819736
 42
0.021420
  0
VERTEX
  8
0
 10
2795.367843
 20
2928.500000
 42
0.046065
  0
VERTEX
  8
0
 10
2791.672837
 20
2938.925052
 42
0.049432
  0
VERTEX
  8
0
 10
2786.198655
 20
2948.236575
 42
0.052483
  0
VERTEX
  8
0
 10
2779.373314
 20
2955.785155
 42
0.068688
  0
VERTEX
  8
0
 10
2771.671695
 20
2960.982537
 42
0.059197
  0
VERTEX
  8
0
 10
2761.623989
 20
2964.516732
 42
0.032013
  0
VERTEX
  8
0
 10
2748.655524
 20
2966.555916
 42
0.031535
  0
VERTEX
  8
0
 10
2735.088570
 20
2966.948254
 42
0.044913
  0
SEQEND
  0
POLYLINE
  8
0
 66
1
 70
1
  0
VERTEX
  8
0
 10
3442.601399
 20
2966.357856
 42
0.033126
  0
VERTEX
  8
0
 10
3435.926687
 20
2964.457044
 42
0.033688
  0
VERTEX
  8
0
 10
3429.600307
 20
2961.699794
 42
0.035103
  0
VERTEX
  8
0
 10
3423.967405
 20
2958.257549
 42
0.045265
  0
VERTEX
  8
0
 10
3419.367740
 20
2954.310522
 42
0.051884
  0
VERTEX
  8
0
 10
3415.366933
 20
2949.234269
 42
0.025109
  0
VERTEX
  8
0
 10
3411.299425
 20
2942.023336
 42
0.024230
  0
VERTEX
  8
0
 10
3407.705840
 20
2933.865401
 42
0.028203
  0
VERTEX
  8
0
 10
3405.120395
 20
2925.796528
 42
0.011441
  0
VERTEX
  8
0
 10
3403.913233
 20
2920.659713
 42
0.010784
  0
VERTEX
  8
0
 10
3402.916047
 20
2915.371129
 42
0.007324
  0
VERTEX
  8
0
 10
3401.875574
 20
2908.493744
 42
0.002069
  0
VERTEX
  8
0
 10
3400.456055
 20
2897.750000
 42
0.000000
  0
VERTEX
  8
0
 10
3399.976365
 20
2894.000000
 42
0.000000
  0
VERTEX
  8
0
 10
3453.105592
 20
2894.000000
 42
0.000000
  0
VERTEX
  8
0
 10
3506.234820
 20
2894.000000
 42
0.000000
  0
VERTEX
  8
0
 10
3505.766334
 20
2910.250000
 42
0.028266
  0
VERTEX
  8
0
 10
3503.989347
 20
2931.022157
 42
0.067038
  0
VERTEX
  8
0
 10
3499.773539
 20
2945.922247
 42
0.090087
  0
VERTEX
  8
0
 10
3492.770574
 20
2956.397330
 42
0.093852
  0
VERTEX
  8
0
 10
3482.620011
 20
2963.562351
 42
0.056415
  0
VERTEX
  8
0
 10
3474.301632
 20
2966.270962
 42
0.033096
  0
VERTEX
  8
0
 10
3463.916744
 20
2967.691132
 42
0.032038
  0
VERTEX
  8
0
 10
3452.895320
 20
2967.753812
 42
0.038228
  0
SEQEND
  0
POLYLINE
  8
0
 66
1
 70
1
  0
VERTEX
  8
0
 10
2481.358914
 20
2963.097022
 42
0.026789
  0
VERTEX
  8
0
 10
2474.322297
 20
2960.961526
 42
0.032175
  0
VERTEX
  8
0
 10
2467.986316
 20
2958.188541
 42
0.034497
  0
VERTEX
  8
0
 10
2462.463869
 20
2954.834260
 42
0.042675
  0
VERTEX
  8
0
 10
2457.862823
 20
2950.958061
 42
0.067410
  0
VERTEX
  8
0
 10
2452.005426
 20
2943.265511
 42
0.034580
  0
VERTEX
  8
0
 10
2446.755903
 20
2932.315274
 42
0.029922
  0
VERTEX
  8
0
 10
2442.288531
 20
2918.746904
 42
0.020861
  0
VERTEX
  8
0
 10
2438.824600
 20
2903.000000
 42
0.038543
  0
VERTEX
  8
0
 10
2437.578950
 20
2890.299167
 42
0.006938
  0
VERTEX
  8
0
 10
2437.416295
 20
2866.523483
 42
0.006775
  0
VERTEX
  8
0
 10
2437.905529
 20
2842.759871
 42
0.041222
  0
VERTEX
  8
0
 10
2439.334205
 20
2830.555498
 42
0.047333
  0
VERTEX
  8
0
 10
2446.101775
 20
2808.165327
 42
0.115710
  0
VERTEX
  8
0
 10
2456.025059
 20
2794.221710
 42
0.119750
  0
VERTEX
  8
0
 10
2470.874821
 20
2786.424203
 42
0.052659
  0
VERTEX
  8
0
 10
2493.000000
 20
2783.307755
 42
0.017176
  0
VERTEX
  8
0
 10
2505.097824
 20
2783.303341
 42
0.025168
  0
VERTEX
  8
0
 10
2515.702014
 20
2784.199493
 42
0.025593
  0
VERTEX
  8
0
 10
2526.028299
 20
2786.140596
 42
0.018653
  0
VERTEX
  8
0
 10
2537.273588
 20
2789.304761
 42
0.000000
  0
VERTEX
  8
0
 10
2547.500000
 20
2792.598466
 42
0.000000
  0
VERTEX
  8
0
 10
2547.755680
 20
2876.799233
 42
0.000841
  0
VERTEX
  8
0
 10
2547.799416
 20
2909.087643
 42
0.001402
  0
VERTEX
  8
0
 10
2547.714272
 20
2936.272776
 42
0.000079
  0
VERTEX
  8
0
 10
2547.565346
 20
2960.705746
 42
0.403517
  0
VERTEX
  8
0
 10
2547.255680
 20
2961.022982
 42
-0.027775
  0
VERTEX
  8
0
 10
2546.684812
 20
2961.072163
 42
-0.000318
  0
VERTEX
  8
0
 10
2542.903231
 20
2961.613211
 42
-0.000976
  0
VERTEX
  8
0
 10
2538.537035
 20
2962.249435
 42
-0.000636
  0
VERTEX
  8
0
 10
2533.500000
 20
2963.000000
 42
0.021114
  0
VERTEX
  8
0
 10
2519.920796
 20
2964.458169
 42
0.015724
  0
VERTEX
  8
0
 10
2504.855656
 20
2964.960118
 42
0.015649
  0
VERTEX
  8
0
 10
2490.911006
 20
2964.549542
 42
0.045119
  0
SEQEND
  0
POLYLINE
  8
0
 66
1
 70
1
  0
VERTEX
  8
0
 10
2964.000000
 20
2963.439924
 42
0.036369
  0
VERTEX
  8
0
 10
2956.850084
 20
2961.345117
 42
0.032351
  0
VERTEX
  8
0
 10
2949.782788
 20
2958.168760
 42
0.033412
  0
VERTEX
  8
0
 10
2943.462508
 20
2954.260028
 42
0.049567
  0
VERTEX
  8
0
 10
2938.570000
 20
2949.971381
 42
0.062825
  0
VERTEX
  8
0
 10
2932.785394
 20
2941.979683
 42
0.034215
  0
VERTEX
  8
0
 10
2927.698722
 20
2930.965620
 42
0.030036
  0
VERTEX
  8
0
 10
2923.494895
 20
2917.575049
 42
0.022018
  0
VERTEX
  8
0
 10
2920.398912
 20
2902.310983
 42
0.029031
  0
VERTEX
  8
0
 10
2919.034957
 20
2888.443122
 42
0.009775
  0
VERTEX
  8
0
 10
2918.619360
 20
2868.116552
 42
0.009739
  0
VERTEX
  8
0
 10
2918.996528
 20
2847.823646
 42
0.029816
  0
VERTEX
  8
0
 10
2920.337945
 20
2834.134101
 42
0.033982
  0
VERTEX
  8
0
 10
2924.237327
 20
2817.114834
 42
0.060701
  0
VERTEX
  8
0
 10
2930.009993
 20
2803.992031
 42
0.073463
  0
VERTEX
  8
0
 10
2937.814121
 20
2794.387324
 42
0.082884
  0
VERTEX
  8
0
 10
2947.772561
 20
2787.913886
 42
0.075695
  0
VERTEX
  8
0
 10
2963.078498
 20
2783.843580
 42
0.037308
  0
VERTEX
  8
0
 10
2983.249804
 20
2783.152805
 42
0.035933
  0
VERTEX
  8
0
 10
3004.739278
 20
2785.573730
 42
0.043529
  0
VERTEX
  8
0
 10
3024.276830
 20
2791.002386
 42
0.000000
  0
VERTEX
  8
0
 10
3030.000000
 20
2793.143698
 42
0.000000
  0
VERTEX
  8
0
 10
3030.000000
 20
2877.071849
 42
0.000837
  0
VERTEX
  8
0
 10
3029.946104
 20
2909.255216
 42
0.001396
  0
VERTEX
  8
0
 10
3029.779687
 20
2936.350700
 42
0.000079
  0
VERTEX
  8
0
 10
3029.558272
 20
2960.703772
 42
0.405425
  0
VERTEX
  8
0
 10
3029.250000
 20
2961.015641
 42
-0.028273
  0
VERTEX
  8
0
 10
3028.679601
 20
2961.059868
 42
-0.000279
  0
VERTEX
  8
0
 10
3024.616278
 20
2961.609593
 42
-0.000919
  0
VERTEX
  8
0
 10
3019.937815
 20
2962.253960
 42
-0.000595
  0
VERTEX
  8
0
 10
3014.528819
 20
2963.015641
 42
0.019028
  0
VERTEX
  8
0
 10
3001.361034
 20
2964.377242
 42
0.014149
  0
VERTEX
  8
0
 10
2986.752752
 20
2964.913487
 42
0.014043
  0
VERTEX
  8
0
 10
2973.232244
 20
2964.647268
 42
0.041156
  0
SEQEND
  0
POLYLINE
  8
0
 66
1
 70
1
  0
VERTEX
  8
0
 10
3791.000000
 20
1847.396004
 42
0.004537
  0
VERTEX
  8
0
 10
3788.211169
 20
1847.177224
 42
0.001558
  0
VERTEX
  8
0
 10
3784.178125
 20
1846.811319
 42
0.001549
  0
VERTEX
  8
0
 10
3779.731842
 20
1846.380048
 42
0.001792
  0
VERTEX
  8
0
 10
3775.500000
 20
1845.941015
 42
0.056204
  0
VERTEX
  8
0
 10
3735.990341
 20
1837.136980
 42
0.076749
  0
VERTEX
  8
0
 10
3703.769169
 20
1820.167718
 42
0.082458
  0
VERTEX
  8
0
 10
3679.823336
 20
1795.389404
 42
0.077477
  0
VERTEX
  8
0
 10
3664.541403
 20
1763.682621
 42
0.030389
  0
VERTEX
  8
0
 10
3660.884158
 20
1748.320717
 42
0.032003
  0
VERTEX
  8
0
 10
3659.196139
 20
1732.892519
 42
0.010640
  0
VERTEX
  8
0
 10
3658.594960
 20
1707.545420
 42
0.000608
  0
VERTEX
  8
0
 10
3658.500000
 20
1629.500000
 42
0.000642
  0
VERTEX
  8
0
 10
3658.600439
 20
1551.324145
 42
0.010850
  0
VERTEX
  8
0
 10
3659.226738
 20
1525.522017
 42
0.032323
  0
VERTEX
  8
0
 10
3660.965063
 20
1509.867715
 42
0.031916
  0
VERTEX
  8
0
 10
3664.709951
 20
1494.500000
 42
0.078312
  0
VERTEX
  8
0
 10
3680.801885
 20
1461.950315
 42
0.085880
  0
VERTEX
  8
0
 10
3705.716289
 20
1437.105000
 42
0.078205
  0
VERTEX
  8
0
 10
3739.587302
 20
1420.467771
 42
0.052406
  0
VERTEX
  8
0
 10
3782.000000
 20
1412.056874
 42
0.017280
  0
VERTEX
  8
0
 10
3795.803264
 20
1411.276183
 42
0.005478
  0
VERTEX
  8
0
 10
3816.425954
 20
1411.049621
 42
0.005538
  0
VERTEX
  8
0
 10
3837.151760
 20
1411.278580
 42
0.015962
  0
VERTEX
  8
0
 10
3851.500000
 20
1412.054789
 42
0.060779
  0
VERTEX
  8
0
 10
3898.782603
 20
1422.003028
 42
0.092000
  0
VERTEX
  8
0
 10
3935.332700
 20
1442.556521
 42
0.099098
  0
VERTEX
  8
0
 10
3960.259675
 20
1473.539918
 42
0.081093
  0
VERTEX
  8
0
 10
3973.583016
 20
1514.000000
 42
0.032255
  0
VERTEX
  8
0
 10
3974.404441
 20
1522.923522
 42
0.004407
  0
VERTEX
  8
0
 10
3974.750689
 20
1541.646313
 42
0.002757
  0
VERTEX
  8
0
 10
3974.879253
 20
1572.517388
 42
0.000422
  0
VERTEX
  8
0
 10
3974.744451
 20
1634.000000
 42
0.000338
  0
VERTEX
  8
0
 10
3974.496851
 20
1700.696967
 42
0.003387
  0
VERTEX
  8
0
 10
3974.185568
 20
1728.582270
 42
0.006671
  0
VERTEX
  8
0
 10
3973.690795
 20
1744.395973
 42
0.047175
  0
VERTEX
  8
0
 10
3972.627757
 20
1752.000000
 42
0.069832
  0
VERTEX
  8
0
 10
3958.405808
 20
1788.384709
 42
0.089353
  0
VERTEX
  8
0
 10
3935.537121
 20
1816.076779
 42
0.084862
  0
VERTEX
  8
0
 10
3903.434580
 20
1835.013955
 42
0.056682
  0
VERTEX
  8
0
 10
3862.000000
 20
1845.611472
 42
0.024717
  0
VERTEX
  8
0
 10
3850.853000
 20
1846.591917
 42
0.003294
  0
VERTEX
  8
0
 10
3827.239598
 20
1847.341125
 42
0.003580
  0
VERTEX
  8
0
 10
3803.639789
 20
1847.765230
 42
0.020008
  0
SEQEND
  0
POLYLINE
  8
0
 66
1
 70
1
  0
VERTEX
  8
0
 10
2542.000000
 20
1741.000000
 42
0.000000
  0
VERTEX
  8
0
 10
2542.000000
 20
1657.000000
 42
0.000000
  0
VERTEX
  8
0
 10
2627.750000
 20
1657.017364
 42
0.000819
  0
VERTEX
  8
0
 10
2690.337010
 20
1657.132615
 42
0.013481
  0
VERTEX
  8
0
 10
2711.242460
 20
1657.769178
 42
0.041715
  0
VERTEX
  8
0
 10
2723.283127
 20
1659.475580
 42
0.055063
  0
VERTEX
  8
0
 10
2733.745722
 20
1663.108202
 42
0.049452
  0
VERTEX
  8
0
 10
2739.932903
 20
1666.842405
 42
0.029770
  0
VERTEX
  8
0
 10
2746.487460
 20
1672.378538
 42
0.029570
  0
VERTEX
  8
0
 10
2752.422758
 20
1678.739606
 42
0.044115
  0
VERTEX
  8
0
 10
2756.737881
 20
1685.000000
 42
0.045397
  0
VERTEX
  8
0
 10
2761.715359
 20
1696.010052
 42
0.033912
  0
VERTEX
  8
0
 10
2765.219547
 20
1708.868599
 42
0.029706
  0
VERTEX
  8
0
 10
2767.303592
 20
1723.779688
 42
0.019870
  0
VERTEX
  8
0
 10
2767.988210
 20
1741.000000
 42
0.019612
  0
VERTEX
  8
0
 10
2767.326655
 20
1757.859344
 42
0.028530
  0
VERTEX
  8
0
 10
2765.317139
 20
1772.600638
 42
0.032293
  0
VERTEX
  8
0
 10
2761.946785
 20
1785.420016
 42
0.043028
  0
VERTEX
  8
0
 10
2757.174623
 20
1796.470475
 42
0.045743
  0
VERTEX
  8
0
 10
2753.355130
 20
1802.236092
 42
0.025382
  0
VERTEX
  8
0
 10
2747.741562
 20
1808.543496
 42
0.025410
  0
VERTEX
  8
0
 10
2741.582102
 20
1814.189946
 42
0.050410
  0
VERTEX
  8
0
 10
2736.084677
 20
1817.874184
 42
0.021336
  0
VERTEX
  8
0
 10
2733.250374
 20
1819.232933
 42
0.011076
  0
VERTEX
  8
0
 10
2729.608806
 20
1820.696763
 42
0.010993
  0
VERTEX
  8
0
 10
2725.795633
 20
1822.037366
 42
0.016426
  0
VERTEX
  8
0
 10
2722.403989
 20
1823.024555
 42
0.045062
  0
VERTEX
  8
0
 10
2715.171611
 20
1824.194134
 42
0.012317
  0
VERTEX
  8
0
 10
2703.613226
 20
1824.721915
 42
0.004854
  0
VERTEX
  8
0
 10
2682.804746
 20
1824.956871
 42
0.000396
  0
VERTEX
  8
0
 10
2628.340037
 20
1825.000000
 42
0.000000
  0
VERTEX
  8
0
 10
2542.000000
 20
1825.000000
 42
0.000000
  0
SEQEND
  0
POLYLINE
  8
0
 66
1
 70
1
  0
VERTEX
  8
0
 10
2542.244997
 20
1514.778330
 42
0.000000
  0
VERTEX
  8
0
 10
2542.500000
 20
1418.500000
 42
0.000000
  0
VERTEX
  8
0
 10
2637.000000
 20
1418.500000
 42
0.000383
  0
VERTEX
  8
0
 10
2695.214061
 20
1418.544623
 42
0.004163
  0
VERTEX
  8
0
 10
2718.689814
 20
1418.776096
 42
0.009575
  0
VERTEX
  8
0
 10
2731.874816
 20
1419.268605
 42
0.043144
  0
VERTEX
  8
0
 10
2739.500000
 20
1420.364322
 42
0.080684
  0
VERTEX
  8
0
 10
2760.628596
 20
1429.048670
 42
0.091469
  0
VERTEX
  8
0
 10
2776.886342
 20
1443.698518
 42
0.082301
  0
VERTEX
  8
0
 10
2788.024499
 20
1464.544634
 42
0.052319
  0
VERTEX
  8
0
 10
2794.095633
 20
1491.449144
 42
0.026781
  0
VERTEX
  8
0
 10
2794.916992
 20
1504.296743
 42
0.010630
  0
VERTEX
  8
0
 10
2794.723087
 20
1521.978977
 42
0.010273
  0
VERTEX
  8
0
 10
2793.806941
 20
1539.323594
 42
0.035105
  0
VERTEX
  8
0
 10
2792.192044
 20
1550.500000
 42
0.048143
  0
VERTEX
  8
0
 10
2785.619491
 20
1571.025836
 42
0.069552
  0
VERTEX
  8
0
 10
2775.755960
 20
1587.296188
 42
0.074496
  0
VERTEX
  8
0
 10
2762.399582
 20
1599.448065
 42
0.065686
  0
VERTEX
  8
0
 10
2745.500000
 20
1607.785449
 42
0.000000
  0
VERTEX
  8
0
 10
2737.500000
 20
1610.500000
 42
0.000000
  0
VERTEX
  8
0
 10
2639.744997
 20
1610.778330
 42
0.000000
  0
VERTEX
  8
0
 10
2541.989994
 20
1611.056659
 42
0.000000
  0
SEQEND
  0
POLYLINE
  8
0
 66
1
 70
1
  0
VERTEX
  8
0
 10
3016.000000
 20
1729.000000
 42
0.000000
  0
VERTEX
  8
0
 10
3016.000000
 20
1632.940548
 42
0.000000
  0
VERTEX
  8
0
 10
3108.750000
 20
1633.220274
 42
0.000000
  0
VERTEX
  8
0
 10
3201.500000
 20
1633.500000
 42
0.000000
  0
VERTEX
  8
0
 10
3209.975983
 20
1636.457180
 42
0.075508
  0
VERTEX
  8
0
 10
3227.582149
 20
1645.767186
 42
0.077134
  0
VERTEX
  8
0
 10
3241.483315
 20
1659.828035
 42
0.070928
  0
VERTEX
  8
0
 10
3251.311204
 20
1678.517908
 42
0.051116
  0
VERTEX
  8
0
 10
3256.927584
 20
1701.434334
 42
0.028392
  0
VERTEX
  8
0
 10
3257.750977
 20
1711.523365
 42
0.006166
  0
VERTEX
  8
0
 10
3257.966508
 20
1729.000000
 42
0.006166
  0
VERTEX
  8
0
 10
3257.750977
 20
1746.476635
 42
0.028392
  0
VERTEX
  8
0
 10
3256.927584
 20
1756.565666
 42
0.051116
  0
VERTEX
  8
0
 10
3251.311204
 20
1779.482092
 42
0.070928
  0
VERTEX
  8
0
 10
3241.483315
 20
1798.171965
 42
0.077134
  0
VERTEX
  8
0
 10
3227.582149
 20
1812.232814
 42
0.075508
  0
VERTEX
  8
0
 10
3209.975983
 20
1821.542820
 42
0.000000
  0
VERTEX
  8
0
 10
3201.500000
 20
1824.500000
 42
0.000000
  0
VERTEX
  8
0
 10
3108.750000
 20
1824.779726
 42
0.000000
  0
VERTEX
  8
0
 10
3016.000000
 20
1825.059452
 42
0.000000
  0
SEQEND
  0
POLYLINE
  8
0
 66
1
 70
1
  0
VERTEX
  8
0
 10
5333.000000
 20
1098.504854
 42
0.000000
  0
VERTEX
  8
0
 10
5333.000000
 20
1001.930171
 42
0.000000
  0
VERTEX
  8
0
 10
5424.250000
 20
1002.238997
 42
0.000665
  0
VERTEX
  8
0
 10
5493.116445
 20
1002.563666
 42
0.016176
  0
VERTEX
  8
0
 10
5512.276571
 20
1003.299644
 42
0.055165
  0
VERTEX
  8
0
 10
5523.845359
 20
1005.416289
 42
0.041062
  0
VERTEX
  8
0
 10
5535.941930
 20
1010.153482
 42
0.078350
  0
VERTEX
  8
0
 10
5550.161641
 20
1020.128273
 42
0.067350
  0
VERTEX
  8
0
 10
5561.490672
 20
1034.480941
 42
0.060544
  0
VERTEX
  8
0
 10
5569.515743
 20
1052.806236
 42
0.044804
  0
VERTEX
  8
0
 10
5573.964720
 20
1074.500000
 42
0.012744
  0
VERTEX
  8
0
 10
5574.356998
 20
1078.985035
 42
0.004832
  0
VERTEX
  8
0
 10
5574.684297
 20
1085.262500
 42
0.004782
  0
VERTEX
  8
0
 10
5574.909001
 20
1092.097548
 42
0.005825
  0
VERTEX
  8
0
 10
5574.983590
 20
1098.500000
 42
0.015952
  0
VERTEX
  8
0
 10
5574.391012
 20
1117.068664
 42
0.030167
  0
VERTEX
  8
0
 10
5572.537516
 20
1131.925147
 42
0.034811
  0
VERTEX
  8
0
 10
5569.158967
 20
1144.937731
 42
0.031910
  0
VERTEX
  8
0
 10
5563.929699
 20
1157.753169
 42
0.049784
  0
VERTEX
  8
0
 10
5556.514767
 20
1169.828047
 42
0.057202
  0
VERTEX
  8
0
 10
5547.155184
 20
1179.587766
 42
0.056728
  0
VERTEX
  8
0
 10
5535.757056
 20
1187.034481
 42
0.047698
  0
VERTEX
  8
0
 10
5522.300482
 20
1192.254616
 42
0.047243
  0
VERTEX
  8
0
 10
5514.957614
 20
1193.593179
 42
0.015106
  0
VERTEX
  8
0
 10
5503.865993
 20
1194.211517
 42
0.005176
  0
VERTEX
  8
0
 10
5483.424132
 20
1194.520832
 42
0.000332
  0
VERTEX
  8
0
 10
5423.750000
 20
1194.766384
 42
0.000000
  0
VERTEX
  8
0
 10
5333.000000
 20
1195.079537
 42
0.000000
  0
SEQEND
  0
POLYLINE
  8
0
 66
1
 70
1
  0
VERTEX
  8
0
 10
1690.000000
 20
986.898516
 42
0.000000
  0
VERTEX
  8
0
 10
1690.000000
 20
784.797033
 42
0.000000
  0
VERTEX
  8
0
 10
1758.750000
 20
785.288134
 42
0.001265
  0
VERTEX
  8
0
 10
1802.426390
 20
785.710654
 42
0.007497
  0
VERTEX
  8
0
 10
1825.265789
 20
786.331991
 42
0.013168
  0
VERTEX
  8
0
 10
1841.930977
 20
787.475776
 42
0.011090
  0
VERTEX
  8
0
 10
1859.500000
 20
789.541478
 42
0.025107
  0
VERTEX
  8
0
 10
1881.349195
 20
793.730405
 42
0.026058
  0
VERTEX
  8
0
 10
1902.393349
 20
800.049879
 42
0.027864
  0
VERTEX
  8
0
 10
1920.798084
 20
807.821404
 42
0.051992
  0
VERTEX
  8
0
 10
1934.500000
 20
816.395552
 42
0.076635
  0
VERTEX
  8
0
 10
1951.201780
 20
834.152459
 42
0.045870
  0
VERTEX
  8
0
 10
1965.379116
 20
859.489825
 42
0.039933
  0
VERTEX
  8
0
 10
1976.484970
 20
891.021975
 42
0.028993
  0
VERTEX
  8
0
 10
1983.911597
 20
927.500000
 42
0.010891
  0
VERTEX
  8
0
 10
1986.055729
 20
945.119475
 42
0.012440
  0
VERTEX
  8
0
 10
1987.318386
 20
962.051516
 42
0.010926
  0
VERTEX
  8
0
 10
1987.836683
 20
980.755791
 42
0.005769
  0
VERTEX
  8
0
 10
1987.704607
 20
1003.979013
 42
0.003660
  0
VERTEX
  8
0
 10
1987.158016
 20
1026.242601
 42
0.011803
  0
VERTEX
  8
0
 10
1986.337048
 20
1041.027162
 42
0.014058
  0
VERTEX
  8
0
 10
1984.904407
 20
1054.341089
 42
0.007140
  0
VERTEX
  8
0
 10
1982.393694
 20
1071.000000
 42
0.014940
  0
VERTEX
  8
0
 10
1978.322969
 20
1091.747135
 42
0.021870
  0
VERTEX
  8
0
 10
1973.407699
 20
1109.691659
 42
0.024752
  0
VERTEX
  8
0
 10
1967.568383
 20
1125.177691
 42
0.033424
  0
VERTEX
  8
0
 10
1960.699302
 20
1138.472376
 42
0.043203
  0
VERTEX
  8
0
 10
1948.670993
 20
1154.966859
 42
0.067521
  0
VERTEX
  8
0
 10
1935.474548
 20
1166.530051
 42
0.061708
  0
VERTEX
  8
0
 10
1918.798164
 20
1174.822076
 42
0.030142
  0
VERTEX
  8
0
 10
1895.921371
 20
1181.348492
 42
0.024166
  0
VERTEX
  8
0
 10
1873.292334
 20
1185.216956
 42
0.016737
  0
VERTEX
  8
0
 10
1847.424410
 20
1187.486743
 42
0.010653
  0
VERTEX
  8
0
 10
1811.796145
 20
1188.653782
 42
0.002806
  0
VERTEX
  8
0
 10
1754.750000
 20
1188.986160
 42
0.000000
  0
VERTEX
  8
0
 10
1690.000000
 20
1189.000000
 42
0.000000
  0
SEQEND
  0
ENDSEC
  0
EOF
