  0
SECTION
  2
HEADER
  9
$ACADVER
  1
AC1006
  9
$EXTMIN
 10
0.000000
 20
0.000000
 30
0.000000
  9
$EXTMAX
 10
262.000000
 20
125.000000
 30
0.000000
  0
ENDSEC
  0
SECTION
  2
ENTITIES
  0
POLYLINE
  8
0
 66
1
 70
1
  0
VERTEX
  8
0
 10
92.000000
 20
102.000000
 42
0.003368
  0
VERTEX
  8
0
 10
92.045807
 20
95.199618
 42
0.041619
  0
VERTEX
  8
0
 10
92.295455
 20
92.625000
 42
0.151374
  0
VERTEX
  8
0
 10
92.904045
 20
91.456922
 42
0.200111
  0
VERTEX
  8
0
 10
94.000000
 20
91.000000
 42
0.200111
  0
VERTEX
  8
0
 10
95.095955
 20
91.456922
 42
0.151374
  0
VERTEX
  8
0
 10
95.704545
 20
92.625000
 42
0.041619
  0
VERTEX
  8
0
 10
95.954193
 20
95.199618
 42
0.003368
  0
VERTEX
  8
0
 10
96.000000
 20
102.000000
 42
0.003368
  0
VERTEX
  8
0
 10
95.954193
 20
108.800382
 42
0.041619
  0
VERTEX
  8
0
 10
95.704545
 20
111.375000
 42
0.151374
  0
VERTEX
  8
0
 10
95.095955
 20
112.543078
 42
0.200111
  0
VERTEX
  8
0
 10
94.000000
 20
113.000000
 42
0.200111
  0
VERTEX
  8
0
 10
92.904045
 20
112.543078
 42
0.151374
  0
VERTEX
  8
0
 10
92.295455
 20
111.375000
 42
0.041619
  0
VERTEX
  8
0
 10
92.045807
 20
108.800382
 42
0.003368
  0
SEQEND
  0
POLYLINE
  8
0
 66
1
 70
1
  0
VERTEX
  8
0
 10
77.000000
 20
109.500000
 42
0.015075
  0
VERTEX
  8
0
 10
75.937490
 20
108.298395
 42
0.089604
  0
VERTEX
  8
0
 10
75.526342
 20
107.572184
 42
0.312967
  0
VERTEX
  8
0
 10
75.635745
 20
107.177175
 42
0.175259
  0
VERTEX
  8
0
 10
76.125686
 20
107.000000
 42
0.061343
  0
VERTEX
  8
0
 10
76.769669
 20
107.079306
 42
0.039098
  0
VERTEX
  8
0
 10
77.486265
 20
107.319345
 42
0.038889
  0
VERTEX
  8
0
 10
78.162928
 20
107.670866
 42
0.057197
  0
VERTEX
  8
0
 10
78.687132
 20
108.087132
 42
-0.047458
  0
VERTEX
  8
0
 10
79.231562
 20
108.536977
 42
-0.150038
  0
VERTEX
  8
0
 10
79.678773
 20
108.674265
 42
-0.181024
  0
VERTEX
  8
0
 10
80.072821
 20
108.526767
 42
-0.075363
  0
VERTEX
  8
0
 10
80.446149
 20
108.087132
 42
0.111613
  0
VERTEX
  8
0
 10
80.855271
 20
107.670148
 42
0.050220
  0
VERTEX
  8
0
 10
81.542036
 20
107.319345
 42
0.046269
  0
VERTEX
  8
0
 10
82.374344
 20
107.080530
 42
0.046772
  0
VERTEX
  8
0
 10
83.233331
 20
107.000000
 42
0.019874
  0
VERTEX
  8
0
 10
84.544020
 20
107.052119
 42
0.418196
  0
VERTEX
  8
0
 10
84.771811
 20
107.323043
 42
0.162004
  0
VERTEX
  8
0
 10
84.557213
 20
107.811067
 42
0.004673
  0
VERTEX
  8
0
 10
83.000000
 20
109.500000
 42
0.012850
  0
VERTEX
  8
0
 10
82.052920
 20
110.457575
 42
0.017620
  0
VERTEX
  8
0
 10
81.149941
 20
111.265625
 42
0.014444
  0
VERTEX
  8
0
 10
80.370617
 20
111.877805
 42
0.160602
  0
VERTEX
  8
0
 10
80.000000
 20
112.000000
 42
0.160602
  0
VERTEX
  8
0
 10
79.629383
 20
111.877805
 42
0.014444
  0
VERTEX
  8
0
 10
78.850059
 20
111.265625
 42
0.017620
  0
VERTEX
  8
0
 10
77.947080
 20
110.457575
 42
0.012850
  0
SEQEND
  0
POLYLINE
  8
0
 66
1
 70
1
  0
VERTEX
  8
0
 10
50.000000
 20
95.538933
 42
0.004123
  0
VERTEX
  8
0
 10
50.048039
 20
89.712639
 42
0.047582
  0
VERTEX
  8
0
 10
50.302417
 20
87.442367
 42
0.163976
  0
VERTEX
  8
0
 10
50.912216
 20
86.405727
 42
0.180422
  0
VERTEX
  8
0
 10
52.000000
 20
86.000000
 42
0.075780
  0
VERTEX
  8
0
 10
52.935258
 20
86.142566
 42
0.149477
  0
VERTEX
  8
0
 10
53.550000
 20
86.562500
 42
0.124434
  0
VERTEX
  8
0
 10
53.893532
 20
87.317234
 42
0.044917
  0
VERTEX
  8
0
 10
54.000000
 20
88.500000
 42
-0.071623
  0
VERTEX
  8
0
 10
54.206547
 20
89.934518
 42
-0.224310
  0
VERTEX
  8
0
 10
54.837756
 20
90.643663
 42
-0.093186
  0
VERTEX
  8
0
 10
56.204318
 20
90.943990
 42
-0.007624
  0
VERTEX
  8
0
 10
59.877555
 20
91.000000
 42
0.032816
  0
VERTEX
  8
0
 10
64.473362
 20
91.301954
 42
0.168872
  0
VERTEX
  8
0
 10
66.719787
 20
92.431222
 42
0.173544
  0
VERTEX
  8
0
 10
67.747047
 20
94.690508
 42
0.035074
  0
VERTEX
  8
0
 10
67.805075
 20
99.168824
 42
0.000000
  0
VERTEX
  8
0
 10
67.500000
 20
104.500000
 42
0.000000
  0
VERTEX
  8
0
 10
58.750000
 20
104.788933
 42
0.000000
  0
VERTEX
  8
0
 10
50.000000
 20
105.077866
 42
0.000000
  0
SEQEND
  0
POLYLINE
  8
0
 66
1
 70
1
  0
VERTEX
  8
0
 10
63.804791
 20
98.250000
 42
0.000000
  0
VERTEX
  8
0
 10
63.500000
 20
93.500000
 42
0.000000
  0
VERTEX
  8
0
 10
59.000000
 20
93.500000
 42
0.000000
  0
VERTEX
  8
0
 10
54.500000
 20
93.500000
 42
0.000000
  0
VERTEX
  8
0
 10
54.195209
 20
98.250000
 42
0.000000
  0
VERTEX
  8
0
 10
53.890418
 20
103.000000
 42
0.000000
  0
VERTEX
  8
0
 10
59.000000
 20
103.000000
 42
0.000000
  0
VERTEX
  8
0
 10
64.109582
 20
103.000000
 42
0.000000
  0
SEQEND
  0
POLYLINE
  8
0
 66
1
 70
1
  0
VERTEX
  8
0
 10
71.703816
 20
104.370483
 42
0.158083
  0
VERTEX
  8
0
 10
71.426706
 20
103.827415
 42
0.012310
  0
VERTEX
  8
0
 10
71.206746
 20
102.191299
 42
0.015840
  0
VERTEX
  8
0
 10
71.051266
 20
100.185088
 42
0.011418
  0
VERTEX
  8
0
 10
71.000000
 20
97.940322
 42
0.030982
  0
VERTEX
  8
0
 10
71.261257
 20
93.728146
 42
0.206335
  0
VERTEX
  8
0
 10
72.302024
 20
91.955296
 42
0.145853
  0
VERTEX
  8
0
 10
74.529156
 20
91.159141
 42
0.013415
  0
VERTEX
  8
0
 10
80.459343
 20
91.000000
 42
0.029247
  0
VERTEX
  8
0
 10
85.359647
 20
91.286882
 42
0.165931
  0
VERTEX
  8
0
 10
87.684377
 20
92.397894
 42
0.179733
  0
VERTEX
  8
0
 10
88.742589
 20
94.643100
 42
0.035499
  0
VERTEX
  8
0
 10
88.805075
 20
99.168824
 42
0.000000
  0
VERTEX
  8
0
 10
88.500000
 20
104.500000
 42
0.000000
  0
VERTEX
  8
0
 10
80.453816
 20
104.787149
 42
0.008434
  0
VERTEX
  8
0
 10
77.319749
 20
104.846095
 42
0.012381
  0
VERTEX
  8
0
 10
74.564452
 20
104.783202
 42
0.007766
  0
VERTEX
  8
0
 10
72.286747
 20
104.639255
 42
0.178550
  0
SEQEND
  0
POLYLINE
  8
0
 66
1
 70
1
  0
VERTEX
  8
0
 10
84.804791
 20
98.250000
 42
0.000000
  0
VERTEX
  8
0
 10
84.500000
 20
93.500000
 42
0.000000
  0
VERTEX
  8
0
 10
79.750000
 20
93.195209
 42
0.000000
  0
VERTEX
  8
0
 10
75.000000
 20
92.890418
 42
0.000000
  0
VERTEX
  8
0
 10
75.000000
 20
97.945209
 42
0.000000
  0
VERTEX
  8
0
 10
75.000000
 20
103.000000
 42
0.000000
  0
VERTEX
  8
0
 10
80.054791
 20
103.000000
 42
0.000000
  0
VERTEX
  8
0
 10
85.109582
 20
103.000000
 42
0.000000
  0
SEQEND
  0
POLYLINE
  8
0
 66
1
 70
1
  0
VERTEX
  8
0
 10
99.427436
 20
103.671498
 42
0.071804
  0
VERTEX
  8
0
 10
99.233926
 20
102.818352
 42
0.011301
  0
VERTEX
  8
0
 10
99.135457
 20
101.095148
 42
0.012353
  0
VERTEX
  8
0
 10
99.115410
 20
99.044271
 42
0.010507
  0
VERTEX
  8
0
 10
99.193204
 20
96.880801
 42
0.000000
  0
VERTEX
  8
0
 10
99.500000
 20
91.500000
 42
0.000000
  0
VERTEX
  8
0
 10
108.250000
 20
91.211067
 42
0.008480
  0
VERTEX
  8
0
 10
111.986040
 20
91.151104
 42
0.021152
  0
VERTEX
  8
0
 10
114.714001
 20
91.269049
 42
0.021150
  0
VERTEX
  8
0
 10
116.623525
 20
91.514420
 42
0.365228
  0
VERTEX
  8
0
 10
117.000000
 20
91.961067
 42
0.343827
  0
VERTEX
  8
0
 10
116.661805
 20
92.394737
 42
0.024704
  0
VERTEX
  8
0
 10
115.065579
 20
92.712895
 42
0.024728
  0
VERTEX
  8
0
 10
112.843917
 20
92.931089
 42
0.012114
  0
VERTEX
  8
0
 10
110.000000
 20
93.000000
 42
-0.005599
  0
VERTEX
  8
0
 10
105.514401
 20
93.050231
 42
-0.080329
  0
VERTEX
  8
0
 10
103.950000
 20
93.339286
 42
-0.227859
  0
VERTEX
  8
0
 10
103.241714
 20
94.055682
 42
-0.083100
  0
VERTEX
  8
0
 10
103.000000
 20
95.500000
 42
-0.083762
  0
VERTEX
  8
0
 10
103.243729
 20
96.944683
 42
-0.227915
  0
VERTEX
  8
0
 10
103.956336
 20
97.661515
 42
-0.079700
  0
VERTEX
  8
0
 10
105.531864
 20
97.950031
 42
-0.005513
  0
VERTEX
  8
0
 10
110.063358
 20
98.000000
 42
0.000000
  0
VERTEX
  8
0
 10
117.126717
 20
98.000000
 42
0.000000
  0
VERTEX
  8
0
 10
116.813358
 20
101.250000
 42
0.000000
  0
VERTEX
  8
0
 10
116.500000
 20
104.500000
 42
0.000000
  0
VERTEX
  8
0
 10
108.234232
 20
104.790697
 42
0.007562
  0
VERTEX
  8
0
 10
104.060794
 20
104.874303
 42
0.032840
  0
VERTEX
  8
0
 10
101.591416
 20
104.724103
 42
0.060094
  0
VERTEX
  8
0
 10
100.106411
 20
104.350530
 42
0.212593
  0
SEQEND
  0
POLYLINE
  8
0
 66
1
 70
1
  0
VERTEX
  8
0
 10
113.000000
 20
101.500000
 42
-0.200296
  0
VERTEX
  8
0
 10
112.704941
 20
100.792990
 42
-0.122766
  0
VERTEX
  8
0
 10
111.916667
 20
100.325000
 42
-0.058865
  0
VERTEX
  8
0
 10
110.460489
 20
100.069243
 42
-0.014068
  0
VERTEX
  8
0
 10
108.000000
 20
100.000000
 42
-0.014068
  0
VERTEX
  8
0
 10
105.539511
 20
100.069243
 42
-0.058865
  0
VERTEX
  8
0
 10
104.083333
 20
100.325000
 42
-0.122766
  0
VERTEX
  8
0
 10
103.295059
 20
100.792990
 42
-0.200296
  0
VERTEX
  8
0
 10
103.000000
 20
101.500000
 42
-0.200296
  0
VERTEX
  8
0
 10
103.295059
 20
102.207010
 42
-0.122766
  0
VERTEX
  8
0
 10
104.083333
 20
102.675000
 42
-0.058865
  0
VERTEX
  8
0
 10
105.539511
 20
102.930757
 42
-0.014068
  0
VERTEX
  8
0
 10
108.000000
 20
103.000000
 42
-0.014068
  0
VERTEX
  8
0
 10
110.460489
 20
102.930757
 42
-0.058865
  0
VERTEX
  8
0
 10
111.916667
 20
102.675000
 42
-0.122766
  0
VERTEX
  8
0
 10
112.704941
 20
102.207010
 42
-0.200296
  0
SEQEND
  0
POLYLINE
  8
0
 66
1
 70
1
  0
VERTEX
  8
0
 10
37.666667
 20
87.333333
 42
0.124310
  0
VERTEX
  8
0
 10
37.408273
 20
86.900353
 42
0.025624
  0
VERTEX
  8
0
 10
37.195833
 20
86.030208
 42
0.025482
  0
VERTEX
  8
0
 10
37.048954
 20
84.966930
 42
0.021582
  0
VERTEX
  8
0
 10
37.000000
 20
83.833333
 42
-0.037322
  0
VERTEX
  8
0
 10
36.908154
 20
82.604587
 42
-0.084621
  0
VERTEX
  8
0
 10
36.617647
 20
81.722222
 42
-0.124534
  0
VERTEX
  8
0
 10
36.140475
 20
81.194028
 42
-0.148148
  0
VERTEX
  8
0
 10
35.500000
 20
81.000000
 42
0.099038
  0
VERTEX
  8
0
 10
34.927543
 20
80.885486
 42
0.097945
  0
VERTEX
  8
0
 10
34.440625
 20
80.559375
 42
0.097945
  0
VERTEX
  8
0
 10
34.114514
 20
80.072457
 42
0.099038
  0
VERTEX
  8
0
 10
34.000000
 20
79.500000
 42
0.103967
  0
VERTEX
  8
0
 10
34.120312
 20
78.927645
 42
0.098974
  0
VERTEX
  8
0
 10
34.461922
 20
78.440625
 42
0.096710
  0
VERTEX
  8
0
 10
34.972260
 20
78.114245
 42
0.094319
  0
VERTEX
  8
0
 10
35.572501
 20
78.000000
 42
-0.196866
  0
VERTEX
  8
0
 10
36.335313
 20
77.687547
 42
-0.143449
  0
VERTEX
  8
0
 10
36.786248
 20
76.878196
 42
-0.057580
  0
VERTEX
  8
0
 10
36.959165
 20
75.288287
 42
-0.009898
  0
VERTEX
  8
0
 10
36.878650
 20
72.250000
 42
0.008430
  0
VERTEX
  8
0
 10
36.780436
 20
68.913640
 42
0.074243
  0
VERTEX
  8
0
 10
36.979482
 20
67.455256
 42
0.198899
  0
VERTEX
  8
0
 10
37.536816
 20
66.761142
 42
0.126059
  0
VERTEX
  8
0
 10
38.556149
 20
66.500000
 42
0.135381
  0
VERTEX
  8
0
 10
39.573547
 20
66.780616
 42
0.166642
  0
VERTEX
  8
0
 10
40.206067
 20
67.528082
 42
0.069908
  0
VERTEX
  8
0
 10
40.568055
 20
69.057165
 42
0.010189
  0
VERTEX
  8
0
 10
40.799904
 20
72.250000
 42
-0.008804
  0
VERTEX
  8
0
 10
41.043611
 20
75.739968
 42
-0.089936
  0
VERTEX
  8
0
 10
41.424136
 20
77.132687
 42
-0.205726
  0
VERTEX
  8
0
 10
42.165509
 20
77.781479
 42
-0.078437
  0
VERTEX
  8
0
 10
43.549904
 20
78.000000
 42
0.048995
  0
VERTEX
  8
0
 10
44.565701
 20
78.099778
 42
0.088614
  0
VERTEX
  8
0
 10
45.341651
 20
78.403055
 42
0.117293
  0
VERTEX
  8
0
 10
45.824615
 20
78.883589
 42
0.139495
  0
VERTEX
  8
0
 10
46.000000
 20
79.500000
 42
0.140575
  0
VERTEX
  8
0
 10
45.822179
 20
80.119980
 42
0.118484
  0
VERTEX
  8
0
 10
45.333333
 20
80.600000
 42
0.088208
  0
VERTEX
  8
0
 10
44.543379
 20
80.901370
 42
0.047160
  0
VERTEX
  8
0
 10
43.500000
 20
81.000000
 42
-0.045527
  0
VERTEX
  8
0
 10
42.231486
 20
81.115743
 42
-0.152009
  0
VERTEX
  8
0
 10
41.500000
 20
81.500000
 42
-0.152009
  0
VERTEX
  8
0
 10
41.115743
 20
82.231486
 42
-0.045527
  0
VERTEX
  8
0
 10
41.000000
 20
83.500000
 42
-0.045527
  0
VERTEX
  8
0
 10
41.115743
 20
84.768514
 42
-0.152009
  0
VERTEX
  8
0
 10
41.500000
 20
85.500000
 42
-0.152009
  0
VERTEX
  8
0
 10
42.231486
 20
85.884257
 42
-0.045527
  0
VERTEX
  8
0
 10
43.500000
 20
86.000000
 42
0.038131
  0
VERTEX
  8
0
 10
44.457356
 20
86.073116
 42
0.057076
  0
VERTEX
  8
0
 10
45.265625
 20
86.293750
 42
0.074992
  0
VERTEX
  8
0
 10
45.817169
 20
86.617064
 42
0.226478
  0
VERTEX
  8
0
 10
46.000000
 20
87.000000
 42
0.377276
  0
VERTEX
  8
0
 10
45.370796
 20
87.715187
 42
0.021944
  0
VERTEX
  8
0
 10
42.231565
 20
87.979059
 42
0.024868
  0
VERTEX
  8
0
 10
39.033881
 20
87.947891
 42
0.183501
  0
SEQEND
  0
POLYLINE
  8
0
 66
1
 70
1
  0
VERTEX
  8
0
 10
136.000000
 20
84.500000
 42
-0.026079
  0
VERTEX
  8
0
 10
135.918056
 20
82.929992
 42
-0.071689
  0
VERTEX
  8
0
 10
135.647073
 20
81.857224
 42
-0.120165
  0
VERTEX
  8
0
 10
135.190992
 20
81.231359
 42
-0.177291
  0
VERTEX
  8
0
 10
134.559017
 20
81.000000
 42
0.106660
  0
VERTEX
  8
0
 10
133.169057
 20
80.700082
 42
0.230131
  0
VERTEX
  8
0
 10
132.486541
 20
79.878794
 42
0.269931
  0
VERTEX
  8
0
 10
132.760615
 20
78.947802
 42
0.126016
  0
VERTEX
  8
0
 10
133.899384
 20
78.316061
 42
-0.099320
  0
VERTEX
  8
0
 10
134.993386
 20
77.782503
 42
-0.144230
  0
VERTEX
  8
0
 10
135.624443
 20
76.921615
 42
-0.074063
  0
VERTEX
  8
0
 10
135.926250
 20
75.418950
 42
-0.012589
  0
VERTEX
  8
0
 10
136.000000
 20
72.490357
 42
0.029338
  0
VERTEX
  8
0
 10
136.213188
 20
68.860199
 42
0.160249
  0
VERTEX
  8
0
 10
137.031170
 20
67.100444
 42
0.171432
  0
VERTEX
  8
0
 10
138.700417
 20
66.234974
 42
0.034704
  0
VERTEX
  8
0
 10
142.081787
 20
66.000000
 42
0.035349
  0
VERTEX
  8
0
 10
143.358016
 20
66.090340
 42
0.083558
  0
VERTEX
  8
0
 10
144.263631
 20
66.378503
 42
0.125617
  0
VERTEX
  8
0
 10
144.801862
 20
66.855082
 42
0.150151
  0
VERTEX
  8
0
 10
145.000000
 20
67.500000
 42
0.140575
  0
VERTEX
  8
0
 10
144.822179
 20
68.119980
 42
0.118484
  0
VERTEX
  8
0
 10
144.333333
 20
68.600000
 42
0.088208
  0
VERTEX
  8
0
 10
143.543379
 20
68.901370
 42
0.047160
  0
VERTEX
  8
0
 10
142.500000
 20
69.000000
 42
-0.058662
  0
VERTEX
  8
0
 10
141.093239
 20
69.165617
 42
-0.210352
  0
VERTEX
  8
0
 10
140.388889
 20
69.700000
 42
-0.114574
  0
VERTEX
  8
0
 10
140.068074
 20
70.820113
 42
-0.012699
  0
VERTEX
  8
0
 10
140.000000
 20
73.500000
 42
-0.012699
  0
VERTEX
  8
0
 10
140.068074
 20
76.179887
 42
-0.114574
  0
VERTEX
  8
0
 10
140.388889
 20
77.300000
 42
-0.210352
  0
VERTEX
  8
0
 10
141.093239
 20
77.834383
 42
-0.058662
  0
VERTEX
  8
0
 10
142.500000
 20
78.000000
 42
0.047160
  0
VERTEX
  8
0
 10
143.543379
 20
78.098630
 42
0.088208
  0
VERTEX
  8
0
 10
144.333333
 20
78.400000
 42
0.118484
  0
VERTEX
  8
0
 10
144.822179
 20
78.880020
 42
0.140575
  0
VERTEX
  8
0
 10
145.000000
 20
79.500000
 42
0.140575
  0
VERTEX
  8
0
 10
144.822179
 20
80.119980
 42
0.118484
  0
VERTEX
  8
0
 10
144.333333
 20
80.600000
 42
0.088208
  0
VERTEX
  8
0
 10
143.543379
 20
80.901370
 42
0.047160
  0
VERTEX
  8
0
 10
142.500000
 20
81.000000
 42
-0.050766
  0
VERTEX
  8
0
 10
141.137780
 20
81.138668
 42
-0.189121
  0
VERTEX
  8
0
 10
140.428571
 20
81.600000
 42
-0.134430
  0
VERTEX
  8
0
 10
140.084309
 20
82.534425
 42
-0.021436
  0
VERTEX
  8
0
 10
140.000000
 20
84.500000
 42
0.022514
  0
VERTEX
  8
0
 10
139.917816
 20
86.324280
 42
0.107690
  0
VERTEX
  8
0
 10
139.607143
 20
87.312500
 42
0.177212
  0
VERTEX
  8
0
 10
139.002462
 20
87.822713
 42
0.087745
  0
VERTEX
  8
0
 10
138.000000
 20
88.000000
 42
0.087745
  0
VERTEX
  8
0
 10
136.997538
 20
87.822713
 42
0.177212
  0
VERTEX
  8
0
 10
136.392857
 20
87.312500
 42
0.107690
  0
VERTEX
  8
0
 10
136.082184
 20
86.324280
 42
0.022514
  0
SEQEND
  0
POLYLINE
  8
0
 66
1
 70
1
  0
VERTEX
  8
0
 10
50.250000
 20
80.337719
 42
0.284456
  0
VERTEX
  8
0
 10
49.059799
 20
78.715561
 42
0.025727
  0
VERTEX
  8
0
 10
48.916464
 20
73.463143
 42
0.025842
  0
VERTEX
  8
0
 10
49.314864
 20
68.219511
 42
0.275920
  0
VERTEX
  8
0
 10
50.581787
 20
66.606989
 42
0.081877
  0
VERTEX
  8
0
 10
53.780594
 20
65.948503
 42
0.026130
  0
VERTEX
  8
0
 10
58.655152
 20
66.010024
 42
0.022641
  0
VERTEX
  8
0
 10
63.386952
 20
66.533311
 42
0.158811
  0
VERTEX
  8
0
 10
65.428571
 20
67.571429
 42
0.150480
  0
VERTEX
  8
0
 10
66.759687
 20
70.087099
 42
0.054360
  0
VERTEX
  8
0
 10
67.083814
 20
74.163509
 42
0.054494
  0
VERTEX
  8
0
 10
66.539507
 20
78.078439
 42
0.211149
  0
VERTEX
  8
0
 10
65.065741
 20
79.964816
 42
0.103195
  0
VERTEX
  8
0
 10
62.801687
 20
80.629938
 42
0.013728
  0
VERTEX
  8
0
 10
57.796592
 20
80.893544
 42
0.014563
  0
VERTEX
  8
0
 10
52.785732
 20
80.873702
 42
0.087836
  0
SEQEND
  0
POLYLINE
  8
0
 66
1
 70
1
  0
VERTEX
  8
0
 10
63.000000
 20
73.500000
 42
0.000000
  0
VERTEX
  8
0
 10
63.000000
 20
69.000000
 42
0.000000
  0
VERTEX
  8
0
 10
58.000000
 20
69.000000
 42
0.000000
  0
VERTEX
  8
0
 10
53.000000
 20
69.000000
 42
0.000000
  0
VERTEX
  8
0
 10
53.000000
 20
73.500000
 42
0.000000
  0
VERTEX
  8
0
 10
53.000000
 20
78.000000
 42
0.000000
  0
VERTEX
  8
0
 10
58.000000
 20
78.000000
 42
0.000000
  0
VERTEX
  8
0
 10
63.000000
 20
78.000000
 42
0.000000
  0
SEQEND
  0
POLYLINE
  8
0
 66
1
 70
1
  0
VERTEX
  8
0
 10
70.712768
 20
80.379435
 42
0.164916
  0
VERTEX
  8
0
 10
70.430819
 20
79.808218
 42
0.009587
  0
VERTEX
  8
0
 10
70.209376
 20
77.847212
 42
0.013716
  0
VERTEX
  8
0
 10
70.051822
 20
75.457831
 42
0.009604
  0
VERTEX
  8
0
 10
70.000000
 20
72.760009
 42
0.006662
  0
VERTEX
  8
0
 10
70.052457
 20
68.822930
 42
0.058450
  0
VERTEX
  8
0
 10
70.301290
 20
67.099778
 42
0.189095
  0
VERTEX
  8
0
 10
70.846823
 20
66.357752
 42
0.190019
  0
VERTEX
  8
0
 10
71.750000
 20
66.186394
 42
0.155504
  0
VERTEX
  8
0
 10
72.620186
 20
66.657943
 42
0.109787
  0
VERTEX
  8
0
 10
73.202676
 20
67.614521
 42
0.056222
  0
VERTEX
  8
0
 10
73.570847
 20
69.292934
 42
0.012795
  0
VERTEX
  8
0
 10
73.798120
 20
72.199949
 42
-0.008965
  0
VERTEX
  8
0
 10
74.055698
 20
75.854569
 42
-0.110569
  0
VERTEX
  8
0
 10
74.476954
 20
77.176300
 42
-0.198350
  0
VERTEX
  8
0
 10
75.349983
 20
77.840530
 42
-0.040606
  0
VERTEX
  8
0
 10
77.298120
 20
78.190230
 42
0.029227
  0
VERTEX
  8
0
 10
78.524615
 20
78.381728
 42
0.043771
  0
VERTEX
  8
0
 10
79.559448
 20
78.702755
 42
0.052891
  0
VERTEX
  8
0
 10
80.285658
 20
79.093825
 42
0.247669
  0
VERTEX
  8
0
 10
80.500000
 20
79.500000
 42
0.368682
  0
VERTEX
  8
0
 10
79.818585
 20
80.298511
 42
0.017077
  0
VERTEX
  8
0
 10
76.005071
 20
80.772916
 42
0.019586
  0
VERTEX
  8
0
 10
72.154986
 20
80.967312
 42
0.201846
  0
SEQEND
  0
POLYLINE
  8
0
 66
1
 70
1
  0
VERTEX
  8
0
 10
83.000000
 20
73.426676
 42
0.005848
  0
VERTEX
  8
0
 10
83.050953
 20
69.070440
 42
0.053492
  0
VERTEX
  8
0
 10
83.296775
 20
67.194157
 42
0.180226
  0
VERTEX
  8
0
 10
83.842536
 20
66.385672
 42
0.204912
  0
VERTEX
  8
0
 10
84.750000
 20
66.186394
 42
0.156356
  0
VERTEX
  8
0
 10
85.621488
 20
66.660526
 42
0.109640
  0
VERTEX
  8
0
 10
86.203903
 20
67.623548
 42
0.055818
  0
VERTEX
  8
0
 10
86.571826
 20
69.316498
 42
0.012571
  0
VERTEX
  8
0
 10
86.799904
 20
72.259718
 42
0.000000
  0
VERTEX
  8
0
 10
87.099808
 20
78.000000
 42
0.000000
  0
VERTEX
  8
0
 10
90.549904
 20
78.000000
 42
0.000000
  0
VERTEX
  8
0
 10
94.000000
 20
78.000000
 42
0.000000
  0
VERTEX
  8
0
 10
94.000000
 20
72.468615
 42
0.014230
  0
VERTEX
  8
0
 10
94.077450
 20
69.747728
 42
0.049520
  0
VERTEX
  8
0
 10
94.350122
 20
68.012590
 42
0.085243
  0
VERTEX
  8
0
 10
94.841975
 20
66.925552
 42
0.153541
  0
VERTEX
  8
0
 10
95.600925
 20
66.322898
 42
0.197335
  0
VERTEX
  8
0
 10
97.098379
 20
66.357729
 42
0.183923
  0
VERTEX
  8
0
 10
98.195521
 20
67.435950
 42
0.092255
  0
VERTEX
  8
0
 10
98.774971
 20
69.740540
 42
0.030352
  0
VERTEX
  8
0
 10
98.780772
 20
73.250622
 42
0.000000
  0
VERTEX
  8
0
 10
98.500000
 20
78.001243
 42
0.000000
  0
VERTEX
  8
0
 10
102.250000
 20
78.000622
 42
0.000000
  0
VERTEX
  8
0
 10
106.000000
 20
78.000000
 42
0.000000
  0
VERTEX
  8
0
 10
106.000000
 20
71.926676
 42
0.008036
  0
VERTEX
  8
0
 10
106.054862
 20
68.513299
 42
0.066042
  0
VERTEX
  8
0
 10
106.308314
 20
66.982078
 42
0.199436
  0
VERTEX
  8
0
 10
106.852718
 20
66.321970
 42
0.170549
  0
VERTEX
  8
0
 10
107.750000
 20
66.186719
 42
0.165401
  0
VERTEX
  8
0
 10
108.634394
 20
66.688490
 42
0.108183
  0
VERTEX
  8
0
 10
109.213430
 20
67.720369
 42
0.051784
  0
VERTEX
  8
0
 10
109.573760
 20
69.570432
 42
0.010437
  0
VERTEX
  8
0
 10
109.801843
 20
72.918985
 42
0.012529
  0
VERTEX
  8
0
 10
109.867246
 20
75.880729
 42
0.033654
  0
VERTEX
  8
0
 10
109.719352
 20
77.982240
 42
0.048248
  0
VERTEX
  8
0
 10
109.378404
 20
79.412831
 42
0.170412
  0
VERTEX
  8
0
 10
108.801843
 20
80.143629
 42
0.120888
  0
VERTEX
  8
0
 10
107.825236
 20
80.472307
 42
0.005513
  0
VERTEX
  8
0
 10
104.283979
 20
80.731310
 42
0.008928
  0
VERTEX
  8
0
 10
100.037804
 20
80.918801
 42
0.006255
  0
VERTEX
  8
0
 10
95.250000
 20
80.984687
 42
0.000000
  0
VERTEX
  8
0
 10
83.000000
 20
81.000000
 42
0.000000
  0
SEQEND
  0
POLYLINE
  8
0
 66
1
 70
1
  0
VERTEX
  8
0
 10
113.693853
 20
80.360520
 42
0.286136
  0
VERTEX
  8
0
 10
113.470772
 20
79.399191
 42
0.225276
  0
VERTEX
  8
0
 10
114.232722
 20
78.617350
 42
0.070245
  0
VERTEX
  8
0
 10
116.443202
 20
78.134944
 42
0.018654
  0
VERTEX
  8
0
 10
120.059017
 20
78.000000
 42
-0.015621
  0
VERTEX
  8
0
 10
122.349343
 20
77.928428
 42
-0.026076
  0
VERTEX
  8
0
 10
124.264754
 20
77.707919
 42
-0.024323
  0
VERTEX
  8
0
 10
125.698135
 20
77.394310
 42
-0.338832
  0
VERTEX
  8
0
 10
126.000000
 20
77.000000
 42
-0.312228
  0
VERTEX
  8
0
 10
125.731064
 20
76.611312
 42
-0.036174
  0
VERTEX
  8
0
 10
124.658813
 20
76.293750
 42
-0.033279
  0
VERTEX
  8
0
 10
123.184234
 20
76.072271
 42
-0.020640
  0
VERTEX
  8
0
 10
121.434259
 20
76.000000
 42
0.032228
  0
VERTEX
  8
0
 10
117.321555
 20
75.734640
 42
0.111202
  0
VERTEX
  8
0
 10
114.828116
 20
74.823445
 42
0.160195
  0
VERTEX
  8
0
 10
113.474628
 20
73.153981
 42
0.091141
  0
VERTEX
  8
0
 10
113.000000
 20
70.571805
 42
0.083695
  0
VERTEX
  8
0
 10
113.419042
 20
68.085957
 42
0.205589
  0
VERTEX
  8
0
 10
114.642472
 20
66.744814
 42
0.095506
  0
VERTEX
  8
0
 10
117.198525
 20
66.132014
 42
0.011218
  0
VERTEX
  8
0
 10
123.081787
 20
66.000000
 42
0.000000
  0
VERTEX
  8
0
 10
130.000000
 20
66.000000
 42
0.000000
  0
VERTEX
  8
0
 10
130.000000
 20
72.893011
 42
0.009982
  0
VERTEX
  8
0
 10
129.930114
 20
76.393239
 42
0.042008
  0
VERTEX
  8
0
 10
129.670616
 20
78.477051
 42
0.078800
  0
VERTEX
  8
0
 10
129.190672
 20
79.732547
 42
0.172167
  0
VERTEX
  8
0
 10
128.418213
 20
80.393011
 42
0.082342
  0
VERTEX
  8
0
 10
126.004016
 20
80.887660
 42
0.009997
  0
VERTEX
  8
0
 10
120.572559
 20
80.984283
 42
0.006210
  0
VERTEX
  8
0
 10
114.952857
 20
80.902077
 42
0.191892
  0
SEQEND
  0
POLYLINE
  8
0
 66
1
 70
1
  0
VERTEX
  8
0
 10
126.000000
 20
71.000000
 42
-0.102588
  0
VERTEX
  8
0
 10
125.785276
 20
69.964475
 42
-0.188085
  0
VERTEX
  8
0
 10
125.187500
 20
69.361111
 42
-0.090841
  0
VERTEX
  8
0
 10
123.979415
 20
69.069261
 42
-0.013964
  0
VERTEX
  8
0
 10
121.500000
 20
69.000000
 42
-0.013964
  0
VERTEX
  8
0
 10
119.020585
 20
69.069261
 42
-0.090841
  0
VERTEX
  8
0
 10
117.812500
 20
69.361111
 42
-0.188085
  0
VERTEX
  8
0
 10
117.214724
 20
69.964475
 42
-0.102588
  0
VERTEX
  8
0
 10
117.000000
 20
71.000000
 42
-0.102588
  0
VERTEX
  8
0
 10
117.214724
 20
72.035525
 42
-0.188085
  0
VERTEX
  8
0
 10
117.812500
 20
72.638889
 42
-0.090841
  0
VERTEX
  8
0
 10
119.020585
 20
72.930739
 42
-0.013964
  0
VERTEX
  8
0
 10
121.500000
 20
73.000000
 42
-0.013964
  0
VERTEX
  8
0
 10
123.979415
 20
72.930739
 42
-0.090841
  0
VERTEX
  8
0
 10
125.187500
 20
72.638889
 42
-0.188085
  0
VERTEX
  8
0
 10
125.785276
 20
72.035525
 42
-0.102588
  0
SEQEND
  0
POLYLINE
  8
0
 66
1
 70
1
  0
VERTEX
  8
0
 10
148.000000
 20
73.500000
 42
0.005762
  0
VERTEX
  8
0
 10
148.050749
 20
69.096489
 42
0.053034
  0
VERTEX
  8
0
 10
148.296196
 20
67.204627
 42
0.179755
  0
VERTEX
  8
0
 10
148.842048
 20
66.390612
 42
0.206523
  0
VERTEX
  8
0
 10
149.750000
 20
66.190371
 42
0.170314
  0
VERTEX
  8
0
 10
150.641835
 20
66.710094
 42
0.118240
  0
VERTEX
  8
0
 10
151.175171
 20
67.759066
 42
0.050515
  0
VERTEX
  8
0
 10
151.437138
 20
69.701715
 42
0.008274
  0
VERTEX
  8
0
 10
151.500000
 20
73.500000
 42
0.008274
  0
VERTEX
  8
0
 10
151.437138
 20
77.298285
 42
0.050515
  0
VERTEX
  8
0
 10
151.175171
 20
79.240934
 42
0.118240
  0
VERTEX
  8
0
 10
150.641835
 20
80.289906
 42
0.170314
  0
VERTEX
  8
0
 10
149.750000
 20
80.809629
 42
0.206523
  0
VERTEX
  8
0
 10
148.842048
 20
80.609388
 42
0.179755
  0
VERTEX
  8
0
 10
148.296196
 20
79.795373
 42
0.053034
  0
VERTEX
  8
0
 10
148.050749
 20
77.903511
 42
0.005762
  0
SEQEND
  0
POLYLINE
  8
0
 66
1
 70
1
  0
VERTEX
  8
0
 10
156.250000
 20
80.337719
 42
0.209103
  0
VERTEX
  8
0
 10
155.709523
 20
79.785887
 42
0.042385
  0
VERTEX
  8
0
 10
155.324572
 20
78.437127
 42
0.033172
  0
VERTEX
  8
0
 10
155.077326
 20
76.500487
 42
0.015167
  0
VERTEX
  8
0
 10
155.000000
 20
73.951850
 42
0.039149
  0
VERTEX
  8
0
 10
155.345690
 20
69.543558
 42
0.179438
  0
VERTEX
  8
0
 10
156.581269
 20
67.342972
 42
0.151498
  0
VERTEX
  8
0
 10
159.093674
 20
66.270726
 42
0.025673
  0
VERTEX
  8
0
 10
164.362830
 20
66.000000
 42
0.039688
  0
VERTEX
  8
0
 10
168.817702
 20
66.354169
 42
0.148759
  0
VERTEX
  8
0
 10
171.311374
 20
67.571141
 42
0.159278
  0
VERTEX
  8
0
 10
172.607969
 20
69.913708
 42
0.047440
  0
VERTEX
  8
0
 10
173.000000
 20
74.036245
 42
0.017891
  0
VERTEX
  8
0
 10
172.910581
 20
76.534365
 42
0.061029
  0
VERTEX
  8
0
 10
172.598293
 20
78.128361
 42
0.095066
  0
VERTEX
  8
0
 10
172.007490
 20
79.197249
 42
0.096524
  0
VERTEX
  8
0
 10
171.065741
 20
79.964816
 42
0.103195
  0
VERTEX
  8
0
 10
168.801687
 20
80.629938
 42
0.013728
  0
VERTEX
  8
0
 10
163.796592
 20
80.893544
 42
0.014563
  0
VERTEX
  8
0
 10
158.785732
 20
80.873702
 42
0.087836
  0
SEQEND
  0
POLYLINE
  8
0
 66
1
 70
1
  0
VERTEX
  8
0
 10
169.000000
 20
73.500000
 42
0.000000
  0
VERTEX
  8
0
 10
169.000000
 20
69.000000
 42
0.000000
  0
VERTEX
  8
0
 10
164.000000
 20
69.000000
 42
0.000000
  0
VERTEX
  8
0
 10
159.000000
 20
69.000000
 42
0.000000
  0
VERTEX
  8
0
 10
159.000000
 20
73.500000
 42
0.000000
  0
VERTEX
  8
0
 10
159.000000
 20
78.000000
 42
0.000000
  0
VERTEX
  8
0
 10
164.000000
 20
78.000000
 42
0.000000
  0
VERTEX
  8
0
 10
169.000000
 20
78.000000
 42
0.000000
  0
SEQEND
  0
POLYLINE
  8
0
 66
1
 70
1
  0
VERTEX
  8
0
 10
176.000000
 20
73.426676
 42
0.005848
  0
VERTEX
  8
0
 10
176.050953
 20
69.070440
 42
0.053492
  0
VERTEX
  8
0
 10
176.296775
 20
67.194157
 42
0.180226
  0
VERTEX
  8
0
 10
176.842536
 20
66.385672
 42
0.204912
  0
VERTEX
  8
0
 10
177.750000
 20
66.186394
 42
0.156356
  0
VERTEX
  8
0
 10
178.621488
 20
66.660526
 42
0.109640
  0
VERTEX
  8
0
 10
179.203903
 20
67.623548
 42
0.055818
  0
VERTEX
  8
0
 10
179.571826
 20
69.316498
 42
0.012571
  0
VERTEX
  8
0
 10
179.799904
 20
72.259718
 42
0.000000
  0
VERTEX
  8
0
 10
180.099808
 20
78.000000
 42
0.000000
  0
VERTEX
  8
0
 10
185.049904
 20
78.000000
 42
0.000000
  0
VERTEX
  8
0
 10
190.000000
 20
78.000000
 42
0.000000
  0
VERTEX
  8
0
 10
190.000000
 20
71.926676
 42
0.008037
  0
VERTEX
  8
0
 10
190.054868
 20
68.513391
 42
0.066037
  0
VERTEX
  8
0
 10
190.308327
 20
66.982070
 42
0.199387
  0
VERTEX
  8
0
 10
190.852728
 20
66.321819
 42
0.170556
  0
VERTEX
  8
0
 10
191.750000
 20
66.186394
 42
0.154675
  0
VERTEX
  8
0
 10
192.618899
 20
66.655427
 42
0.109921
  0
VERTEX
  8
0
 10
193.201465
 20
67.605750
 42
0.056618
  0
VERTEX
  8
0
 10
193.569890
 20
69.270034
 42
0.013020
  0
VERTEX
  8
0
 10
193.796388
 20
72.141901
 42
0.041611
  0
VERTEX
  8
0
 10
193.647291
 20
77.027506
 42
0.189749
  0
VERTEX
  8
0
 10
192.337547
 20
79.490594
 42
0.153230
  0
VERTEX
  8
0
 10
189.501161
 20
80.699636
 42
0.024716
  0
VERTEX
  8
0
 10
183.428571
 20
81.000000
 42
0.000000
  0
VERTEX
  8
0
 10
176.000000
 20
81.000000
 42
0.000000
  0
SEQEND
  0
POLYLINE
  8
0
 66
1
 70
1
  0
VERTEX
  8
0
 10
206.000000
 20
74.566422
 42
-0.167403
  0
VERTEX
  8
0
 10
205.798292
 20
73.980845
 42
-0.085358
  0
VERTEX
  8
0
 10
205.215250
 20
73.451640
 42
-0.067043
  0
VERTEX
  8
0
 10
204.331436
 20
73.043259
 42
-0.046132
  0
VERTEX
  8
0
 10
203.250000
 20
72.816422
 42
0.042092
  0
VERTEX
  8
0
 10
201.792364
 20
72.522927
 42
0.150028
  0
VERTEX
  8
0
 10
201.005535
 20
72.006675
 42
0.139442
  0
VERTEX
  8
0
 10
200.611553
 20
71.112943
 42
0.034539
  0
VERTEX
  8
0
 10
200.500000
 20
69.500000
 42
0.036644
  0
VERTEX
  8
0
 10
200.626741
 20
67.772952
 42
0.177086
  0
VERTEX
  8
0
 10
201.088364
 20
66.921996
 42
0.140701
  0
VERTEX
  8
0
 10
202.057556
 20
66.461398
 42
0.020378
  0
VERTEX
  8
0
 10
204.250000
 20
66.189635
 42
0.000000
  0
VERTEX
  8
0
 10
208.000000
 20
65.879269
 42
0.000000
  0
VERTEX
  8
0
 10
208.000000
 20
70.939635
 42
0.018604
  0
VERTEX
  8
0
 10
207.927803
 20
72.879344
 42
0.030183
  0
VERTEX
  8
0
 10
207.706250
 20
74.513518
 42
0.030858
  0
VERTEX
  8
0
 10
207.389969
 20
75.717961
 42
0.323722
  0
VERTEX
  8
0
 10
207.000000
 20
76.000000
 42
0.141966
  0
VERTEX
  8
0
 10
206.618660
 20
75.889499
 42
0.099733
  0
VERTEX
  8
0
 10
206.293750
 20
75.578887
 42
0.084571
  0
VERTEX
  8
0
 10
206.074875
 20
75.114381
 42
0.068006
  0
SEQEND
  0
POLYLINE
  8
0
 66
1
 70
1
  0
VERTEX
  8
0
 10
206.000000
 20
70.000000
 42
-0.072254
  0
VERTEX
  8
0
 10
205.873159
 20
69.126841
 42
-0.124864
  0
VERTEX
  8
0
 10
205.500000
 20
68.500000
 42
-0.124864
  0
VERTEX
  8
0
 10
204.873159
 20
68.126841
 42
-0.072254
  0
VERTEX
  8
0
 10
204.000000
 20
68.000000
 42
-0.130671
  0
VERTEX
  8
0
 10
202.822676
 20
68.313030
 42
-0.169225
  0
VERTEX
  8
0
 10
202.094426
 20
69.150455
 42
-0.166841
  0
VERTEX
  8
0
 10
202.038601
 20
70.268934
 42
-0.126831
  0
VERTEX
  8
0
 10
202.666667
 20
71.333333
 42
-0.126831
  0
VERTEX
  8
0
 10
203.731066
 20
71.961399
 42
-0.166841
  0
VERTEX
  8
0
 10
204.849545
 20
71.905574
 42
-0.169225
  0
VERTEX
  8
0
 10
205.686970
 20
71.177324
 42
-0.130671
  0
SEQEND
  0
POLYLINE
  8
0
 66
1
 70
1
  0
VERTEX
  8
0
 10
210.000000
 20
69.560365
 42
0.020970
  0
VERTEX
  8
0
 10
210.091254
 20
67.385489
 42
0.175000
  0
VERTEX
  8
0
 10
210.495761
 20
66.504312
 42
0.178388
  0
VERTEX
  8
0
 10
211.365790
 20
66.093777
 42
0.021959
  0
VERTEX
  8
0
 10
213.500000
 20
66.000000
 42
0.038202
  0
VERTEX
  8
0
 10
216.159570
 20
66.203501
 42
0.337314
  0
VERTEX
  8
0
 10
216.927044
 20
66.999104
 42
0.389741
  0
VERTEX
  8
0
 10
216.334294
 20
67.818059
 42
0.040156
  0
VERTEX
  8
0
 10
213.750000
 20
68.131641
 42
0.000000
  0
VERTEX
  8
0
 10
210.500000
 20
68.263282
 42
0.000000
  0
VERTEX
  8
0
 10
214.000000
 20
68.881641
 42
0.060008
  0
VERTEX
  8
0
 10
216.777710
 20
69.724912
 42
0.314749
  0
VERTEX
  8
0
 10
217.562268
 20
71.015202
 42
0.306579
  0
VERTEX
  8
0
 10
216.623941
 20
72.227944
 42
0.058754
  0
VERTEX
  8
0
 10
213.750000
 20
72.810365
 42
0.016266
  0
VERTEX
  8
0
 10
211.363296
 20
72.929913
 42
0.184970
  0
VERTEX
  8
0
 10
210.491523
 20
72.613383
 42
0.197739
  0
VERTEX
  8
0
 10
210.085176
 20
71.805979
 42
0.018958
  0
SEQEND
  0
POLYLINE
  8
0
 66
1
 70
1
  0
VERTEX
  8
0
 10
215.000000
 20
71.000000
 42
-0.148195
  0
VERTEX
  8
0
 10
214.884432
 20
70.618646
 42
-0.098894
  0
VERTEX
  8
0
 10
214.559375
 20
70.293750
 42
-0.082425
  0
VERTEX
  8
0
 10
214.073457
 20
70.074694
 42
-0.064853
  0
VERTEX
  8
0
 10
213.500000
 20
70.000000
 42
-0.064853
  0
VERTEX
  8
0
 10
212.926543
 20
70.074694
 42
-0.082425
  0
VERTEX
  8
0
 10
212.440625
 20
70.293750
 42
-0.098894
  0
VERTEX
  8
0
 10
212.115568
 20
70.618646
 42
-0.148195
  0
VERTEX
  8
0
 10
212.000000
 20
71.000000
 42
-0.148195
  0
VERTEX
  8
0
 10
212.115568
 20
71.381354
 42
-0.098894
  0
VERTEX
  8
0
 10
212.440625
 20
71.706250
 42
-0.082425
  0
VERTEX
  8
0
 10
212.926543
 20
71.925306
 42
-0.064853
  0
VERTEX
  8
0
 10
213.500000
 20
72.000000
 42
-0.064853
  0
VERTEX
  8
0
 10
214.073457
 20
71.925306
 42
-0.082425
  0
VERTEX
  8
0
 10
214.559375
 20
71.706250
 42
-0.098894
  0
VERTEX
  8
0
 10
214.884432
 20
71.381354
 42
-0.148195
  0
SEQEND
  0
POLYLINE
  8
0
 66
1
 70
1
  0
VERTEX
  8
0
 10
219.666667
 20
72.333333
 42
0.138585
  0
VERTEX
  8
0
 10
219.017637
 20
71.172976
 42
0.217249
  0
VERTEX
  8
0
 10
219.233544
 20
70.069862
 42
0.146591
  0
VERTEX
  8
0
 10
220.362588
 20
69.196211
 42
0.061071
  0
VERTEX
  8
0
 10
222.250000
 20
68.723396
 42
0.000000
  0
VERTEX
  8
0
 10
225.500000
 20
68.320074
 42
0.000000
  0
VERTEX
  8
0
 10
222.250000
 20
68.160037
 42
0.030817
  0
VERTEX
  8
0
 10
221.005058
 20
68.021510
 42
0.046730
  0
VERTEX
  8
0
 10
219.954688
 20
67.735529
 42
0.058327
  0
VERTEX
  8
0
 10
219.223076
 20
67.358598
 42
0.249634
  0
VERTEX
  8
0
 10
219.000000
 20
66.939635
 42
0.287686
  0
VERTEX
  8
0
 10
219.251688
 20
66.538403
 42
0.063206
  0
VERTEX
  8
0
 10
220.058994
 20
66.267222
 42
0.045706
  0
VERTEX
  8
0
 10
221.255362
 20
66.139355
 42
0.024476
  0
VERTEX
  8
0
 10
222.741683
 20
66.189635
 42
0.027614
  0
VERTEX
  8
0
 10
224.469112
 20
66.429497
 42
0.068885
  0
VERTEX
  8
0
 10
225.672037
 20
66.842523
 42
0.101082
  0
VERTEX
  8
0
 10
226.432549
 20
67.444760
 42
0.128769
  0
VERTEX
  8
0
 10
226.815008
 20
68.250000
 42
0.098744
  0
VERTEX
  8
0
 10
226.806905
 20
69.097355
 42
0.201743
  0
VERTEX
  8
0
 10
226.435737
 20
69.634623
 42
0.117408
  0
VERTEX
  8
0
 10
225.606139
 20
69.922826
 42
0.025158
  0
VERTEX
  8
0
 10
224.073324
 20
70.000000
 42
-0.041234
  0
VERTEX
  8
0
 10
221.668020
 20
70.198700
 42
-0.388842
  0
VERTEX
  8
0
 10
221.082673
 20
70.946328
 42
-0.315141
  0
VERTEX
  8
0
 10
221.767071
 20
71.778902
 42
-0.037197
  0
VERTEX
  8
0
 10
224.250000
 20
72.276604
 42
0.000000
  0
VERTEX
  8
0
 10
227.500000
 20
72.679926
 42
0.000000
  0
VERTEX
  8
0
 10
223.916667
 20
72.839963
 42
0.017925
  0
VERTEX
  8
0
 10
222.495773
 20
72.852447
 42
0.022901
  0
VERTEX
  8
0
 10
221.190104
 20
72.757156
 42
0.021712
  0
VERTEX
  8
0
 10
220.130306
 20
72.583882
 42
0.146004
  0
SEQEND
  0
POLYLINE
  8
0
 66
1
 70
1
  0
VERTEX
  8
0
 10
53.000000
 20
59.500000
 42
-0.152103
  0
VERTEX
  8
0
 10
52.797909
 20
58.851045
 42
-0.126510
  0
VERTEX
  8
0
 10
52.250000
 20
58.375000
 42
-0.082504
  0
VERTEX
  8
0
 10
51.322075
 20
58.088963
 42
-0.033607
  0
VERTEX
  8
0
 10
50.000000
 20
58.000000
 42
0.032290
  0
VERTEX
  8
0
 10
48.255156
 20
57.887200
 42
0.187526
  0
VERTEX
  8
0
 10
47.460653
 20
57.453303
 42
0.155767
  0
VERTEX
  8
0
 10
47.086501
 20
56.546017
 42
0.020525
  0
VERTEX
  8
0
 10
47.000000
 20
54.439635
 42
0.018958
  0
VERTEX
  8
0
 10
47.085176
 20
52.194021
 42
0.197739
  0
VERTEX
  8
0
 10
47.491523
 20
51.386617
 42
0.184970
  0
VERTEX
  8
0
 10
48.363296
 20
51.070087
 42
0.016266
  0
VERTEX
  8
0
 10
50.750000
 20
51.189635
 42
0.024505
  0
VERTEX
  8
0
 10
53.101137
 20
51.500787
 42
0.180600
  0
VERTEX
  8
0
 10
54.056894
 20
52.071004
 42
0.140750
  0
VERTEX
  8
0
 10
54.529234
 20
53.201214
 42
0.013030
  0
VERTEX
  8
0
 10
54.804791
 20
56.250000
 42
0.017828
  0
VERTEX
  8
0
 10
54.859999
 20
58.191686
 42
0.037361
  0
VERTEX
  8
0
 10
54.736463
 20
59.696424
 42
0.049838
  0
VERTEX
  8
0
 10
54.470738
 20
60.710830
 42
0.313452
  0
VERTEX
  8
0
 10
54.054791
 20
61.000000
 42
0.140876
  0
VERTEX
  8
0
 10
53.652559
 20
60.884375
 42
0.099857
  0
VERTEX
  8
0
 10
53.309845
 20
60.559375
 42
0.084945
  0
VERTEX
  8
0
 10
53.079011
 20
60.073328
 42
0.068582
  0
SEQEND
  0
POLYLINE
  8
0
 66
1
 70
1
  0
VERTEX
  8
0
 10
52.811841
 20
54.738516
 42
-0.081073
  0
VERTEX
  8
0
 10
52.833970
 20
53.961175
 42
-0.164476
  0
VERTEX
  8
0
 10
52.565907
 20
53.419258
 42
-0.142094
  0
VERTEX
  8
0
 10
51.988401
 20
53.101437
 42
-0.055256
  0
VERTEX
  8
0
 10
51.073324
 20
53.000000
 42
-0.067185
  0
VERTEX
  8
0
 10
50.143857
 20
53.125458
 42
-0.129990
  0
VERTEX
  8
0
 10
49.500000
 20
53.500000
 42
-0.129990
  0
VERTEX
  8
0
 10
49.125458
 20
54.143857
 42
-0.067185
  0
VERTEX
  8
0
 10
49.000000
 20
55.073324
 42
-0.188778
  0
VERTEX
  8
0
 10
49.511028
 20
56.378606
 42
-0.232055
  0
VERTEX
  8
0
 10
50.717666
 20
56.844438
 42
-0.183129
  0
VERTEX
  8
0
 10
52.064160
 20
56.194252
 42
-0.143076
  0
SEQEND
  0
POLYLINE
  8
0
 66
1
 70
1
  0
VERTEX
  8
0
 10
75.000000
 20
59.554791
 42
-0.210211
  0
VERTEX
  8
0
 10
74.705377
 20
58.884977
 42
-0.097410
  0
VERTEX
  8
0
 10
73.877151
 20
58.379676
 42
-0.054807
  0
VERTEX
  8
0
 10
72.443828
 20
58.022680
 42
-0.017601
  0
VERTEX
  8
0
 10
70.258994
 20
57.804791
 42
0.018087
  0
VERTEX
  8
0
 10
67.972226
 20
57.574493
 42
0.059474
  0
VERTEX
  8
0
 10
66.506879
 20
57.191965
 42
0.101395
  0
VERTEX
  8
0
 10
65.626532
 20
56.619888
 42
0.152384
  0
VERTEX
  8
0
 10
65.198738
 20
55.817853
 42
0.126153
  0
VERTEX
  8
0
 10
65.249933
 20
55.011732
 42
0.163049
  0
VERTEX
  8
0
 10
65.688528
 20
54.419762
 42
0.095667
  0
VERTEX
  8
0
 10
66.614601
 20
54.007167
 42
0.026456
  0
VERTEX
  8
0
 10
68.189743
 20
53.727890
 42
0.000000
  0
VERTEX
  8
0
 10
71.500000
 20
53.320074
 42
0.000000
  0
VERTEX
  8
0
 10
68.250000
 20
53.160037
 42
0.030817
  0
VERTEX
  8
0
 10
67.005058
 20
53.021510
 42
0.046730
  0
VERTEX
  8
0
 10
65.954688
 20
52.735529
 42
0.058327
  0
VERTEX
  8
0
 10
65.223076
 20
52.358598
 42
0.249634
  0
VERTEX
  8
0
 10
65.000000
 20
51.939635
 42
0.287686
  0
VERTEX
  8
0
 10
65.251688
 20
51.538403
 42
0.063206
  0
VERTEX
  8
0
 10
66.058994
 20
51.267222
 42
0.045706
  0
VERTEX
  8
0
 10
67.255362
 20
51.139355
 42
0.024476
  0
VERTEX
  8
0
 10
68.741683
 20
51.189635
 42
0.027614
  0
VERTEX
  8
0
 10
70.469112
 20
51.429497
 42
0.068885
  0
VERTEX
  8
0
 10
71.672037
 20
51.842523
 42
0.101082
  0
VERTEX
  8
0
 10
72.432549
 20
52.444760
 42
0.128769
  0
VERTEX
  8
0
 10
72.815008
 20
53.250000
 42
0.098744
  0
VERTEX
  8
0
 10
72.806905
 20
54.097355
 42
0.201743
  0
VERTEX
  8
0
 10
72.435737
 20
54.634623
 42
0.117408
  0
VERTEX
  8
0
 10
71.606139
 20
54.922826
 42
0.025158
  0
VERTEX
  8
0
 10
70.073324
 20
55.000000
 42
-0.032762
  0
VERTEX
  8
0
 10
68.896056
 20
55.077221
 42
-0.050351
  0
VERTEX
  8
0
 10
67.902789
 20
55.311482
 42
-0.065065
  0
VERTEX
  8
0
 10
67.216826
 20
55.653207
 42
-0.249669
  0
VERTEX
  8
0
 10
67.000000
 20
56.060365
 42
-0.287917
  0
VERTEX
  8
0
 10
67.252038
 20
56.461775
 42
-0.063099
  0
VERTEX
  8
0
 10
68.060955
 20
56.732922
 42
-0.045629
  0
VERTEX
  8
0
 10
69.259853
 20
56.860727
 42
-0.024401
  0
VERTEX
  8
0
 10
70.750000
 20
56.810365
 42
-0.023371
  0
VERTEX
  8
0
 10
72.832767
 20
56.539534
 42
-0.117820
  0
VERTEX
  8
0
 10
73.901075
 20
56.074450
 42
-0.154447
  0
VERTEX
  8
0
 10
74.492070
 20
55.245157
 42
-0.049574
  0
VERTEX
  8
0
 10
74.816422
 20
53.750000
 42
0.042097
  0
VERTEX
  8
0
 10
75.070686
 20
52.487266
 42
0.101063
  0
VERTEX
  8
0
 10
75.513006
 20
51.646470
 42
0.129053
  0
VERTEX
  8
0
 10
76.170990
 20
51.168355
 42
0.093191
  0
VERTEX
  8
0
 10
77.066422
 20
51.000000
 42
0.049744
  0
VERTEX
  8
0
 10
77.806340
 20
51.073796
 42
0.069733
  0
VERTEX
  8
0
 10
78.432012
 20
51.293750
 42
0.089892
  0
VERTEX
  8
0
 10
78.853043
 20
51.618224
 42
0.185820
  0
VERTEX
  8
0
 10
79.000000
 20
52.000000
 42
0.099038
  0
VERTEX
  8
0
 10
78.923658
 20
52.381638
 42
0.097945
  0
VERTEX
  8
0
 10
78.706250
 20
52.706250
 42
0.097945
  0
VERTEX
  8
0
 10
78.381638
 20
52.923658
 42
0.099038
  0
VERTEX
  8
0
 10
78.000000
 20
53.000000
 42
-0.313354
  0
VERTEX
  8
0
 10
77.240009
 20
53.528152
 42
-0.103800
  0
VERTEX
  8
0
 10
77.026947
 20
54.944716
 42
-0.087698
  0
VERTEX
  8
0
 10
77.396220
 20
56.504137
 42
-0.197458
  0
VERTEX
  8
0
 10
78.250000
 20
57.337719
 42
0.009076
  0
VERTEX
  8
0
 10
78.909806
 20
57.617987
 42
0.295955
  0
VERTEX
  8
0
 10
79.000000
 20
57.757018
 42
0.382689
  0
VERTEX
  8
0
 10
78.903389
 20
57.864758
 42
0.011437
  0
VERTEX
  8
0
 10
78.250000
 20
57.921053
 42
-0.116386
  0
VERTEX
  8
0
 10
77.773019
 20
58.065889
 42
-0.093931
  0
VERTEX
  8
0
 10
77.367188
 20
58.417434
 42
-0.086824
  0
VERTEX
  8
0
 10
77.094381
 20
58.921074
 42
-0.080979
  0
VERTEX
  8
0
 10
77.000000
 20
59.500000
 42
0.064853
  0
VERTEX
  8
0
 10
76.925306
 20
60.073457
 42
0.082425
  0
VERTEX
  8
0
 10
76.706250
 20
60.559375
 42
0.098894
  0
VERTEX
  8
0
 10
76.381354
 20
60.884432
 42
0.148195
  0
VERTEX
  8
0
 10
76.000000
 20
61.000000
 42
0.143065
  0
VERTEX
  8
0
 10
75.618659
 20
60.888607
 42
0.099602
  0
VERTEX
  8
0
 10
75.293750
 20
60.575470
 42
0.084192
  0
VERTEX
  8
0
 10
75.074842
 20
60.107215
 42
0.067432
  0
SEQEND
  0
POLYLINE
  8
0
 66
1
 70
1
  0
VERTEX
  8
0
 10
114.816962
 20
59.250000
 42
0.073847
  0
VERTEX
  8
0
 10
114.605058
 20
56.795503
 42
0.058240
  0
VERTEX
  8
0
 10
115.076916
 20
54.167484
 42
0.063542
  0
VERTEX
  8
0
 10
116.028535
 20
52.041788
 42
0.211238
  0
VERTEX
  8
0
 10
117.257705
 20
51.188887
 42
0.058512
  0
VERTEX
  8
0
 10
117.924309
 20
51.139895
 42
0.089497
  0
VERTEX
  8
0
 10
118.488201
 20
51.267204
 42
0.119723
  0
VERTEX
  8
0
 10
118.862010
 20
51.544869
 42
0.175162
  0
VERTEX
  8
0
 10
119.000000
 20
51.926676
 42
0.092041
  0
VERTEX
  8
0
 10
118.923930
 20
52.336415
 42
0.096023
  0
VERTEX
  8
0
 10
118.706250
 20
52.684711
 42
0.099407
  0
VERTEX
  8
0
 10
118.381539
 20
52.917795
 42
0.106506
  0
VERTEX
  8
0
 10
118.000000
 20
53.000000
 42
-0.313354
  0
VERTEX
  8
0
 10
117.240009
 20
53.528152
 42
-0.103800
  0
VERTEX
  8
0
 10
117.026947
 20
54.944716
 42
-0.087698
  0
VERTEX
  8
0
 10
117.396220
 20
56.504137
 42
-0.197458
  0
VERTEX
  8
0
 10
118.250000
 20
57.337719
 42
0.009076
  0
VERTEX
  8
0
 10
118.909806
 20
57.617987
 42
0.295955
  0
VERTEX
  8
0
 10
119.000000
 20
57.757018
 42
0.382689
  0
VERTEX
  8
0
 10
118.903389
 20
57.864758
 42
0.011437
  0
VERTEX
  8
0
 10
118.250000
 20
57.921053
 42
-0.116386
  0
VERTEX
  8
0
 10
117.773019
 20
58.065889
 42
-0.093931
  0
VERTEX
  8
0
 10
117.367188
 20
58.417434
 42
-0.086824
  0
VERTEX
  8
0
 10
117.094381
 20
58.921074
 42
-0.080979
  0
VERTEX
  8
0
 10
117.000000
 20
59.500000
 42
0.112611
  0
VERTEX
  8
0
 10
116.749665
 20
60.597409
 42
0.319298
  0
VERTEX
  8
0
 10
116.099158
 20
60.956262
 42
0.227639
  0
VERTEX
  8
0
 10
115.330182
 20
60.472359
 42
0.082166
  0
SEQEND
  0
POLYLINE
  8
0
 66
1
 70
1
  0
VERTEX
  8
0
 10
138.000000
 20
56.000000
 42
0.018830
  0
VERTEX
  8
0
 10
138.072205
 20
54.083446
 42
0.030530
  0
VERTEX
  8
0
 10
138.293750
 20
52.468750
 42
0.031449
  0
VERTEX
  8
0
 10
138.610183
 20
51.280551
 42
0.322437
  0
VERTEX
  8
0
 10
139.000000
 20
51.000000
 42
0.254951
  0
VERTEX
  8
0
 10
139.384262
 20
51.209557
 42
0.062710
  0
VERTEX
  8
0
 10
139.706250
 20
51.881250
 42
0.048861
  0
VERTEX
  8
0
 10
139.927234
 20
52.850749
 42
0.031626
  0
VERTEX
  8
0
 10
140.000000
 20
54.000000
 42
-0.030703
  0
VERTEX
  8
0
 10
140.092253
 20
55.500917
 42
-0.116834
  0
VERTEX
  8
0
 10
140.416667
 20
56.375000
 42
-0.166173
  0
VERTEX
  8
0
 10
141.024683
 20
56.840542
 42
-0.081208
  0
VERTEX
  8
0
 10
142.000000
 20
57.000000
 42
-0.081208
  0
VERTEX
  8
0
 10
142.975317
 20
56.840542
 42
-0.166173
  0
VERTEX
  8
0
 10
143.583333
 20
56.375000
 42
-0.116834
  0
VERTEX
  8
0
 10
143.907747
 20
55.500917
 42
-0.030703
  0
VERTEX
  8
0
 10
144.000000
 20
54.000000
 42
0.031626
  0
VERTEX
  8
0
 10
144.072766
 20
52.850749
 42
0.048861
  0
VERTEX
  8
0
 10
144.293750
 20
51.881250
 42
0.062710
  0
VERTEX
  8
0
 10
144.615738
 20
51.209557
 42
0.254951
  0
VERTEX
  8
0
 10
145.000000
 20
51.000000
 42
0.277684
  0
VERTEX
  8
0
 10
145.385692
 20
51.232098
 42
0.052312
  0
VERTEX
  8
0
 10
145.706250
 20
52.028125
 42
0.042582
  0
VERTEX
  8
0
 10
145.927458
 20
53.158889
 42
0.027026
  0
VERTEX
  8
0
 10
146.000000
 20
54.500000
 42
0.021354
  0
VERTEX
  8
0
 10
145.911937
 20
56.561026
 42
0.157079
  0
VERTEX
  8
0
 10
145.535714
 20
57.458333
 42
0.185552
  0
VERTEX
  8
0
 10
144.739808
 20
57.888231
 42
0.032088
  0
VERTEX
  8
0
 10
143.000000
 20
58.000000
 42
-0.033607
  0
VERTEX
  8
0
 10
141.677925
 20
58.088963
 42
-0.082504
  0
VERTEX
  8
0
 10
140.750000
 20
58.375000
 42
-0.126510
  0
VERTEX
  8
0
 10
140.202091
 20
58.851045
 42
-0.152103
  0
VERTEX
  8
0
 10
140.000000
 20
59.500000
 42
0.064853
  0
VERTEX
  8
0
 10
139.925306
 20
60.073457
 42
0.082425
  0
VERTEX
  8
0
 10
139.706250
 20
60.559375
 42
0.098894
  0
VERTEX
  8
0
 10
139.381354
 20
60.884432
 42
0.148195
  0
VERTEX
  8
0
 10
139.000000
 20
61.000000
 42
0.322437
  0
VERTEX
  8
0
 10
138.610183
 20
60.719449
 42
0.031449
  0
VERTEX
  8
0
 10
138.293750
 20
59.531250
 42
0.030530
  0
VERTEX
  8
0
 10
138.072205
 20
57.916554
 42
0.018830
  0
SEQEND
  0
POLYLINE
  8
0
 66
1
 70
1
  0
VERTEX
  8
0
 10
166.000000
 20
56.000000
 42
0.018830
  0
VERTEX
  8
0
 10
166.072205
 20
54.083446
 42
0.030530
  0
VERTEX
  8
0
 10
166.293750
 20
52.468750
 42
0.031449
  0
VERTEX
  8
0
 10
166.610183
 20
51.280551
 42
0.322437
  0
VERTEX
  8
0
 10
167.000000
 20
51.000000
 42
0.322437
  0
VERTEX
  8
0
 10
167.389817
 20
51.280551
 42
0.031449
  0
VERTEX
  8
0
 10
167.706250
 20
52.468750
 42
0.030530
  0
VERTEX
  8
0
 10
167.927795
 20
54.083446
 42
0.018830
  0
VERTEX
  8
0
 10
168.000000
 20
56.000000
 42
0.018830
  0
VERTEX
  8
0
 10
167.927795
 20
57.916554
 42
0.030530
  0
VERTEX
  8
0
 10
167.706250
 20
59.531250
 42
0.031449
  0
VERTEX
  8
0
 10
167.389817
 20
60.719449
 42
0.322437
  0
VERTEX
  8
0
 10
167.000000
 20
61.000000
 42
0.322437
  0
VERTEX
  8
0
 10
166.610183
 20
60.719449
 42
0.031449
  0
VERTEX
  8
0
 10
166.293750
 20
59.531250
 42
0.030530
  0
VERTEX
  8
0
 10
166.072205
 20
57.916554
 42
0.018830
  0
SEQEND
  0
POLYLINE
  8
0
 66
1
 70
1
  0
VERTEX
  8
0
 10
34.000000
 20
54.500000
 42
0.027026
  0
VERTEX
  8
0
 10
34.072542
 20
53.158889
 42
0.042582
  0
VERTEX
  8
0
 10
34.293750
 20
52.028125
 42
0.052312
  0
VERTEX
  8
0
 10
34.614308
 20
51.232098
 42
0.277684
  0
VERTEX
  8
0
 10
35.000000
 20
51.000000
 42
0.277684
  0
VERTEX
  8
0
 10
35.385692
 20
51.232098
 42
0.052312
  0
VERTEX
  8
0
 10
35.706250
 20
52.028125
 42
0.042582
  0
VERTEX
  8
0
 10
35.927458
 20
53.158889
 42
0.027026
  0
VERTEX
  8
0
 10
36.000000
 20
54.500000
 42
0.027026
  0
VERTEX
  8
0
 10
35.927458
 20
55.841111
 42
0.042582
  0
VERTEX
  8
0
 10
35.706250
 20
56.971875
 42
0.052312
  0
VERTEX
  8
0
 10
35.385692
 20
57.767902
 42
0.277684
  0
VERTEX
  8
0
 10
35.000000
 20
58.000000
 42
0.277684
  0
VERTEX
  8
0
 10
34.614308
 20
57.767902
 42
0.052312
  0
VERTEX
  8
0
 10
34.293750
 20
56.971875
 42
0.042582
  0
VERTEX
  8
0
 10
34.072542
 20
55.841111
 42
0.027026
  0
SEQEND
  0
POLYLINE
  8
0
 66
1
 70
1
  0
VERTEX
  8
0
 10
37.000000
 20
54.500000
 42
0.036899
  0
VERTEX
  8
0
 10
37.187100
 20
51.968137
 42
0.279161
  0
VERTEX
  8
0
 10
37.919968
 20
51.083762
 42
0.425443
  0
VERTEX
  8
0
 10
38.713573
 20
51.487030
 42
0.045343
  0
VERTEX
  8
0
 10
39.183578
 20
53.741449
 42
-0.050305
  0
VERTEX
  8
0
 10
39.433018
 20
54.881310
 42
-0.069105
  0
VERTEX
  8
0
 10
39.892551
 20
55.823094
 42
-0.081487
  0
VERTEX
  8
0
 10
40.516482
 20
56.486746
 42
-0.117082
  0
VERTEX
  8
0
 10
41.250000
 20
56.814774
 42
-0.098731
  0
VERTEX
  8
0
 10
42.097382
 20
56.806801
 42
-0.201779
  0
VERTEX
  8
0
 10
42.634642
 20
56.435725
 42
-0.117421
  0
VERTEX
  8
0
 10
42.922834
 20
55.606190
 42
-0.025155
  0
VERTEX
  8
0
 10
43.000000
 20
54.073324
 42
0.030856
  0
VERTEX
  8
0
 10
43.072727
 20
52.895935
 42
0.047835
  0
VERTEX
  8
0
 10
43.293750
 20
51.902789
 42
0.061061
  0
VERTEX
  8
0
 10
43.615532
 20
51.213111
 42
0.258614
  0
VERTEX
  8
0
 10
44.000000
 20
51.000000
 42
0.277684
  0
VERTEX
  8
0
 10
44.385692
 20
51.232098
 42
0.052312
  0
VERTEX
  8
0
 10
44.706250
 20
52.028125
 42
0.042582
  0
VERTEX
  8
0
 10
44.927458
 20
53.158889
 42
0.027026
  0
VERTEX
  8
0
 10
45.000000
 20
54.500000
 42
0.022778
  0
VERTEX
  8
0
 10
44.900863
 20
56.675038
 42
0.192545
  0
VERTEX
  8
0
 10
44.464286
 20
57.531250
 42
0.165362
  0
VERTEX
  8
0
 10
43.521028
 20
57.920164
 42
0.015830
  0
VERTEX
  8
0
 10
41.000000
 20
58.000000
 42
0.015830
  0
VERTEX
  8
0
 10
38.478972
 20
57.920164
 42
0.165362
  0
VERTEX
  8
0
 10
37.535714
 20
57.531250
 42
0.192545
  0
VERTEX
  8
0
 10
37.099137
 20
56.675038
 42
0.022778
  0
SEQEND
  0
POLYLINE
  8
0
 66
1
 70
1
  0
VERTEX
  8
0
 10
56.186642
 20
54.750000
 42
0.032999
  0
VERTEX
  8
0
 10
56.492335
 20
52.880663
 42
0.157075
  0
VERTEX
  8
0
 10
57.041759
 20
51.963410
 42
0.137093
  0
VERTEX
  8
0
 10
58.067229
 20
51.471804
 42
0.022995
  0
VERTEX
  8
0
 10
60.250000
 20
51.189635
 42
0.016266
  0
VERTEX
  8
0
 10
62.636704
 20
51.070087
 42
0.184970
  0
VERTEX
  8
0
 10
63.508477
 20
51.386617
 42
0.197739
  0
VERTEX
  8
0
 10
63.914824
 20
52.194021
 42
0.018958
  0
VERTEX
  8
0
 10
64.000000
 20
54.439635
 42
0.026560
  0
VERTEX
  8
0
 10
63.927480
 20
55.803908
 42
0.041925
  0
VERTEX
  8
0
 10
63.706250
 20
56.954143
 42
0.051190
  0
VERTEX
  8
0
 10
63.385867
 20
57.765436
 42
0.280098
  0
VERTEX
  8
0
 10
63.000000
 20
58.000000
 42
0.226478
  0
VERTEX
  8
0
 10
62.617064
 20
57.817169
 42
0.074992
  0
VERTEX
  8
0
 10
62.293750
 20
57.265625
 42
0.057076
  0
VERTEX
  8
0
 10
62.073116
 20
56.457356
 42
0.038131
  0
VERTEX
  8
0
 10
62.000000
 20
55.500000
 42
-0.044917
  0
VERTEX
  8
0
 10
61.893532
 20
54.317234
 42
-0.124434
  0
VERTEX
  8
0
 10
61.550000
 20
53.562500
 42
-0.149477
  0
VERTEX
  8
0
 10
60.935258
 20
53.142566
 42
-0.075780
  0
VERTEX
  8
0
 10
60.000000
 20
53.000000
 42
-0.075780
  0
VERTEX
  8
0
 10
59.064742
 20
53.142566
 42
-0.149477
  0
VERTEX
  8
0
 10
58.450000
 20
53.562500
 42
-0.124434
  0
VERTEX
  8
0
 10
58.106468
 20
54.317234
 42
-0.044917
  0
VERTEX
  8
0
 10
58.000000
 20
55.500000
 42
0.040624
  0
VERTEX
  8
0
 10
57.922101
 20
56.457213
 42
0.060011
  0
VERTEX
  8
0
 10
57.687638
 20
57.265625
 42
0.078918
  0
VERTEX
  8
0
 10
57.343465
 20
57.814992
 42
0.216704
  0
VERTEX
  8
0
 10
56.936642
 20
58.000000
 42
0.272062
  0
VERTEX
  8
0
 10
56.545163
 20
57.769960
 42
0.070483
  0
VERTEX
  8
0
 10
56.271648
 20
57.059583
 42
0.051008
  0
VERTEX
  8
0
 10
56.140380
 20
56.013830
 42
0.029775
  0
SEQEND
  0
POLYLINE
  8
0
 66
1
 70
1
  0
VERTEX
  8
0
 10
80.000000
 20
54.500000
 42
0.027026
  0
VERTEX
  8
0
 10
80.072542
 20
53.158889
 42
0.042582
  0
VERTEX
  8
0
 10
80.293750
 20
52.028125
 42
0.052312
  0
VERTEX
  8
0
 10
80.614308
 20
51.232098
 42
0.277684
  0
VERTEX
  8
0
 10
81.000000
 20
51.000000
 42
0.251165
  0
VERTEX
  8
0
 10
81.384058
 20
51.205914
 42
0.064401
  0
VERTEX
  8
0
 10
81.706250
 20
51.859711
 42
0.049928
  0
VERTEX
  8
0
 10
81.927192
 20
52.805563
 42
0.032437
  0
VERTEX
  8
0
 10
82.000000
 20
53.926676
 42
-0.040922
  0
VERTEX
  8
0
 10
82.107396
 20
55.236676
 42
-0.078578
  0
VERTEX
  8
0
 10
82.438552
 20
56.234529
 42
-0.100426
  0
VERTEX
  8
0
 10
82.990525
 20
56.920682
 42
-0.109828
  0
VERTEX
  8
0
 10
83.750000
 20
57.310674
 42
0.049066
  0
VERTEX
  8
0
 10
84.282394
 20
57.507227
 42
0.602595
  0
VERTEX
  8
0
 10
84.288210
 20
57.676084
 42
0.109045
  0
VERTEX
  8
0
 10
83.849555
 20
57.813383
 42
0.010989
  0
VERTEX
  8
0
 10
82.750000
 20
57.883999
 42
0.038135
  0
VERTEX
  8
0
 10
81.183807
 20
57.830610
 42
0.197012
  0
VERTEX
  8
0
 10
80.438143
 20
57.423882
 42
0.151528
  0
VERTEX
  8
0
 10
80.082430
 20
56.537509
 42
0.020220
  0
SEQEND
  0
POLYLINE
  8
0
 66
1
 70
1
  0
VERTEX
  8
0
 10
86.000000
 20
54.500000
 42
0.027026
  0
VERTEX
  8
0
 10
86.072542
 20
53.158889
 42
0.042582
  0
VERTEX
  8
0
 10
86.293750
 20
52.028125
 42
0.052312
  0
VERTEX
  8
0
 10
86.614308
 20
51.232098
 42
0.277684
  0
VERTEX
  8
0
 10
87.000000
 20
51.000000
 42
0.277684
  0
VERTEX
  8
0
 10
87.385692
 20
51.232098
 42
0.052312
  0
VERTEX
  8
0
 10
87.706250
 20
52.028125
 42
0.042582
  0
VERTEX
  8
0
 10
87.927458
 20
53.158889
 42
0.027026
  0
VERTEX
  8
0
 10
88.000000
 20
54.500000
 42
0.027026
  0
VERTEX
  8
0
 10
87.927458
 20
55.841111
 42
0.042582
  0
VERTEX
  8
0
 10
87.706250
 20
56.971875
 42
0.052312
  0
VERTEX
  8
0
 10
87.385692
 20
57.767902
 42
0.277684
  0
VERTEX
  8
0
 10
87.000000
 20
58.000000
 42
0.277684
  0
VERTEX
  8
0
 10
86.614308
 20
57.767902
 42
0.052312
  0
VERTEX
  8
0
 10
86.293750
 20
56.971875
 42
0.042582
  0
VERTEX
  8
0
 10
86.072542
 20
55.841111
 42
0.027026
  0
SEQEND
  0
POLYLINE
  8
0
 66
1
 70
1
  0
VERTEX
  8
0
 10
89.186642
 20
54.750000
 42
0.032999
  0
VERTEX
  8
0
 10
89.492335
 20
52.880663
 42
0.157075
  0
VERTEX
  8
0
 10
90.041759
 20
51.963410
 42
0.137093
  0
VERTEX
  8
0
 10
91.067229
 20
51.471804
 42
0.022995
  0
VERTEX
  8
0
 10
93.250000
 20
51.189635
 42
0.034944
  0
VERTEX
  8
0
 10
96.055739
 20
51.153956
 42
0.330974
  0
VERTEX
  8
0
 10
96.923323
 20
51.879382
 42
0.403297
  0
VERTEX
  8
0
 10
96.416340
 20
52.741615
 42
0.037292
  0
VERTEX
  8
0
 10
93.750000
 20
53.276604
 42
0.000000
  0
VERTEX
  8
0
 10
90.500000
 20
53.679926
 42
0.000000
  0
VERTEX
  8
0
 10
93.750000
 20
53.839963
 42
0.028006
  0
VERTEX
  8
0
 10
95.378248
 20
54.011891
 42
0.106750
  0
VERTEX
  8
0
 10
96.323745
 20
54.382856
 42
0.159285
  0
VERTEX
  8
0
 10
96.825171
 20
55.017994
 42
0.088322
  0
VERTEX
  8
0
 10
97.000000
 20
56.000000
 42
0.095907
  0
VERTEX
  8
0
 10
96.801837
 20
57.023595
 42
0.184798
  0
VERTEX
  8
0
 10
96.242080
 20
57.626949
 42
0.097780
  0
VERTEX
  8
0
 10
95.129020
 20
57.925969
 42
0.016879
  0
VERTEX
  8
0
 10
92.936642
 20
58.000000
 42
0.013333
  0
VERTEX
  8
0
 10
90.349110
 20
57.930990
 42
0.166710
  0
VERTEX
  8
0
 10
89.453270
 20
57.569322
 42
0.217115
  0
VERTEX
  8
0
 10
89.090697
 20
56.776896
 42
0.024415
  0
SEQEND
  0
POLYLINE
  8
0
 66
1
 70
1
  0
VERTEX
  8
0
 10
94.250000
 20
56.337719
 42
-0.057986
  0
VERTEX
  8
0
 10
93.679992
 20
56.181385
 42
-0.037979
  0
VERTEX
  8
0
 10
93.000000
 20
56.129660
 42
-0.037979
  0
VERTEX
  8
0
 10
92.320008
 20
56.181385
 42
-0.057986
  0
VERTEX
  8
0
 10
91.750000
 20
56.337719
 42
-0.174857
  0
VERTEX
  8
0
 10
91.540618
 20
56.525001
 42
-0.447206
  0
VERTEX
  8
0
 10
91.601562
 20
56.693942
 42
-0.078554
  0
VERTEX
  8
0
 10
92.108560
 20
56.810911
 42
-0.017491
  0
VERTEX
  8
0
 10
93.000000
 20
56.842105
 42
-0.017491
  0
VERTEX
  8
0
 10
93.891440
 20
56.810911
 42
-0.078554
  0
VERTEX
  8
0
 10
94.398438
 20
56.693942
 42
-0.447206
  0
VERTEX
  8
0
 10
94.459382
 20
56.525001
 42
-0.174857
  0
SEQEND
  0
POLYLINE
  8
0
 66
1
 70
1
  0
VERTEX
  8
0
 10
98.666667
 20
57.333333
 42
0.138585
  0
VERTEX
  8
0
 10
98.017637
 20
56.172976
 42
0.217249
  0
VERTEX
  8
0
 10
98.233544
 20
55.069862
 42
0.146591
  0
VERTEX
  8
0
 10
99.362588
 20
54.196211
 42
0.061071
  0
VERTEX
  8
0
 10
101.250000
 20
53.723396
 42
0.000000
  0
VERTEX
  8
0
 10
104.500000
 20
53.320074
 42
0.000000
  0
VERTEX
  8
0
 10
101.250000
 20
53.160037
 42
0.030817
  0
VERTEX
  8
0
 10
100.005058
 20
53.021510
 42
0.046730
  0
VERTEX
  8
0
 10
98.954688
 20
52.735529
 42
0.058327
  0
VERTEX
  8
0
 10
98.223076
 20
52.358598
 42
0.249634
  0
VERTEX
  8
0
 10
98.000000
 20
51.939635
 42
0.287686
  0
VERTEX
  8
0
 10
98.251688
 20
51.538403
 42
0.063206
  0
VERTEX
  8
0
 10
99.058994
 20
51.267222
 42
0.045706
  0
VERTEX
  8
0
 10
100.255362
 20
51.139355
 42
0.024476
  0
VERTEX
  8
0
 10
101.741683
 20
51.189635
 42
0.027614
  0
VERTEX
  8
0
 10
103.469112
 20
51.429497
 42
0.068885
  0
VERTEX
  8
0
 10
104.672037
 20
51.842523
 42
0.101082
  0
VERTEX
  8
0
 10
105.432549
 20
52.444760
 42
0.128769
  0
VERTEX
  8
0
 10
105.815008
 20
53.250000
 42
0.088510
  0
VERTEX
  8
0
 10
105.823837
 20
54.073041
 42
0.187690
  0
VERTEX
  8
0
 10
105.502917
 20
54.612206
 42
0.130947
  0
VERTEX
  8
0
 10
104.796208
 20
54.913020
 42
0.035518
  0
VERTEX
  8
0
 10
103.573324
 20
55.000000
 42
-0.055173
  0
VERTEX
  8
0
 10
101.607498
 20
55.217585
 42
-0.372849
  0
VERTEX
  8
0
 10
101.070208
 20
55.944430
 42
-0.295993
  0
VERTEX
  8
0
 10
101.699972
 20
56.768113
 42
-0.048071
  0
VERTEX
  8
0
 10
103.750000
 20
57.283746
 42
0.003770
  0
VERTEX
  8
0
 10
105.310370
 20
57.532171
 42
0.676527
  0
VERTEX
  8
0
 10
105.336489
 20
57.651329
 42
0.137958
  0
VERTEX
  8
0
 10
105.027437
 20
57.754703
 42
0.001704
  0
VERTEX
  8
0
 10
102.916667
 20
57.850168
 42
0.017879
  0
VERTEX
  8
0
 10
101.495774
 20
57.858744
 42
0.022828
  0
VERTEX
  8
0
 10
100.190104
 20
57.760153
 42
0.021632
  0
VERTEX
  8
0
 10
99.130257
 20
57.584469
 42
0.145481
  0
SEQEND
  0
POLYLINE
  8
0
 66
1
 70
1
  0
VERTEX
  8
0
 10
120.384042
 20
56.558413
 42
0.081373
  0
VERTEX
  8
0
 10
119.938275
 20
54.403891
 42
0.168243
  0
VERTEX
  8
0
 10
120.426636
 20
52.777648
 42
0.152941
  0
VERTEX
  8
0
 10
121.865682
 20
51.701355
 42
0.064057
  0
VERTEX
  8
0
 10
124.258317
 20
51.189635
 42
0.035033
  0
VERTEX
  8
0
 10
127.059320
 20
51.154002
 42
0.331973
  0
VERTEX
  8
0
 10
127.923487
 20
51.879472
 42
0.402174
  0
VERTEX
  8
0
 10
127.414248
 20
52.741905
 42
0.037315
  0
VERTEX
  8
0
 10
124.750000
 20
53.276604
 42
0.000000
  0
VERTEX
  8
0
 10
121.500000
 20
53.679926
 42
0.000000
  0
VERTEX
  8
0
 10
124.750000
 20
53.839963
 42
0.028006
  0
VERTEX
  8
0
 10
126.378248
 20
54.011891
 42
0.106750
  0
VERTEX
  8
0
 10
127.323745
 20
54.382856
 42
0.159285
  0
VERTEX
  8
0
 10
127.825171
 20
55.017994
 42
0.088322
  0
VERTEX
  8
0
 10
128.000000
 20
56.000000
 42
0.088181
  0
VERTEX
  8
0
 10
127.821569
 20
57.003861
 42
0.177755
  0
VERTEX
  8
0
 10
127.308577
 20
57.608412
 42
0.107116
  0
VERTEX
  8
0
 10
126.313314
 20
57.918346
 42
0.022121
  0
VERTEX
  8
0
 10
124.468615
 20
58.000000
 42
0.032402
  0
VERTEX
  8
0
 10
122.978967
 20
57.903364
 42
0.052479
  0
VERTEX
  8
0
 10
121.745453
 20
57.608782
 42
0.066648
  0
VERTEX
  8
0
 10
120.849538
 20
57.150997
 42
0.150855
  0
SEQEND
  0
POLYLINE
  8
0
 66
1
 70
1
  0
VERTEX
  8
0
 10
125.729167
 20
56.395833
 42
-0.126455
  0
VERTEX
  8
0
 10
125.402231
 20
56.202593
 42
-0.060344
  0
VERTEX
  8
0
 10
124.916927
 20
56.123424
 42
-0.054150
  0
VERTEX
  8
0
 10
124.359369
 20
56.160852
 42
-0.051402
  0
VERTEX
  8
0
 10
123.812500
 20
56.316886
 42
-0.054073
  0
VERTEX
  8
0
 10
123.395823
 20
56.538436
 42
-0.470617
  0
VERTEX
  8
0
 10
123.378580
 20
56.720685
 42
-0.168741
  0
VERTEX
  8
0
 10
123.670344
 20
56.862007
 42
-0.018894
  0
VERTEX
  8
0
 10
124.416667
 20
56.921053
 42
-0.028489
  0
VERTEX
  8
0
 10
125.112848
 20
56.910055
 42
-0.077125
  0
VERTEX
  8
0
 10
125.592839
 20
56.799335
 42
-0.208169
  0
VERTEX
  8
0
 10
125.775380
 20
56.614691
 42
-0.296942
  0
SEQEND
  0
POLYLINE
  8
0
 66
1
 70
1
  0
VERTEX
  8
0
 10
130.186642
 20
54.750000
 42
0.032293
  0
VERTEX
  8
0
 10
130.480033
 20
52.939866
 42
0.140960
  0
VERTEX
  8
0
 10
131.000000
 20
52.000000
 42
0.140960
  0
VERTEX
  8
0
 10
131.939866
 20
51.480033
 42
0.032293
  0
VERTEX
  8
0
 10
133.750000
 20
51.186642
 42
0.029775
  0
VERTEX
  8
0
 10
135.013830
 20
51.140380
 42
0.051008
  0
VERTEX
  8
0
 10
136.059583
 20
51.271648
 42
0.070483
  0
VERTEX
  8
0
 10
136.769960
 20
51.545163
 42
0.272062
  0
VERTEX
  8
0
 10
137.000000
 20
51.936642
 42
0.216704
  0
VERTEX
  8
0
 10
136.814992
 20
52.343465
 42
0.078918
  0
VERTEX
  8
0
 10
136.265625
 20
52.687638
 42
0.060011
  0
VERTEX
  8
0
 10
135.457213
 20
52.922101
 42
0.040624
  0
VERTEX
  8
0
 10
134.500000
 20
53.000000
 42
-0.140518
  0
VERTEX
  8
0
 10
132.566121
 20
53.554437
 42
-0.274250
  0
VERTEX
  8
0
 10
131.854581
 20
54.931099
 42
-0.227050
  0
VERTEX
  8
0
 10
132.694483
 20
56.451059
 42
-0.117815
  0
VERTEX
  8
0
 10
134.750000
 20
57.283746
 42
0.006672
  0
VERTEX
  8
0
 10
136.142497
 20
57.513740
 42
0.712067
  0
VERTEX
  8
0
 10
136.163327
 20
57.646009
 42
0.110561
  0
VERTEX
  8
0
 10
135.754304
 20
57.758864
 42
0.002429
  0
VERTEX
  8
0
 10
133.686642
 20
57.850168
 42
0.014496
  0
VERTEX
  8
0
 10
131.269531
 20
57.875021
 42
0.178404
  0
VERTEX
  8
0
 10
130.424798
 20
57.545630
 42
0.216431
  0
VERTEX
  8
0
 10
130.082321
 20
56.777938
 42
0.022366
  0
SEQEND
  0
POLYLINE
  8
0
 66
1
 70
1
  0
VERTEX
  8
0
 10
147.407390
 20
56.619258
 42
0.075273
  0
VERTEX
  8
0
 10
147.069146
 20
55.078813
 42
0.074192
  0
VERTEX
  8
0
 10
147.199327
 20
53.499262
 42
0.095064
  0
VERTEX
  8
0
 10
147.718997
 20
52.335275
 42
0.262531
  0
VERTEX
  8
0
 10
148.500000
 20
51.960067
 42
0.199167
  0
VERTEX
  8
0
 10
148.884146
 20
52.149821
 42
0.075703
  0
VERTEX
  8
0
 10
149.211802
 20
52.663626
 42
0.059575
  0
VERTEX
  8
0
 10
149.438150
 20
53.401734
 42
0.042550
  0
VERTEX
  8
0
 10
149.518901
 20
54.262888
 42
-0.057368
  0
VERTEX
  8
0
 10
149.643605
 20
55.271132
 42
-0.122383
  0
VERTEX
  8
0
 10
150.004651
 20
55.962566
 42
-0.135122
  0
VERTEX
  8
0
 10
150.619204
 20
56.362922
 42
-0.077350
  0
VERTEX
  8
0
 10
151.500000
 20
56.500000
 42
-0.077350
  0
VERTEX
  8
0
 10
152.380796
 20
56.362922
 42
-0.135122
  0
VERTEX
  8
0
 10
152.995349
 20
55.962566
 42
-0.122383
  0
VERTEX
  8
0
 10
153.356395
 20
55.271132
 42
-0.057368
  0
VERTEX
  8
0
 10
153.481099
 20
54.262888
 42
0.042703
  0
VERTEX
  8
0
 10
153.561757
 20
53.405534
 42
0.061593
  0
VERTEX
  8
0
 10
153.788198
 20
52.679142
 42
0.080074
  0
VERTEX
  8
0
 10
154.116134
 20
52.184049
 42
0.206116
  0
VERTEX
  8
0
 10
154.500000
 20
52.012888
 42
0.243568
  0
VERTEX
  8
0
 10
154.883495
 20
52.205257
 42
0.069547
  0
VERTEX
  8
0
 10
155.206250
 20
52.811598
 42
0.053044
  0
VERTEX
  8
0
 10
155.427107
 20
53.697600
 42
0.034591
  0
VERTEX
  8
0
 10
155.500000
 20
54.750000
 42
0.045640
  0
VERTEX
  8
0
 10
155.359231
 20
56.288952
 42
0.178060
  0
VERTEX
  8
0
 10
154.880102
 20
57.097655
 42
0.130572
  0
VERTEX
  8
0
 10
153.889436
 20
57.544620
 42
0.020410
  0
VERTEX
  8
0
 10
151.741963
 20
57.810844
 42
0.024427
  0
VERTEX
  8
0
 10
149.988033
 20
57.869942
 42
0.063363
  0
VERTEX
  8
0
 10
148.738444
 20
57.691656
 42
0.095996
  0
VERTEX
  8
0
 10
147.899886
 20
57.276526
 42
0.139214
  0
SEQEND
  0
POLYLINE
  8
0
 66
1
 70
1
  0
VERTEX
  8
0
 10
157.181836
 20
54.814429
 42
0.027810
  0
VERTEX
  8
0
 10
157.476572
 20
52.881379
 42
0.163687
  0
VERTEX
  8
0
 10
157.989090
 20
52.009471
 42
0.155541
  0
VERTEX
  8
0
 10
158.939187
 20
51.600722
 42
0.024423
  0
VERTEX
  8
0
 10
161.000000
 20
51.500000
 42
0.021354
  0
VERTEX
  8
0
 10
163.061026
 20
51.588063
 42
0.157079
  0
VERTEX
  8
0
 10
163.958333
 20
51.964286
 42
0.185552
  0
VERTEX
  8
0
 10
164.388231
 20
52.760192
 42
0.032088
  0
VERTEX
  8
0
 10
164.500000
 20
54.500000
 42
0.036926
  0
VERTEX
  8
0
 10
164.371917
 20
56.231957
 42
0.178941
  0
VERTEX
  8
0
 10
163.905617
 20
57.081931
 42
0.139500
  0
VERTEX
  8
0
 10
162.924583
 20
57.541004
 42
0.019578
  0
VERTEX
  8
0
 10
160.681836
 20
57.814429
 42
0.013428
  0
VERTEX
  8
0
 10
158.222634
 20
57.950587
 42
0.186385
  0
VERTEX
  8
0
 10
157.399040
 20
57.659173
 42
0.223150
  0
VERTEX
  8
0
 10
157.064311
 20
56.915749
 42
0.019917
  0
SEQEND
  0
POLYLINE
  8
0
 66
1
 70
1
  0
VERTEX
  8
0
 10
163.000000
 20
55.000000
 42
-0.072254
  0
VERTEX
  8
0
 10
162.873159
 20
54.126841
 42
-0.124864
  0
VERTEX
  8
0
 10
162.500000
 20
53.500000
 42
-0.124864
  0
VERTEX
  8
0
 10
161.873159
 20
53.126841
 42
-0.072254
  0
VERTEX
  8
0
 10
161.000000
 20
53.000000
 42
-0.072254
  0
VERTEX
  8
0
 10
160.126841
 20
53.126841
 42
-0.124864
  0
VERTEX
  8
0
 10
159.500000
 20
53.500000
 42
-0.124864
  0
VERTEX
  8
0
 10
159.126841
 20
54.126841
 42
-0.072254
  0
VERTEX
  8
0
 10
159.000000
 20
55.000000
 42
-0.072254
  0
VERTEX
  8
0
 10
159.126841
 20
55.873159
 42
-0.124864
  0
VERTEX
  8
0
 10
159.500000
 20
56.500000
 42
-0.124864
  0
VERTEX
  8
0
 10
160.126841
 20
56.873159
 42
-0.072254
  0
VERTEX
  8
0
 10
161.000000
 20
57.000000
 42
-0.072254
  0
VERTEX
  8
0
 10
161.873159
 20
56.873159
 42
-0.124864
  0
VERTEX
  8
0
 10
162.500000
 20
56.500000
 42
-0.124864
  0
VERTEX
  8
0
 10
162.873159
 20
55.873159
 42
-0.072254
  0
SEQEND
  0
POLYLINE
  8
0
 66
1
 70
1
  0
VERTEX
  8
0
 10
169.384042
 20
56.558413
 42
0.078015
  0
VERTEX
  8
0
 10
168.923814
 20
54.406487
 42
0.170984
  0
VERTEX
  8
0
 10
169.389154
 20
52.810560
 42
0.166017
  0
VERTEX
  8
0
 10
170.766630
 20
51.828501
 42
0.072709
  0
VERTEX
  8
0
 10
173.013695
 20
51.500000
 42
0.024561
  0
VERTEX
  8
0
 10
175.055901
 20
51.600377
 42
0.153530
  0
VERTEX
  8
0
 10
176.006460
 20
52.005525
 42
0.164115
  0
VERTEX
  8
0
 10
176.520429
 20
52.867091
 42
0.029116
  0
VERTEX
  8
0
 10
176.813358
 20
54.750000
 42
0.023078
  0
VERTEX
  8
0
 10
176.913086
 20
56.743963
 42
0.201156
  0
VERTEX
  8
0
 10
176.580507
 20
57.545768
 42
0.179312
  0
VERTEX
  8
0
 10
175.752461
 20
57.921266
 42
0.017723
  0
VERTEX
  8
0
 10
173.531974
 20
58.000000
 42
0.031403
  0
VERTEX
  8
0
 10
172.008362
 20
57.904213
 42
0.052276
  0
VERTEX
  8
0
 10
170.757396
 20
57.611271
 42
0.067012
  0
VERTEX
  8
0
 10
169.853579
 20
57.154084
 42
0.151712
  0
SEQEND
  0
POLYLINE
  8
0
 66
1
 70
1
  0
VERTEX
  8
0
 10
175.000000
 20
55.000000
 42
-0.072254
  0
VERTEX
  8
0
 10
174.873159
 20
54.126841
 42
-0.124864
  0
VERTEX
  8
0
 10
174.500000
 20
53.500000
 42
-0.124864
  0
VERTEX
  8
0
 10
173.873159
 20
53.126841
 42
-0.072254
  0
VERTEX
  8
0
 10
173.000000
 20
53.000000
 42
-0.130671
  0
VERTEX
  8
0
 10
171.822676
 20
53.313030
 42
-0.169225
  0
VERTEX
  8
0
 10
171.094426
 20
54.150455
 42
-0.166841
  0
VERTEX
  8
0
 10
171.038601
 20
55.268934
 42
-0.126831
  0
VERTEX
  8
0
 10
171.666667
 20
56.333333
 42
-0.126831
  0
VERTEX
  8
0
 10
172.731066
 20
56.961399
 42
-0.166841
  0
VERTEX
  8
0
 10
173.849545
 20
56.905574
 42
-0.169225
  0
VERTEX
  8
0
 10
174.686970
 20
56.177324
 42
-0.130671
  0
SEQEND
  0
POLYLINE
  8
0
 66
1
 70
1
  0
VERTEX
  8
0
 10
179.000000
 20
54.560365
 42
0.021579
  0
VERTEX
  8
0
 10
179.088182
 20
52.518071
 42
0.139808
  0
VERTEX
  8
0
 10
179.451406
 20
51.565004
 42
0.181573
  0
VERTEX
  8
0
 10
180.212559
 20
51.077525
 42
0.041875
  0
VERTEX
  8
0
 10
181.750000
 20
50.881685
 42
0.000000
  0
VERTEX
  8
0
 10
184.500000
 20
50.763370
 42
0.000000
  0
VERTEX
  8
0
 10
181.500000
 20
49.962089
 42
0.002507
  0
VERTEX
  8
0
 10
179.578266
 20
49.438469
 42
0.650595
  0
VERTEX
  8
0
 10
179.559010
 20
49.307689
 42
0.151435
  0
VERTEX
  8
0
 10
179.867020
 20
49.224825
 42
0.001148
  0
VERTEX
  8
0
 10
182.500000
 20
49.330404
 42
0.017182
  0
VERTEX
  8
0
 10
185.053180
 20
49.526705
 42
0.175535
  0
VERTEX
  8
0
 10
185.989400
 20
49.988951
 42
0.175714
  0
VERTEX
  8
0
 10
186.411901
 20
50.943327
 42
0.017224
  0
VERTEX
  8
0
 10
186.500000
 20
53.500000
 42
0.017877
  0
VERTEX
  8
0
 10
186.410315
 20
56.007590
 42
0.162531
  0
VERTEX
  8
0
 10
185.996227
 20
57.004337
 42
0.173702
  0
VERTEX
  8
0
 10
185.079051
 20
57.518373
 42
0.021075
  0
VERTEX
  8
0
 10
182.750000
 20
57.810365
 42
0.016266
  0
VERTEX
  8
0
 10
180.363296
 20
57.929913
 42
0.184970
  0
VERTEX
  8
0
 10
179.491523
 20
57.613383
 42
0.197739
  0
VERTEX
  8
0
 10
179.085176
 20
56.805979
 42
0.018958
  0
SEQEND
  0
POLYLINE
  8
0
 66
1
 70
1
  0
VERTEX
  8
0
 10
184.811841
 20
54.738516
 42
-0.081073
  0
VERTEX
  8
0
 10
184.833970
 20
53.961175
 42
-0.164476
  0
VERTEX
  8
0
 10
184.565907
 20
53.419258
 42
-0.142094
  0
VERTEX
  8
0
 10
183.988401
 20
53.101437
 42
-0.055256
  0
VERTEX
  8
0
 10
183.073324
 20
53.000000
 42
-0.067185
  0
VERTEX
  8
0
 10
182.143857
 20
53.125458
 42
-0.129990
  0
VERTEX
  8
0
 10
181.500000
 20
53.500000
 42
-0.129990
  0
VERTEX
  8
0
 10
181.125458
 20
54.143857
 42
-0.067185
  0
VERTEX
  8
0
 10
181.000000
 20
55.073324
 42
-0.188778
  0
VERTEX
  8
0
 10
181.511028
 20
56.378606
 42
-0.232055
  0
VERTEX
  8
0
 10
182.717666
 20
56.844438
 42
-0.183129
  0
VERTEX
  8
0
 10
184.064160
 20
56.194252
 42
-0.143076
  0
SEQEND
  0
POLYLINE
  8
0
 66
1
 70
1
  0
VERTEX
  8
0
 10
188.000000
 20
54.500000
 42
0.027026
  0
VERTEX
  8
0
 10
188.072542
 20
53.158889
 42
0.042582
  0
VERTEX
  8
0
 10
188.293750
 20
52.028125
 42
0.052312
  0
VERTEX
  8
0
 10
188.614308
 20
51.232098
 42
0.277684
  0
VERTEX
  8
0
 10
189.000000
 20
51.000000
 42
0.277684
  0
VERTEX
  8
0
 10
189.385692
 20
51.232098
 42
0.052312
  0
VERTEX
  8
0
 10
189.706250
 20
52.028125
 42
0.042582
  0
VERTEX
  8
0
 10
189.927458
 20
53.158889
 42
0.027026
  0
VERTEX
  8
0
 10
190.000000
 20
54.500000
 42
0.027026
  0
VERTEX
  8
0
 10
189.927458
 20
55.841111
 42
0.042582
  0
VERTEX
  8
0
 10
189.706250
 20
56.971875
 42
0.052312
  0
VERTEX
  8
0
 10
189.385692
 20
57.767902
 42
0.277684
  0
VERTEX
  8
0
 10
189.000000
 20
58.000000
 42
0.277684
  0
VERTEX
  8
0
 10
188.614308
 20
57.767902
 42
0.052312
  0
VERTEX
  8
0
 10
188.293750
 20
56.971875
 42
0.042582
  0
VERTEX
  8
0
 10
188.072542
 20
55.841111
 42
0.027026
  0
SEQEND
  0
POLYLINE
  8
0
 66
1
 70
1
  0
VERTEX
  8
0
 10
191.384042
 20
56.558413
 42
0.082989
  0
VERTEX
  8
0
 10
190.983197
 20
54.589162
 42
0.132343
  0
VERTEX
  8
0
 10
191.369079
 20
52.925730
 42
0.141581
  0
VERTEX
  8
0
 10
192.509220
 20
51.755552
 42
0.100889
  0
VERTEX
  8
0
 10
194.258551
 20
51.183578
 42
-0.031763
  0
VERTEX
  8
0
 10
195.308492
 20
50.994236
 42
-0.046503
  0
VERTEX
  8
0
 10
196.194699
 20
50.685866
 42
-0.056860
  0
VERTEX
  8
0
 10
196.812266
 20
50.314502
 42
-0.233036
  0
VERTEX
  8
0
 10
197.000000
 20
49.933578
 42
0.106285
  0
VERTEX
  8
0
 10
197.076582
 20
49.577379
 42
0.099372
  0
VERTEX
  8
0
 10
197.293750
 20
49.274238
 42
0.096084
  0
VERTEX
  8
0
 10
197.618255
 20
49.071025
 42
0.092235
  0
VERTEX
  8
0
 10
198.000000
 20
49.000000
 42
0.310520
  0
VERTEX
  8
0
 10
198.388512
 20
49.267028
 42
0.036969
  0
VERTEX
  8
0
 10
198.706250
 20
50.321875
 42
0.033738
  0
VERTEX
  8
0
 10
198.927717
 20
51.775243
 42
0.020945
  0
VERTEX
  8
0
 10
199.000000
 20
53.500000
 42
0.012021
  0
VERTEX
  8
0
 10
198.929722
 20
56.422737
 42
0.155560
  0
VERTEX
  8
0
 10
198.553812
 20
57.431428
 42
0.205781
  0
VERTEX
  8
0
 10
197.703769
 20
57.895285
 42
0.023412
  0
VERTEX
  8
0
 10
195.468615
 20
58.000000
 42
0.032402
  0
VERTEX
  8
0
 10
193.978967
 20
57.903364
 42
0.052479
  0
VERTEX
  8
0
 10
192.745453
 20
57.608782
 42
0.066648
  0
VERTEX
  8
0
 10
191.849538
 20
57.150997
 42
0.150855
  0
SEQEND
  0
POLYLINE
  8
0
 66
1
 70
1
  0
VERTEX
  8
0
 10
197.000000
 20
55.000000
 42
-0.072254
  0
VERTEX
  8
0
 10
196.873159
 20
54.126841
 42
-0.124864
  0
VERTEX
  8
0
 10
196.500000
 20
53.500000
 42
-0.124864
  0
VERTEX
  8
0
 10
195.873159
 20
53.126841
 42
-0.072254
  0
VERTEX
  8
0
 10
195.000000
 20
53.000000
 42
-0.072254
  0
VERTEX
  8
0
 10
194.126841
 20
53.126841
 42
-0.124864
  0
VERTEX
  8
0
 10
193.500000
 20
53.500000
 42
-0.124864
  0
VERTEX
  8
0
 10
193.126841
 20
54.126841
 42
-0.072254
  0
VERTEX
  8
0
 10
193.000000
 20
55.000000
 42
-0.072254
  0
VERTEX
  8
0
 10
193.126841
 20
55.873159
 42
-0.124864
  0
VERTEX
  8
0
 10
193.500000
 20
56.500000
 42
-0.124864
  0
VERTEX
  8
0
 10
194.126841
 20
56.873159
 42
-0.072254
  0
VERTEX
  8
0
 10
195.000000
 20
57.000000
 42
-0.072254
  0
VERTEX
  8
0
 10
195.873159
 20
56.873159
 42
-0.124864
  0
VERTEX
  8
0
 10
196.500000
 20
56.500000
 42
-0.124864
  0
VERTEX
  8
0
 10
196.873159
 20
55.873159
 42
-0.072254
  0
SEQEND
  0
POLYLINE
  8
0
 66
1
 70
1
  0
VERTEX
  8
0
 10
200.186642
 20
54.750000
 42
0.032999
  0
VERTEX
  8
0
 10
200.492335
 20
52.880663
 42
0.157075
  0
VERTEX
  8
0
 10
201.041759
 20
51.963410
 42
0.137093
  0
VERTEX
  8
0
 10
202.067229
 20
51.471804
 42
0.022995
  0
VERTEX
  8
0
 10
204.250000
 20
51.189635
 42
0.016334
  0
VERTEX
  8
0
 10
206.643183
 20
51.070089
 42
0.187206
  0
VERTEX
  8
0
 10
207.512416
 20
51.390225
 42
0.196218
  0
VERTEX
  8
0
 10
207.916528
 20
52.205309
 42
0.018193
  0
VERTEX
  8
0
 10
208.000000
 20
54.498652
 42
0.022524
  0
VERTEX
  8
0
 10
207.935363
 20
55.932796
 42
0.057949
  0
VERTEX
  8
0
 10
207.723617
 20
56.946883
 42
0.122954
  0
VERTEX
  8
0
 10
207.398167
 20
57.458794
 42
0.340681
  0
VERTEX
  8
0
 10
207.000000
 20
57.500000
 42
0.111412
  0
VERTEX
  8
0
 10
206.616444
 20
57.123976
 42
0.050262
  0
VERTEX
  8
0
 10
206.293750
 20
56.493350
 42
0.046318
  0
VERTEX
  8
0
 10
206.074077
 20
55.729296
 42
0.046881
  0
VERTEX
  8
0
 10
206.000000
 20
54.940983
 42
-0.077002
  0
VERTEX
  8
0
 10
205.870271
 20
54.103605
 42
-0.123870
  0
VERTEX
  8
0
 10
205.492399
 20
53.492623
 42
-0.121293
  0
VERTEX
  8
0
 10
204.863653
 20
53.125060
 42
-0.072026
  0
VERTEX
  8
0
 10
204.000000
 20
53.000000
 42
-0.075780
  0
VERTEX
  8
0
 10
203.064742
 20
53.142566
 42
-0.149477
  0
VERTEX
  8
0
 10
202.450000
 20
53.562500
 42
-0.124434
  0
VERTEX
  8
0
 10
202.106468
 20
54.317234
 42
-0.044917
  0
VERTEX
  8
0
 10
202.000000
 20
55.500000
 42
0.040624
  0
VERTEX
  8
0
 10
201.922101
 20
56.457213
 42
0.060011
  0
VERTEX
  8
0
 10
201.687638
 20
57.265625
 42
0.078918
  0
VERTEX
  8
0
 10
201.343465
 20
57.814992
 42
0.216704
  0
VERTEX
  8
0
 10
200.936642
 20
58.000000
 42
0.272062
  0
VERTEX
  8
0
 10
200.545163
 20
57.769960
 42
0.070483
  0
VERTEX
  8
0
 10
200.271648
 20
57.059583
 42
0.051008
  0
VERTEX
  8
0
 10
200.140380
 20
56.013830
 42
0.029775
  0
SEQEND
  0
POLYLINE
  8
0
 66
1
 70
1
  0
VERTEX
  8
0
 10
210.181836
 20
54.814429
 42
0.030869
  0
VERTEX
  8
0
 10
210.476560
 20
52.957682
 42
0.140406
  0
VERTEX
  8
0
 10
210.994213
 20
52.005884
 42
0.142952
  0
VERTEX
  8
0
 10
211.931849
 20
51.481774
 42
0.032412
  0
VERTEX
  8
0
 10
213.750000
 20
51.186642
 42
0.029775
  0
VERTEX
  8
0
 10
215.013830
 20
51.140380
 42
0.051008
  0
VERTEX
  8
0
 10
216.059583
 20
51.271648
 42
0.070483
  0
VERTEX
  8
0
 10
216.769960
 20
51.545163
 42
0.272062
  0
VERTEX
  8
0
 10
217.000000
 20
51.936642
 42
0.250714
  0
VERTEX
  8
0
 10
216.776287
 20
52.354749
 42
0.059030
  0
VERTEX
  8
0
 10
216.045312
 20
52.726308
 42
0.047072
  0
VERTEX
  8
0
 10
214.994957
 20
53.003785
 42
0.030939
  0
VERTEX
  8
0
 10
213.750000
 20
53.131641
 42
0.000000
  0
VERTEX
  8
0
 10
210.500000
 20
53.263282
 42
0.000000
  0
VERTEX
  8
0
 10
214.000000
 20
53.881641
 42
0.059693
  0
VERTEX
  8
0
 10
216.794809
 20
54.728186
 42
0.319821
  0
VERTEX
  8
0
 10
217.565474
 20
56.018656
 42
0.303620
  0
VERTEX
  8
0
 10
216.603114
 20
57.232684
 42
0.057264
  0
VERTEX
  8
0
 10
213.681836
 20
57.814429
 42
0.013428
  0
VERTEX
  8
0
 10
211.222634
 20
57.950587
 42
0.186385
  0
VERTEX
  8
0
 10
210.399040
 20
57.659173
 42
0.223150
  0
VERTEX
  8
0
 10
210.064311
 20
56.915749
 42
0.019917
  0
SEQEND
  0
POLYLINE
  8
0
 66
1
 70
1
  0
VERTEX
  8
0
 10
214.729167
 20
56.395833
 42
-0.126455
  0
VERTEX
  8
0
 10
214.402231
 20
56.202593
 42
-0.060344
  0
VERTEX
  8
0
 10
213.916927
 20
56.123424
 42
-0.054150
  0
VERTEX
  8
0
 10
213.359369
 20
56.160852
 42
-0.051402
  0
VERTEX
  8
0
 10
212.812500
 20
56.316886
 42
-0.054073
  0
VERTEX
  8
0
 10
212.395823
 20
56.538436
 42
-0.470617
  0
VERTEX
  8
0
 10
212.378580
 20
56.720685
 42
-0.168741
  0
VERTEX
  8
0
 10
212.670344
 20
56.862007
 42
-0.018894
  0
VERTEX
  8
0
 10
213.416667
 20
56.921053
 42
-0.028489
  0
VERTEX
  8
0
 10
214.112848
 20
56.910055
 42
-0.077125
  0
VERTEX
  8
0
 10
214.592839
 20
56.799335
 42
-0.208169
  0
VERTEX
  8
0
 10
214.775380
 20
56.614691
 42
-0.296942
  0
SEQEND
  0
POLYLINE
  8
0
 66
1
 70
1
  0
VERTEX
  8
0
 10
219.000000
 20
56.063358
 42
0.100783
  0
VERTEX
  8
0
 10
219.189458
 20
55.132978
 42
0.137100
  0
VERTEX
  8
0
 10
219.721605
 20
54.467164
 42
0.094495
  0
VERTEX
  8
0
 10
220.692300
 20
54.015404
 42
0.030931
  0
VERTEX
  8
0
 10
222.250000
 20
53.723396
 42
0.000000
  0
VERTEX
  8
0
 10
225.500000
 20
53.320074
 42
0.000000
  0
VERTEX
  8
0
 10
222.250000
 20
53.160037
 42
0.030817
  0
VERTEX
  8
0
 10
221.005058
 20
53.021510
 42
0.046730
  0
VERTEX
  8
0
 10
219.954688
 20
52.735529
 42
0.058327
  0
VERTEX
  8
0
 10
219.223076
 20
52.358598
 42
0.249634
  0
VERTEX
  8
0
 10
219.000000
 20
51.939635
 42
0.287686
  0
VERTEX
  8
0
 10
219.251688
 20
51.538403
 42
0.063206
  0
VERTEX
  8
0
 10
220.058994
 20
51.267222
 42
0.045706
  0
VERTEX
  8
0
 10
221.255362
 20
51.139355
 42
0.024476
  0
VERTEX
  8
0
 10
222.741683
 20
51.189635
 42
0.027614
  0
VERTEX
  8
0
 10
224.469112
 20
51.429497
 42
0.068885
  0
VERTEX
  8
0
 10
225.672037
 20
51.842523
 42
0.101082
  0
VERTEX
  8
0
 10
226.432549
 20
52.444760
 42
0.128769
  0
VERTEX
  8
0
 10
226.815008
 20
53.250000
 42
0.098744
  0
VERTEX
  8
0
 10
226.806905
 20
54.097355
 42
0.201743
  0
VERTEX
  8
0
 10
226.435737
 20
54.634623
 42
0.117408
  0
VERTEX
  8
0
 10
225.606139
 20
54.922826
 42
0.025158
  0
VERTEX
  8
0
 10
224.073324
 20
55.000000
 42
-0.041234
  0
VERTEX
  8
0
 10
221.668020
 20
55.198700
 42
-0.388842
  0
VERTEX
  8
0
 10
221.082673
 20
55.946328
 42
-0.315141
  0
VERTEX
  8
0
 10
221.767071
 20
56.778902
 42
-0.037197
  0
VERTEX
  8
0
 10
224.250000
 20
57.276604
 42
0.002653
  0
VERTEX
  8
0
 10
226.166413
 20
57.524759
 42
0.719386
  0
VERTEX
  8
0
 10
226.188009
 20
57.637368
 42
0.118219
  0
VERTEX
  8
0
 10
225.841014
 20
57.736282
 42
0.001178
  0
VERTEX
  8
0
 10
223.250000
 20
57.839963
 42
0.014706
  0
VERTEX
  8
0
 10
220.925630
 20
57.859091
 42
0.093967
  0
VERTEX
  8
0
 10
219.777971
 20
57.616199
 42
0.193475
  0
VERTEX
  8
0
 10
219.205815
 20
57.052250
 42
0.102960
  0
SEQEND
  0
POLYLINE
  8
0
 66
1
 70
1
  0
VERTEX
  8
0
 10
66.458966
 20
36.066395
 42
-0.213124
  0
VERTEX
  8
0
 10
66.538246
 20
35.476563
 42
-0.210819
  0
VERTEX
  8
0
 10
66.152347
 20
35.020176
 42
-0.101931
  0
VERTEX
  8
0
 10
65.237057
 20
34.786291
 42
-0.038824
  0
VERTEX
  8
0
 10
63.914451
 20
34.826762
 42
0.216234
  0
VERTEX
  8
0
 10
63.535111
 20
34.702015
 42
0.003154
  0
VERTEX
  8
0
 10
61.763538
 20
33.051847
 42
0.007982
  0
VERTEX
  8
0
 10
59.723744
 20
31.065185
 42
0.005102
  0
VERTEX
  8
0
 10
57.414451
 20
28.695183
 42
0.000000
  0
VERTEX
  8
0
 10
51.500000
 20
22.500000
 42
0.000000
  0
VERTEX
  8
0
 10
58.000000
 20
28.489234
 42
0.000000
  0
VERTEX
  8
0
 10
64.500000
 20
34.478467
 42
0.000000
  0
VERTEX
  8
0
 10
58.272571
 20
28.021805
 42
0.000000
  0
VERTEX
  8
0
 10
52.045142
 20
21.565142
 42
0.000000
  0
VERTEX
  8
0
 10
36.272571
 20
21.860131
 42
-0.004447
  0
VERTEX
  8
0
 10
27.792829
 20
22.094192
 42
-0.018393
  0
VERTEX
  8
0
 10
22.679787
 20
22.469505
 42
-0.030280
  0
VERTEX
  8
0
 10
19.096879
 20
23.086730
 42
-0.045711
  0
VERTEX
  8
0
 10
16.095462
 20
24.089689
 42
0.009635
  0
VERTEX
  8
0
 10
14.380125
 20
24.803997
 42
0.015034
  0
VERTEX
  8
0
 10
12.874339
 20
25.345560
 42
0.009167
  0
VERTEX
  8
0
 10
11.623350
 20
25.728222
 42
0.272433
  0
VERTEX
  8
0
 10
11.315031
 20
25.648364
 42
0.488382
  0
VERTEX
  8
0
 10
11.343024
 20
25.422335
 42
0.009544
  0
VERTEX
  8
0
 10
12.508264
 20
24.755370
 42
0.015050
  0
VERTEX
  8
0
 10
14.027154
 20
23.982523
 42
0.008582
  0
VERTEX
  8
0
 10
15.904950
 20
23.136235
 42
0.033818
  0
VERTEX
  8
0
 10
19.052367
 20
22.027666
 42
0.037057
  0
VERTEX
  8
0
 10
22.226081
 20
21.394369
 42
0.024524
  0
VERTEX
  8
0
 10
26.398926
 20
21.085688
 42
0.006243
  0
VERTEX
  8
0
 10
33.185381
 20
21.002110
 42
0.000000
  0
VERTEX
  8
0
 10
45.500000
 20
21.004220
 42
0.000000
  0
VERTEX
  8
0
 10
45.185662
 20
10.502110
 42
0.000000
  0
VERTEX
  8
0
 10
44.871323
 20
0.000000
 42
0.000000
  0
VERTEX
  8
0
 10
49.435662
 20
0.000000
 42
0.000000
  0
VERTEX
  8
0
 10
54.000000
 20
0.000000
 42
0.000000
  0
VERTEX
  8
0
 10
54.000000
 20
10.000000
 42
-0.005163
  0
VERTEX
  8
0
 10
54.055242
 20
15.350044
 42
-0.032071
  0
VERTEX
  8
0
 10
54.287500
 20
18.083333
 42
-0.076301
  0
VERTEX
  8
0
 10
54.734210
 20
19.521330
 42
-0.286822
  0
VERTEX
  8
0
 10
55.500000
 20
20.000000
 42
-0.286822
  0
VERTEX
  8
0
 10
56.265790
 20
19.521330
 42
-0.076301
  0
VERTEX
  8
0
 10
56.712500
 20
18.083333
 42
-0.032071
  0
VERTEX
  8
0
 10
56.944758
 20
15.350044
 42
-0.005163
  0
VERTEX
  8
0
 10
57.000000
 20
10.000000
 42
0.000000
  0
VERTEX
  8
0
 10
57.000000
 20
0.000000
 42
0.000000
  0
VERTEX
  8
0
 10
159.500000
 20
0.000000
 42
0.000000
  0
VERTEX
  8
0
 10
262.000000
 20
0.000000
 42
0.000000
  0
VERTEX
  8
0
 10
262.000000
 20
18.000000
 42
0.000000
  0
VERTEX
  8
0
 10
262.000000
 20
36.000000
 42
0.000000
  0
VERTEX
  8
0
 10
206.250000
 20
36.053191
 42
-0.000704
  0
VERTEX
  8
0
 10
181.811977
 20
36.110898
 42
-0.000501
  0
VERTEX
  8
0
 10
154.436235
 20
36.241511
 42
-0.000506
  0
VERTEX
  8
0
 10
128.324509
 20
36.418693
 42
-0.001080
  0
VERTEX
  8
0
 10
108.149949
 20
36.619586
 42
0.001392
  0
VERTEX
  8
0
 10
88.512666
 20
36.802874
 42
0.004954
  0
VERTEX
  8
0
 10
75.933419
 20
36.760615
 42
0.001948
  0
VERTEX
  8
0
 10
66.750770
 20
36.602984
 42
0.580326
  0
SEQEND
  0
POLYLINE
  8
0
 66
1
 70
1
  0
VERTEX
  8
0
 10
78.886300
 20
30.637000
 42
-0.038957
  0
VERTEX
  8
0
 10
79.375188
 20
29.944683
 42
-0.404506
  0
VERTEX
  8
0
 10
79.302333
 20
29.636021
 42
-0.178976
  0
VERTEX
  8
0
 10
78.838339
 20
29.534195
 42
-0.012679
  0
VERTEX
  8
0
 10
77.508745
 20
29.753577
 42
0.034907
  0
VERTEX
  8
0
 10
76.123284
 20
29.919368
 42
0.197348
  0
VERTEX
  8
0
 10
75.436163
 20
29.676018
 42
0.182830
  0
VERTEX
  8
0
 10
75.088009
 20
29.005750
 42
0.029359
  0
VERTEX
  8
0
 10
75.000000
 20
27.508169
 42
0.027196
  0
VERTEX
  8
0
 10
75.084839
 20
25.949545
 42
0.208253
  0
VERTEX
  8
0
 10
75.440440
 20
25.327600
 42
0.198368
  0
VERTEX
  8
0
 10
76.149689
 20
25.147167
 42
0.024477
  0
VERTEX
  8
0
 10
77.750000
 20
25.457397
 42
-0.004950
  0
VERTEX
  8
0
 10
79.514029
 20
25.871410
 42
-0.250730
  0
VERTEX
  8
0
 10
79.844959
 20
25.779571
 42
-0.408676
  0
VERTEX
  8
0
 10
79.853836
 20
25.509317
 42
-0.008348
  0
VERTEX
  8
0
 10
78.827541
 20
24.429061
 42
-0.108927
  0
VERTEX
  8
0
 10
77.071794
 20
23.285477
 42
-0.228120
  0
VERTEX
  8
0
 10
75.486488
 20
23.425742
 42
-0.185427
  0
VERTEX
  8
0
 10
74.372996
 20
24.839049
 42
-0.075294
  0
VERTEX
  8
0
 10
74.000000
 20
27.301949
 42
-0.060999
  0
VERTEX
  8
0
 10
74.361381
 20
30.253107
 42
-0.184087
  0
VERTEX
  8
0
 10
75.499151
 20
31.888682
 42
-0.265586
  0
VERTEX
  8
0
 10
77.103825
 20
32.016877
 42
-0.110093
  0
SEQEND
  0
POLYLINE
  8
0
 66
1
 70
1
  0
VERTEX
  8
0
 10
86.690692
 20
27.212458
 42
0.000000
  0
VERTEX
  8
0
 10
86.881385
 20
22.924916
 42
0.000000
  0
VERTEX
  8
0
 10
84.973962
 20
25.212458
 42
0.000000
  0
VERTEX
  8
0
 10
83.066539
 20
27.500000
 42
0.000000
  0
VERTEX
  8
0
 10
83.033269
 20
25.190983
 42
-0.042063
  0
VERTEX
  8
0
 10
82.949641
 20
24.344574
 42
-0.091741
  0
VERTEX
  8
0
 10
82.717372
 20
23.737703
 42
-0.168368
  0
VERTEX
  8
0
 10
82.382340
 20
23.461928
 42
-0.231153
  0
VERTEX
  8
0
 10
82.000000
 20
23.500000
 42
-0.218525
  0
VERTEX
  8
0
 10
81.289831
 20
24.567721
 42
-0.029933
  0
VERTEX
  8
0
 10
81.024593
 20
27.299212
 42
-0.031250
  0
VERTEX
  8
0
 10
81.095100
 20
30.060598
 42
-0.176136
  0
VERTEX
  8
0
 10
81.708849
 20
31.375516
 42
-0.118669
  0
VERTEX
  8
0
 10
82.121725
 20
31.628178
 42
-0.040663
  0
VERTEX
  8
0
 10
82.809062
 20
31.790312
 42
-0.037695
  0
VERTEX
  8
0
 10
83.625458
 20
31.851670
 42
-0.035475
  0
VERTEX
  8
0
 10
84.458849
 20
31.792183
 42
-0.100135
  0
VERTEX
  8
0
 10
85.489276
 20
31.425612
 42
-0.144990
  0
VERTEX
  8
0
 10
86.137626
 20
30.717592
 42
-0.083947
  0
VERTEX
  8
0
 10
86.507156
 20
29.460765
 42
-0.018505
  0
SEQEND
  0
POLYLINE
  8
0
 66
1
 70
1
  0
VERTEX
  8
0
 10
94.500000
 20
31.000000
 42
-0.088250
  0
VERTEX
  8
0
 10
94.157656
 20
30.617164
 42
-0.053305
  0
VERTEX
  8
0
 10
93.640225
 20
30.293750
 42
-0.051278
  0
VERTEX
  8
0
 10
93.038022
 20
30.074167
 42
-0.061875
  0
VERTEX
  8
0
 10
92.440983
 20
30.000000
 42
0.133805
  0
VERTEX
  8
0
 10
91.377182
 20
29.710127
 42
0.304891
  0
VERTEX
  8
0
 10
91.034023
 20
28.994003
 42
0.234999
  0
VERTEX
  8
0
 10
91.563662
 20
28.230748
 42
0.109522
  0
VERTEX
  8
0
 10
92.750000
 20
27.883999
 42
-0.002113
  0
VERTEX
  8
0
 10
93.923939
 20
27.801199
 42
-0.392517
  0
VERTEX
  8
0
 10
94.000000
 20
27.719237
 42
-0.339035
  0
VERTEX
  8
0
 10
93.926177
 20
27.622879
 42
-0.001923
  0
VERTEX
  8
0
 10
92.750000
 20
27.310674
 42
0.086336
  0
VERTEX
  8
0
 10
91.543296
 20
26.760384
 42
0.212555
  0
VERTEX
  8
0
 10
91.043784
 20
25.948980
 42
0.309865
  0
VERTEX
  8
0
 10
91.386907
 20
25.270168
 42
0.126116
  0
VERTEX
  8
0
 10
92.440983
 20
25.000000
 42
-0.061875
  0
VERTEX
  8
0
 10
93.038022
 20
24.925833
 42
-0.051278
  0
VERTEX
  8
0
 10
93.640225
 20
24.706250
 42
-0.053305
  0
VERTEX
  8
0
 10
94.157656
 20
24.382836
 42
-0.088250
  0
VERTEX
  8
0
 10
94.500000
 20
24.000000
 42
-0.297719
  0
VERTEX
  8
0
 10
94.490145
 20
23.608231
 42
-0.145541
  0
VERTEX
  8
0
 10
94.083987
 20
23.281216
 42
-0.069343
  0
VERTEX
  8
0
 10
93.243706
 20
23.066344
 42
-0.027979
  0
VERTEX
  8
0
 10
92.059017
 20
23.000000
 42
-0.034351
  0
VERTEX
  8
0
 10
90.210243
 20
23.127164
 42
-0.212207
  0
VERTEX
  8
0
 10
89.419945
 20
23.617765
 42
-0.138005
  0
VERTEX
  8
0
 10
89.068645
 20
24.668167
 42
-0.012119
  0
VERTEX
  8
0
 10
89.000000
 20
27.500000
 42
-0.012119
  0
VERTEX
  8
0
 10
89.068645
 20
30.331833
 42
-0.138005
  0
VERTEX
  8
0
 10
89.419945
 20
31.382235
 42
-0.212207
  0
VERTEX
  8
0
 10
90.210243
 20
31.872836
 42
-0.034351
  0
VERTEX
  8
0
 10
92.059017
 20
32.000000
 42
-0.027979
  0
VERTEX
  8
0
 10
93.243706
 20
31.933656
 42
-0.069343
  0
VERTEX
  8
0
 10
94.083987
 20
31.718784
 42
-0.145541
  0
VERTEX
  8
0
 10
94.490145
 20
31.391769
 42
-0.297719
  0
SEQEND
  0
POLYLINE
  8
0
 66
1
 70
1
  0
VERTEX
  8
0
 10
100.902175
 20
28.850777
 42
-0.030298
  0
VERTEX
  8
0
 10
101.559110
 20
26.521117
 42
-0.032284
  0
VERTEX
  8
0
 10
101.912588
 20
24.177978
 42
-0.246232
  0
VERTEX
  8
0
 10
101.694755
 20
23.659402
 42
-0.507189
  0
VERTEX
  8
0
 10
101.337719
 20
23.750000
 42
0.196537
  0
VERTEX
  8
0
 10
100.478516
 20
24.633152
 42
0.098266
  0
VERTEX
  8
0
 10
98.929894
 20
24.971515
 42
0.115212
  0
VERTEX
  8
0
 10
97.533341
 20
24.673553
 42
0.290583
  0
VERTEX
  8
0
 10
97.000000
 20
23.833333
 42
-0.048042
  0
VERTEX
  8
0
 10
96.960592
 20
23.424138
 42
-0.143305
  0
VERTEX
  8
0
 10
96.832765
 20
23.176610
 42
-0.260519
  0
VERTEX
  8
0
 10
96.646122
 20
23.118931
 42
-0.144854
  0
VERTEX
  8
0
 10
96.430690
 20
23.235977
 42
-0.261485
  0
VERTEX
  8
0
 10
96.130254
 20
24.305363
 42
-0.013471
  0
VERTEX
  8
0
 10
97.103377
 20
27.897198
 42
-0.012744
  0
VERTEX
  8
0
 10
98.265467
 20
31.439434
 42
-0.317107
  0
VERTEX
  8
0
 10
99.060462
 20
32.000000
 42
-0.236593
  0
VERTEX
  8
0
 10
99.411903
 20
31.823842
 42
-0.028091
  0
VERTEX
  8
0
 10
99.908319
 20
31.074916
 42
-0.028733
  0
VERTEX
  8
0
 10
100.427491
 20
30.057217
 42
-0.019715
  0
SEQEND
  0
POLYLINE
  8
0
 66
1
 70
1
  0
VERTEX
  8
0
 10
108.000000
 20
31.000000
 42
-0.099038
  0
VERTEX
  8
0
 10
107.923658
 20
30.618362
 42
-0.097945
  0
VERTEX
  8
0
 10
107.706250
 20
30.293750
 42
-0.097945
  0
VERTEX
  8
0
 10
107.381638
 20
30.076342
 42
-0.099038
  0
VERTEX
  8
0
 10
107.000000
 20
30.000000
 42
0.278546
  0
VERTEX
  8
0
 10
106.603111
 20
29.760298
 42
0.046070
  0
VERTEX
  8
0
 10
106.246739
 20
28.898438
 42
0.039239
  0
VERTEX
  8
0
 10
105.973823
 20
27.686911
 42
0.025125
  0
VERTEX
  8
0
 10
105.839963
 20
26.250000
 42
0.000000
  0
VERTEX
  8
0
 10
105.679926
 20
22.500000
 42
0.000000
  0
VERTEX
  8
0
 10
105.261925
 20
25.946820
 42
0.038641
  0
VERTEX
  8
0
 10
104.978584
 20
27.359629
 42
0.035468
  0
VERTEX
  8
0
 10
104.475573
 20
28.754604
 42
0.037374
  0
VERTEX
  8
0
 10
103.843544
 20
29.934715
 42
0.088797
  0
VERTEX
  8
0
 10
103.171962
 20
30.665017
 42
-0.029372
  0
VERTEX
  8
0
 10
102.333992
 20
31.383613
 42
-0.447688
  0
VERTEX
  8
0
 10
102.347117
 20
31.723051
 42
-0.163846
  0
VERTEX
  8
0
 10
102.863308
 20
31.920584
 42
-0.007723
  0
VERTEX
  8
0
 10
104.750000
 20
31.968197
 42
-0.029150
  0
VERTEX
  8
0
 10
105.995212
 20
31.907760
 42
-0.045721
  0
VERTEX
  8
0
 10
107.045312
 20
31.696908
 42
-0.057782
  0
VERTEX
  8
0
 10
107.778208
 20
31.382742
 42
-0.268805
  0
SEQEND
  0
POLYLINE
  8
0
 66
1
 70
1
  0
VERTEX
  8
0
 10
115.000000
 20
31.000000
 42
-0.191087
  0
VERTEX
  8
0
 10
114.848523
 20
30.618118
 42
-0.088204
  0
VERTEX
  8
0
 10
114.412500
 20
30.293750
 42
-0.068025
  0
VERTEX
  8
0
 10
113.765418
 20
30.073693
 42
-0.048028
  0
VERTEX
  8
0
 10
113.000000
 20
30.000000
 42
0.087440
  0
VERTEX
  8
0
 10
111.502957
 20
29.736181
 42
0.347680
  0
VERTEX
  8
0
 10
111.045799
 20
28.995055
 42
0.278766
  0
VERTEX
  8
0
 10
111.655576
 20
28.209738
 42
0.076747
  0
VERTEX
  8
0
 10
113.250000
 20
27.863818
 42
0.000000
  0
VERTEX
  8
0
 10
115.500000
 20
27.727636
 42
0.000000
  0
VERTEX
  8
0
 10
113.250000
 20
27.294267
 42
0.064168
  0
VERTEX
  8
0
 10
111.634855
 20
26.761821
 42
0.259516
  0
VERTEX
  8
0
 10
111.056783
 20
25.945843
 42
0.352691
  0
VERTEX
  8
0
 10
111.506674
 20
25.243334
 42
0.080940
  0
VERTEX
  8
0
 10
113.000000
 20
25.000000
 42
-0.048028
  0
VERTEX
  8
0
 10
113.765418
 20
24.926307
 42
-0.068025
  0
VERTEX
  8
0
 10
114.412500
 20
24.706250
 42
-0.088204
  0
VERTEX
  8
0
 10
114.848523
 20
24.381882
 42
-0.191087
  0
VERTEX
  8
0
 10
115.000000
 20
24.000000
 42
-0.226478
  0
VERTEX
  8
0
 10
114.817169
 20
23.617064
 42
-0.074992
  0
VERTEX
  8
0
 10
114.265625
 20
23.293750
 42
-0.057076
  0
VERTEX
  8
0
 10
113.457356
 20
23.073116
 42
-0.038131
  0
VERTEX
  8
0
 10
112.500000
 20
23.000000
 42
-0.058662
  0
VERTEX
  8
0
 10
111.093239
 20
23.165617
 42
-0.210352
  0
VERTEX
  8
0
 10
110.388889
 20
23.700000
 42
-0.114574
  0
VERTEX
  8
0
 10
110.068074
 20
24.820113
 42
-0.012699
  0
VERTEX
  8
0
 10
110.000000
 20
27.500000
 42
-0.012699
  0
VERTEX
  8
0
 10
110.068074
 20
30.179887
 42
-0.114574
  0
VERTEX
  8
0
 10
110.388889
 20
31.300000
 42
-0.210352
  0
VERTEX
  8
0
 10
111.093239
 20
31.834383
 42
-0.058662
  0
VERTEX
  8
0
 10
112.500000
 20
32.000000
 42
-0.038131
  0
VERTEX
  8
0
 10
113.457356
 20
31.926884
 42
-0.057076
  0
VERTEX
  8
0
 10
114.265625
 20
31.706250
 42
-0.074992
  0
VERTEX
  8
0
 10
114.817169
 20
31.382936
 42
-0.226478
  0
SEQEND
  0
POLYLINE
  8
0
 66
1
 70
1
  0
VERTEX
  8
0
 10
120.000000
 20
25.000000
 42
0.115163
  0
VERTEX
  8
0
 10
120.918425
 20
25.214380
 42
0.141125
  0
VERTEX
  8
0
 10
121.567247
 20
25.805660
 42
0.085915
  0
VERTEX
  8
0
 10
122.006908
 20
26.906564
 42
0.023801
  0
VERTEX
  8
0
 10
122.306208
 20
28.750000
 42
-0.000867
  0
VERTEX
  8
0
 10
122.568284
 20
31.016954
 42
-0.773064
  0
VERTEX
  8
0
 10
122.636062
 20
31.026351
 42
-0.104439
  0
VERTEX
  8
0
 10
122.685336
 20
30.761940
 42
-0.000504
  0
VERTEX
  8
0
 10
122.616573
 20
28.000000
 42
-0.013267
  0
VERTEX
  8
0
 10
122.477257
 20
25.345314
 42
-0.112398
  0
VERTEX
  8
0
 10
122.123070
 20
24.211657
 42
-0.203355
  0
VERTEX
  8
0
 10
121.399877
 20
23.669963
 42
-0.060484
  0
VERTEX
  8
0
 10
120.000000
 20
23.500000
 42
-0.060484
  0
VERTEX
  8
0
 10
118.600123
 20
23.669963
 42
-0.203355
  0
VERTEX
  8
0
 10
117.876930
 20
24.211657
 42
-0.112398
  0
VERTEX
  8
0
 10
117.522743
 20
25.345314
 42
-0.013267
  0
VERTEX
  8
0
 10
117.383427
 20
28.000000
 42
-0.000504
  0
VERTEX
  8
0
 10
117.314664
 20
30.761940
 42
-0.104439
  0
VERTEX
  8
0
 10
117.363938
 20
31.026351
 42
-0.773064
  0
VERTEX
  8
0
 10
117.431716
 20
31.016954
 42
-0.000867
  0
VERTEX
  8
0
 10
117.693792
 20
28.750000
 42
0.023801
  0
VERTEX
  8
0
 10
117.993092
 20
26.906564
 42
0.085915
  0
VERTEX
  8
0
 10
118.432753
 20
25.805660
 42
0.141125
  0
VERTEX
  8
0
 10
119.081575
 20
25.214380
 42
0.115163
  0
SEQEND
  0
POLYLINE
  8
0
 66
1
 70
1
  0
VERTEX
  8
0
 10
130.563029
 20
27.172144
 42
0.000000
  0
VERTEX
  8
0
 10
130.626057
 20
22.844287
 42
0.000000
  0
VERTEX
  8
0
 10
128.835264
 20
25.172144
 42
0.018443
  0
VERTEX
  8
0
 10
128.137069
 20
26.013608
 42
0.039518
  0
VERTEX
  8
0
 10
127.527267
 20
26.595880
 42
0.073136
  0
VERTEX
  8
0
 10
127.092532
 20
26.854880
 42
0.473298
  0
VERTEX
  8
0
 10
126.897236
 20
26.750000
 42
0.005310
  0
VERTEX
  8
0
 10
126.831876
 20
26.397290
 42
0.002675
  0
VERTEX
  8
0
 10
126.756532
 20
25.951042
 42
0.002656
  0
VERTEX
  8
0
 10
126.683573
 20
25.488966
 42
0.003940
  0
VERTEX
  8
0
 10
126.625000
 20
25.083333
 42
-0.055489
  0
VERTEX
  8
0
 10
126.523023
 20
24.677860
 42
-0.031558
  0
VERTEX
  8
0
 10
126.316406
 20
24.215625
 42
-0.031142
  0
VERTEX
  8
0
 10
126.046350
 20
23.770882
 42
-0.044385
  0
VERTEX
  8
0
 10
125.750000
 20
23.416667
 42
-0.532472
  0
VERTEX
  8
0
 10
125.462634
 20
23.472879
 42
-0.053284
  0
VERTEX
  8
0
 10
125.220313
 20
24.277324
 42
-0.031622
  0
VERTEX
  8
0
 10
125.052685
 20
25.634449
 42
-0.014919
  0
VERTEX
  8
0
 10
125.000000
 20
27.399756
 42
-0.009736
  0
VERTEX
  8
0
 10
125.058330
 20
30.394952
 42
-0.130218
  0
VERTEX
  8
0
 10
125.378541
 20
31.437774
 42
-0.244668
  0
VERTEX
  8
0
 10
126.103174
 20
31.866238
 42
-0.042184
  0
VERTEX
  8
0
 10
127.750000
 20
31.816422
 42
-0.048882
  0
VERTEX
  8
0
 10
129.304180
 20
31.481512
 42
-0.181006
  0
VERTEX
  8
0
 10
130.078393
 20
30.870574
 42
-0.117424
  0
VERTEX
  8
0
 10
130.445959
 20
29.726338
 42
-0.015621
  0
SEQEND
  0
POLYLINE
  8
0
 66
1
 70
1
  0
VERTEX
  8
0
 10
140.800000
 20
30.800000
 42
-0.155225
  0
VERTEX
  8
0
 10
141.965617
 20
28.546813
 42
-0.134958
  0
VERTEX
  8
0
 10
141.702310
 20
25.892580
 42
-0.138244
  0
VERTEX
  8
0
 10
140.131204
 20
23.790858
 42
-0.165006
  0
VERTEX
  8
0
 10
137.800000
 20
23.000000
 42
-0.130595
  0
VERTEX
  8
0
 10
136.904061
 20
23.238071
 42
-0.169303
  0
VERTEX
  8
0
 10
136.350000
 20
23.875000
 42
-0.080495
  0
VERTEX
  8
0
 10
136.070298
 20
25.126596
 42
-0.014806
  0
VERTEX
  8
0
 10
136.000000
 20
27.500000
 42
-0.014806
  0
VERTEX
  8
0
 10
136.070298
 20
29.873404
 42
-0.080495
  0
VERTEX
  8
0
 10
136.350000
 20
31.125000
 42
-0.169303
  0
VERTEX
  8
0
 10
136.904061
 20
31.761929
 42
-0.130595
  0
VERTEX
  8
0
 10
137.800000
 20
32.000000
 42
-0.056383
  0
VERTEX
  8
0
 10
138.577103
 20
31.912090
 42
-0.038823
  0
VERTEX
  8
0
 10
139.423750
 20
31.647500
 42
-0.039117
  0
VERTEX
  8
0
 10
140.209158
 20
31.259641
 42
-0.062206
  0
SEQEND
  0
POLYLINE
  8
0
 66
1
 70
1
  0
VERTEX
  8
0
 10
149.000000
 20
31.000000
 42
-0.191087
  0
VERTEX
  8
0
 10
148.848523
 20
30.618118
 42
-0.088204
  0
VERTEX
  8
0
 10
148.412500
 20
30.293750
 42
-0.068025
  0
VERTEX
  8
0
 10
147.765418
 20
30.073693
 42
-0.048028
  0
VERTEX
  8
0
 10
147.000000
 20
30.000000
 42
0.087440
  0
VERTEX
  8
0
 10
145.502957
 20
29.736181
 42
0.347680
  0
VERTEX
  8
0
 10
145.045799
 20
28.995055
 42
0.278766
  0
VERTEX
  8
0
 10
145.655576
 20
28.209738
 42
0.076747
  0
VERTEX
  8
0
 10
147.250000
 20
27.863818
 42
0.000000
  0
VERTEX
  8
0
 10
149.500000
 20
27.727636
 42
0.000000
  0
VERTEX
  8
0
 10
147.250000
 20
27.294267
 42
0.064168
  0
VERTEX
  8
0
 10
145.634855
 20
26.761821
 42
0.259516
  0
VERTEX
  8
0
 10
145.056783
 20
25.945843
 42
0.352691
  0
VERTEX
  8
0
 10
145.506674
 20
25.243334
 42
0.080940
  0
VERTEX
  8
0
 10
147.000000
 20
25.000000
 42
-0.048028
  0
VERTEX
  8
0
 10
147.765418
 20
24.926307
 42
-0.068025
  0
VERTEX
  8
0
 10
148.412500
 20
24.706250
 42
-0.088204
  0
VERTEX
  8
0
 10
148.848523
 20
24.381882
 42
-0.191087
  0
VERTEX
  8
0
 10
149.000000
 20
24.000000
 42
-0.226478
  0
VERTEX
  8
0
 10
148.817169
 20
23.617064
 42
-0.074992
  0
VERTEX
  8
0
 10
148.265625
 20
23.293750
 42
-0.057076
  0
VERTEX
  8
0
 10
147.457356
 20
23.073116
 42
-0.038131
  0
VERTEX
  8
0
 10
146.500000
 20
23.000000
 42
-0.058662
  0
VERTEX
  8
0
 10
145.093239
 20
23.165617
 42
-0.210352
  0
VERTEX
  8
0
 10
144.388889
 20
23.700000
 42
-0.114574
  0
VERTEX
  8
0
 10
144.068074
 20
24.820113
 42
-0.012699
  0
VERTEX
  8
0
 10
144.000000
 20
27.500000
 42
-0.012699
  0
VERTEX
  8
0
 10
144.068074
 20
30.179887
 42
-0.114574
  0
VERTEX
  8
0
 10
144.388889
 20
31.300000
 42
-0.210352
  0
VERTEX
  8
0
 10
145.093239
 20
31.834383
 42
-0.058662
  0
VERTEX
  8
0
 10
146.500000
 20
32.000000
 42
-0.038131
  0
VERTEX
  8
0
 10
147.457356
 20
31.926884
 42
-0.057076
  0
VERTEX
  8
0
 10
148.265625
 20
31.706250
 42
-0.074992
  0
VERTEX
  8
0
 10
148.817169
 20
31.382936
 42
-0.226478
  0
SEQEND
  0
POLYLINE
  8
0
 66
1
 70
1
  0
VERTEX
  8
0
 10
159.000000
 20
30.500000
 42
-0.030163
  0
VERTEX
  8
0
 10
159.468844
 20
29.860221
 42
-0.113412
  0
VERTEX
  8
0
 10
159.636582
 20
29.395293
 42
-0.262590
  0
VERTEX
  8
0
 10
159.521202
 20
29.117132
 42
-0.167546
  0
VERTEX
  8
0
 10
159.181462
 20
29.000000
 42
-0.082044
  0
VERTEX
  8
0
 10
158.728193
 20
29.074880
 42
-0.053446
  0
VERTEX
  8
0
 10
158.245907
 20
29.298542
 42
-0.052251
  0
VERTEX
  8
0
 10
157.809010
 20
29.627532
 42
-0.066946
  0
VERTEX
  8
0
 10
157.489919
 20
30.016312
 42
0.201627
  0
VERTEX
  8
0
 10
156.694576
 20
30.583277
 42
0.267153
  0
VERTEX
  8
0
 10
155.862309
 20
30.325161
 42
0.128272
  0
VERTEX
  8
0
 10
155.212900
 20
29.115818
 42
0.059483
  0
VERTEX
  8
0
 10
155.000000
 20
27.332575
 42
0.031568
  0
VERTEX
  8
0
 10
155.089738
 20
25.912628
 42
0.211150
  0
VERTEX
  8
0
 10
155.446453
 20
25.320784
 42
0.191336
  0
VERTEX
  8
0
 10
156.149088
 20
25.153231
 42
0.025479
  0
VERTEX
  8
0
 10
157.674632
 20
25.454474
 42
-0.008057
  0
VERTEX
  8
0
 10
159.240652
 20
25.820802
 42
-0.199615
  0
VERTEX
  8
0
 10
159.668450
 20
25.742791
 42
-0.424788
  0
VERTEX
  8
0
 10
159.726299
 20
25.446770
 42
-0.020586
  0
VERTEX
  8
0
 10
159.052187
 20
24.562882
 42
-0.087059
  0
VERTEX
  8
0
 10
157.623134
 20
23.348436
 42
-0.183437
  0
VERTEX
  8
0
 10
156.209314
 20
23.108837
 42
-0.175793
  0
VERTEX
  8
0
 10
154.950028
 20
23.868828
 42
-0.079278
  0
VERTEX
  8
0
 10
153.975106
 20
25.565475
 42
-0.115306
  0
VERTEX
  8
0
 10
153.555862
 20
28.681921
 42
-0.176447
  0
VERTEX
  8
0
 10
154.717571
 20
31.116783
 42
-0.243724
  0
VERTEX
  8
0
 10
156.832754
 20
31.766915
 42
-0.176331
  0
SEQEND
  0
POLYLINE
  8
0
 66
1
 70
1
  0
VERTEX
  8
0
 10
166.810844
 20
27.733647
 42
-0.024203
  0
VERTEX
  8
0
 10
166.872111
 20
25.948744
 42
-0.067154
  0
VERTEX
  8
0
 10
166.687098
 20
24.709439
 42
-0.102785
  0
VERTEX
  8
0
 10
166.249677
 20
23.883703
 42
-0.128802
  0
VERTEX
  8
0
 10
165.548109
 20
23.380088
 42
-0.227506
  0
VERTEX
  8
0
 10
163.263279
 20
23.565540
 42
-0.157090
  0
VERTEX
  8
0
 10
161.501995
 20
25.530561
 42
-0.134429
  0
VERTEX
  8
0
 10
161.060813
 20
28.412831
 42
-0.169092
  0
VERTEX
  8
0
 10
162.229187
 20
30.829187
 42
-0.117243
  0
VERTEX
  8
0
 10
163.810089
 20
31.802754
 42
-0.232231
  0
VERTEX
  8
0
 10
165.234190
 20
31.605239
 42
-0.164535
  0
VERTEX
  8
0
 10
166.301266
 20
30.202912
 42
-0.060475
  0
SEQEND
  0
POLYLINE
  8
0
 66
1
 70
1
  0
VERTEX
  8
0
 10
171.376246
 20
29.251431
 42
0.000000
  0
VERTEX
  8
0
 10
172.816367
 20
26.502863
 42
0.000000
  0
VERTEX
  8
0
 10
174.068698
 20
29.251431
 42
-0.023601
  0
VERTEX
  8
0
 10
174.609638
 20
30.304013
 42
-0.032168
  0
VERTEX
  8
0
 10
175.199756
 20
31.192608
 42
-0.033468
  0
VERTEX
  8
0
 10
175.758889
 20
31.833397
 42
-0.199182
  0
VERTEX
  8
0
 10
176.160515
 20
32.000000
 42
-0.392785
  0
VERTEX
  8
0
 10
176.889464
 20
31.322897
 42
-0.023153
  0
VERTEX
  8
0
 10
176.979774
 20
28.029597
 42
-0.024390
  0
VERTEX
  8
0
 10
176.753027
 20
24.683084
 42
-0.229085
  0
VERTEX
  8
0
 10
176.000000
 20
23.500000
 42
-0.230717
  0
VERTEX
  8
0
 10
175.618668
 20
23.461710
 42
-0.170792
  0
VERTEX
  8
0
 10
175.287349
 20
23.736132
 42
-0.092155
  0
VERTEX
  8
0
 10
175.061146
 20
24.342709
 42
-0.041654
  0
VERTEX
  8
0
 10
174.984687
 20
25.190983
 42
0.011334
  0
VERTEX
  8
0
 10
174.948608
 20
26.422080
 42
0.215183
  0
VERTEX
  8
0
 10
174.776385
 20
26.756255
 42
0.409488
  0
VERTEX
  8
0
 10
174.505475
 20
26.727352
 42
0.024376
  0
VERTEX
  8
0
 10
173.965684
 20
26.000000
 42
-0.042323
  0
VERTEX
  8
0
 10
173.361511
 20
25.244101
 42
-0.242466
  0
VERTEX
  8
0
 10
172.892088
 20
25.080080
 42
-0.174996
  0
VERTEX
  8
0
 10
172.381086
 20
25.350078
 42
-0.021345
  0
VERTEX
  8
0
 10
171.555969
 20
26.338600
 42
0.016441
  0
VERTEX
  8
0
 10
170.674338
 20
27.416131
 42
0.351495
  0
VERTEX
  8
0
 10
170.295406
 20
27.483586
 42
0.225673
  0
VERTEX
  8
0
 10
170.020411
 20
27.104071
 42
0.008617
  0
VERTEX
  8
0
 10
169.724804
 20
25.338600
 42
-0.030301
  0
VERTEX
  8
0
 10
169.532129
 20
24.431285
 42
-0.752172
  0
VERTEX
  8
0
 10
169.369664
 20
24.429467
 42
-0.060218
  0
VERTEX
  8
0
 10
169.234869
 20
25.205832
 42
-0.005021
  0
VERTEX
  8
0
 10
169.149832
 20
27.250000
 42
-0.009237
  0
VERTEX
  8
0
 10
169.126044
 20
29.071280
 42
-0.015372
  0
VERTEX
  8
0
 10
169.181507
 20
30.604688
 42
-0.009133
  0
VERTEX
  8
0
 10
169.286661
 20
31.836453
 42
-0.384235
  0
VERTEX
  8
0
 10
169.468063
 20
32.000000
 42
-0.231006
  0
VERTEX
  8
0
 10
169.716270
 20
31.878861
 42
-0.013963
  0
VERTEX
  8
0
 10
170.221667
 20
31.192608
 42
-0.018578
  0
VERTEX
  8
0
 10
170.790475
 20
30.304606
 42
-0.012481
  0
SEQEND
  0
POLYLINE
  8
0
 66
1
 70
1
  0
VERTEX
  8
0
 10
183.963645
 20
30.543805
 42
-0.108829
  0
VERTEX
  8
0
 10
184.625472
 20
29.259792
 42
-0.193054
  0
VERTEX
  8
0
 10
184.482380
 20
28.095602
 42
-0.177268
  0
VERTEX
  8
0
 10
183.550367
 20
27.284422
 42
-0.091580
  0
VERTEX
  8
0
 10
182.010534
 20
27.000000
 42
0.098010
  0
VERTEX
  8
0
 10
181.212531
 20
26.842059
 42
0.095937
  0
VERTEX
  8
0
 10
180.527995
 20
26.391535
 42
0.087055
  0
VERTEX
  8
0
 10
180.012516
 20
25.675189
 42
0.065043
  0
VERTEX
  8
0
 10
179.705733
 20
24.750000
 42
-0.200632
  0
VERTEX
  8
0
 10
179.531558
 20
24.487763
 42
-0.525484
  0
VERTEX
  8
0
 10
179.359663
 20
24.556250
 42
-0.039868
  0
VERTEX
  8
0
 10
179.215645
 20
25.547331
 42
-0.008987
  0
VERTEX
  8
0
 10
179.136182
 20
27.250000
 42
-0.012437
  0
VERTEX
  8
0
 10
179.126288
 20
29.861155
 42
-0.082765
  0
VERTEX
  8
0
 10
179.366432
 20
31.135662
 42
-0.187088
  0
VERTEX
  8
0
 10
179.920774
 20
31.766059
 42
-0.120480
  0
VERTEX
  8
0
 10
180.877555
 20
32.000000
 42
-0.065891
  0
VERTEX
  8
0
 10
181.685039
 20
31.893125
 42
-0.044454
  0
VERTEX
  8
0
 10
182.558586
 20
31.572243
 42
-0.044401
  0
VERTEX
  8
0
 10
183.363123
 20
31.101256
 42
-0.065017
  0
SEQEND
  0
POLYLINE
  8
0
 66
1
 70
1
  0
VERTEX
  8
0
 10
191.450000
 20
31.097065
 42
-0.056281
  0
VERTEX
  8
0
 10
190.945999
 20
30.715858
 42
-0.023423
  0
VERTEX
  8
0
 10
190.191563
 20
30.315115
 42
-0.022817
  0
VERTEX
  8
0
 10
189.335388
 20
29.957346
 42
-0.027362
  0
VERTEX
  8
0
 10
188.500000
 20
29.703062
 42
0.010020
  0
VERTEX
  8
0
 10
187.294698
 20
29.381379
 42
0.427579
  0
VERTEX
  8
0
 10
187.183691
 20
29.169107
 42
0.233289
  0
VERTEX
  8
0
 10
187.411862
 20
28.940592
 42
0.005235
  0
VERTEX
  8
0
 10
188.926261
 20
28.443273
 42
0.000000
  0
VERTEX
  8
0
 10
191.352521
 20
27.674551
 42
0.000000
  0
VERTEX
  8
0
 10
188.926261
 20
26.684955
 42
0.005739
  0
VERTEX
  8
0
 10
187.410680
 20
26.046411
 42
0.221441
  0
VERTEX
  8
0
 10
187.173219
 20
25.778230
 42
0.420494
  0
VERTEX
  8
0
 10
187.301170
 20
25.547987
 42
0.012167
  0
VERTEX
  8
0
 10
188.500000
 20
25.250615
 42
-0.032306
  0
VERTEX
  8
0
 10
190.719213
 20
24.604292
 42
-0.234477
  0
VERTEX
  8
0
 10
191.463813
 20
23.824278
 42
-0.444650
  0
VERTEX
  8
0
 10
191.086567
 20
23.188102
 42
-0.049730
  0
VERTEX
  8
0
 10
189.200000
 20
23.000000
 42
-0.030449
  0
VERTEX
  8
0
 10
187.236824
 20
23.119664
 42
-0.210764
  0
VERTEX
  8
0
 10
186.427778
 20
23.601562
 42
-0.143449
  0
VERTEX
  8
0
 10
186.069037
 20
24.638107
 42
-0.012060
  0
VERTEX
  8
0
 10
186.000000
 20
27.500000
 42
-0.012060
  0
VERTEX
  8
0
 10
186.069037
 20
30.361893
 42
-0.143449
  0
VERTEX
  8
0
 10
186.427778
 20
31.398438
 42
-0.210764
  0
VERTEX
  8
0
 10
187.236824
 20
31.880336
 42
-0.030449
  0
VERTEX
  8
0
 10
189.200000
 20
32.000000
 42
-0.021723
  0
VERTEX
  8
0
 10
190.466305
 20
31.944958
 42
-0.073822
  0
VERTEX
  8
0
 10
191.267869
 20
31.753677
 42
-0.226289
  0
VERTEX
  8
0
 10
191.543467
 20
31.454312
 42
-0.284794
  0
SEQEND
  0
POLYLINE
  8
0
 66
1
 70
1
  0
VERTEX
  8
0
 10
197.828038
 20
30.665017
 42
0.088797
  0
VERTEX
  8
0
 10
197.156456
 20
29.934715
 42
0.037374
  0
VERTEX
  8
0
 10
196.524427
 20
28.754604
 42
0.035468
  0
VERTEX
  8
0
 10
196.021416
 20
27.359629
 42
0.038641
  0
VERTEX
  8
0
 10
195.738075
 20
25.946820
 42
0.000000
  0
VERTEX
  8
0
 10
195.320074
 20
22.500000
 42
0.000000
  0
VERTEX
  8
0
 10
195.160037
 20
26.250000
 42
0.025125
  0
VERTEX
  8
0
 10
195.026177
 20
27.686911
 42
0.039239
  0
VERTEX
  8
0
 10
194.753261
 20
28.898438
 42
0.046070
  0
VERTEX
  8
0
 10
194.396889
 20
29.760298
 42
0.278546
  0
VERTEX
  8
0
 10
194.000000
 20
30.000000
 42
-0.099038
  0
VERTEX
  8
0
 10
193.618362
 20
30.076342
 42
-0.097945
  0
VERTEX
  8
0
 10
193.293750
 20
30.293750
 42
-0.097945
  0
VERTEX
  8
0
 10
193.076342
 20
30.618362
 42
-0.099038
  0
VERTEX
  8
0
 10
193.000000
 20
31.000000
 42
-0.268805
  0
VERTEX
  8
0
 10
193.221792
 20
31.382742
 42
-0.057782
  0
VERTEX
  8
0
 10
193.954688
 20
31.696908
 42
-0.045721
  0
VERTEX
  8
0
 10
195.004788
 20
31.907760
 42
-0.029150
  0
VERTEX
  8
0
 10
196.250000
 20
31.968197
 42
-0.007723
  0
VERTEX
  8
0
 10
198.136692
 20
31.920584
 42
-0.163846
  0
VERTEX
  8
0
 10
198.652883
 20
31.723051
 42
-0.447688
  0
VERTEX
  8
0
 10
198.666008
 20
31.383613
 42
-0.029372
  0
SEQEND
  0
POLYLINE
  8
0
 66
1
 70
1
  0
VERTEX
  8
0
 10
205.000000
 20
31.069551
 42
-0.198959
  0
VERTEX
  8
0
 10
204.840394
 20
30.684324
 42
-0.063208
  0
VERTEX
  8
0
 10
204.339063
 20
30.296063
 42
-0.051776
  0
VERTEX
  8
0
 10
203.611329
 20
29.962955
 42
-0.037904
  0
VERTEX
  8
0
 10
202.750000
 20
29.742988
 42
0.006163
  0
VERTEX
  8
0
 10
201.235924
 20
29.457150
 42
0.404164
  0
VERTEX
  8
0
 10
201.097909
 20
29.257006
 42
0.248474
  0
VERTEX
  8
0
 10
201.283464
 20
29.013713
 42
0.003569
  0
VERTEX
  8
0
 10
203.000000
 20
28.236823
 42
-0.002547
  0
VERTEX
  8
0
 10
204.699046
 20
27.472029
 42
-0.237529
  0
VERTEX
  8
0
 10
204.863599
 20
27.267004
 42
-0.462888
  0
VERTEX
  8
0
 10
204.749798
 20
27.119500
 42
-0.004616
  0
VERTEX
  8
0
 10
203.250000
 20
27.063386
 42
0.077826
  0
VERTEX
  8
0
 10
201.657506
 20
26.767833
 42
0.285223
  0
VERTEX
  8
0
 10
201.043182
 20
26.002319
 42
0.349479
  0
VERTEX
  8
0
 10
201.498472
 20
25.262794
 42
0.086849
  0
VERTEX
  8
0
 10
203.000000
 20
25.000000
 42
-0.048028
  0
VERTEX
  8
0
 10
203.765418
 20
24.926307
 42
-0.068025
  0
VERTEX
  8
0
 10
204.412500
 20
24.706250
 42
-0.088204
  0
VERTEX
  8
0
 10
204.848523
 20
24.381882
 42
-0.191087
  0
VERTEX
  8
0
 10
205.000000
 20
24.000000
 42
-0.226478
  0
VERTEX
  8
0
 10
204.817169
 20
23.617064
 42
-0.074992
  0
VERTEX
  8
0
 10
204.265625
 20
23.293750
 42
-0.057076
  0
VERTEX
  8
0
 10
203.457356
 20
23.073116
 42
-0.038131
  0
VERTEX
  8
0
 10
202.500000
 20
23.000000
 42
-0.058662
  0
VERTEX
  8
0
 10
201.093239
 20
23.165617
 42
-0.210352
  0
VERTEX
  8
0
 10
200.388889
 20
23.700000
 42
-0.114574
  0
VERTEX
  8
0
 10
200.068074
 20
24.820113
 42
-0.012699
  0
VERTEX
  8
0
 10
200.000000
 20
27.500000
 42
-0.012699
  0
VERTEX
  8
0
 10
200.068074
 20
30.179887
 42
-0.114574
  0
VERTEX
  8
0
 10
200.388889
 20
31.300000
 42
-0.210352
  0
VERTEX
  8
0
 10
201.093239
 20
31.834383
 42
-0.058662
  0
VERTEX
  8
0
 10
202.500000
 20
32.000000
 42
-0.035408
  0
VERTEX
  8
0
 10
203.457508
 20
31.932109
 42
-0.053733
  0
VERTEX
  8
0
 10
204.265625
 20
31.726681
 42
-0.070209
  0
VERTEX
  8
0
 10
204.820103
 20
31.426295
 42
-0.237871
  0
SEQEND
  0
POLYLINE
  8
0
 66
1
 70
1
  0
VERTEX
  8
0
 10
210.241774
 20
29.250000
 42
0.004457
  0
VERTEX
  8
0
 10
211.337830
 20
27.516863
 42
0.173125
  0
VERTEX
  8
0
 10
211.694433
 20
27.242880
 42
0.486787
  0
VERTEX
  8
0
 10
211.919488
 20
27.394801
 42
0.014710
  0
VERTEX
  8
0
 10
211.973391
 20
28.690983
 42
-0.041397
  0
VERTEX
  8
0
 10
212.057525
 20
29.574967
 42
-0.043215
  0
VERTEX
  8
0
 10
212.285933
 20
30.419912
 42
-0.047210
  0
VERTEX
  8
0
 10
212.614078
 20
31.108447
 42
-0.120106
  0
VERTEX
  8
0
 10
213.000000
 20
31.500000
 42
-0.397171
  0
VERTEX
  8
0
 10
213.407294
 20
31.416353
 42
-0.091154
  0
VERTEX
  8
0
 10
213.729054
 20
30.715335
 42
-0.045191
  0
VERTEX
  8
0
 10
213.937148
 20
29.410761
 42
-0.016966
  0
VERTEX
  8
0
 10
214.000000
 20
27.559017
 42
-0.016654
  0
VERTEX
  8
0
 10
213.887566
 20
24.184351
 42
-0.254063
  0
VERTEX
  8
0
 10
213.283997
 20
23.230586
 42
-0.371501
  0
VERTEX
  8
0
 10
212.374807
 20
23.417170
 42
-0.025503
  0
VERTEX
  8
0
 10
210.758226
 20
25.750000
 42
0.000000
  0
VERTEX
  8
0
 10
209.053219
 20
28.500000
 42
0.000000
  0
VERTEX
  8
0
 10
209.026609
 20
25.750000
 42
-0.034558
  0
VERTEX
  8
0
 10
208.943476
 20
24.696714
 42
-0.052408
  0
VERTEX
  8
0
 10
208.714067
 20
23.807813
 42
-0.067969
  0
VERTEX
  8
0
 10
208.385538
 20
23.196337
 42
-0.239965
  0
VERTEX
  8
0
 10
208.000000
 20
23.000000
 42
-0.310520
  0
VERTEX
  8
0
 10
207.611488
 20
23.267028
 42
-0.036969
  0
VERTEX
  8
0
 10
207.293750
 20
24.321875
 42
-0.033738
  0
VERTEX
  8
0
 10
207.072283
 20
25.775243
 42
-0.020945
  0
VERTEX
  8
0
 10
207.000000
 20
27.500000
 42
-0.016999
  0
VERTEX
  8
0
 10
207.113376
 20
30.833780
 42
-0.257422
  0
VERTEX
  8
0
 10
207.718333
 20
31.773674
 42
-0.367699
  0
VERTEX
  8
0
 10
208.628191
 20
31.580021
 42
-0.025350
  0
SEQEND
  0
POLYLINE
  8
0
 66
1
 70
1
  0
VERTEX
  8
0
 10
221.000000
 20
30.500000
 42
-0.030163
  0
VERTEX
  8
0
 10
221.468844
 20
29.860221
 42
-0.113412
  0
VERTEX
  8
0
 10
221.636582
 20
29.395293
 42
-0.262590
  0
VERTEX
  8
0
 10
221.521202
 20
29.117132
 42
-0.167546
  0
VERTEX
  8
0
 10
221.181462
 20
29.000000
 42
-0.082044
  0
VERTEX
  8
0
 10
220.728193
 20
29.074880
 42
-0.053446
  0
VERTEX
  8
0
 10
220.245907
 20
29.298542
 42
-0.052251
  0
VERTEX
  8
0
 10
219.809010
 20
29.627532
 42
-0.066946
  0
VERTEX
  8
0
 10
219.489919
 20
30.016312
 42
0.201627
  0
VERTEX
  8
0
 10
218.694576
 20
30.583277
 42
0.267153
  0
VERTEX
  8
0
 10
217.862309
 20
30.325161
 42
0.128272
  0
VERTEX
  8
0
 10
217.212900
 20
29.115818
 42
0.059483
  0
VERTEX
  8
0
 10
217.000000
 20
27.332575
 42
0.031568
  0
VERTEX
  8
0
 10
217.089738
 20
25.912628
 42
0.211150
  0
VERTEX
  8
0
 10
217.446453
 20
25.320784
 42
0.191336
  0
VERTEX
  8
0
 10
218.149088
 20
25.153231
 42
0.025479
  0
VERTEX
  8
0
 10
219.674632
 20
25.454474
 42
-0.008057
  0
VERTEX
  8
0
 10
221.240652
 20
25.820802
 42
-0.199615
  0
VERTEX
  8
0
 10
221.668450
 20
25.742791
 42
-0.424788
  0
VERTEX
  8
0
 10
221.726299
 20
25.446770
 42
-0.020586
  0
VERTEX
  8
0
 10
221.052187
 20
24.562882
 42
-0.086927
  0
VERTEX
  8
0
 10
219.647054
 20
23.368132
 42
-0.173348
  0
VERTEX
  8
0
 10
218.231602
 20
23.098920
 42
-0.167950
  0
VERTEX
  8
0
 10
216.934503
 20
23.787666
 42
-0.080761
  0
VERTEX
  8
0
 10
215.875680
 20
25.373507
 42
-0.131939
  0
VERTEX
  8
0
 10
215.367330
 20
28.423318
 42
-0.173713
  0
VERTEX
  8
0
 10
216.562565
 20
30.954320
 42
-0.231514
  0
VERTEX
  8
0
 10
218.781175
 20
31.715733
 42
-0.190676
  0
SEQEND
  0
POLYLINE
  8
0
 66
1
 70
1
  0
VERTEX
  8
0
 10
228.500000
 20
31.000000
 42
-0.088250
  0
VERTEX
  8
0
 10
228.157656
 20
30.617164
 42
-0.053305
  0
VERTEX
  8
0
 10
227.640225
 20
30.293750
 42
-0.051278
  0
VERTEX
  8
0
 10
227.038022
 20
30.074167
 42
-0.061875
  0
VERTEX
  8
0
 10
226.440983
 20
30.000000
 42
0.133805
  0
VERTEX
  8
0
 10
225.377182
 20
29.710127
 42
0.304891
  0
VERTEX
  8
0
 10
225.034023
 20
28.994003
 42
0.234999
  0
VERTEX
  8
0
 10
225.563662
 20
28.230748
 42
0.109522
  0
VERTEX
  8
0
 10
226.750000
 20
27.883999
 42
-0.002113
  0
VERTEX
  8
0
 10
227.923939
 20
27.801199
 42
-0.392517
  0
VERTEX
  8
0
 10
228.000000
 20
27.719237
 42
-0.339035
  0
VERTEX
  8
0
 10
227.926177
 20
27.622879
 42
-0.001923
  0
VERTEX
  8
0
 10
226.750000
 20
27.310674
 42
0.086336
  0
VERTEX
  8
0
 10
225.543296
 20
26.760384
 42
0.212555
  0
VERTEX
  8
0
 10
225.043784
 20
25.948980
 42
0.309865
  0
VERTEX
  8
0
 10
225.386907
 20
25.270168
 42
0.126116
  0
VERTEX
  8
0
 10
226.440983
 20
25.000000
 42
-0.061875
  0
VERTEX
  8
0
 10
227.038022
 20
24.925833
 42
-0.051278
  0
VERTEX
  8
0
 10
227.640225
 20
24.706250
 42
-0.053305
  0
VERTEX
  8
0
 10
228.157656
 20
24.382836
 42
-0.088250
  0
VERTEX
  8
0
 10
228.500000
 20
24.000000
 42
-0.297719
  0
VERTEX
  8
0
 10
228.490145
 20
23.608231
 42
-0.145541
  0
VERTEX
  8
0
 10
228.083987
 20
23.281216
 42
-0.069343
  0
VERTEX
  8
0
 10
227.243706
 20
23.066344
 42
-0.027979
  0
VERTEX
  8
0
 10
226.059017
 20
23.000000
 42
-0.034351
  0
VERTEX
  8
0
 10
224.210243
 20
23.127164
 42
-0.212207
  0
VERTEX
  8
0
 10
223.419945
 20
23.617765
 42
-0.138005
  0
VERTEX
  8
0
 10
223.068645
 20
24.668167
 42
-0.012119
  0
VERTEX
  8
0
 10
223.000000
 20
27.500000
 42
-0.012119
  0
VERTEX
  8
0
 10
223.068645
 20
30.331833
 42
-0.138005
  0
VERTEX
  8
0
 10
223.419945
 20
31.382235
 42
-0.212207
  0
VERTEX
  8
0
 10
224.210243
 20
31.872836
 42
-0.034351
  0
VERTEX
  8
0
 10
226.059017
 20
32.000000
 42
-0.027979
  0
VERTEX
  8
0
 10
227.243706
 20
31.933656
 42
-0.069343
  0
VERTEX
  8
0
 10
228.083987
 20
31.718784
 42
-0.145541
  0
VERTEX
  8
0
 10
228.490145
 20
31.391769
 42
-0.297719
  0
SEQEND
  0
POLYLINE
  8
0
 66
1
 70
1
  0
VERTEX
  8
0
 10
235.000000
 20
31.031385
 42
-0.170338
  0
VERTEX
  8
0
 10
234.886291
 20
30.707295
 42
-0.150241
  0
VERTEX
  8
0
 10
234.589088
 20
30.504982
 42
-0.106442
  0
VERTEX
  8
0
 10
234.136572
 20
30.465361
 42
-0.060487
  0
VERTEX
  8
0
 10
233.601151
 20
30.599558
 42
0.078298
  0
VERTEX
  8
0
 10
233.016916
 20
30.724164
 42
0.076935
  0
VERTEX
  8
0
 10
232.418949
 20
30.664340
 42
0.081899
  0
VERTEX
  8
0
 10
231.899378
 20
30.434357
 42
0.109705
  0
VERTEX
  8
0
 10
231.540976
 20
30.066301
 42
0.224191
  0
VERTEX
  8
0
 10
231.486048
 20
29.580048
 42
0.105423
  0
VERTEX
  8
0
 10
231.818108
 20
29.024416
 42
0.072083
  0
VERTEX
  8
0
 10
232.498924
 20
28.475960
 42
0.042751
  0
VERTEX
  8
0
 10
233.439826
 20
28.022878
 42
-0.091832
  0
VERTEX
  8
0
 10
235.094912
 20
27.016152
 42
-0.155622
  0
VERTEX
  8
0
 10
235.910800
 20
25.631304
 42
-0.204771
  0
VERTEX
  8
0
 10
235.667980
 20
24.299314
 42
-0.156282
  0
VERTEX
  8
0
 10
234.500000
 20
23.361626
 42
-0.068545
  0
VERTEX
  8
0
 10
233.798461
 20
23.197713
 42
-0.039110
  0
VERTEX
  8
0
 10
232.926563
 20
23.185092
 42
-0.038254
  0
VERTEX
  8
0
 10
232.030141
 20
23.311578
 42
-0.051053
  0
VERTEX
  8
0
 10
231.250000
 20
23.568952
 42
-0.014170
  0
VERTEX
  8
0
 10
230.272589
 20
24.039913
 42
-0.392267
  0
VERTEX
  8
0
 10
230.184188
 20
24.285290
 42
-0.245429
  0
VERTEX
  8
0
 10
230.437676
 20
24.493484
 42
-0.008269
  0
VERTEX
  8
0
 10
231.750000
 20
24.745492
 42
0.071440
  0
VERTEX
  8
0
 10
233.227536
 20
25.228292
 42
0.194343
  0
VERTEX
  8
0
 10
233.946843
 20
26.034600
 42
0.371636
  0
VERTEX
  8
0
 10
233.684269
 20
26.717433
 42
0.123638
  0
VERTEX
  8
0
 10
232.559017
 20
27.000000
 42
-0.118476
  0
VERTEX
  8
0
 10
231.363680
 20
27.287269
 42
-0.137944
  0
VERTEX
  8
0
 10
230.507881
 20
28.077940
 42
-0.130245
  0
VERTEX
  8
0
 10
230.159436
 20
29.238216
 42
-0.100112
  0
VERTEX
  8
0
 10
230.380002
 20
30.547887
 42
-0.191631
  0
VERTEX
  8
0
 10
231.256959
 20
31.498573
 42
-0.085904
  0
VERTEX
  8
0
 10
232.920971
 20
31.969258
 42
-0.104482
  0
VERTEX
  8
0
 10
234.431900
 20
31.811652
 42
-0.325477
  0
SEQEND
  0
POLYLINE
  8
0
 66
1
 70
1
  0
VERTEX
  8
0
 10
83.000000
 20
29.000000
 42
0.148195
  0
VERTEX
  8
0
 10
83.115568
 20
28.618646
 42
0.098894
  0
VERTEX
  8
0
 10
83.440625
 20
28.293750
 42
0.082425
  0
VERTEX
  8
0
 10
83.926543
 20
28.074694
 42
0.064853
  0
VERTEX
  8
0
 10
84.500000
 20
28.000000
 42
0.064853
  0
VERTEX
  8
0
 10
85.073457
 20
28.074694
 42
0.082425
  0
VERTEX
  8
0
 10
85.559375
 20
28.293750
 42
0.098894
  0
VERTEX
  8
0
 10
85.884432
 20
28.618646
 42
0.148195
  0
VERTEX
  8
0
 10
86.000000
 20
29.000000
 42
0.148195
  0
VERTEX
  8
0
 10
85.884432
 20
29.381354
 42
0.098894
  0
VERTEX
  8
0
 10
85.559375
 20
29.706250
 42
0.082425
  0
VERTEX
  8
0
 10
85.073457
 20
29.925306
 42
0.064853
  0
VERTEX
  8
0
 10
84.500000
 20
30.000000
 42
0.064853
  0
VERTEX
  8
0
 10
83.926543
 20
29.925306
 42
0.082425
  0
VERTEX
  8
0
 10
83.440625
 20
29.706250
 42
0.098894
  0
VERTEX
  8
0
 10
83.115568
 20
29.381354
 42
0.148195
  0
SEQEND
  0
POLYLINE
  8
0
 66
1
 70
1
  0
VERTEX
  8
0
 10
98.582949
 20
28.134215
 42
0.052326
  0
VERTEX
  8
0
 10
98.327923
 20
27.604943
 42
0.061761
  0
VERTEX
  8
0
 10
98.206090
 20
27.062910
 42
0.072310
  0
VERTEX
  8
0
 10
98.228156
 20
26.590120
 42
0.149701
  0
VERTEX
  8
0
 10
98.399864
 20
26.266802
 42
0.208213
  0
VERTEX
  8
0
 10
99.031223
 20
26.018401
 42
0.228122
  0
VERTEX
  8
0
 10
99.610436
 20
26.323111
 42
0.143258
  0
VERTEX
  8
0
 10
99.913564
 20
27.144952
 42
0.097944
  0
VERTEX
  8
0
 10
99.787251
 20
28.138246
 42
0.033951
  0
VERTEX
  8
0
 10
99.536207
 20
28.749629
 42
0.286646
  0
VERTEX
  8
0
 10
99.294341
 20
28.899578
 42
0.233206
  0
VERTEX
  8
0
 10
99.012891
 20
28.759582
 42
0.024362
  0
SEQEND
  0
POLYLINE
  8
0
 66
1
 70
1
  0
VERTEX
  8
0
 10
126.500000
 20
29.000000
 42
0.088250
  0
VERTEX
  8
0
 10
126.842344
 20
28.617164
 42
0.053305
  0
VERTEX
  8
0
 10
127.359775
 20
28.293750
 42
0.051278
  0
VERTEX
  8
0
 10
127.961978
 20
28.074167
 42
0.061875
  0
VERTEX
  8
0
 10
128.559017
 20
28.000000
 42
0.067639
  0
VERTEX
  8
0
 10
129.109818
 20
28.074854
 42
0.084330
  0
VERTEX
  8
0
 10
129.576711
 20
28.293750
 42
0.099650
  0
VERTEX
  8
0
 10
129.888931
 20
28.618660
 42
0.142666
  0
VERTEX
  8
0
 10
130.000000
 20
29.000000
 42
0.195654
  0
VERTEX
  8
0
 10
129.844577
 20
29.381985
 42
0.086673
  0
VERTEX
  8
0
 10
129.395164
 20
29.706250
 42
0.066561
  0
VERTEX
  8
0
 10
128.729059
 20
29.926392
 42
0.046600
  0
VERTEX
  8
0
 10
127.940983
 20
30.000000
 42
0.047867
  0
VERTEX
  8
0
 10
127.195401
 20
29.928459
 42
0.104212
  0
VERTEX
  8
0
 10
126.668350
 20
29.706250
 42
0.181468
  0
VERTEX
  8
0
 10
126.441401
 20
29.378123
 42
0.202618
  0
SEQEND
  0
POLYLINE
  8
0
 66
1
 70
1
  0
VERTEX
  8
0
 10
137.000000
 20
27.500000
 42
0.108196
  0
VERTEX
  8
0
 10
137.357153
 20
25.868832
 42
0.223085
  0
VERTEX
  8
0
 10
138.333223
 20
25.045518
 42
0.248588
  0
VERTEX
  8
0
 10
139.499557
 20
25.313165
 42
0.123502
  0
VERTEX
  8
0
 10
140.396256
 20
26.590242
 42
0.080341
  0
VERTEX
  8
0
 10
140.678520
 20
27.940547
 42
0.142552
  0
VERTEX
  8
0
 10
140.413188
 20
29.036835
 42
0.158361
  0
VERTEX
  8
0
 10
139.631280
 20
29.745108
 42
0.105871
  0
VERTEX
  8
0
 10
138.440983
 20
30.000000
 42
0.152080
  0
VERTEX
  8
0
 10
137.856992
 20
29.818168
 42
0.111514
  0
VERTEX
  8
0
 10
137.394098
 20
29.316268
 42
0.083213
  0
VERTEX
  8
0
 10
137.097720
 20
28.521252
 42
0.047734
  0
SEQEND
  0
POLYLINE
  8
0
 66
1
 70
1
  0
VERTEX
  8
0
 10
162.380002
 20
28.547887
 42
0.100112
  0
VERTEX
  8
0
 10
162.159436
 20
27.238216
 42
0.130245
  0
VERTEX
  8
0
 10
162.507881
 20
26.077940
 42
0.137944
  0
VERTEX
  8
0
 10
163.363680
 20
25.287269
 42
0.118476
  0
VERTEX
  8
0
 10
164.559017
 20
25.000000
 42
0.152080
  0
VERTEX
  8
0
 10
165.143008
 20
25.181832
 42
0.111514
  0
VERTEX
  8
0
 10
165.605902
 20
25.683732
 42
0.083213
  0
VERTEX
  8
0
 10
165.902280
 20
26.478748
 42
0.047734
  0
VERTEX
  8
0
 10
166.000000
 20
27.500000
 42
0.120661
  0
VERTEX
  8
0
 10
165.604550
 20
29.114826
 42
0.204977
  0
VERTEX
  8
0
 10
164.545869
 20
29.981713
 42
0.233581
  0
VERTEX
  8
0
 10
163.301726
 20
29.758962
 42
0.143037
  0
SEQEND
  0
POLYLINE
  8
0
 66
1
 70
1
  0
VERTEX
  8
0
 10
180.000000
 20
29.000000
 42
0.148195
  0
VERTEX
  8
0
 10
180.115568
 20
28.618646
 42
0.098894
  0
VERTEX
  8
0
 10
180.440625
 20
28.293750
 42
0.082425
  0
VERTEX
  8
0
 10
180.926543
 20
28.074694
 42
0.064853
  0
VERTEX
  8
0
 10
181.500000
 20
28.000000
 42
0.064853
  0
VERTEX
  8
0
 10
182.073457
 20
28.074694
 42
0.082425
  0
VERTEX
  8
0
 10
182.559375
 20
28.293750
 42
0.098894
  0
VERTEX
  8
0
 10
182.884432
 20
28.618646
 42
0.148195
  0
VERTEX
  8
0
 10
183.000000
 20
29.000000
 42
0.148195
  0
VERTEX
  8
0
 10
182.884432
 20
29.381354
 42
0.098894
  0
VERTEX
  8
0
 10
182.559375
 20
29.706250
 42
0.082425
  0
VERTEX
  8
0
 10
182.073457
 20
29.925306
 42
0.064853
  0
VERTEX
  8
0
 10
181.500000
 20
30.000000
 42
0.064853
  0
VERTEX
  8
0
 10
180.926543
 20
29.925306
 42
0.082425
  0
VERTEX
  8
0
 10
180.440625
 20
29.706250
 42
0.098894
  0
VERTEX
  8
0
 10
180.115568
 20
29.381354
 42
0.148195
  0
SEQEND
  0
ENDSEC
  0
EOF
